G04 #@! TF.GenerationSoftware,KiCad,Pcbnew,5.0.1*
G04 #@! TF.CreationDate,2019-03-15T16:12:09-04:00*
G04 #@! TF.ProjectId,nu.ai_motor_controller,6E752E61695F6D6F746F725F636F6E74,rev?*
G04 #@! TF.SameCoordinates,Original*
G04 #@! TF.FileFunction,Copper,L4,Bot,Signal*
G04 #@! TF.FilePolarity,Positive*
%FSLAX46Y46*%
G04 Gerber Fmt 4.6, Leading zero omitted, Abs format (unit mm)*
G04 Created by KiCad (PCBNEW 5.0.1) date Fri Mar 15 16:12:09 2019*
%MOMM*%
%LPD*%
G01*
G04 APERTURE LIST*
G04 #@! TA.AperFunction,NonConductor*
%ADD10C,0.300000*%
G04 #@! TD*
G04 #@! TA.AperFunction,NonConductor*
%ADD11C,0.150000*%
G04 #@! TD*
G04 #@! TA.AperFunction,Conductor*
%ADD12C,0.100000*%
G04 #@! TD*
G04 #@! TA.AperFunction,SMDPad,CuDef*
%ADD13C,0.875000*%
G04 #@! TD*
G04 #@! TA.AperFunction,ComponentPad*
%ADD14C,1.600000*%
G04 #@! TD*
G04 #@! TA.AperFunction,ComponentPad*
%ADD15R,1.600000X1.600000*%
G04 #@! TD*
G04 #@! TA.AperFunction,SMDPad,CuDef*
%ADD16R,0.700000X1.000000*%
G04 #@! TD*
G04 #@! TA.AperFunction,SMDPad,CuDef*
%ADD17C,0.975000*%
G04 #@! TD*
G04 #@! TA.AperFunction,ComponentPad*
%ADD18O,1.700000X1.700000*%
G04 #@! TD*
G04 #@! TA.AperFunction,ComponentPad*
%ADD19R,1.700000X1.700000*%
G04 #@! TD*
G04 #@! TA.AperFunction,SMDPad,CuDef*
%ADD20R,1.200000X0.400000*%
G04 #@! TD*
G04 #@! TA.AperFunction,ComponentPad*
%ADD21O,1.200000X1.400000*%
G04 #@! TD*
G04 #@! TA.AperFunction,ComponentPad*
%ADD22O,1.700000X1.200000*%
G04 #@! TD*
G04 #@! TA.AperFunction,ComponentPad*
%ADD23C,4.500000*%
G04 #@! TD*
G04 #@! TA.AperFunction,ComponentPad*
%ADD24C,3.000000*%
G04 #@! TD*
G04 #@! TA.AperFunction,ComponentPad*
%ADD25C,2.000000*%
G04 #@! TD*
G04 #@! TA.AperFunction,ComponentPad*
%ADD26R,2.000000X2.000000*%
G04 #@! TD*
G04 #@! TA.AperFunction,SMDPad,CuDef*
%ADD27R,1.200000X0.600000*%
G04 #@! TD*
G04 #@! TA.AperFunction,ComponentPad*
%ADD28C,1.700000*%
G04 #@! TD*
G04 #@! TA.AperFunction,ComponentPad*
%ADD29C,1.000000*%
G04 #@! TD*
G04 #@! TA.AperFunction,ComponentPad*
%ADD30O,1.905000X2.000000*%
G04 #@! TD*
G04 #@! TA.AperFunction,ComponentPad*
%ADD31R,1.905000X2.000000*%
G04 #@! TD*
G04 #@! TA.AperFunction,ComponentPad*
%ADD32R,12.000000X7.000000*%
G04 #@! TD*
G04 #@! TA.AperFunction,SMDPad,CuDef*
%ADD33R,1.000000X0.700000*%
G04 #@! TD*
G04 #@! TA.AperFunction,ComponentPad*
%ADD34C,8.600000*%
G04 #@! TD*
G04 #@! TA.AperFunction,ViaPad*
%ADD35C,0.800000*%
G04 #@! TD*
G04 #@! TA.AperFunction,Conductor*
%ADD36C,0.250000*%
G04 #@! TD*
G04 #@! TA.AperFunction,Conductor*
%ADD37C,0.200000*%
G04 #@! TD*
G04 #@! TA.AperFunction,Conductor*
%ADD38C,0.500000*%
G04 #@! TD*
G04 #@! TA.AperFunction,Conductor*
%ADD39C,0.254000*%
G04 #@! TD*
G04 APERTURE END LIST*
D10*
X121116571Y-87947971D02*
X121116571Y-86447971D01*
X120259428Y-87947971D01*
X120259428Y-86447971D01*
X119545142Y-86447971D02*
X119545142Y-87662257D01*
X119473714Y-87805114D01*
X119402285Y-87876542D01*
X119259428Y-87947971D01*
X118973714Y-87947971D01*
X118830857Y-87876542D01*
X118759428Y-87805114D01*
X118688000Y-87662257D01*
X118688000Y-86447971D01*
X117973714Y-87805114D02*
X117902285Y-87876542D01*
X117973714Y-87947971D01*
X118045142Y-87876542D01*
X117973714Y-87805114D01*
X117973714Y-87947971D01*
X117330857Y-87519400D02*
X116616571Y-87519400D01*
X117473714Y-87947971D02*
X116973714Y-86447971D01*
X116473714Y-87947971D01*
X115973714Y-87947971D02*
X115973714Y-86447971D01*
X115616571Y-88090828D02*
X114473714Y-88090828D01*
X114116571Y-87947971D02*
X114116571Y-86447971D01*
X113616571Y-87519400D01*
X113116571Y-86447971D01*
X113116571Y-87947971D01*
X112116571Y-86447971D02*
X111830857Y-86447971D01*
X111688000Y-86519400D01*
X111545142Y-86662257D01*
X111473714Y-86947971D01*
X111473714Y-87447971D01*
X111545142Y-87733685D01*
X111688000Y-87876542D01*
X111830857Y-87947971D01*
X112116571Y-87947971D01*
X112259428Y-87876542D01*
X112402285Y-87733685D01*
X112473714Y-87447971D01*
X112473714Y-86947971D01*
X112402285Y-86662257D01*
X112259428Y-86519400D01*
X112116571Y-86447971D01*
X111045142Y-86447971D02*
X110188000Y-86447971D01*
X110616571Y-87947971D02*
X110616571Y-86447971D01*
X109402285Y-86447971D02*
X109116571Y-86447971D01*
X108973714Y-86519400D01*
X108830857Y-86662257D01*
X108759428Y-86947971D01*
X108759428Y-87447971D01*
X108830857Y-87733685D01*
X108973714Y-87876542D01*
X109116571Y-87947971D01*
X109402285Y-87947971D01*
X109545142Y-87876542D01*
X109688000Y-87733685D01*
X109759428Y-87447971D01*
X109759428Y-86947971D01*
X109688000Y-86662257D01*
X109545142Y-86519400D01*
X109402285Y-86447971D01*
X107259428Y-87947971D02*
X107759428Y-87233685D01*
X108116571Y-87947971D02*
X108116571Y-86447971D01*
X107545142Y-86447971D01*
X107402285Y-86519400D01*
X107330857Y-86590828D01*
X107259428Y-86733685D01*
X107259428Y-86947971D01*
X107330857Y-87090828D01*
X107402285Y-87162257D01*
X107545142Y-87233685D01*
X108116571Y-87233685D01*
X106973714Y-88090828D02*
X105830857Y-88090828D01*
X104616571Y-87805114D02*
X104688000Y-87876542D01*
X104902285Y-87947971D01*
X105045142Y-87947971D01*
X105259428Y-87876542D01*
X105402285Y-87733685D01*
X105473714Y-87590828D01*
X105545142Y-87305114D01*
X105545142Y-87090828D01*
X105473714Y-86805114D01*
X105402285Y-86662257D01*
X105259428Y-86519400D01*
X105045142Y-86447971D01*
X104902285Y-86447971D01*
X104688000Y-86519400D01*
X104616571Y-86590828D01*
X103688000Y-86447971D02*
X103402285Y-86447971D01*
X103259428Y-86519400D01*
X103116571Y-86662257D01*
X103045142Y-86947971D01*
X103045142Y-87447971D01*
X103116571Y-87733685D01*
X103259428Y-87876542D01*
X103402285Y-87947971D01*
X103688000Y-87947971D01*
X103830857Y-87876542D01*
X103973714Y-87733685D01*
X104045142Y-87447971D01*
X104045142Y-86947971D01*
X103973714Y-86662257D01*
X103830857Y-86519400D01*
X103688000Y-86447971D01*
X102402285Y-87947971D02*
X102402285Y-86447971D01*
X101545142Y-87947971D01*
X101545142Y-86447971D01*
X101045142Y-86447971D02*
X100188000Y-86447971D01*
X100616571Y-87947971D02*
X100616571Y-86447971D01*
X98830857Y-87947971D02*
X99330857Y-87233685D01*
X99688000Y-87947971D02*
X99688000Y-86447971D01*
X99116571Y-86447971D01*
X98973714Y-86519400D01*
X98902285Y-86590828D01*
X98830857Y-86733685D01*
X98830857Y-86947971D01*
X98902285Y-87090828D01*
X98973714Y-87162257D01*
X99116571Y-87233685D01*
X99688000Y-87233685D01*
X97902285Y-86447971D02*
X97616571Y-86447971D01*
X97473714Y-86519400D01*
X97330857Y-86662257D01*
X97259428Y-86947971D01*
X97259428Y-87447971D01*
X97330857Y-87733685D01*
X97473714Y-87876542D01*
X97616571Y-87947971D01*
X97902285Y-87947971D01*
X98045142Y-87876542D01*
X98188000Y-87733685D01*
X98259428Y-87447971D01*
X98259428Y-86947971D01*
X98188000Y-86662257D01*
X98045142Y-86519400D01*
X97902285Y-86447971D01*
X95902285Y-87947971D02*
X96616571Y-87947971D01*
X96616571Y-86447971D01*
X95402285Y-87162257D02*
X94902285Y-87162257D01*
X94688000Y-87947971D02*
X95402285Y-87947971D01*
X95402285Y-86447971D01*
X94688000Y-86447971D01*
X93188000Y-87947971D02*
X93688000Y-87233685D01*
X94045142Y-87947971D02*
X94045142Y-86447971D01*
X93473714Y-86447971D01*
X93330857Y-86519400D01*
X93259428Y-86590828D01*
X93188000Y-86733685D01*
X93188000Y-86947971D01*
X93259428Y-87090828D01*
X93330857Y-87162257D01*
X93473714Y-87233685D01*
X94045142Y-87233685D01*
X110402285Y-90497971D02*
X110902285Y-89783685D01*
X111259428Y-90497971D02*
X111259428Y-88997971D01*
X110688000Y-88997971D01*
X110545142Y-89069400D01*
X110473714Y-89140828D01*
X110402285Y-89283685D01*
X110402285Y-89497971D01*
X110473714Y-89640828D01*
X110545142Y-89712257D01*
X110688000Y-89783685D01*
X111259428Y-89783685D01*
X109759428Y-89712257D02*
X109259428Y-89712257D01*
X109045142Y-90497971D02*
X109759428Y-90497971D01*
X109759428Y-88997971D01*
X109045142Y-88997971D01*
X108616571Y-88997971D02*
X108116571Y-90497971D01*
X107616571Y-88997971D01*
X105188000Y-90497971D02*
X106045142Y-90497971D01*
X105616571Y-90497971D02*
X105616571Y-88997971D01*
X105759428Y-89212257D01*
X105902285Y-89355114D01*
X106045142Y-89426542D01*
X104545142Y-90355114D02*
X104473714Y-90426542D01*
X104545142Y-90497971D01*
X104616571Y-90426542D01*
X104545142Y-90355114D01*
X104545142Y-90497971D01*
X103545142Y-88997971D02*
X103402285Y-88997971D01*
X103259428Y-89069400D01*
X103188000Y-89140828D01*
X103116571Y-89283685D01*
X103045142Y-89569400D01*
X103045142Y-89926542D01*
X103116571Y-90212257D01*
X103188000Y-90355114D01*
X103259428Y-90426542D01*
X103402285Y-90497971D01*
X103545142Y-90497971D01*
X103688000Y-90426542D01*
X103759428Y-90355114D01*
X103830857Y-90212257D01*
X103902285Y-89926542D01*
X103902285Y-89569400D01*
X103830857Y-89283685D01*
X103759428Y-89140828D01*
X103688000Y-89069400D01*
X103545142Y-88997971D01*
D11*
X182970000Y-134900000D02*
X74970000Y-134900000D01*
X182970000Y-42900000D02*
X182970000Y-134900000D01*
X74970000Y-42900000D02*
X182970000Y-42900000D01*
X74970000Y-134900000D02*
X74970000Y-42900000D01*
D12*
G04 #@! TO.N,GND*
G04 #@! TO.C,C10*
G36*
X154319691Y-62878053D02*
X154340926Y-62881203D01*
X154361750Y-62886419D01*
X154381962Y-62893651D01*
X154401368Y-62902830D01*
X154419781Y-62913866D01*
X154437024Y-62926654D01*
X154452930Y-62941070D01*
X154467346Y-62956976D01*
X154480134Y-62974219D01*
X154491170Y-62992632D01*
X154500349Y-63012038D01*
X154507581Y-63032250D01*
X154512797Y-63053074D01*
X154515947Y-63074309D01*
X154517000Y-63095750D01*
X154517000Y-63608250D01*
X154515947Y-63629691D01*
X154512797Y-63650926D01*
X154507581Y-63671750D01*
X154500349Y-63691962D01*
X154491170Y-63711368D01*
X154480134Y-63729781D01*
X154467346Y-63747024D01*
X154452930Y-63762930D01*
X154437024Y-63777346D01*
X154419781Y-63790134D01*
X154401368Y-63801170D01*
X154381962Y-63810349D01*
X154361750Y-63817581D01*
X154340926Y-63822797D01*
X154319691Y-63825947D01*
X154298250Y-63827000D01*
X153860750Y-63827000D01*
X153839309Y-63825947D01*
X153818074Y-63822797D01*
X153797250Y-63817581D01*
X153777038Y-63810349D01*
X153757632Y-63801170D01*
X153739219Y-63790134D01*
X153721976Y-63777346D01*
X153706070Y-63762930D01*
X153691654Y-63747024D01*
X153678866Y-63729781D01*
X153667830Y-63711368D01*
X153658651Y-63691962D01*
X153651419Y-63671750D01*
X153646203Y-63650926D01*
X153643053Y-63629691D01*
X153642000Y-63608250D01*
X153642000Y-63095750D01*
X153643053Y-63074309D01*
X153646203Y-63053074D01*
X153651419Y-63032250D01*
X153658651Y-63012038D01*
X153667830Y-62992632D01*
X153678866Y-62974219D01*
X153691654Y-62956976D01*
X153706070Y-62941070D01*
X153721976Y-62926654D01*
X153739219Y-62913866D01*
X153757632Y-62902830D01*
X153777038Y-62893651D01*
X153797250Y-62886419D01*
X153818074Y-62881203D01*
X153839309Y-62878053D01*
X153860750Y-62877000D01*
X154298250Y-62877000D01*
X154319691Y-62878053D01*
X154319691Y-62878053D01*
G37*
D13*
G04 #@! TD*
G04 #@! TO.P,C10,2*
G04 #@! TO.N,GND*
X154079500Y-63352000D03*
D12*
G04 #@! TO.N,VDD_uC*
G04 #@! TO.C,C10*
G36*
X155894691Y-62878053D02*
X155915926Y-62881203D01*
X155936750Y-62886419D01*
X155956962Y-62893651D01*
X155976368Y-62902830D01*
X155994781Y-62913866D01*
X156012024Y-62926654D01*
X156027930Y-62941070D01*
X156042346Y-62956976D01*
X156055134Y-62974219D01*
X156066170Y-62992632D01*
X156075349Y-63012038D01*
X156082581Y-63032250D01*
X156087797Y-63053074D01*
X156090947Y-63074309D01*
X156092000Y-63095750D01*
X156092000Y-63608250D01*
X156090947Y-63629691D01*
X156087797Y-63650926D01*
X156082581Y-63671750D01*
X156075349Y-63691962D01*
X156066170Y-63711368D01*
X156055134Y-63729781D01*
X156042346Y-63747024D01*
X156027930Y-63762930D01*
X156012024Y-63777346D01*
X155994781Y-63790134D01*
X155976368Y-63801170D01*
X155956962Y-63810349D01*
X155936750Y-63817581D01*
X155915926Y-63822797D01*
X155894691Y-63825947D01*
X155873250Y-63827000D01*
X155435750Y-63827000D01*
X155414309Y-63825947D01*
X155393074Y-63822797D01*
X155372250Y-63817581D01*
X155352038Y-63810349D01*
X155332632Y-63801170D01*
X155314219Y-63790134D01*
X155296976Y-63777346D01*
X155281070Y-63762930D01*
X155266654Y-63747024D01*
X155253866Y-63729781D01*
X155242830Y-63711368D01*
X155233651Y-63691962D01*
X155226419Y-63671750D01*
X155221203Y-63650926D01*
X155218053Y-63629691D01*
X155217000Y-63608250D01*
X155217000Y-63095750D01*
X155218053Y-63074309D01*
X155221203Y-63053074D01*
X155226419Y-63032250D01*
X155233651Y-63012038D01*
X155242830Y-62992632D01*
X155253866Y-62974219D01*
X155266654Y-62956976D01*
X155281070Y-62941070D01*
X155296976Y-62926654D01*
X155314219Y-62913866D01*
X155332632Y-62902830D01*
X155352038Y-62893651D01*
X155372250Y-62886419D01*
X155393074Y-62881203D01*
X155414309Y-62878053D01*
X155435750Y-62877000D01*
X155873250Y-62877000D01*
X155894691Y-62878053D01*
X155894691Y-62878053D01*
G37*
D13*
G04 #@! TD*
G04 #@! TO.P,C10,1*
G04 #@! TO.N,VDD_uC*
X155654500Y-63352000D03*
D12*
G04 #@! TO.N,GND*
G04 #@! TO.C,C6*
G36*
X136108191Y-59195053D02*
X136129426Y-59198203D01*
X136150250Y-59203419D01*
X136170462Y-59210651D01*
X136189868Y-59219830D01*
X136208281Y-59230866D01*
X136225524Y-59243654D01*
X136241430Y-59258070D01*
X136255846Y-59273976D01*
X136268634Y-59291219D01*
X136279670Y-59309632D01*
X136288849Y-59329038D01*
X136296081Y-59349250D01*
X136301297Y-59370074D01*
X136304447Y-59391309D01*
X136305500Y-59412750D01*
X136305500Y-59925250D01*
X136304447Y-59946691D01*
X136301297Y-59967926D01*
X136296081Y-59988750D01*
X136288849Y-60008962D01*
X136279670Y-60028368D01*
X136268634Y-60046781D01*
X136255846Y-60064024D01*
X136241430Y-60079930D01*
X136225524Y-60094346D01*
X136208281Y-60107134D01*
X136189868Y-60118170D01*
X136170462Y-60127349D01*
X136150250Y-60134581D01*
X136129426Y-60139797D01*
X136108191Y-60142947D01*
X136086750Y-60144000D01*
X135649250Y-60144000D01*
X135627809Y-60142947D01*
X135606574Y-60139797D01*
X135585750Y-60134581D01*
X135565538Y-60127349D01*
X135546132Y-60118170D01*
X135527719Y-60107134D01*
X135510476Y-60094346D01*
X135494570Y-60079930D01*
X135480154Y-60064024D01*
X135467366Y-60046781D01*
X135456330Y-60028368D01*
X135447151Y-60008962D01*
X135439919Y-59988750D01*
X135434703Y-59967926D01*
X135431553Y-59946691D01*
X135430500Y-59925250D01*
X135430500Y-59412750D01*
X135431553Y-59391309D01*
X135434703Y-59370074D01*
X135439919Y-59349250D01*
X135447151Y-59329038D01*
X135456330Y-59309632D01*
X135467366Y-59291219D01*
X135480154Y-59273976D01*
X135494570Y-59258070D01*
X135510476Y-59243654D01*
X135527719Y-59230866D01*
X135546132Y-59219830D01*
X135565538Y-59210651D01*
X135585750Y-59203419D01*
X135606574Y-59198203D01*
X135627809Y-59195053D01*
X135649250Y-59194000D01*
X136086750Y-59194000D01*
X136108191Y-59195053D01*
X136108191Y-59195053D01*
G37*
D13*
G04 #@! TD*
G04 #@! TO.P,C6,2*
G04 #@! TO.N,GND*
X135868000Y-59669000D03*
D12*
G04 #@! TO.N,VDD_BAT*
G04 #@! TO.C,C6*
G36*
X134533191Y-59195053D02*
X134554426Y-59198203D01*
X134575250Y-59203419D01*
X134595462Y-59210651D01*
X134614868Y-59219830D01*
X134633281Y-59230866D01*
X134650524Y-59243654D01*
X134666430Y-59258070D01*
X134680846Y-59273976D01*
X134693634Y-59291219D01*
X134704670Y-59309632D01*
X134713849Y-59329038D01*
X134721081Y-59349250D01*
X134726297Y-59370074D01*
X134729447Y-59391309D01*
X134730500Y-59412750D01*
X134730500Y-59925250D01*
X134729447Y-59946691D01*
X134726297Y-59967926D01*
X134721081Y-59988750D01*
X134713849Y-60008962D01*
X134704670Y-60028368D01*
X134693634Y-60046781D01*
X134680846Y-60064024D01*
X134666430Y-60079930D01*
X134650524Y-60094346D01*
X134633281Y-60107134D01*
X134614868Y-60118170D01*
X134595462Y-60127349D01*
X134575250Y-60134581D01*
X134554426Y-60139797D01*
X134533191Y-60142947D01*
X134511750Y-60144000D01*
X134074250Y-60144000D01*
X134052809Y-60142947D01*
X134031574Y-60139797D01*
X134010750Y-60134581D01*
X133990538Y-60127349D01*
X133971132Y-60118170D01*
X133952719Y-60107134D01*
X133935476Y-60094346D01*
X133919570Y-60079930D01*
X133905154Y-60064024D01*
X133892366Y-60046781D01*
X133881330Y-60028368D01*
X133872151Y-60008962D01*
X133864919Y-59988750D01*
X133859703Y-59967926D01*
X133856553Y-59946691D01*
X133855500Y-59925250D01*
X133855500Y-59412750D01*
X133856553Y-59391309D01*
X133859703Y-59370074D01*
X133864919Y-59349250D01*
X133872151Y-59329038D01*
X133881330Y-59309632D01*
X133892366Y-59291219D01*
X133905154Y-59273976D01*
X133919570Y-59258070D01*
X133935476Y-59243654D01*
X133952719Y-59230866D01*
X133971132Y-59219830D01*
X133990538Y-59210651D01*
X134010750Y-59203419D01*
X134031574Y-59198203D01*
X134052809Y-59195053D01*
X134074250Y-59194000D01*
X134511750Y-59194000D01*
X134533191Y-59195053D01*
X134533191Y-59195053D01*
G37*
D13*
G04 #@! TD*
G04 #@! TO.P,C6,1*
G04 #@! TO.N,VDD_BAT*
X134293000Y-59669000D03*
D12*
G04 #@! TO.N,GND*
G04 #@! TO.C,C9*
G36*
X149937691Y-67182553D02*
X149958926Y-67185703D01*
X149979750Y-67190919D01*
X149999962Y-67198151D01*
X150019368Y-67207330D01*
X150037781Y-67218366D01*
X150055024Y-67231154D01*
X150070930Y-67245570D01*
X150085346Y-67261476D01*
X150098134Y-67278719D01*
X150109170Y-67297132D01*
X150118349Y-67316538D01*
X150125581Y-67336750D01*
X150130797Y-67357574D01*
X150133947Y-67378809D01*
X150135000Y-67400250D01*
X150135000Y-67837750D01*
X150133947Y-67859191D01*
X150130797Y-67880426D01*
X150125581Y-67901250D01*
X150118349Y-67921462D01*
X150109170Y-67940868D01*
X150098134Y-67959281D01*
X150085346Y-67976524D01*
X150070930Y-67992430D01*
X150055024Y-68006846D01*
X150037781Y-68019634D01*
X150019368Y-68030670D01*
X149999962Y-68039849D01*
X149979750Y-68047081D01*
X149958926Y-68052297D01*
X149937691Y-68055447D01*
X149916250Y-68056500D01*
X149403750Y-68056500D01*
X149382309Y-68055447D01*
X149361074Y-68052297D01*
X149340250Y-68047081D01*
X149320038Y-68039849D01*
X149300632Y-68030670D01*
X149282219Y-68019634D01*
X149264976Y-68006846D01*
X149249070Y-67992430D01*
X149234654Y-67976524D01*
X149221866Y-67959281D01*
X149210830Y-67940868D01*
X149201651Y-67921462D01*
X149194419Y-67901250D01*
X149189203Y-67880426D01*
X149186053Y-67859191D01*
X149185000Y-67837750D01*
X149185000Y-67400250D01*
X149186053Y-67378809D01*
X149189203Y-67357574D01*
X149194419Y-67336750D01*
X149201651Y-67316538D01*
X149210830Y-67297132D01*
X149221866Y-67278719D01*
X149234654Y-67261476D01*
X149249070Y-67245570D01*
X149264976Y-67231154D01*
X149282219Y-67218366D01*
X149300632Y-67207330D01*
X149320038Y-67198151D01*
X149340250Y-67190919D01*
X149361074Y-67185703D01*
X149382309Y-67182553D01*
X149403750Y-67181500D01*
X149916250Y-67181500D01*
X149937691Y-67182553D01*
X149937691Y-67182553D01*
G37*
D13*
G04 #@! TD*
G04 #@! TO.P,C9,2*
G04 #@! TO.N,GND*
X149660000Y-67619000D03*
D12*
G04 #@! TO.N,VDD_uC*
G04 #@! TO.C,C9*
G36*
X149937691Y-68757553D02*
X149958926Y-68760703D01*
X149979750Y-68765919D01*
X149999962Y-68773151D01*
X150019368Y-68782330D01*
X150037781Y-68793366D01*
X150055024Y-68806154D01*
X150070930Y-68820570D01*
X150085346Y-68836476D01*
X150098134Y-68853719D01*
X150109170Y-68872132D01*
X150118349Y-68891538D01*
X150125581Y-68911750D01*
X150130797Y-68932574D01*
X150133947Y-68953809D01*
X150135000Y-68975250D01*
X150135000Y-69412750D01*
X150133947Y-69434191D01*
X150130797Y-69455426D01*
X150125581Y-69476250D01*
X150118349Y-69496462D01*
X150109170Y-69515868D01*
X150098134Y-69534281D01*
X150085346Y-69551524D01*
X150070930Y-69567430D01*
X150055024Y-69581846D01*
X150037781Y-69594634D01*
X150019368Y-69605670D01*
X149999962Y-69614849D01*
X149979750Y-69622081D01*
X149958926Y-69627297D01*
X149937691Y-69630447D01*
X149916250Y-69631500D01*
X149403750Y-69631500D01*
X149382309Y-69630447D01*
X149361074Y-69627297D01*
X149340250Y-69622081D01*
X149320038Y-69614849D01*
X149300632Y-69605670D01*
X149282219Y-69594634D01*
X149264976Y-69581846D01*
X149249070Y-69567430D01*
X149234654Y-69551524D01*
X149221866Y-69534281D01*
X149210830Y-69515868D01*
X149201651Y-69496462D01*
X149194419Y-69476250D01*
X149189203Y-69455426D01*
X149186053Y-69434191D01*
X149185000Y-69412750D01*
X149185000Y-68975250D01*
X149186053Y-68953809D01*
X149189203Y-68932574D01*
X149194419Y-68911750D01*
X149201651Y-68891538D01*
X149210830Y-68872132D01*
X149221866Y-68853719D01*
X149234654Y-68836476D01*
X149249070Y-68820570D01*
X149264976Y-68806154D01*
X149282219Y-68793366D01*
X149300632Y-68782330D01*
X149320038Y-68773151D01*
X149340250Y-68765919D01*
X149361074Y-68760703D01*
X149382309Y-68757553D01*
X149403750Y-68756500D01*
X149916250Y-68756500D01*
X149937691Y-68757553D01*
X149937691Y-68757553D01*
G37*
D13*
G04 #@! TD*
G04 #@! TO.P,C9,1*
G04 #@! TO.N,VDD_uC*
X149660000Y-69194000D03*
D12*
G04 #@! TO.N,GND*
G04 #@! TO.C,C14*
G36*
X151461691Y-62382053D02*
X151482926Y-62385203D01*
X151503750Y-62390419D01*
X151523962Y-62397651D01*
X151543368Y-62406830D01*
X151561781Y-62417866D01*
X151579024Y-62430654D01*
X151594930Y-62445070D01*
X151609346Y-62460976D01*
X151622134Y-62478219D01*
X151633170Y-62496632D01*
X151642349Y-62516038D01*
X151649581Y-62536250D01*
X151654797Y-62557074D01*
X151657947Y-62578309D01*
X151659000Y-62599750D01*
X151659000Y-63037250D01*
X151657947Y-63058691D01*
X151654797Y-63079926D01*
X151649581Y-63100750D01*
X151642349Y-63120962D01*
X151633170Y-63140368D01*
X151622134Y-63158781D01*
X151609346Y-63176024D01*
X151594930Y-63191930D01*
X151579024Y-63206346D01*
X151561781Y-63219134D01*
X151543368Y-63230170D01*
X151523962Y-63239349D01*
X151503750Y-63246581D01*
X151482926Y-63251797D01*
X151461691Y-63254947D01*
X151440250Y-63256000D01*
X150927750Y-63256000D01*
X150906309Y-63254947D01*
X150885074Y-63251797D01*
X150864250Y-63246581D01*
X150844038Y-63239349D01*
X150824632Y-63230170D01*
X150806219Y-63219134D01*
X150788976Y-63206346D01*
X150773070Y-63191930D01*
X150758654Y-63176024D01*
X150745866Y-63158781D01*
X150734830Y-63140368D01*
X150725651Y-63120962D01*
X150718419Y-63100750D01*
X150713203Y-63079926D01*
X150710053Y-63058691D01*
X150709000Y-63037250D01*
X150709000Y-62599750D01*
X150710053Y-62578309D01*
X150713203Y-62557074D01*
X150718419Y-62536250D01*
X150725651Y-62516038D01*
X150734830Y-62496632D01*
X150745866Y-62478219D01*
X150758654Y-62460976D01*
X150773070Y-62445070D01*
X150788976Y-62430654D01*
X150806219Y-62417866D01*
X150824632Y-62406830D01*
X150844038Y-62397651D01*
X150864250Y-62390419D01*
X150885074Y-62385203D01*
X150906309Y-62382053D01*
X150927750Y-62381000D01*
X151440250Y-62381000D01*
X151461691Y-62382053D01*
X151461691Y-62382053D01*
G37*
D13*
G04 #@! TD*
G04 #@! TO.P,C14,2*
G04 #@! TO.N,GND*
X151184000Y-62818500D03*
D12*
G04 #@! TO.N,/microcontroller/uC_AVCC*
G04 #@! TO.C,C14*
G36*
X151461691Y-63957053D02*
X151482926Y-63960203D01*
X151503750Y-63965419D01*
X151523962Y-63972651D01*
X151543368Y-63981830D01*
X151561781Y-63992866D01*
X151579024Y-64005654D01*
X151594930Y-64020070D01*
X151609346Y-64035976D01*
X151622134Y-64053219D01*
X151633170Y-64071632D01*
X151642349Y-64091038D01*
X151649581Y-64111250D01*
X151654797Y-64132074D01*
X151657947Y-64153309D01*
X151659000Y-64174750D01*
X151659000Y-64612250D01*
X151657947Y-64633691D01*
X151654797Y-64654926D01*
X151649581Y-64675750D01*
X151642349Y-64695962D01*
X151633170Y-64715368D01*
X151622134Y-64733781D01*
X151609346Y-64751024D01*
X151594930Y-64766930D01*
X151579024Y-64781346D01*
X151561781Y-64794134D01*
X151543368Y-64805170D01*
X151523962Y-64814349D01*
X151503750Y-64821581D01*
X151482926Y-64826797D01*
X151461691Y-64829947D01*
X151440250Y-64831000D01*
X150927750Y-64831000D01*
X150906309Y-64829947D01*
X150885074Y-64826797D01*
X150864250Y-64821581D01*
X150844038Y-64814349D01*
X150824632Y-64805170D01*
X150806219Y-64794134D01*
X150788976Y-64781346D01*
X150773070Y-64766930D01*
X150758654Y-64751024D01*
X150745866Y-64733781D01*
X150734830Y-64715368D01*
X150725651Y-64695962D01*
X150718419Y-64675750D01*
X150713203Y-64654926D01*
X150710053Y-64633691D01*
X150709000Y-64612250D01*
X150709000Y-64174750D01*
X150710053Y-64153309D01*
X150713203Y-64132074D01*
X150718419Y-64111250D01*
X150725651Y-64091038D01*
X150734830Y-64071632D01*
X150745866Y-64053219D01*
X150758654Y-64035976D01*
X150773070Y-64020070D01*
X150788976Y-64005654D01*
X150806219Y-63992866D01*
X150824632Y-63981830D01*
X150844038Y-63972651D01*
X150864250Y-63965419D01*
X150885074Y-63960203D01*
X150906309Y-63957053D01*
X150927750Y-63956000D01*
X151440250Y-63956000D01*
X151461691Y-63957053D01*
X151461691Y-63957053D01*
G37*
D13*
G04 #@! TD*
G04 #@! TO.P,C14,1*
G04 #@! TO.N,/microcontroller/uC_AVCC*
X151184000Y-64393500D03*
D12*
G04 #@! TO.N,GND*
G04 #@! TO.C,C15*
G36*
X154700691Y-69736053D02*
X154721926Y-69739203D01*
X154742750Y-69744419D01*
X154762962Y-69751651D01*
X154782368Y-69760830D01*
X154800781Y-69771866D01*
X154818024Y-69784654D01*
X154833930Y-69799070D01*
X154848346Y-69814976D01*
X154861134Y-69832219D01*
X154872170Y-69850632D01*
X154881349Y-69870038D01*
X154888581Y-69890250D01*
X154893797Y-69911074D01*
X154896947Y-69932309D01*
X154898000Y-69953750D01*
X154898000Y-70466250D01*
X154896947Y-70487691D01*
X154893797Y-70508926D01*
X154888581Y-70529750D01*
X154881349Y-70549962D01*
X154872170Y-70569368D01*
X154861134Y-70587781D01*
X154848346Y-70605024D01*
X154833930Y-70620930D01*
X154818024Y-70635346D01*
X154800781Y-70648134D01*
X154782368Y-70659170D01*
X154762962Y-70668349D01*
X154742750Y-70675581D01*
X154721926Y-70680797D01*
X154700691Y-70683947D01*
X154679250Y-70685000D01*
X154241750Y-70685000D01*
X154220309Y-70683947D01*
X154199074Y-70680797D01*
X154178250Y-70675581D01*
X154158038Y-70668349D01*
X154138632Y-70659170D01*
X154120219Y-70648134D01*
X154102976Y-70635346D01*
X154087070Y-70620930D01*
X154072654Y-70605024D01*
X154059866Y-70587781D01*
X154048830Y-70569368D01*
X154039651Y-70549962D01*
X154032419Y-70529750D01*
X154027203Y-70508926D01*
X154024053Y-70487691D01*
X154023000Y-70466250D01*
X154023000Y-69953750D01*
X154024053Y-69932309D01*
X154027203Y-69911074D01*
X154032419Y-69890250D01*
X154039651Y-69870038D01*
X154048830Y-69850632D01*
X154059866Y-69832219D01*
X154072654Y-69814976D01*
X154087070Y-69799070D01*
X154102976Y-69784654D01*
X154120219Y-69771866D01*
X154138632Y-69760830D01*
X154158038Y-69751651D01*
X154178250Y-69744419D01*
X154199074Y-69739203D01*
X154220309Y-69736053D01*
X154241750Y-69735000D01*
X154679250Y-69735000D01*
X154700691Y-69736053D01*
X154700691Y-69736053D01*
G37*
D13*
G04 #@! TD*
G04 #@! TO.P,C15,2*
G04 #@! TO.N,GND*
X154460500Y-70210000D03*
D12*
G04 #@! TO.N,/microcontroller/uC_AVCC*
G04 #@! TO.C,C15*
G36*
X156275691Y-69736053D02*
X156296926Y-69739203D01*
X156317750Y-69744419D01*
X156337962Y-69751651D01*
X156357368Y-69760830D01*
X156375781Y-69771866D01*
X156393024Y-69784654D01*
X156408930Y-69799070D01*
X156423346Y-69814976D01*
X156436134Y-69832219D01*
X156447170Y-69850632D01*
X156456349Y-69870038D01*
X156463581Y-69890250D01*
X156468797Y-69911074D01*
X156471947Y-69932309D01*
X156473000Y-69953750D01*
X156473000Y-70466250D01*
X156471947Y-70487691D01*
X156468797Y-70508926D01*
X156463581Y-70529750D01*
X156456349Y-70549962D01*
X156447170Y-70569368D01*
X156436134Y-70587781D01*
X156423346Y-70605024D01*
X156408930Y-70620930D01*
X156393024Y-70635346D01*
X156375781Y-70648134D01*
X156357368Y-70659170D01*
X156337962Y-70668349D01*
X156317750Y-70675581D01*
X156296926Y-70680797D01*
X156275691Y-70683947D01*
X156254250Y-70685000D01*
X155816750Y-70685000D01*
X155795309Y-70683947D01*
X155774074Y-70680797D01*
X155753250Y-70675581D01*
X155733038Y-70668349D01*
X155713632Y-70659170D01*
X155695219Y-70648134D01*
X155677976Y-70635346D01*
X155662070Y-70620930D01*
X155647654Y-70605024D01*
X155634866Y-70587781D01*
X155623830Y-70569368D01*
X155614651Y-70549962D01*
X155607419Y-70529750D01*
X155602203Y-70508926D01*
X155599053Y-70487691D01*
X155598000Y-70466250D01*
X155598000Y-69953750D01*
X155599053Y-69932309D01*
X155602203Y-69911074D01*
X155607419Y-69890250D01*
X155614651Y-69870038D01*
X155623830Y-69850632D01*
X155634866Y-69832219D01*
X155647654Y-69814976D01*
X155662070Y-69799070D01*
X155677976Y-69784654D01*
X155695219Y-69771866D01*
X155713632Y-69760830D01*
X155733038Y-69751651D01*
X155753250Y-69744419D01*
X155774074Y-69739203D01*
X155795309Y-69736053D01*
X155816750Y-69735000D01*
X156254250Y-69735000D01*
X156275691Y-69736053D01*
X156275691Y-69736053D01*
G37*
D13*
G04 #@! TD*
G04 #@! TO.P,C15,1*
G04 #@! TO.N,/microcontroller/uC_AVCC*
X156035500Y-70210000D03*
D12*
G04 #@! TO.N,GND*
G04 #@! TO.C,C20*
G36*
X156541691Y-67284553D02*
X156562926Y-67287703D01*
X156583750Y-67292919D01*
X156603962Y-67300151D01*
X156623368Y-67309330D01*
X156641781Y-67320366D01*
X156659024Y-67333154D01*
X156674930Y-67347570D01*
X156689346Y-67363476D01*
X156702134Y-67380719D01*
X156713170Y-67399132D01*
X156722349Y-67418538D01*
X156729581Y-67438750D01*
X156734797Y-67459574D01*
X156737947Y-67480809D01*
X156739000Y-67502250D01*
X156739000Y-67939750D01*
X156737947Y-67961191D01*
X156734797Y-67982426D01*
X156729581Y-68003250D01*
X156722349Y-68023462D01*
X156713170Y-68042868D01*
X156702134Y-68061281D01*
X156689346Y-68078524D01*
X156674930Y-68094430D01*
X156659024Y-68108846D01*
X156641781Y-68121634D01*
X156623368Y-68132670D01*
X156603962Y-68141849D01*
X156583750Y-68149081D01*
X156562926Y-68154297D01*
X156541691Y-68157447D01*
X156520250Y-68158500D01*
X156007750Y-68158500D01*
X155986309Y-68157447D01*
X155965074Y-68154297D01*
X155944250Y-68149081D01*
X155924038Y-68141849D01*
X155904632Y-68132670D01*
X155886219Y-68121634D01*
X155868976Y-68108846D01*
X155853070Y-68094430D01*
X155838654Y-68078524D01*
X155825866Y-68061281D01*
X155814830Y-68042868D01*
X155805651Y-68023462D01*
X155798419Y-68003250D01*
X155793203Y-67982426D01*
X155790053Y-67961191D01*
X155789000Y-67939750D01*
X155789000Y-67502250D01*
X155790053Y-67480809D01*
X155793203Y-67459574D01*
X155798419Y-67438750D01*
X155805651Y-67418538D01*
X155814830Y-67399132D01*
X155825866Y-67380719D01*
X155838654Y-67363476D01*
X155853070Y-67347570D01*
X155868976Y-67333154D01*
X155886219Y-67320366D01*
X155904632Y-67309330D01*
X155924038Y-67300151D01*
X155944250Y-67292919D01*
X155965074Y-67287703D01*
X155986309Y-67284553D01*
X156007750Y-67283500D01*
X156520250Y-67283500D01*
X156541691Y-67284553D01*
X156541691Y-67284553D01*
G37*
D13*
G04 #@! TD*
G04 #@! TO.P,C20,2*
G04 #@! TO.N,GND*
X156264000Y-67721000D03*
D12*
G04 #@! TO.N,Net-(C20-Pad1)*
G04 #@! TO.C,C20*
G36*
X156541691Y-65709553D02*
X156562926Y-65712703D01*
X156583750Y-65717919D01*
X156603962Y-65725151D01*
X156623368Y-65734330D01*
X156641781Y-65745366D01*
X156659024Y-65758154D01*
X156674930Y-65772570D01*
X156689346Y-65788476D01*
X156702134Y-65805719D01*
X156713170Y-65824132D01*
X156722349Y-65843538D01*
X156729581Y-65863750D01*
X156734797Y-65884574D01*
X156737947Y-65905809D01*
X156739000Y-65927250D01*
X156739000Y-66364750D01*
X156737947Y-66386191D01*
X156734797Y-66407426D01*
X156729581Y-66428250D01*
X156722349Y-66448462D01*
X156713170Y-66467868D01*
X156702134Y-66486281D01*
X156689346Y-66503524D01*
X156674930Y-66519430D01*
X156659024Y-66533846D01*
X156641781Y-66546634D01*
X156623368Y-66557670D01*
X156603962Y-66566849D01*
X156583750Y-66574081D01*
X156562926Y-66579297D01*
X156541691Y-66582447D01*
X156520250Y-66583500D01*
X156007750Y-66583500D01*
X155986309Y-66582447D01*
X155965074Y-66579297D01*
X155944250Y-66574081D01*
X155924038Y-66566849D01*
X155904632Y-66557670D01*
X155886219Y-66546634D01*
X155868976Y-66533846D01*
X155853070Y-66519430D01*
X155838654Y-66503524D01*
X155825866Y-66486281D01*
X155814830Y-66467868D01*
X155805651Y-66448462D01*
X155798419Y-66428250D01*
X155793203Y-66407426D01*
X155790053Y-66386191D01*
X155789000Y-66364750D01*
X155789000Y-65927250D01*
X155790053Y-65905809D01*
X155793203Y-65884574D01*
X155798419Y-65863750D01*
X155805651Y-65843538D01*
X155814830Y-65824132D01*
X155825866Y-65805719D01*
X155838654Y-65788476D01*
X155853070Y-65772570D01*
X155868976Y-65758154D01*
X155886219Y-65745366D01*
X155904632Y-65734330D01*
X155924038Y-65725151D01*
X155944250Y-65717919D01*
X155965074Y-65712703D01*
X155986309Y-65709553D01*
X156007750Y-65708500D01*
X156520250Y-65708500D01*
X156541691Y-65709553D01*
X156541691Y-65709553D01*
G37*
D13*
G04 #@! TD*
G04 #@! TO.P,C20,1*
G04 #@! TO.N,Net-(C20-Pad1)*
X156264000Y-66146000D03*
D14*
G04 #@! TO.P,C23,2*
G04 #@! TO.N,GND*
X107496000Y-94086000D03*
D15*
G04 #@! TO.P,C23,1*
G04 #@! TO.N,+5V*
X109496000Y-94086000D03*
G04 #@! TD*
D12*
G04 #@! TO.N,GND*
G04 #@! TO.C,C31*
G36*
X152985691Y-68127213D02*
X153006926Y-68130363D01*
X153027750Y-68135579D01*
X153047962Y-68142811D01*
X153067368Y-68151990D01*
X153085781Y-68163026D01*
X153103024Y-68175814D01*
X153118930Y-68190230D01*
X153133346Y-68206136D01*
X153146134Y-68223379D01*
X153157170Y-68241792D01*
X153166349Y-68261198D01*
X153173581Y-68281410D01*
X153178797Y-68302234D01*
X153181947Y-68323469D01*
X153183000Y-68344910D01*
X153183000Y-68782410D01*
X153181947Y-68803851D01*
X153178797Y-68825086D01*
X153173581Y-68845910D01*
X153166349Y-68866122D01*
X153157170Y-68885528D01*
X153146134Y-68903941D01*
X153133346Y-68921184D01*
X153118930Y-68937090D01*
X153103024Y-68951506D01*
X153085781Y-68964294D01*
X153067368Y-68975330D01*
X153047962Y-68984509D01*
X153027750Y-68991741D01*
X153006926Y-68996957D01*
X152985691Y-69000107D01*
X152964250Y-69001160D01*
X152451750Y-69001160D01*
X152430309Y-69000107D01*
X152409074Y-68996957D01*
X152388250Y-68991741D01*
X152368038Y-68984509D01*
X152348632Y-68975330D01*
X152330219Y-68964294D01*
X152312976Y-68951506D01*
X152297070Y-68937090D01*
X152282654Y-68921184D01*
X152269866Y-68903941D01*
X152258830Y-68885528D01*
X152249651Y-68866122D01*
X152242419Y-68845910D01*
X152237203Y-68825086D01*
X152234053Y-68803851D01*
X152233000Y-68782410D01*
X152233000Y-68344910D01*
X152234053Y-68323469D01*
X152237203Y-68302234D01*
X152242419Y-68281410D01*
X152249651Y-68261198D01*
X152258830Y-68241792D01*
X152269866Y-68223379D01*
X152282654Y-68206136D01*
X152297070Y-68190230D01*
X152312976Y-68175814D01*
X152330219Y-68163026D01*
X152348632Y-68151990D01*
X152368038Y-68142811D01*
X152388250Y-68135579D01*
X152409074Y-68130363D01*
X152430309Y-68127213D01*
X152451750Y-68126160D01*
X152964250Y-68126160D01*
X152985691Y-68127213D01*
X152985691Y-68127213D01*
G37*
D13*
G04 #@! TD*
G04 #@! TO.P,C31,2*
G04 #@! TO.N,GND*
X152708000Y-68563660D03*
D12*
G04 #@! TO.N,/microcontroller/uC_AVCC*
G04 #@! TO.C,C31*
G36*
X152985691Y-66552213D02*
X153006926Y-66555363D01*
X153027750Y-66560579D01*
X153047962Y-66567811D01*
X153067368Y-66576990D01*
X153085781Y-66588026D01*
X153103024Y-66600814D01*
X153118930Y-66615230D01*
X153133346Y-66631136D01*
X153146134Y-66648379D01*
X153157170Y-66666792D01*
X153166349Y-66686198D01*
X153173581Y-66706410D01*
X153178797Y-66727234D01*
X153181947Y-66748469D01*
X153183000Y-66769910D01*
X153183000Y-67207410D01*
X153181947Y-67228851D01*
X153178797Y-67250086D01*
X153173581Y-67270910D01*
X153166349Y-67291122D01*
X153157170Y-67310528D01*
X153146134Y-67328941D01*
X153133346Y-67346184D01*
X153118930Y-67362090D01*
X153103024Y-67376506D01*
X153085781Y-67389294D01*
X153067368Y-67400330D01*
X153047962Y-67409509D01*
X153027750Y-67416741D01*
X153006926Y-67421957D01*
X152985691Y-67425107D01*
X152964250Y-67426160D01*
X152451750Y-67426160D01*
X152430309Y-67425107D01*
X152409074Y-67421957D01*
X152388250Y-67416741D01*
X152368038Y-67409509D01*
X152348632Y-67400330D01*
X152330219Y-67389294D01*
X152312976Y-67376506D01*
X152297070Y-67362090D01*
X152282654Y-67346184D01*
X152269866Y-67328941D01*
X152258830Y-67310528D01*
X152249651Y-67291122D01*
X152242419Y-67270910D01*
X152237203Y-67250086D01*
X152234053Y-67228851D01*
X152233000Y-67207410D01*
X152233000Y-66769910D01*
X152234053Y-66748469D01*
X152237203Y-66727234D01*
X152242419Y-66706410D01*
X152249651Y-66686198D01*
X152258830Y-66666792D01*
X152269866Y-66648379D01*
X152282654Y-66631136D01*
X152297070Y-66615230D01*
X152312976Y-66600814D01*
X152330219Y-66588026D01*
X152348632Y-66576990D01*
X152368038Y-66567811D01*
X152388250Y-66560579D01*
X152409074Y-66555363D01*
X152430309Y-66552213D01*
X152451750Y-66551160D01*
X152964250Y-66551160D01*
X152985691Y-66552213D01*
X152985691Y-66552213D01*
G37*
D13*
G04 #@! TD*
G04 #@! TO.P,C31,1*
G04 #@! TO.N,/microcontroller/uC_AVCC*
X152708000Y-66988660D03*
D16*
G04 #@! TO.P,D6,2*
G04 #@! TO.N,GND*
X170168000Y-59796000D03*
G04 #@! TO.P,D6,5*
G04 #@! TO.N,Net-(D6-Pad5)*
X170168000Y-62196000D03*
G04 #@! TO.P,D6,4*
G04 #@! TO.N,Net-(D6-Pad4)*
X171118000Y-62196000D03*
G04 #@! TO.P,D6,3*
G04 #@! TO.N,N/C*
X171118000Y-59796000D03*
G04 #@! TO.P,D6,6*
G04 #@! TO.N,Net-(D6-Pad6)*
X169218000Y-62196000D03*
G04 #@! TO.P,D6,1*
G04 #@! TO.N,N/C*
X169218000Y-59796000D03*
G04 #@! TD*
D12*
G04 #@! TO.N,VDD_BAT*
G04 #@! TO.C,D7*
G36*
X131807463Y-65080125D02*
X131831124Y-65083635D01*
X131854328Y-65089447D01*
X131876850Y-65097505D01*
X131898474Y-65107733D01*
X131918991Y-65120030D01*
X131938204Y-65134280D01*
X131955928Y-65150344D01*
X131971992Y-65168068D01*
X131986242Y-65187281D01*
X131998539Y-65207798D01*
X132008767Y-65229422D01*
X132016825Y-65251944D01*
X132022637Y-65275148D01*
X132026147Y-65298809D01*
X132027321Y-65322701D01*
X132027321Y-66235201D01*
X132026147Y-66259093D01*
X132022637Y-66282754D01*
X132016825Y-66305958D01*
X132008767Y-66328480D01*
X131998539Y-66350104D01*
X131986242Y-66370621D01*
X131971992Y-66389834D01*
X131955928Y-66407558D01*
X131938204Y-66423622D01*
X131918991Y-66437872D01*
X131898474Y-66450169D01*
X131876850Y-66460397D01*
X131854328Y-66468455D01*
X131831124Y-66474267D01*
X131807463Y-66477777D01*
X131783571Y-66478951D01*
X131296071Y-66478951D01*
X131272179Y-66477777D01*
X131248518Y-66474267D01*
X131225314Y-66468455D01*
X131202792Y-66460397D01*
X131181168Y-66450169D01*
X131160651Y-66437872D01*
X131141438Y-66423622D01*
X131123714Y-66407558D01*
X131107650Y-66389834D01*
X131093400Y-66370621D01*
X131081103Y-66350104D01*
X131070875Y-66328480D01*
X131062817Y-66305958D01*
X131057005Y-66282754D01*
X131053495Y-66259093D01*
X131052321Y-66235201D01*
X131052321Y-65322701D01*
X131053495Y-65298809D01*
X131057005Y-65275148D01*
X131062817Y-65251944D01*
X131070875Y-65229422D01*
X131081103Y-65207798D01*
X131093400Y-65187281D01*
X131107650Y-65168068D01*
X131123714Y-65150344D01*
X131141438Y-65134280D01*
X131160651Y-65120030D01*
X131181168Y-65107733D01*
X131202792Y-65097505D01*
X131225314Y-65089447D01*
X131248518Y-65083635D01*
X131272179Y-65080125D01*
X131296071Y-65078951D01*
X131783571Y-65078951D01*
X131807463Y-65080125D01*
X131807463Y-65080125D01*
G37*
D17*
G04 #@! TD*
G04 #@! TO.P,D7,2*
G04 #@! TO.N,VDD_BAT*
X131539821Y-65778951D03*
D12*
G04 #@! TO.N,Net-(D7-Pad1)*
G04 #@! TO.C,D7*
G36*
X133682463Y-65080125D02*
X133706124Y-65083635D01*
X133729328Y-65089447D01*
X133751850Y-65097505D01*
X133773474Y-65107733D01*
X133793991Y-65120030D01*
X133813204Y-65134280D01*
X133830928Y-65150344D01*
X133846992Y-65168068D01*
X133861242Y-65187281D01*
X133873539Y-65207798D01*
X133883767Y-65229422D01*
X133891825Y-65251944D01*
X133897637Y-65275148D01*
X133901147Y-65298809D01*
X133902321Y-65322701D01*
X133902321Y-66235201D01*
X133901147Y-66259093D01*
X133897637Y-66282754D01*
X133891825Y-66305958D01*
X133883767Y-66328480D01*
X133873539Y-66350104D01*
X133861242Y-66370621D01*
X133846992Y-66389834D01*
X133830928Y-66407558D01*
X133813204Y-66423622D01*
X133793991Y-66437872D01*
X133773474Y-66450169D01*
X133751850Y-66460397D01*
X133729328Y-66468455D01*
X133706124Y-66474267D01*
X133682463Y-66477777D01*
X133658571Y-66478951D01*
X133171071Y-66478951D01*
X133147179Y-66477777D01*
X133123518Y-66474267D01*
X133100314Y-66468455D01*
X133077792Y-66460397D01*
X133056168Y-66450169D01*
X133035651Y-66437872D01*
X133016438Y-66423622D01*
X132998714Y-66407558D01*
X132982650Y-66389834D01*
X132968400Y-66370621D01*
X132956103Y-66350104D01*
X132945875Y-66328480D01*
X132937817Y-66305958D01*
X132932005Y-66282754D01*
X132928495Y-66259093D01*
X132927321Y-66235201D01*
X132927321Y-65322701D01*
X132928495Y-65298809D01*
X132932005Y-65275148D01*
X132937817Y-65251944D01*
X132945875Y-65229422D01*
X132956103Y-65207798D01*
X132968400Y-65187281D01*
X132982650Y-65168068D01*
X132998714Y-65150344D01*
X133016438Y-65134280D01*
X133035651Y-65120030D01*
X133056168Y-65107733D01*
X133077792Y-65097505D01*
X133100314Y-65089447D01*
X133123518Y-65083635D01*
X133147179Y-65080125D01*
X133171071Y-65078951D01*
X133658571Y-65078951D01*
X133682463Y-65080125D01*
X133682463Y-65080125D01*
G37*
D17*
G04 #@! TD*
G04 #@! TO.P,D7,1*
G04 #@! TO.N,Net-(D7-Pad1)*
X133414821Y-65778951D03*
D18*
G04 #@! TO.P,J9,24*
G04 #@! TO.N,GND*
X150154907Y-117558219D03*
G04 #@! TO.P,J9,23*
G04 #@! TO.N,I2C_SCL*
X147614907Y-117558219D03*
G04 #@! TO.P,J9,22*
G04 #@! TO.N,SPI_MISO*
X150154907Y-115018219D03*
G04 #@! TO.P,J9,21*
G04 #@! TO.N,I2C_SDA*
X147614907Y-115018219D03*
G04 #@! TO.P,J9,20*
G04 #@! TO.N,SPI_MOSI*
X150154907Y-112478219D03*
G04 #@! TO.P,J9,19*
G04 #@! TO.N,GND*
X147614907Y-112478219D03*
G04 #@! TO.P,J9,18*
G04 #@! TO.N,SPI_SCK*
X150154907Y-109938219D03*
G04 #@! TO.P,J9,17*
G04 #@! TO.N,USART_RX*
X147614907Y-109938219D03*
G04 #@! TO.P,J9,16*
G04 #@! TO.N,SPI_SSn*
X150154907Y-107398219D03*
G04 #@! TO.P,J9,15*
G04 #@! TO.N,USART_TX*
X147614907Y-107398219D03*
G04 #@! TO.P,J9,14*
G04 #@! TO.N,GND*
X150154907Y-104858219D03*
G04 #@! TO.P,J9,13*
X147614907Y-104858219D03*
G04 #@! TO.P,J9,12*
G04 #@! TO.N,PWM_4A*
X150154907Y-102318219D03*
G04 #@! TO.P,J9,11*
G04 #@! TO.N,PWM_4D*
X147614907Y-102318219D03*
G04 #@! TO.P,J9,10*
G04 #@! TO.N,GND*
X150154907Y-99778219D03*
G04 #@! TO.P,J9,9*
X147614907Y-99778219D03*
G04 #@! TO.P,J9,8*
G04 #@! TO.N,+1V8*
X150154907Y-97238219D03*
G04 #@! TO.P,J9,7*
X147614907Y-97238219D03*
G04 #@! TO.P,J9,6*
G04 #@! TO.N,+3V3*
X150154907Y-94698219D03*
G04 #@! TO.P,J9,5*
X147614907Y-94698219D03*
G04 #@! TO.P,J9,4*
G04 #@! TO.N,GND*
X150154907Y-92158219D03*
G04 #@! TO.P,J9,3*
G04 #@! TO.N,+5V*
X147614907Y-92158219D03*
G04 #@! TO.P,J9,2*
G04 #@! TO.N,GND*
X150154907Y-89618219D03*
D19*
G04 #@! TO.P,J9,1*
G04 #@! TO.N,+5V*
X147614907Y-89618219D03*
G04 #@! TD*
D18*
G04 #@! TO.P,J10,10*
G04 #@! TO.N,/microcontroller/uC_RSTn*
X157661000Y-82910000D03*
G04 #@! TO.P,J10,9*
G04 #@! TO.N,GND*
X157661000Y-85450000D03*
G04 #@! TO.P,J10,8*
G04 #@! TO.N,JTAG_TDI*
X155121000Y-82910000D03*
G04 #@! TO.P,J10,7*
G04 #@! TO.N,N/C*
X155121000Y-85450000D03*
G04 #@! TO.P,J10,6*
G04 #@! TO.N,JTAG_TDO*
X152581000Y-82910000D03*
G04 #@! TO.P,J10,5*
G04 #@! TO.N,GND*
X152581000Y-85450000D03*
G04 #@! TO.P,J10,4*
G04 #@! TO.N,JTAG_TCK*
X150041000Y-82910000D03*
G04 #@! TO.P,J10,3*
G04 #@! TO.N,GND*
X150041000Y-85450000D03*
G04 #@! TO.P,J10,2*
G04 #@! TO.N,JTAG_TMS*
X147501000Y-82910000D03*
D19*
G04 #@! TO.P,J10,1*
G04 #@! TO.N,VDD_uC*
X147501000Y-85450000D03*
G04 #@! TD*
D20*
G04 #@! TO.P,J11,1*
G04 #@! TO.N,/microcontroller/VBUS*
X178645509Y-69338090D03*
G04 #@! TO.P,J11,2*
G04 #@! TO.N,/microcontroller/M_USB_D-*
X178645509Y-68688090D03*
G04 #@! TO.P,J11,3*
G04 #@! TO.N,/microcontroller/M_USB_D+*
X178645509Y-68038090D03*
G04 #@! TO.P,J11,4*
G04 #@! TO.N,N/C*
X178645509Y-67388090D03*
G04 #@! TO.P,J11,5*
G04 #@! TO.N,/microcontroller/UGND*
X178645509Y-66738090D03*
D21*
G04 #@! TO.P,J11,6*
G04 #@! TO.N,Net-(C21-Pad1)*
X178795509Y-70538090D03*
X178795509Y-65538090D03*
D22*
X181695509Y-72138090D03*
X181695509Y-63938091D03*
G04 #@! TD*
D23*
G04 #@! TO.P,J12,2*
G04 #@! TO.N,/battery/TAP_2*
X91970000Y-111060000D03*
G04 #@! TO.P,J12,1*
G04 #@! TO.N,GND*
X91970000Y-118260000D03*
D24*
G04 #@! TO.P,J12,*
G04 #@! TO.N,*
X85970000Y-107910000D03*
X85970000Y-121410000D03*
G04 #@! TD*
D25*
G04 #@! TO.P,J14,2*
G04 #@! TO.N,GND*
X179124000Y-128423000D03*
D26*
G04 #@! TO.P,J14,1*
G04 #@! TO.N,VDD_BAT*
X179124000Y-123423000D03*
G04 #@! TD*
D23*
G04 #@! TO.P,J15,2*
G04 #@! TO.N,/battery/TAP_2*
X91970000Y-58990000D03*
G04 #@! TO.P,J15,1*
G04 #@! TO.N,GND*
X91970000Y-66190000D03*
D24*
G04 #@! TO.P,J15,*
G04 #@! TO.N,*
X85970000Y-55840000D03*
X85970000Y-69340000D03*
G04 #@! TD*
D23*
G04 #@! TO.P,J18,2*
G04 #@! TO.N,GND*
X172520000Y-88454000D03*
G04 #@! TO.P,J18,1*
G04 #@! TO.N,/battery/TAP_2*
X172520000Y-95654000D03*
D24*
G04 #@! TO.P,J18,*
G04 #@! TO.N,*
X178520000Y-85304000D03*
X178520000Y-98804000D03*
G04 #@! TD*
D18*
G04 #@! TO.P,JP1,3*
G04 #@! TO.N,+3V3*
X155502000Y-94594000D03*
G04 #@! TO.P,JP1,2*
G04 #@! TO.N,Net-(C27-Pad1)*
X155502000Y-92054000D03*
D19*
G04 #@! TO.P,JP1,1*
G04 #@! TO.N,+5V*
X155502000Y-89514000D03*
G04 #@! TD*
D18*
G04 #@! TO.P,JP2,3*
G04 #@! TO.N,+3V3*
X129594000Y-88244000D03*
G04 #@! TO.P,JP2,2*
G04 #@! TO.N,VDD_uC*
X127054000Y-88244000D03*
D19*
G04 #@! TO.P,JP2,1*
G04 #@! TO.N,+5V*
X124514000Y-88244000D03*
G04 #@! TD*
D12*
G04 #@! TO.N,/microcontroller/uC_AVCC*
G04 #@! TO.C,L1*
G36*
X151461691Y-66573053D02*
X151482926Y-66576203D01*
X151503750Y-66581419D01*
X151523962Y-66588651D01*
X151543368Y-66597830D01*
X151561781Y-66608866D01*
X151579024Y-66621654D01*
X151594930Y-66636070D01*
X151609346Y-66651976D01*
X151622134Y-66669219D01*
X151633170Y-66687632D01*
X151642349Y-66707038D01*
X151649581Y-66727250D01*
X151654797Y-66748074D01*
X151657947Y-66769309D01*
X151659000Y-66790750D01*
X151659000Y-67228250D01*
X151657947Y-67249691D01*
X151654797Y-67270926D01*
X151649581Y-67291750D01*
X151642349Y-67311962D01*
X151633170Y-67331368D01*
X151622134Y-67349781D01*
X151609346Y-67367024D01*
X151594930Y-67382930D01*
X151579024Y-67397346D01*
X151561781Y-67410134D01*
X151543368Y-67421170D01*
X151523962Y-67430349D01*
X151503750Y-67437581D01*
X151482926Y-67442797D01*
X151461691Y-67445947D01*
X151440250Y-67447000D01*
X150927750Y-67447000D01*
X150906309Y-67445947D01*
X150885074Y-67442797D01*
X150864250Y-67437581D01*
X150844038Y-67430349D01*
X150824632Y-67421170D01*
X150806219Y-67410134D01*
X150788976Y-67397346D01*
X150773070Y-67382930D01*
X150758654Y-67367024D01*
X150745866Y-67349781D01*
X150734830Y-67331368D01*
X150725651Y-67311962D01*
X150718419Y-67291750D01*
X150713203Y-67270926D01*
X150710053Y-67249691D01*
X150709000Y-67228250D01*
X150709000Y-66790750D01*
X150710053Y-66769309D01*
X150713203Y-66748074D01*
X150718419Y-66727250D01*
X150725651Y-66707038D01*
X150734830Y-66687632D01*
X150745866Y-66669219D01*
X150758654Y-66651976D01*
X150773070Y-66636070D01*
X150788976Y-66621654D01*
X150806219Y-66608866D01*
X150824632Y-66597830D01*
X150844038Y-66588651D01*
X150864250Y-66581419D01*
X150885074Y-66576203D01*
X150906309Y-66573053D01*
X150927750Y-66572000D01*
X151440250Y-66572000D01*
X151461691Y-66573053D01*
X151461691Y-66573053D01*
G37*
D13*
G04 #@! TD*
G04 #@! TO.P,L1,2*
G04 #@! TO.N,/microcontroller/uC_AVCC*
X151184000Y-67009500D03*
D12*
G04 #@! TO.N,VDD_uC*
G04 #@! TO.C,L1*
G36*
X151461691Y-68148053D02*
X151482926Y-68151203D01*
X151503750Y-68156419D01*
X151523962Y-68163651D01*
X151543368Y-68172830D01*
X151561781Y-68183866D01*
X151579024Y-68196654D01*
X151594930Y-68211070D01*
X151609346Y-68226976D01*
X151622134Y-68244219D01*
X151633170Y-68262632D01*
X151642349Y-68282038D01*
X151649581Y-68302250D01*
X151654797Y-68323074D01*
X151657947Y-68344309D01*
X151659000Y-68365750D01*
X151659000Y-68803250D01*
X151657947Y-68824691D01*
X151654797Y-68845926D01*
X151649581Y-68866750D01*
X151642349Y-68886962D01*
X151633170Y-68906368D01*
X151622134Y-68924781D01*
X151609346Y-68942024D01*
X151594930Y-68957930D01*
X151579024Y-68972346D01*
X151561781Y-68985134D01*
X151543368Y-68996170D01*
X151523962Y-69005349D01*
X151503750Y-69012581D01*
X151482926Y-69017797D01*
X151461691Y-69020947D01*
X151440250Y-69022000D01*
X150927750Y-69022000D01*
X150906309Y-69020947D01*
X150885074Y-69017797D01*
X150864250Y-69012581D01*
X150844038Y-69005349D01*
X150824632Y-68996170D01*
X150806219Y-68985134D01*
X150788976Y-68972346D01*
X150773070Y-68957930D01*
X150758654Y-68942024D01*
X150745866Y-68924781D01*
X150734830Y-68906368D01*
X150725651Y-68886962D01*
X150718419Y-68866750D01*
X150713203Y-68845926D01*
X150710053Y-68824691D01*
X150709000Y-68803250D01*
X150709000Y-68365750D01*
X150710053Y-68344309D01*
X150713203Y-68323074D01*
X150718419Y-68302250D01*
X150725651Y-68282038D01*
X150734830Y-68262632D01*
X150745866Y-68244219D01*
X150758654Y-68226976D01*
X150773070Y-68211070D01*
X150788976Y-68196654D01*
X150806219Y-68183866D01*
X150824632Y-68172830D01*
X150844038Y-68163651D01*
X150864250Y-68156419D01*
X150885074Y-68151203D01*
X150906309Y-68148053D01*
X150927750Y-68147000D01*
X151440250Y-68147000D01*
X151461691Y-68148053D01*
X151461691Y-68148053D01*
G37*
D13*
G04 #@! TD*
G04 #@! TO.P,L1,1*
G04 #@! TO.N,VDD_uC*
X151184000Y-68584500D03*
D12*
G04 #@! TO.N,/microcontroller/VBUS*
G04 #@! TO.C,R18*
G36*
X168860691Y-64973053D02*
X168881926Y-64976203D01*
X168902750Y-64981419D01*
X168922962Y-64988651D01*
X168942368Y-64997830D01*
X168960781Y-65008866D01*
X168978024Y-65021654D01*
X168993930Y-65036070D01*
X169008346Y-65051976D01*
X169021134Y-65069219D01*
X169032170Y-65087632D01*
X169041349Y-65107038D01*
X169048581Y-65127250D01*
X169053797Y-65148074D01*
X169056947Y-65169309D01*
X169058000Y-65190750D01*
X169058000Y-65628250D01*
X169056947Y-65649691D01*
X169053797Y-65670926D01*
X169048581Y-65691750D01*
X169041349Y-65711962D01*
X169032170Y-65731368D01*
X169021134Y-65749781D01*
X169008346Y-65767024D01*
X168993930Y-65782930D01*
X168978024Y-65797346D01*
X168960781Y-65810134D01*
X168942368Y-65821170D01*
X168922962Y-65830349D01*
X168902750Y-65837581D01*
X168881926Y-65842797D01*
X168860691Y-65845947D01*
X168839250Y-65847000D01*
X168326750Y-65847000D01*
X168305309Y-65845947D01*
X168284074Y-65842797D01*
X168263250Y-65837581D01*
X168243038Y-65830349D01*
X168223632Y-65821170D01*
X168205219Y-65810134D01*
X168187976Y-65797346D01*
X168172070Y-65782930D01*
X168157654Y-65767024D01*
X168144866Y-65749781D01*
X168133830Y-65731368D01*
X168124651Y-65711962D01*
X168117419Y-65691750D01*
X168112203Y-65670926D01*
X168109053Y-65649691D01*
X168108000Y-65628250D01*
X168108000Y-65190750D01*
X168109053Y-65169309D01*
X168112203Y-65148074D01*
X168117419Y-65127250D01*
X168124651Y-65107038D01*
X168133830Y-65087632D01*
X168144866Y-65069219D01*
X168157654Y-65051976D01*
X168172070Y-65036070D01*
X168187976Y-65021654D01*
X168205219Y-65008866D01*
X168223632Y-64997830D01*
X168243038Y-64988651D01*
X168263250Y-64981419D01*
X168284074Y-64976203D01*
X168305309Y-64973053D01*
X168326750Y-64972000D01*
X168839250Y-64972000D01*
X168860691Y-64973053D01*
X168860691Y-64973053D01*
G37*
D13*
G04 #@! TD*
G04 #@! TO.P,R18,2*
G04 #@! TO.N,/microcontroller/VBUS*
X168583000Y-65409500D03*
D12*
G04 #@! TO.N,Net-(D6-Pad6)*
G04 #@! TO.C,R18*
G36*
X168860691Y-63398053D02*
X168881926Y-63401203D01*
X168902750Y-63406419D01*
X168922962Y-63413651D01*
X168942368Y-63422830D01*
X168960781Y-63433866D01*
X168978024Y-63446654D01*
X168993930Y-63461070D01*
X169008346Y-63476976D01*
X169021134Y-63494219D01*
X169032170Y-63512632D01*
X169041349Y-63532038D01*
X169048581Y-63552250D01*
X169053797Y-63573074D01*
X169056947Y-63594309D01*
X169058000Y-63615750D01*
X169058000Y-64053250D01*
X169056947Y-64074691D01*
X169053797Y-64095926D01*
X169048581Y-64116750D01*
X169041349Y-64136962D01*
X169032170Y-64156368D01*
X169021134Y-64174781D01*
X169008346Y-64192024D01*
X168993930Y-64207930D01*
X168978024Y-64222346D01*
X168960781Y-64235134D01*
X168942368Y-64246170D01*
X168922962Y-64255349D01*
X168902750Y-64262581D01*
X168881926Y-64267797D01*
X168860691Y-64270947D01*
X168839250Y-64272000D01*
X168326750Y-64272000D01*
X168305309Y-64270947D01*
X168284074Y-64267797D01*
X168263250Y-64262581D01*
X168243038Y-64255349D01*
X168223632Y-64246170D01*
X168205219Y-64235134D01*
X168187976Y-64222346D01*
X168172070Y-64207930D01*
X168157654Y-64192024D01*
X168144866Y-64174781D01*
X168133830Y-64156368D01*
X168124651Y-64136962D01*
X168117419Y-64116750D01*
X168112203Y-64095926D01*
X168109053Y-64074691D01*
X168108000Y-64053250D01*
X168108000Y-63615750D01*
X168109053Y-63594309D01*
X168112203Y-63573074D01*
X168117419Y-63552250D01*
X168124651Y-63532038D01*
X168133830Y-63512632D01*
X168144866Y-63494219D01*
X168157654Y-63476976D01*
X168172070Y-63461070D01*
X168187976Y-63446654D01*
X168205219Y-63433866D01*
X168223632Y-63422830D01*
X168243038Y-63413651D01*
X168263250Y-63406419D01*
X168284074Y-63401203D01*
X168305309Y-63398053D01*
X168326750Y-63397000D01*
X168839250Y-63397000D01*
X168860691Y-63398053D01*
X168860691Y-63398053D01*
G37*
D13*
G04 #@! TD*
G04 #@! TO.P,R18,1*
G04 #@! TO.N,Net-(D6-Pad6)*
X168583000Y-63834500D03*
D12*
G04 #@! TO.N,Net-(D6-Pad4)*
G04 #@! TO.C,R19*
G36*
X172162691Y-63398053D02*
X172183926Y-63401203D01*
X172204750Y-63406419D01*
X172224962Y-63413651D01*
X172244368Y-63422830D01*
X172262781Y-63433866D01*
X172280024Y-63446654D01*
X172295930Y-63461070D01*
X172310346Y-63476976D01*
X172323134Y-63494219D01*
X172334170Y-63512632D01*
X172343349Y-63532038D01*
X172350581Y-63552250D01*
X172355797Y-63573074D01*
X172358947Y-63594309D01*
X172360000Y-63615750D01*
X172360000Y-64053250D01*
X172358947Y-64074691D01*
X172355797Y-64095926D01*
X172350581Y-64116750D01*
X172343349Y-64136962D01*
X172334170Y-64156368D01*
X172323134Y-64174781D01*
X172310346Y-64192024D01*
X172295930Y-64207930D01*
X172280024Y-64222346D01*
X172262781Y-64235134D01*
X172244368Y-64246170D01*
X172224962Y-64255349D01*
X172204750Y-64262581D01*
X172183926Y-64267797D01*
X172162691Y-64270947D01*
X172141250Y-64272000D01*
X171628750Y-64272000D01*
X171607309Y-64270947D01*
X171586074Y-64267797D01*
X171565250Y-64262581D01*
X171545038Y-64255349D01*
X171525632Y-64246170D01*
X171507219Y-64235134D01*
X171489976Y-64222346D01*
X171474070Y-64207930D01*
X171459654Y-64192024D01*
X171446866Y-64174781D01*
X171435830Y-64156368D01*
X171426651Y-64136962D01*
X171419419Y-64116750D01*
X171414203Y-64095926D01*
X171411053Y-64074691D01*
X171410000Y-64053250D01*
X171410000Y-63615750D01*
X171411053Y-63594309D01*
X171414203Y-63573074D01*
X171419419Y-63552250D01*
X171426651Y-63532038D01*
X171435830Y-63512632D01*
X171446866Y-63494219D01*
X171459654Y-63476976D01*
X171474070Y-63461070D01*
X171489976Y-63446654D01*
X171507219Y-63433866D01*
X171525632Y-63422830D01*
X171545038Y-63413651D01*
X171565250Y-63406419D01*
X171586074Y-63401203D01*
X171607309Y-63398053D01*
X171628750Y-63397000D01*
X172141250Y-63397000D01*
X172162691Y-63398053D01*
X172162691Y-63398053D01*
G37*
D13*
G04 #@! TD*
G04 #@! TO.P,R19,2*
G04 #@! TO.N,Net-(D6-Pad4)*
X171885000Y-63834500D03*
D12*
G04 #@! TO.N,/microcontroller/UGND*
G04 #@! TO.C,R19*
G36*
X172162691Y-64973053D02*
X172183926Y-64976203D01*
X172204750Y-64981419D01*
X172224962Y-64988651D01*
X172244368Y-64997830D01*
X172262781Y-65008866D01*
X172280024Y-65021654D01*
X172295930Y-65036070D01*
X172310346Y-65051976D01*
X172323134Y-65069219D01*
X172334170Y-65087632D01*
X172343349Y-65107038D01*
X172350581Y-65127250D01*
X172355797Y-65148074D01*
X172358947Y-65169309D01*
X172360000Y-65190750D01*
X172360000Y-65628250D01*
X172358947Y-65649691D01*
X172355797Y-65670926D01*
X172350581Y-65691750D01*
X172343349Y-65711962D01*
X172334170Y-65731368D01*
X172323134Y-65749781D01*
X172310346Y-65767024D01*
X172295930Y-65782930D01*
X172280024Y-65797346D01*
X172262781Y-65810134D01*
X172244368Y-65821170D01*
X172224962Y-65830349D01*
X172204750Y-65837581D01*
X172183926Y-65842797D01*
X172162691Y-65845947D01*
X172141250Y-65847000D01*
X171628750Y-65847000D01*
X171607309Y-65845947D01*
X171586074Y-65842797D01*
X171565250Y-65837581D01*
X171545038Y-65830349D01*
X171525632Y-65821170D01*
X171507219Y-65810134D01*
X171489976Y-65797346D01*
X171474070Y-65782930D01*
X171459654Y-65767024D01*
X171446866Y-65749781D01*
X171435830Y-65731368D01*
X171426651Y-65711962D01*
X171419419Y-65691750D01*
X171414203Y-65670926D01*
X171411053Y-65649691D01*
X171410000Y-65628250D01*
X171410000Y-65190750D01*
X171411053Y-65169309D01*
X171414203Y-65148074D01*
X171419419Y-65127250D01*
X171426651Y-65107038D01*
X171435830Y-65087632D01*
X171446866Y-65069219D01*
X171459654Y-65051976D01*
X171474070Y-65036070D01*
X171489976Y-65021654D01*
X171507219Y-65008866D01*
X171525632Y-64997830D01*
X171545038Y-64988651D01*
X171565250Y-64981419D01*
X171586074Y-64976203D01*
X171607309Y-64973053D01*
X171628750Y-64972000D01*
X172141250Y-64972000D01*
X172162691Y-64973053D01*
X172162691Y-64973053D01*
G37*
D13*
G04 #@! TD*
G04 #@! TO.P,R19,1*
G04 #@! TO.N,/microcontroller/UGND*
X171885000Y-65409500D03*
D12*
G04 #@! TO.N,RESETn*
G04 #@! TO.C,R27*
G36*
X160986691Y-53924053D02*
X161007926Y-53927203D01*
X161028750Y-53932419D01*
X161048962Y-53939651D01*
X161068368Y-53948830D01*
X161086781Y-53959866D01*
X161104024Y-53972654D01*
X161119930Y-53987070D01*
X161134346Y-54002976D01*
X161147134Y-54020219D01*
X161158170Y-54038632D01*
X161167349Y-54058038D01*
X161174581Y-54078250D01*
X161179797Y-54099074D01*
X161182947Y-54120309D01*
X161184000Y-54141750D01*
X161184000Y-54579250D01*
X161182947Y-54600691D01*
X161179797Y-54621926D01*
X161174581Y-54642750D01*
X161167349Y-54662962D01*
X161158170Y-54682368D01*
X161147134Y-54700781D01*
X161134346Y-54718024D01*
X161119930Y-54733930D01*
X161104024Y-54748346D01*
X161086781Y-54761134D01*
X161068368Y-54772170D01*
X161048962Y-54781349D01*
X161028750Y-54788581D01*
X161007926Y-54793797D01*
X160986691Y-54796947D01*
X160965250Y-54798000D01*
X160452750Y-54798000D01*
X160431309Y-54796947D01*
X160410074Y-54793797D01*
X160389250Y-54788581D01*
X160369038Y-54781349D01*
X160349632Y-54772170D01*
X160331219Y-54761134D01*
X160313976Y-54748346D01*
X160298070Y-54733930D01*
X160283654Y-54718024D01*
X160270866Y-54700781D01*
X160259830Y-54682368D01*
X160250651Y-54662962D01*
X160243419Y-54642750D01*
X160238203Y-54621926D01*
X160235053Y-54600691D01*
X160234000Y-54579250D01*
X160234000Y-54141750D01*
X160235053Y-54120309D01*
X160238203Y-54099074D01*
X160243419Y-54078250D01*
X160250651Y-54058038D01*
X160259830Y-54038632D01*
X160270866Y-54020219D01*
X160283654Y-54002976D01*
X160298070Y-53987070D01*
X160313976Y-53972654D01*
X160331219Y-53959866D01*
X160349632Y-53948830D01*
X160369038Y-53939651D01*
X160389250Y-53932419D01*
X160410074Y-53927203D01*
X160431309Y-53924053D01*
X160452750Y-53923000D01*
X160965250Y-53923000D01*
X160986691Y-53924053D01*
X160986691Y-53924053D01*
G37*
D13*
G04 #@! TD*
G04 #@! TO.P,R27,2*
G04 #@! TO.N,RESETn*
X160709000Y-54360500D03*
D12*
G04 #@! TO.N,RST_TVS*
G04 #@! TO.C,R27*
G36*
X160986691Y-52349053D02*
X161007926Y-52352203D01*
X161028750Y-52357419D01*
X161048962Y-52364651D01*
X161068368Y-52373830D01*
X161086781Y-52384866D01*
X161104024Y-52397654D01*
X161119930Y-52412070D01*
X161134346Y-52427976D01*
X161147134Y-52445219D01*
X161158170Y-52463632D01*
X161167349Y-52483038D01*
X161174581Y-52503250D01*
X161179797Y-52524074D01*
X161182947Y-52545309D01*
X161184000Y-52566750D01*
X161184000Y-53004250D01*
X161182947Y-53025691D01*
X161179797Y-53046926D01*
X161174581Y-53067750D01*
X161167349Y-53087962D01*
X161158170Y-53107368D01*
X161147134Y-53125781D01*
X161134346Y-53143024D01*
X161119930Y-53158930D01*
X161104024Y-53173346D01*
X161086781Y-53186134D01*
X161068368Y-53197170D01*
X161048962Y-53206349D01*
X161028750Y-53213581D01*
X161007926Y-53218797D01*
X160986691Y-53221947D01*
X160965250Y-53223000D01*
X160452750Y-53223000D01*
X160431309Y-53221947D01*
X160410074Y-53218797D01*
X160389250Y-53213581D01*
X160369038Y-53206349D01*
X160349632Y-53197170D01*
X160331219Y-53186134D01*
X160313976Y-53173346D01*
X160298070Y-53158930D01*
X160283654Y-53143024D01*
X160270866Y-53125781D01*
X160259830Y-53107368D01*
X160250651Y-53087962D01*
X160243419Y-53067750D01*
X160238203Y-53046926D01*
X160235053Y-53025691D01*
X160234000Y-53004250D01*
X160234000Y-52566750D01*
X160235053Y-52545309D01*
X160238203Y-52524074D01*
X160243419Y-52503250D01*
X160250651Y-52483038D01*
X160259830Y-52463632D01*
X160270866Y-52445219D01*
X160283654Y-52427976D01*
X160298070Y-52412070D01*
X160313976Y-52397654D01*
X160331219Y-52384866D01*
X160349632Y-52373830D01*
X160369038Y-52364651D01*
X160389250Y-52357419D01*
X160410074Y-52352203D01*
X160431309Y-52349053D01*
X160452750Y-52348000D01*
X160965250Y-52348000D01*
X160986691Y-52349053D01*
X160986691Y-52349053D01*
G37*
D13*
G04 #@! TD*
G04 #@! TO.P,R27,1*
G04 #@! TO.N,RST_TVS*
X160709000Y-52785500D03*
D12*
G04 #@! TO.N,+5V*
G04 #@! TO.C,R36*
G36*
X170511691Y-64973053D02*
X170532926Y-64976203D01*
X170553750Y-64981419D01*
X170573962Y-64988651D01*
X170593368Y-64997830D01*
X170611781Y-65008866D01*
X170629024Y-65021654D01*
X170644930Y-65036070D01*
X170659346Y-65051976D01*
X170672134Y-65069219D01*
X170683170Y-65087632D01*
X170692349Y-65107038D01*
X170699581Y-65127250D01*
X170704797Y-65148074D01*
X170707947Y-65169309D01*
X170709000Y-65190750D01*
X170709000Y-65628250D01*
X170707947Y-65649691D01*
X170704797Y-65670926D01*
X170699581Y-65691750D01*
X170692349Y-65711962D01*
X170683170Y-65731368D01*
X170672134Y-65749781D01*
X170659346Y-65767024D01*
X170644930Y-65782930D01*
X170629024Y-65797346D01*
X170611781Y-65810134D01*
X170593368Y-65821170D01*
X170573962Y-65830349D01*
X170553750Y-65837581D01*
X170532926Y-65842797D01*
X170511691Y-65845947D01*
X170490250Y-65847000D01*
X169977750Y-65847000D01*
X169956309Y-65845947D01*
X169935074Y-65842797D01*
X169914250Y-65837581D01*
X169894038Y-65830349D01*
X169874632Y-65821170D01*
X169856219Y-65810134D01*
X169838976Y-65797346D01*
X169823070Y-65782930D01*
X169808654Y-65767024D01*
X169795866Y-65749781D01*
X169784830Y-65731368D01*
X169775651Y-65711962D01*
X169768419Y-65691750D01*
X169763203Y-65670926D01*
X169760053Y-65649691D01*
X169759000Y-65628250D01*
X169759000Y-65190750D01*
X169760053Y-65169309D01*
X169763203Y-65148074D01*
X169768419Y-65127250D01*
X169775651Y-65107038D01*
X169784830Y-65087632D01*
X169795866Y-65069219D01*
X169808654Y-65051976D01*
X169823070Y-65036070D01*
X169838976Y-65021654D01*
X169856219Y-65008866D01*
X169874632Y-64997830D01*
X169894038Y-64988651D01*
X169914250Y-64981419D01*
X169935074Y-64976203D01*
X169956309Y-64973053D01*
X169977750Y-64972000D01*
X170490250Y-64972000D01*
X170511691Y-64973053D01*
X170511691Y-64973053D01*
G37*
D13*
G04 #@! TD*
G04 #@! TO.P,R36,2*
G04 #@! TO.N,+5V*
X170234000Y-65409500D03*
D12*
G04 #@! TO.N,Net-(D6-Pad5)*
G04 #@! TO.C,R36*
G36*
X170511691Y-63398053D02*
X170532926Y-63401203D01*
X170553750Y-63406419D01*
X170573962Y-63413651D01*
X170593368Y-63422830D01*
X170611781Y-63433866D01*
X170629024Y-63446654D01*
X170644930Y-63461070D01*
X170659346Y-63476976D01*
X170672134Y-63494219D01*
X170683170Y-63512632D01*
X170692349Y-63532038D01*
X170699581Y-63552250D01*
X170704797Y-63573074D01*
X170707947Y-63594309D01*
X170709000Y-63615750D01*
X170709000Y-64053250D01*
X170707947Y-64074691D01*
X170704797Y-64095926D01*
X170699581Y-64116750D01*
X170692349Y-64136962D01*
X170683170Y-64156368D01*
X170672134Y-64174781D01*
X170659346Y-64192024D01*
X170644930Y-64207930D01*
X170629024Y-64222346D01*
X170611781Y-64235134D01*
X170593368Y-64246170D01*
X170573962Y-64255349D01*
X170553750Y-64262581D01*
X170532926Y-64267797D01*
X170511691Y-64270947D01*
X170490250Y-64272000D01*
X169977750Y-64272000D01*
X169956309Y-64270947D01*
X169935074Y-64267797D01*
X169914250Y-64262581D01*
X169894038Y-64255349D01*
X169874632Y-64246170D01*
X169856219Y-64235134D01*
X169838976Y-64222346D01*
X169823070Y-64207930D01*
X169808654Y-64192024D01*
X169795866Y-64174781D01*
X169784830Y-64156368D01*
X169775651Y-64136962D01*
X169768419Y-64116750D01*
X169763203Y-64095926D01*
X169760053Y-64074691D01*
X169759000Y-64053250D01*
X169759000Y-63615750D01*
X169760053Y-63594309D01*
X169763203Y-63573074D01*
X169768419Y-63552250D01*
X169775651Y-63532038D01*
X169784830Y-63512632D01*
X169795866Y-63494219D01*
X169808654Y-63476976D01*
X169823070Y-63461070D01*
X169838976Y-63446654D01*
X169856219Y-63433866D01*
X169874632Y-63422830D01*
X169894038Y-63413651D01*
X169914250Y-63406419D01*
X169935074Y-63401203D01*
X169956309Y-63398053D01*
X169977750Y-63397000D01*
X170490250Y-63397000D01*
X170511691Y-63398053D01*
X170511691Y-63398053D01*
G37*
D13*
G04 #@! TD*
G04 #@! TO.P,R36,1*
G04 #@! TO.N,Net-(D6-Pad5)*
X170234000Y-63834500D03*
D25*
G04 #@! TO.P,SW1,2*
G04 #@! TO.N,/microcontroller/uC_RSTn*
X163301000Y-49346000D03*
X169801000Y-49346000D03*
G04 #@! TO.P,SW1,1*
G04 #@! TO.N,GND*
X163301000Y-44846000D03*
X169801000Y-44846000D03*
G04 #@! TD*
G04 #@! TO.P,SW2,2*
G04 #@! TO.N,Net-(D8-Pad1)*
X139396000Y-44810000D03*
X132896000Y-44810000D03*
G04 #@! TO.P,SW2,1*
G04 #@! TO.N,Net-(D8-Pad6)*
X139396000Y-49310000D03*
X132896000Y-49310000D03*
G04 #@! TD*
G04 #@! TO.P,SW3,2*
G04 #@! TO.N,RST_TVS*
X157026000Y-44810000D03*
X150526000Y-44810000D03*
G04 #@! TO.P,SW3,1*
G04 #@! TO.N,Net-(R22-Pad2)*
X157026000Y-49310000D03*
X150526000Y-49310000D03*
G04 #@! TD*
D27*
G04 #@! TO.P,U7,4*
G04 #@! TO.N,Net-(J4-Pad1)*
X132545000Y-58719000D03*
G04 #@! TO.P,U7,5*
G04 #@! TO.N,VDD_BAT*
X132545000Y-59669000D03*
G04 #@! TO.P,U7,6*
G04 #@! TO.N,Net-(J3-Pad1)*
X132545000Y-60619000D03*
G04 #@! TO.P,U7,3*
G04 #@! TO.N,Net-(R8-Pad1)*
X129945000Y-58719000D03*
G04 #@! TO.P,U7,2*
G04 #@! TO.N,GND*
X129945000Y-59669000D03*
G04 #@! TO.P,U7,1*
G04 #@! TO.N,Net-(R7-Pad1)*
X129945000Y-60619000D03*
G04 #@! TD*
D28*
G04 #@! TO.P,J13,4*
G04 #@! TO.N,GND*
X83620000Y-100690000D03*
G04 #@! TO.P,J13,3*
G04 #@! TO.N,/battery/TAP_0*
X83620000Y-98150000D03*
G04 #@! TO.P,J13,2*
G04 #@! TO.N,/battery/TAP_1*
X83620000Y-95610000D03*
D19*
G04 #@! TO.P,J13,1*
G04 #@! TO.N,/battery/TAP_2*
X83620000Y-93070000D03*
G04 #@! TD*
D28*
G04 #@! TO.P,J16,4*
G04 #@! TO.N,GND*
X83620000Y-84180000D03*
G04 #@! TO.P,J16,3*
G04 #@! TO.N,/battery/TAP_0*
X83620000Y-81640000D03*
G04 #@! TO.P,J16,2*
G04 #@! TO.N,/battery/TAP_1*
X83620000Y-79100000D03*
D19*
G04 #@! TO.P,J16,1*
G04 #@! TO.N,/battery/TAP_2*
X83620000Y-76560000D03*
G04 #@! TD*
D28*
G04 #@! TO.P,J17,4*
G04 #@! TO.N,GND*
X178362000Y-115803000D03*
G04 #@! TO.P,J17,3*
G04 #@! TO.N,/battery/TAP_0*
X178362000Y-113263000D03*
G04 #@! TO.P,J17,2*
G04 #@! TO.N,/battery/TAP_1*
X178362000Y-110723000D03*
D19*
G04 #@! TO.P,J17,1*
G04 #@! TO.N,/battery/TAP_2*
X178362000Y-108183000D03*
G04 #@! TD*
D25*
G04 #@! TO.P,BZ1,2*
G04 #@! TO.N,Net-(BZ1-Pad2)*
X118727505Y-83920755D03*
G04 #@! TO.P,BZ1,1*
G04 #@! TO.N,VDD_BAT*
X111107505Y-83920755D03*
G04 #@! TD*
D29*
G04 #@! TO.P,Q1,4*
G04 #@! TO.N,VDD_BAT*
X93272000Y-99293000D03*
X93272000Y-96245000D03*
X100384000Y-96245000D03*
X100384000Y-99293000D03*
D30*
G04 #@! TO.P,Q1,3*
G04 #@! TO.N,Net-(D8-Pad6)*
X94288000Y-81386000D03*
G04 #@! TO.P,Q1,2*
G04 #@! TO.N,VDD_BAT*
X96828000Y-81386000D03*
D31*
G04 #@! TO.P,Q1,1*
G04 #@! TO.N,Net-(D8-Pad1)*
X99368000Y-81386000D03*
D32*
G04 #@! TO.P,Q1,4*
G04 #@! TO.N,VDD_BAT*
X96828000Y-98046000D03*
G04 #@! TD*
D33*
G04 #@! TO.P,D9,2*
G04 #@! TO.N,GND*
X175498000Y-68559000D03*
G04 #@! TO.P,D9,5*
G04 #@! TO.N,N/C*
X173098000Y-68559000D03*
G04 #@! TO.P,D9,4*
G04 #@! TO.N,/microcontroller/M_USB_D-*
X173098000Y-69509000D03*
G04 #@! TO.P,D9,3*
X175498000Y-69509000D03*
G04 #@! TO.P,D9,6*
G04 #@! TO.N,/microcontroller/M_USB_D+*
X173098000Y-67609000D03*
G04 #@! TO.P,D9,1*
X175498000Y-67609000D03*
G04 #@! TD*
D14*
G04 #@! TO.P,C32,2*
G04 #@! TO.N,GND*
X136674000Y-76560000D03*
D15*
G04 #@! TO.P,C32,1*
G04 #@! TO.N,VDD_uC*
X134674000Y-76560000D03*
G04 #@! TD*
D29*
G04 #@! TO.P,TP1,1*
G04 #@! TO.N,/battery/TAP_2*
X172774000Y-108183000D03*
G04 #@! TD*
G04 #@! TO.P,TP2,1*
G04 #@! TO.N,/battery/TAP_1*
X172774000Y-110723000D03*
G04 #@! TD*
G04 #@! TO.P,TP3,1*
G04 #@! TO.N,/battery/TAP_0*
X172774000Y-113263000D03*
G04 #@! TD*
G04 #@! TO.P,TP4,1*
G04 #@! TO.N,GND*
X172774000Y-115803000D03*
G04 #@! TD*
G04 #@! TO.P,TP5,1*
G04 #@! TO.N,SNS_2*
X139344400Y-106730800D03*
G04 #@! TD*
G04 #@! TO.P,TP6,1*
G04 #@! TO.N,SNS_1*
X140614400Y-116789200D03*
G04 #@! TD*
G04 #@! TO.P,TP7,1*
G04 #@! TO.N,SNS_0*
X135839200Y-116992400D03*
G04 #@! TD*
G04 #@! TO.P,TP8,1*
G04 #@! TO.N,VDD_BAT*
X108639000Y-110723000D03*
G04 #@! TD*
G04 #@! TO.P,TP9,1*
G04 #@! TO.N,+5V*
X122355000Y-94721000D03*
G04 #@! TD*
G04 #@! TO.P,TP10,1*
G04 #@! TO.N,Net-(C3-Pad2)*
X119561000Y-101833000D03*
G04 #@! TD*
G04 #@! TO.P,TP11,1*
G04 #@! TO.N,Net-(C4-Pad2)*
X105464000Y-96880000D03*
G04 #@! TD*
G04 #@! TO.P,TP12,1*
G04 #@! TO.N,+3V3*
X136198000Y-94086000D03*
G04 #@! TD*
G04 #@! TO.P,TP13,1*
G04 #@! TO.N,+1V8*
X165789000Y-100309000D03*
G04 #@! TD*
G04 #@! TO.P,TP14,1*
G04 #@! TO.N,+5V*
X105718000Y-103230000D03*
G04 #@! TD*
G04 #@! TO.P,TP16,1*
G04 #@! TO.N,Net-(R3-Pad2)*
X125911000Y-96753000D03*
G04 #@! TD*
G04 #@! TO.P,TP17,1*
G04 #@! TO.N,Net-(R4-Pad2)*
X167567000Y-94721000D03*
G04 #@! TD*
G04 #@! TO.P,TP34,1*
G04 #@! TO.N,VDD_uC*
X130229000Y-79989000D03*
G04 #@! TD*
G04 #@! TO.P,TP35,1*
G04 #@! TO.N,/microcontroller/VBUS*
X166344600Y-70942200D03*
G04 #@! TD*
G04 #@! TO.P,TP52,1*
G04 #@! TO.N,VDD_BAT*
X172774000Y-120502000D03*
G04 #@! TD*
G04 #@! TO.P,TP53,1*
G04 #@! TO.N,/battery/TAP_2*
X88636500Y-87672500D03*
G04 #@! TD*
G04 #@! TO.P,TP54,1*
G04 #@! TO.N,Net-(D8-Pad6)*
X102543000Y-74401000D03*
G04 #@! TD*
G04 #@! TO.P,TP55,1*
G04 #@! TO.N,Net-(D8-Pad1)*
X105464000Y-74401000D03*
G04 #@! TD*
G04 #@! TO.P,TP56,1*
G04 #@! TO.N,RST_TVS*
X107115000Y-79735000D03*
G04 #@! TD*
D25*
G04 #@! TO.P,J1,1*
G04 #@! TO.N,Net-(J1-Pad1)*
X109401000Y-62717000D03*
G04 #@! TD*
G04 #@! TO.P,J2,1*
G04 #@! TO.N,Net-(J2-Pad1)*
X112068000Y-58272000D03*
G04 #@! TD*
G04 #@! TO.P,J3,1*
G04 #@! TO.N,Net-(J3-Pad1)*
X138357000Y-62209000D03*
G04 #@! TD*
G04 #@! TO.P,J4,1*
G04 #@! TO.N,Net-(J4-Pad1)*
X138357000Y-57129000D03*
G04 #@! TD*
G04 #@! TO.P,J5,1*
G04 #@! TO.N,Net-(J5-Pad1)*
X103686000Y-114406000D03*
G04 #@! TD*
G04 #@! TO.P,J6,1*
G04 #@! TO.N,Net-(J6-Pad1)*
X97590000Y-114406000D03*
G04 #@! TD*
G04 #@! TO.P,J7,1*
G04 #@! TO.N,Net-(J7-Pad1)*
X161725000Y-123550000D03*
G04 #@! TD*
G04 #@! TO.P,J8,1*
G04 #@! TO.N,Net-(J8-Pad1)*
X155883000Y-129392000D03*
G04 #@! TD*
D34*
G04 #@! TO.P,MH1,1*
G04 #@! TO.N,Net-(MH1-Pad1)*
X89970000Y-47900000D03*
G04 #@! TD*
G04 #@! TO.P,MH2,1*
G04 #@! TO.N,Net-(MH2-Pad1)*
X89970000Y-129900000D03*
G04 #@! TD*
G04 #@! TO.P,MH3,1*
G04 #@! TO.N,Net-(MH3-Pad1)*
X114970000Y-129900000D03*
G04 #@! TD*
G04 #@! TO.P,MH4,1*
G04 #@! TO.N,Net-(MH4-Pad1)*
X114970000Y-47900000D03*
G04 #@! TD*
G04 #@! TO.P,MH5,1*
G04 #@! TO.N,Net-(MH5-Pad1)*
X178108000Y-78338000D03*
G04 #@! TD*
D35*
G04 #@! TO.N,VDD_BAT*
X115624000Y-110342000D03*
X115624000Y-111358000D03*
X111052000Y-111358000D03*
X111052000Y-110342000D03*
X115184546Y-59374295D03*
X114168546Y-59374295D03*
X130230423Y-65815049D03*
X130424959Y-116952015D03*
X130424959Y-115936015D03*
X99368000Y-109072000D03*
X99368000Y-110088000D03*
X101944362Y-110100837D03*
X101944362Y-109084837D03*
X135055000Y-58399000D03*
X134039000Y-58399000D03*
X152654000Y-122301000D03*
X151311000Y-122280000D03*
X153978000Y-122280000D03*
X149987000Y-122301000D03*
X123244000Y-115295000D03*
X125149000Y-115295000D03*
X121847000Y-116819000D03*
X124641000Y-116819000D03*
X148644000Y-122280000D03*
X147320000Y-122301000D03*
G04 #@! TO.N,GND*
X152708000Y-69702000D03*
X149660000Y-66400000D03*
X156264000Y-68940000D03*
X155488907Y-103588219D03*
X143804907Y-112478219D03*
X113393505Y-71728755D03*
X112576000Y-113390000D03*
X114100000Y-113390000D03*
X109020000Y-104754000D03*
X110544000Y-104754000D03*
X109020000Y-106278000D03*
X110544000Y-106278000D03*
X121026546Y-60898295D03*
X121026546Y-59882295D03*
X112136546Y-60644295D03*
X126927000Y-67670000D03*
X122355000Y-67670000D03*
X122863000Y-77576000D03*
X124641000Y-77576000D03*
X126419000Y-77576000D03*
X138866423Y-65815049D03*
X129646808Y-110340815D03*
X128630808Y-110340815D03*
X129138808Y-118976815D03*
X100638000Y-112120000D03*
X101146000Y-103484000D03*
X100130000Y-103484000D03*
X98352000Y-129900000D03*
X106734000Y-129900000D03*
X98352000Y-47858000D03*
X106734000Y-47858000D03*
X128324000Y-44556000D03*
X128324000Y-49636000D03*
X128451000Y-60177000D03*
X128451000Y-59161000D03*
X137087000Y-59669000D03*
X107750000Y-104119000D03*
X167845653Y-90778564D03*
X158447653Y-100049564D03*
X158193653Y-94969564D03*
X128070000Y-108056000D03*
X128070000Y-106278000D03*
X128070000Y-104500000D03*
X118291000Y-108564000D03*
X118291000Y-103992000D03*
X110925000Y-97261000D03*
X110925000Y-98912000D03*
X154105000Y-64495000D03*
X138357000Y-103738000D03*
X128959000Y-94340000D03*
X104448000Y-77068000D03*
X173663000Y-63479000D03*
X173663000Y-65003000D03*
X170107000Y-58526000D03*
X162614000Y-71861000D03*
X174298000Y-68686000D03*
X146104000Y-61447000D03*
X167313000Y-66781000D03*
X148849653Y-79432653D03*
X147628000Y-75417000D03*
X145723000Y-73258000D03*
X150168000Y-73512000D03*
X120450000Y-106278000D03*
X159185000Y-52430000D03*
X162868000Y-51668000D03*
X156645000Y-57002000D03*
X156899000Y-55351000D03*
X151946000Y-53573000D03*
X148390000Y-55351000D03*
X124641000Y-68432000D03*
X152327000Y-62844000D03*
X153343000Y-70337000D03*
X157153000Y-73385000D03*
X157026000Y-75417000D03*
X163122000Y-64114000D03*
X154232000Y-61955000D03*
X173028000Y-80243000D03*
X131054500Y-105389000D03*
X135737600Y-127203200D03*
X145288000Y-126441200D03*
X137261600Y-119024400D03*
X141427200Y-118465600D03*
X132435600Y-112776000D03*
X137769600Y-108712000D03*
X142697200Y-103733600D03*
X153060400Y-108661200D03*
G04 #@! TO.N,+5V*
X106607000Y-101452000D03*
X106607000Y-99928000D03*
X114227000Y-95737000D03*
X115497000Y-95737000D03*
X116767000Y-95737000D03*
X118037000Y-95737000D03*
X170869000Y-66527000D03*
G04 #@! TO.N,VDD_uC*
X155629000Y-62082000D03*
X158028907Y-103588219D03*
X144312907Y-109684219D03*
X153355307Y-113748219D03*
X154105000Y-79354000D03*
X163122000Y-56494000D03*
X160201000Y-58272000D03*
X156391000Y-58018000D03*
X161090000Y-71861000D03*
X125403000Y-75417000D03*
X145342000Y-85069000D03*
X151057000Y-69956000D03*
X149028865Y-70464134D03*
X126038000Y-105516000D03*
G04 #@! TO.N,/microcontroller/uC_AVCC*
X149406000Y-63098000D03*
X157280000Y-70210000D03*
G04 #@! TO.N,/microcontroller/VBUS*
X166424000Y-63352000D03*
X168300846Y-66625548D03*
G04 #@! TO.N,Net-(C20-Pad1)*
X157534000Y-66146000D03*
G04 #@! TO.N,RST_TVS*
X159820000Y-51287000D03*
G04 #@! TO.N,/microcontroller/uC_RSTn*
X157407000Y-67670000D03*
G04 #@! TO.N,SPI_MOSI*
X160963000Y-63225000D03*
X151942800Y-111252000D03*
G04 #@! TO.N,SPI_SSn*
X157407000Y-65130000D03*
X156311600Y-110083600D03*
G04 #@! TO.N,SPI_MISO*
X161163000Y-62168346D03*
X157327600Y-112268000D03*
G04 #@! TO.N,SPI_SCK*
X157407000Y-63987000D03*
X155956000Y-111252000D03*
G04 #@! TO.N,JTAG_TCK*
X147755000Y-80497000D03*
G04 #@! TO.N,USART_RX*
X143523154Y-68686000D03*
G04 #@! TO.N,I2C_SCL*
X141659000Y-70972000D03*
X142167000Y-112501000D03*
G04 #@! TO.N,USART_TX*
X144648153Y-67484153D03*
G04 #@! TO.N,I2C_SDA*
X142675000Y-69829000D03*
X145469000Y-112374000D03*
G04 #@! TO.N,PWM_4A*
X150168000Y-70464000D03*
G04 #@! TO.N,PWM_4D*
X145977000Y-65421000D03*
G04 #@! TO.N,/microcontroller/M_USB_D+*
X163804600Y-67919600D03*
G04 #@! TO.N,/microcontroller/M_USB_D-*
X163880800Y-69037200D03*
G04 #@! TO.N,Net-(D7-Pad1)*
X134802423Y-65815049D03*
G04 #@! TO.N,Net-(D8-Pad1)*
X125530000Y-47096000D03*
G04 #@! TO.N,/microcontroller/UGND*
X177346000Y-66654000D03*
X173028000Y-66273000D03*
X166932000Y-65130000D03*
G04 #@! TO.N,/battery/TAP_2*
X87747500Y-81386000D03*
X89144500Y-77195000D03*
X87747500Y-77195000D03*
X87747500Y-79989000D03*
X89144500Y-79989000D03*
X87747500Y-78592000D03*
X87747500Y-82783000D03*
X89144500Y-82783000D03*
X87747500Y-84180000D03*
X87747500Y-85577000D03*
X89144500Y-85577000D03*
X134315200Y-119075200D03*
G04 #@! TO.N,/battery/TAP_1*
X138865000Y-123550000D03*
G04 #@! TO.N,/battery/TAP_0*
X142138400Y-124439000D03*
G04 #@! TO.N,Net-(Q3-Pad1)*
X118545000Y-66273000D03*
X159058000Y-59923000D03*
G04 #@! TO.N,Net-(R7-Pad1)*
X124895000Y-61320000D03*
G04 #@! TO.N,Net-(R8-Pad1)*
X125149000Y-59034000D03*
G04 #@! TO.N,R_DIR*
X154232000Y-74401000D03*
X145850000Y-74782000D03*
G04 #@! TO.N,Net-(R11-Pad1)*
X119053000Y-106278000D03*
X103432000Y-104881000D03*
G04 #@! TO.N,Net-(R12-Pad1)*
X102797000Y-106278000D03*
X119815000Y-108437000D03*
G04 #@! TO.N,RESETn*
X155248000Y-64876000D03*
G04 #@! TO.N,L_MOTOR*
X138611000Y-73766000D03*
X132054600Y-106452085D03*
G04 #@! TO.N,L_DIR*
X124641000Y-103357000D03*
X144580000Y-61320000D03*
G04 #@! TO.N,SNS_EN*
X146166637Y-69306237D03*
X144048053Y-100960347D03*
G04 #@! TO.N,SNS_2*
X144830800Y-65989200D03*
G04 #@! TO.N,SNS_1*
X145034000Y-64160400D03*
G04 #@! TO.N,SNS_0*
X145694400Y-62941200D03*
G04 #@! TD*
D36*
G04 #@! TO.N,VDD_BAT*
X132545000Y-59669000D02*
X134293000Y-59669000D01*
X131539821Y-65778951D02*
X130266521Y-65778951D01*
X130266521Y-65778951D02*
X130230423Y-65815049D01*
X134293000Y-59669000D02*
X132545000Y-59669000D01*
G04 #@! TO.N,GND*
X152708000Y-68563660D02*
X152708000Y-69702000D01*
X149660000Y-67619000D02*
X149660000Y-66400000D01*
X156264000Y-67721000D02*
X156264000Y-68940000D01*
X135842500Y-59669000D02*
X137087000Y-59669000D01*
X154079500Y-63352000D02*
X154079500Y-64469500D01*
X154079500Y-64469500D02*
X154105000Y-64495000D01*
X170168000Y-59796000D02*
X170168000Y-58587000D01*
X170168000Y-58587000D02*
X170107000Y-58526000D01*
X175498000Y-68559000D02*
X174425000Y-68559000D01*
X174425000Y-68559000D02*
X174298000Y-68686000D01*
X151184000Y-62818500D02*
X152301500Y-62818500D01*
X152301500Y-62818500D02*
X152327000Y-62844000D01*
X154460500Y-70210000D02*
X153470000Y-70210000D01*
X153470000Y-70210000D02*
X153343000Y-70337000D01*
G04 #@! TO.N,+5V*
X170234000Y-65892000D02*
X170869000Y-66527000D01*
X170234000Y-65409500D02*
X170234000Y-65892000D01*
G04 #@! TO.N,VDD_uC*
X155629000Y-63326500D02*
X155654500Y-63352000D01*
X155629000Y-62082000D02*
X155629000Y-63326500D01*
X149028865Y-70464134D02*
X149028865Y-69825135D01*
X149028865Y-69825135D02*
X149660000Y-69194000D01*
G04 #@! TO.N,/microcontroller/uC_AVCC*
X152814160Y-66988660D02*
X152708000Y-66988660D01*
X156035500Y-70210000D02*
X152814160Y-66988660D01*
X151204840Y-66988660D02*
X151184000Y-67009500D01*
X152708000Y-66988660D02*
X151204840Y-66988660D01*
X151184000Y-66472000D02*
X151184000Y-64393500D01*
X151184000Y-67009500D02*
X151184000Y-66472000D01*
G04 #@! TO.N,/microcontroller/VBUS*
X168583000Y-65409500D02*
X166525500Y-63352000D01*
X166525500Y-63352000D02*
X166424000Y-63352000D01*
X167051706Y-70942200D02*
X166344600Y-70942200D01*
X176191399Y-70942200D02*
X167051706Y-70942200D01*
X177795509Y-69338090D02*
X176191399Y-70942200D01*
X178645509Y-69338090D02*
X177795509Y-69338090D01*
X168583000Y-66343394D02*
X168300846Y-66625548D01*
X168583000Y-65409500D02*
X168583000Y-66343394D01*
G04 #@! TO.N,Net-(C20-Pad1)*
X156264000Y-66146000D02*
X157534000Y-66146000D01*
G04 #@! TO.N,RST_TVS*
X107115000Y-79735000D02*
X107115000Y-75994998D01*
X131822998Y-51287000D02*
X131568998Y-51541000D01*
X159820000Y-51287000D02*
X131822998Y-51287000D01*
X107115000Y-75994998D02*
X131568998Y-51541000D01*
X160709000Y-52176000D02*
X159820000Y-51287000D01*
X160709000Y-52785500D02*
X160709000Y-52176000D01*
G04 #@! TO.N,/microcontroller/uC_RSTn*
X157661000Y-82910000D02*
X158804000Y-81767000D01*
X158804000Y-81767000D02*
X158804000Y-73893000D01*
X158804000Y-73893000D02*
X158804000Y-69067000D01*
X158804000Y-69067000D02*
X157407000Y-67670000D01*
G04 #@! TO.N,SPI_MOSI*
X160963000Y-63225000D02*
X160364999Y-63823001D01*
X152667801Y-111977001D02*
X156337998Y-111977001D01*
X160364999Y-63823001D02*
X160364999Y-107950000D01*
X156337998Y-111977001D02*
X160364999Y-107950000D01*
X151942800Y-111252000D02*
X152667801Y-111977001D01*
G04 #@! TO.N,SPI_SSn*
X159312000Y-66469315D02*
X157972685Y-65130000D01*
X157972685Y-65130000D02*
X157407000Y-65130000D01*
X159312000Y-107548000D02*
X159312000Y-66469315D01*
X159312000Y-107548000D02*
X156776400Y-110083600D01*
X156776400Y-110083600D02*
X156311600Y-110083600D01*
G04 #@! TO.N,SPI_MISO*
X161852000Y-62857346D02*
X161163000Y-62168346D01*
X161852000Y-62901685D02*
X161852000Y-62857346D01*
X157327600Y-112268000D02*
X161852000Y-107743600D01*
X161852000Y-62901685D02*
X161852000Y-106984800D01*
X161852000Y-107743600D02*
X161852000Y-106984800D01*
G04 #@! TO.N,SPI_SCK*
X157407000Y-63987000D02*
X159185000Y-63987000D01*
X159185000Y-63987000D02*
X159820000Y-64622000D01*
X156244410Y-111252000D02*
X159820000Y-107676410D01*
X155956000Y-111252000D02*
X156244410Y-111252000D01*
X159820000Y-107676410D02*
X159820000Y-107340400D01*
X159820000Y-64622000D02*
X159820000Y-107340400D01*
G04 #@! TO.N,JTAG_TCK*
X150041000Y-82783000D02*
X150041000Y-82910000D01*
X147755000Y-80497000D02*
X150041000Y-82783000D01*
G04 #@! TO.N,USART_RX*
X143523154Y-70591000D02*
X143523154Y-68686000D01*
X143523154Y-71139846D02*
X143523154Y-70591000D01*
X141855010Y-72807990D02*
X143523154Y-71139846D01*
X141855010Y-104178322D02*
X141855010Y-72807990D01*
X147614907Y-109938219D02*
X141855010Y-104178322D01*
G04 #@! TO.N,I2C_SCL*
X140770000Y-111104000D02*
X140897000Y-111231000D01*
X140897000Y-111231000D02*
X142167000Y-112501000D01*
X140770000Y-71861000D02*
X140770000Y-111104000D01*
X141659000Y-70972000D02*
X140770000Y-71861000D01*
G04 #@! TO.N,USART_TX*
X144248154Y-67884152D02*
X144648153Y-67484153D01*
X144248154Y-71051256D02*
X144248154Y-67884152D01*
X142305020Y-72994390D02*
X144248154Y-71051256D01*
X142305020Y-102088332D02*
X142305020Y-72994390D01*
X147614907Y-107398219D02*
X142305020Y-102088332D01*
G04 #@! TO.N,I2C_SDA*
X141405000Y-72299002D02*
X142675000Y-71029002D01*
X142675000Y-71029002D02*
X142675000Y-70972000D01*
X141405000Y-104627000D02*
X141405000Y-72299002D01*
X142675000Y-69829000D02*
X142675000Y-70972000D01*
X141405000Y-108310000D02*
X141786000Y-108691000D01*
X141405000Y-104627000D02*
X141405000Y-108310000D01*
X145469000Y-112374000D02*
X141786000Y-108691000D01*
G04 #@! TO.N,PWM_4A*
X150259126Y-102214000D02*
X150154907Y-102318219D01*
X151311000Y-102214000D02*
X150259126Y-102214000D01*
X152835000Y-100690000D02*
X151311000Y-102214000D01*
X152835000Y-89006000D02*
X152835000Y-100690000D01*
X146325999Y-86687999D02*
X146993000Y-87355000D01*
X146325999Y-84979997D02*
X146325999Y-86687999D01*
X145124999Y-83778997D02*
X146325999Y-84979997D01*
X146700008Y-73931992D02*
X146063598Y-73931992D01*
X151184000Y-87355000D02*
X152835000Y-89006000D01*
X150168000Y-70464000D02*
X146700008Y-73931992D01*
X145501999Y-74056999D02*
X145124999Y-74433999D01*
X146993000Y-87355000D02*
X151184000Y-87355000D01*
X146063598Y-73931992D02*
X145938591Y-74056999D01*
X145938591Y-74056999D02*
X145501999Y-74056999D01*
X145124999Y-74433999D02*
X145124999Y-83778997D01*
G04 #@! TO.N,PWM_4D*
X147614907Y-102318219D02*
X144380619Y-102318219D01*
X142929000Y-100866600D02*
X142929000Y-73258000D01*
X142929000Y-73258000D02*
X144698164Y-71488836D01*
X144380619Y-102318219D02*
X142929000Y-100866600D01*
X144698164Y-71488836D02*
X144698164Y-68792036D01*
X145977000Y-67513200D02*
X145977000Y-65421000D01*
X144698164Y-68792036D02*
X145977000Y-67513200D01*
D37*
G04 #@! TO.N,/microcontroller/M_USB_D+*
X178645509Y-68038090D02*
X176724690Y-68038090D01*
X176295600Y-67609000D02*
X175498000Y-67609000D01*
X176724690Y-68038090D02*
X176295600Y-67609000D01*
X175498000Y-67609000D02*
X173098000Y-67609000D01*
X167619715Y-67919600D02*
X163804600Y-67919600D01*
X168781890Y-67919600D02*
X167619715Y-67919600D01*
X168839601Y-67913097D02*
X168781890Y-67919600D01*
X168894419Y-67893915D02*
X168839601Y-67913097D01*
X168943595Y-67863016D02*
X168894419Y-67893915D01*
X169015560Y-67772774D02*
X168984661Y-67821950D01*
X169066929Y-67547714D02*
X169047747Y-67602532D01*
X169697828Y-67821950D02*
X169666929Y-67772774D01*
X169738894Y-67863016D02*
X169697828Y-67821950D01*
X169381890Y-67400889D02*
X169300600Y-67400889D01*
X169047747Y-67602532D02*
X169034742Y-67717956D01*
X173098000Y-67609000D02*
X172398000Y-67609000D01*
X169034742Y-67717956D02*
X169015560Y-67772774D01*
X169842888Y-67913097D02*
X169788070Y-67893915D01*
X169494419Y-67426573D02*
X169439601Y-67407391D01*
X169300600Y-67400889D02*
X169242888Y-67407391D01*
X169788070Y-67893915D02*
X169738894Y-67863016D01*
X169647747Y-67717956D02*
X169634742Y-67602532D01*
X172398000Y-67609000D02*
X172087400Y-67919600D01*
X172087400Y-67919600D02*
X169900600Y-67919600D01*
X169666929Y-67772774D02*
X169647747Y-67717956D01*
X169900600Y-67919600D02*
X169842888Y-67913097D01*
X169634742Y-67602532D02*
X169615560Y-67547714D01*
X169615560Y-67547714D02*
X169584661Y-67498538D01*
X169584661Y-67498538D02*
X169543595Y-67457472D01*
X169543595Y-67457472D02*
X169494419Y-67426573D01*
X169439601Y-67407391D02*
X169381890Y-67400889D01*
X169242888Y-67407391D02*
X169188070Y-67426573D01*
X169188070Y-67426573D02*
X169138894Y-67457472D01*
X169138894Y-67457472D02*
X169097828Y-67498538D01*
X168984661Y-67821950D02*
X168943595Y-67863016D01*
X169097828Y-67498538D02*
X169066929Y-67547714D01*
D36*
G04 #@! TO.N,Net-(D6-Pad6)*
X168583000Y-62831000D02*
X169218000Y-62196000D01*
X168583000Y-63834500D02*
X168583000Y-62831000D01*
D37*
G04 #@! TO.N,/microcontroller/M_USB_D-*
X175498000Y-69509000D02*
X176312200Y-69509000D01*
X177133110Y-68688090D02*
X178645509Y-68688090D01*
X176312200Y-69509000D02*
X177133110Y-68688090D01*
X175498000Y-69509000D02*
X173098000Y-69509000D01*
X172398000Y-69509000D02*
X171208610Y-68319610D01*
X171208610Y-68319610D02*
X170066289Y-68319610D01*
X173098000Y-69509000D02*
X172398000Y-69509000D01*
X170066289Y-68319610D02*
X164846000Y-68319610D01*
X164598390Y-68319610D02*
X163880800Y-69037200D01*
X164846000Y-68319610D02*
X164598390Y-68319610D01*
D36*
G04 #@! TO.N,Net-(D6-Pad4)*
X171885000Y-62963000D02*
X171118000Y-62196000D01*
X171885000Y-63834500D02*
X171885000Y-62963000D01*
G04 #@! TO.N,Net-(D6-Pad5)*
X170234000Y-62262000D02*
X170168000Y-62196000D01*
X170234000Y-63834500D02*
X170234000Y-62262000D01*
G04 #@! TO.N,Net-(D7-Pad1)*
X133414821Y-65778951D02*
X134766325Y-65778951D01*
X134766325Y-65778951D02*
X134802423Y-65815049D01*
G04 #@! TO.N,Net-(D8-Pad1)*
X105464000Y-72115000D02*
X124006000Y-53573000D01*
X105464000Y-74401000D02*
X105464000Y-72115000D01*
X124006000Y-48620000D02*
X125530000Y-47096000D01*
X124006000Y-53192000D02*
X124006000Y-48620000D01*
X124006000Y-53573000D02*
X124006000Y-53192000D01*
G04 #@! TO.N,/microcontroller/UGND*
X178645509Y-66738090D02*
X177430090Y-66738090D01*
X177430090Y-66738090D02*
X177346000Y-66654000D01*
X171885000Y-65409500D02*
X172164500Y-65409500D01*
X172164500Y-65409500D02*
X173028000Y-66273000D01*
D38*
G04 #@! TO.N,/battery/TAP_1*
X83620000Y-79100000D02*
X85652000Y-81132000D01*
X85652000Y-93578000D02*
X83620000Y-95610000D01*
X85652000Y-81132000D02*
X85652000Y-93578000D01*
X173481106Y-110723000D02*
X178362000Y-110723000D01*
X172774000Y-110723000D02*
X173481106Y-110723000D01*
X157280000Y-123550000D02*
X170107000Y-110723000D01*
X170107000Y-110723000D02*
X172774000Y-110723000D01*
X88954000Y-119240002D02*
X93263998Y-123550000D01*
X83620000Y-95610000D02*
X88954000Y-100944000D01*
X88954000Y-100944000D02*
X88954000Y-119240002D01*
X93263998Y-123550000D02*
X138738000Y-123550000D01*
X138738000Y-123550000D02*
X157280000Y-123550000D01*
G04 #@! TO.N,/battery/TAP_0*
X83620000Y-81640000D02*
X81588000Y-83672000D01*
X81588000Y-96118000D02*
X83620000Y-98150000D01*
X81588000Y-83672000D02*
X81588000Y-96118000D01*
X177159919Y-113263000D02*
X172774000Y-113263000D01*
X178362000Y-113263000D02*
X177159919Y-113263000D01*
X157788000Y-124439000D02*
X168964000Y-113263000D01*
X87920001Y-119595001D02*
X92764000Y-124439000D01*
X83620000Y-98150000D02*
X87920001Y-102450001D01*
X168964000Y-113263000D02*
X172774000Y-113263000D01*
X87920001Y-102450001D02*
X87920001Y-119595001D01*
X92764000Y-124439000D02*
X136960000Y-124439000D01*
X136960000Y-124439000D02*
X157788000Y-124439000D01*
D36*
G04 #@! TO.N,Net-(Q3-Pad1)*
X118545000Y-66273000D02*
X118944999Y-65873001D01*
X118944999Y-65873001D02*
X120831000Y-63987000D01*
X120831000Y-63987000D02*
X139246000Y-63987000D01*
X139246000Y-63987000D02*
X143310000Y-59923000D01*
X143310000Y-59923000D02*
X159058000Y-59923000D01*
G04 #@! TO.N,Net-(R7-Pad1)*
X128394000Y-61320000D02*
X127943000Y-61320000D01*
X129095000Y-60619000D02*
X128394000Y-61320000D01*
X129945000Y-60619000D02*
X129095000Y-60619000D01*
X124895000Y-61320000D02*
X127943000Y-61320000D01*
G04 #@! TO.N,Net-(R8-Pad1)*
X126014000Y-58169000D02*
X125149000Y-59034000D01*
X129095000Y-58169000D02*
X126014000Y-58169000D01*
X129945000Y-58719000D02*
X129645000Y-58719000D01*
X129645000Y-58719000D02*
X129095000Y-58169000D01*
G04 #@! TO.N,R_DIR*
X154213001Y-74382001D02*
X154232000Y-74401000D01*
X145850000Y-74782000D02*
X146249999Y-74382001D01*
X146249999Y-74382001D02*
X154213001Y-74382001D01*
G04 #@! TO.N,Net-(R11-Pad1)*
X104448000Y-104881000D02*
X103432000Y-104881000D01*
X118164000Y-107167000D02*
X106734000Y-107167000D01*
X106734000Y-107167000D02*
X104448000Y-104881000D01*
X119053000Y-106278000D02*
X118164000Y-107167000D01*
G04 #@! TO.N,Net-(R12-Pad1)*
X118983991Y-107617009D02*
X106422009Y-107617009D01*
X106422009Y-107617009D02*
X105083000Y-106278000D01*
X105083000Y-106278000D02*
X102797000Y-106278000D01*
X118983991Y-107617009D02*
X118995009Y-107617009D01*
X118995009Y-107617009D02*
X119815000Y-108437000D01*
G04 #@! TO.N,RESETn*
X155374494Y-64876000D02*
X155248000Y-64876000D01*
X161170612Y-59079882D02*
X155374494Y-64876000D01*
X160709000Y-54360500D02*
X161170612Y-54822112D01*
X161170612Y-54822112D02*
X161170612Y-59079882D01*
G04 #@! TO.N,L_MOTOR*
X138578685Y-99928000D02*
X138578685Y-73798315D01*
X138578685Y-73798315D02*
X138611000Y-73766000D01*
X132054600Y-106452085D02*
X138578685Y-99928000D01*
G04 #@! TO.N,L_DIR*
X124641000Y-103357000D02*
X124641000Y-95483000D01*
X124641000Y-95483000D02*
X132261000Y-87863000D01*
X132261000Y-87863000D02*
X132261000Y-73639000D01*
X132261000Y-73639000D02*
X144580000Y-61320000D01*
G04 #@! TO.N,SNS_EN*
X146166637Y-69306237D02*
X146166637Y-71104963D01*
X146166637Y-71104963D02*
X144170400Y-73101200D01*
X144048053Y-73223547D02*
X144170400Y-73101200D01*
X144048053Y-100960347D02*
X144048053Y-73223547D01*
G04 #@! TO.N,SNS_2*
X140236021Y-105839179D02*
X139344400Y-106730800D01*
X144830800Y-65989200D02*
X141820030Y-65989200D01*
X140236021Y-67573209D02*
X140236021Y-105839179D01*
X141820030Y-65989200D02*
X140236021Y-67573209D01*
G04 #@! TO.N,SNS_1*
X136340010Y-103439495D02*
X136340010Y-112514810D01*
X139786010Y-99993493D02*
X136340010Y-103439495D01*
X136340010Y-112514810D02*
X140614400Y-116789200D01*
X139786011Y-67386809D02*
X139786010Y-99993493D01*
X145034000Y-64160400D02*
X143012420Y-64160400D01*
X143012420Y-64160400D02*
X139786011Y-67386809D01*
G04 #@! TO.N,SNS_0*
X143595210Y-62941200D02*
X139336001Y-67200409D01*
X145694400Y-62941200D02*
X143595210Y-62941200D01*
X139336001Y-67200409D02*
X139336001Y-74125599D01*
X139336001Y-74114001D02*
X139293600Y-74156402D01*
X139336001Y-74125599D02*
X139336001Y-74114001D01*
X139336001Y-74125599D02*
X139336001Y-99807094D01*
X135890000Y-116941600D02*
X135839200Y-116992400D01*
X135890000Y-103253095D02*
X135890000Y-116941600D01*
X139336001Y-99807094D02*
X135890000Y-103253095D01*
G04 #@! TD*
D39*
G04 #@! TO.N,VDD_BAT*
G36*
X135436000Y-58197606D02*
X135436000Y-58588978D01*
X135317773Y-58612495D01*
X135067084Y-58780000D01*
X135055000Y-58780000D01*
X135006399Y-58789667D01*
X134965197Y-58817197D01*
X134711197Y-59071197D01*
X134683667Y-59112399D01*
X134674000Y-59161000D01*
X134674000Y-60050000D01*
X133912000Y-60050000D01*
X133912000Y-58907000D01*
X133902333Y-58858399D01*
X133874803Y-58817197D01*
X133792440Y-58734834D01*
X133792440Y-58419000D01*
X133785000Y-58381596D01*
X133785000Y-58070606D01*
X133837606Y-58018000D01*
X135256394Y-58018000D01*
X135436000Y-58197606D01*
X135436000Y-58197606D01*
G37*
X135436000Y-58197606D02*
X135436000Y-58588978D01*
X135317773Y-58612495D01*
X135067084Y-58780000D01*
X135055000Y-58780000D01*
X135006399Y-58789667D01*
X134965197Y-58817197D01*
X134711197Y-59071197D01*
X134683667Y-59112399D01*
X134674000Y-59161000D01*
X134674000Y-60050000D01*
X133912000Y-60050000D01*
X133912000Y-58907000D01*
X133902333Y-58858399D01*
X133874803Y-58817197D01*
X133792440Y-58734834D01*
X133792440Y-58419000D01*
X133785000Y-58381596D01*
X133785000Y-58070606D01*
X133837606Y-58018000D01*
X135256394Y-58018000D01*
X135436000Y-58197606D01*
G04 #@! TO.N,GND*
G36*
X128697560Y-59019000D02*
X128746843Y-59266765D01*
X128887191Y-59476809D01*
X129097235Y-59617157D01*
X129345000Y-59666440D01*
X130356000Y-59666440D01*
X130356000Y-59671560D01*
X129345000Y-59671560D01*
X129097235Y-59720843D01*
X128887191Y-59861191D01*
X128868499Y-59889165D01*
X128846605Y-59893520D01*
X128798462Y-59903096D01*
X128611418Y-60028076D01*
X128547071Y-60071071D01*
X128504671Y-60134527D01*
X128165402Y-60473796D01*
X128070000Y-60378394D01*
X128070000Y-58959606D01*
X128100606Y-58929000D01*
X128697560Y-58929000D01*
X128697560Y-59019000D01*
X128697560Y-59019000D01*
G37*
X128697560Y-59019000D02*
X128746843Y-59266765D01*
X128887191Y-59476809D01*
X129097235Y-59617157D01*
X129345000Y-59666440D01*
X130356000Y-59666440D01*
X130356000Y-59671560D01*
X129345000Y-59671560D01*
X129097235Y-59720843D01*
X128887191Y-59861191D01*
X128868499Y-59889165D01*
X128846605Y-59893520D01*
X128798462Y-59903096D01*
X128611418Y-60028076D01*
X128547071Y-60071071D01*
X128504671Y-60134527D01*
X128165402Y-60473796D01*
X128070000Y-60378394D01*
X128070000Y-58959606D01*
X128100606Y-58929000D01*
X128697560Y-58929000D01*
X128697560Y-59019000D01*
G04 #@! TO.N,Net-(J3-Pad1)*
G36*
X134203197Y-61536803D02*
X134244399Y-61564333D01*
X134293000Y-61574000D01*
X138685394Y-61574000D01*
X138992000Y-61880606D01*
X138992000Y-62410394D01*
X138558394Y-62844000D01*
X133964606Y-62844000D01*
X132007000Y-60886394D01*
X132007000Y-60616440D01*
X133145000Y-60616440D01*
X133259966Y-60593572D01*
X134203197Y-61536803D01*
X134203197Y-61536803D01*
G37*
X134203197Y-61536803D02*
X134244399Y-61564333D01*
X134293000Y-61574000D01*
X138685394Y-61574000D01*
X138992000Y-61880606D01*
X138992000Y-62410394D01*
X138558394Y-62844000D01*
X133964606Y-62844000D01*
X132007000Y-60886394D01*
X132007000Y-60616440D01*
X133145000Y-60616440D01*
X133259966Y-60593572D01*
X134203197Y-61536803D01*
G04 #@! TO.N,Net-(J4-Pad1)*
G36*
X138992000Y-56927606D02*
X138992000Y-57457394D01*
X138685394Y-57764000D01*
X138028606Y-57764000D01*
X137557803Y-57293197D01*
X137516601Y-57265667D01*
X137468000Y-57256000D01*
X133531000Y-57256000D01*
X133482399Y-57265667D01*
X133441197Y-57293197D01*
X133060197Y-57674197D01*
X133032667Y-57715399D01*
X133023000Y-57764000D01*
X133023000Y-58147256D01*
X133004000Y-58193126D01*
X133004000Y-58604874D01*
X133023000Y-58650744D01*
X133023000Y-58721560D01*
X132007000Y-58721560D01*
X132007000Y-56800606D01*
X132567606Y-56240000D01*
X138304394Y-56240000D01*
X138992000Y-56927606D01*
X138992000Y-56927606D01*
G37*
X138992000Y-56927606D02*
X138992000Y-57457394D01*
X138685394Y-57764000D01*
X138028606Y-57764000D01*
X137557803Y-57293197D01*
X137516601Y-57265667D01*
X137468000Y-57256000D01*
X133531000Y-57256000D01*
X133482399Y-57265667D01*
X133441197Y-57293197D01*
X133060197Y-57674197D01*
X133032667Y-57715399D01*
X133023000Y-57764000D01*
X133023000Y-58147256D01*
X133004000Y-58193126D01*
X133004000Y-58604874D01*
X133023000Y-58650744D01*
X133023000Y-58721560D01*
X132007000Y-58721560D01*
X132007000Y-56800606D01*
X132567606Y-56240000D01*
X138304394Y-56240000D01*
X138992000Y-56927606D01*
G04 #@! TO.N,/microcontroller/uC_AVCC*
G36*
X155677720Y-69817431D02*
X156058126Y-69975000D01*
X156469874Y-69975000D01*
X156822350Y-69829000D01*
X157481394Y-69829000D01*
X157661000Y-70008606D01*
X157661000Y-70538394D01*
X157608394Y-70591000D01*
X155681606Y-70591000D01*
X155545440Y-70454834D01*
X155545440Y-69953750D01*
X155479505Y-69622273D01*
X155473349Y-69613060D01*
X155677720Y-69817431D01*
X155677720Y-69817431D01*
G37*
X155677720Y-69817431D02*
X156058126Y-69975000D01*
X156469874Y-69975000D01*
X156822350Y-69829000D01*
X157481394Y-69829000D01*
X157661000Y-70008606D01*
X157661000Y-70538394D01*
X157608394Y-70591000D01*
X155681606Y-70591000D01*
X155545440Y-70454834D01*
X155545440Y-69953750D01*
X155479505Y-69622273D01*
X155473349Y-69613060D01*
X155677720Y-69817431D01*
G36*
X150041000Y-62769606D02*
X150041000Y-63098000D01*
X150050667Y-63146601D01*
X150078197Y-63187803D01*
X150094812Y-63204418D01*
X150127495Y-63368727D01*
X150315261Y-63649739D01*
X150596273Y-63837505D01*
X150927750Y-63903440D01*
X151440250Y-63903440D01*
X151658637Y-63860000D01*
X152075256Y-63860000D01*
X152121126Y-63879000D01*
X152532874Y-63879000D01*
X152543141Y-63874747D01*
X153070000Y-64401606D01*
X153070000Y-64700874D01*
X153227569Y-65081280D01*
X153518720Y-65372431D01*
X153899126Y-65530000D01*
X154198394Y-65530000D01*
X155121000Y-66452606D01*
X155121000Y-68559000D01*
X155130667Y-68607601D01*
X155158197Y-68648803D01*
X155233253Y-68723859D01*
X155229000Y-68734126D01*
X155229000Y-68995394D01*
X153559803Y-67326197D01*
X153518601Y-67298667D01*
X153470000Y-67289000D01*
X150760311Y-67289000D01*
X150716505Y-67068773D01*
X150584866Y-66871761D01*
X150695000Y-66605874D01*
X150695000Y-66194126D01*
X150549000Y-65841650D01*
X150549000Y-65003000D01*
X150539333Y-64954399D01*
X150511803Y-64913197D01*
X148898000Y-63299394D01*
X148898000Y-62769606D01*
X149077606Y-62590000D01*
X149861394Y-62590000D01*
X150041000Y-62769606D01*
X150041000Y-62769606D01*
G37*
X150041000Y-62769606D02*
X150041000Y-63098000D01*
X150050667Y-63146601D01*
X150078197Y-63187803D01*
X150094812Y-63204418D01*
X150127495Y-63368727D01*
X150315261Y-63649739D01*
X150596273Y-63837505D01*
X150927750Y-63903440D01*
X151440250Y-63903440D01*
X151658637Y-63860000D01*
X152075256Y-63860000D01*
X152121126Y-63879000D01*
X152532874Y-63879000D01*
X152543141Y-63874747D01*
X153070000Y-64401606D01*
X153070000Y-64700874D01*
X153227569Y-65081280D01*
X153518720Y-65372431D01*
X153899126Y-65530000D01*
X154198394Y-65530000D01*
X155121000Y-66452606D01*
X155121000Y-68559000D01*
X155130667Y-68607601D01*
X155158197Y-68648803D01*
X155233253Y-68723859D01*
X155229000Y-68734126D01*
X155229000Y-68995394D01*
X153559803Y-67326197D01*
X153518601Y-67298667D01*
X153470000Y-67289000D01*
X150760311Y-67289000D01*
X150716505Y-67068773D01*
X150584866Y-66871761D01*
X150695000Y-66605874D01*
X150695000Y-66194126D01*
X150549000Y-65841650D01*
X150549000Y-65003000D01*
X150539333Y-64954399D01*
X150511803Y-64913197D01*
X148898000Y-63299394D01*
X148898000Y-62769606D01*
X149077606Y-62590000D01*
X149861394Y-62590000D01*
X150041000Y-62769606D01*
G04 #@! TO.N,VDD_BAT*
G36*
X128197000Y-117506606D02*
X128197000Y-118545955D01*
X128103808Y-118770941D01*
X128103808Y-119182689D01*
X128197000Y-119407675D01*
X128197000Y-119486000D01*
X128206667Y-119534601D01*
X128234197Y-119575803D01*
X128869197Y-120210803D01*
X128910399Y-120238333D01*
X128959000Y-120248000D01*
X154179394Y-120248000D01*
X154740000Y-120808606D01*
X154740000Y-122227394D01*
X154302394Y-122665000D01*
X139433007Y-122665000D01*
X139070874Y-122515000D01*
X138659126Y-122515000D01*
X138296993Y-122665000D01*
X121014606Y-122665000D01*
X120323000Y-121973394D01*
X120323000Y-117506606D01*
X123042606Y-114787000D01*
X125477394Y-114787000D01*
X128197000Y-117506606D01*
X128197000Y-117506606D01*
G37*
X128197000Y-117506606D02*
X128197000Y-118545955D01*
X128103808Y-118770941D01*
X128103808Y-119182689D01*
X128197000Y-119407675D01*
X128197000Y-119486000D01*
X128206667Y-119534601D01*
X128234197Y-119575803D01*
X128869197Y-120210803D01*
X128910399Y-120238333D01*
X128959000Y-120248000D01*
X154179394Y-120248000D01*
X154740000Y-120808606D01*
X154740000Y-122227394D01*
X154302394Y-122665000D01*
X139433007Y-122665000D01*
X139070874Y-122515000D01*
X138659126Y-122515000D01*
X138296993Y-122665000D01*
X121014606Y-122665000D01*
X120323000Y-121973394D01*
X120323000Y-117506606D01*
X123042606Y-114787000D01*
X125477394Y-114787000D01*
X128197000Y-117506606D01*
G04 #@! TO.N,VDD_uC*
G36*
X151601113Y-68266719D02*
X151585560Y-68344910D01*
X151585560Y-68782410D01*
X151651495Y-69113887D01*
X151762509Y-69280032D01*
X151673000Y-69496126D01*
X151673000Y-69907874D01*
X151788845Y-70187549D01*
X151385394Y-70591000D01*
X151203000Y-70591000D01*
X151203000Y-70258126D01*
X151045431Y-69877720D01*
X150754280Y-69586569D01*
X150373874Y-69429000D01*
X149962126Y-69429000D01*
X149581720Y-69586569D01*
X149406000Y-69762289D01*
X149406000Y-68703940D01*
X149916250Y-68703940D01*
X150006440Y-68686000D01*
X150168000Y-68686000D01*
X150216601Y-68676333D01*
X150257803Y-68648803D01*
X150310634Y-68595972D01*
X150528739Y-68450239D01*
X150674472Y-68232134D01*
X150728606Y-68178000D01*
X151512394Y-68178000D01*
X151601113Y-68266719D01*
X151601113Y-68266719D01*
G37*
X151601113Y-68266719D02*
X151585560Y-68344910D01*
X151585560Y-68782410D01*
X151651495Y-69113887D01*
X151762509Y-69280032D01*
X151673000Y-69496126D01*
X151673000Y-69907874D01*
X151788845Y-70187549D01*
X151385394Y-70591000D01*
X151203000Y-70591000D01*
X151203000Y-70258126D01*
X151045431Y-69877720D01*
X150754280Y-69586569D01*
X150373874Y-69429000D01*
X149962126Y-69429000D01*
X149581720Y-69586569D01*
X149406000Y-69762289D01*
X149406000Y-68703940D01*
X149916250Y-68703940D01*
X150006440Y-68686000D01*
X150168000Y-68686000D01*
X150216601Y-68676333D01*
X150257803Y-68648803D01*
X150310634Y-68595972D01*
X150528739Y-68450239D01*
X150674472Y-68232134D01*
X150728606Y-68178000D01*
X151512394Y-68178000D01*
X151601113Y-68266719D01*
G04 #@! TD*
M02*
