<?xml version="1.0" standalone="no"?>
 <!DOCTYPE svg PUBLIC "-//W3C//DTD SVG 1.1//EN" 
 "http://www.w3.org/Graphics/SVG/1.1/DTD/svg11.dtd"> 
<svg xmlns="http://www.w3.org/2000/svg" version="1.1" 
    width="29.7002cm" height="21.0007cm" viewBox="0 0 116930 82680 ">
<title>SVG Picture created as nu.ai_motor_controller-B.SilkS.svg date 2019/02/21 14:42:27 </title>
  <desc>Picture generated by PCBNEW </desc>
<g style="fill:#000000; fill-opacity:1;stroke:#000000; stroke-opacity:1;
stroke-linecap:round; stroke-linejoin:round; "
 transform="translate(0 0) scale(1 1)">
</g>
<g style="fill:#000000; fill-opacity:0.0; 
stroke:#000000; stroke-width:-0.000393701; stroke-opacity:1; 
stroke-linecap:round; stroke-linejoin:round;">
</g>
<g style="fill:#000000; fill-opacity:0.0; 
stroke:#000000; stroke-width:39.3701; stroke-opacity:1; 
stroke-linecap:round; stroke-linejoin:round;">
</g>
<g style="fill:#000000; fill-opacity:0.0; 
stroke:#000000; stroke-width:59.0551; stroke-opacity:1; 
stroke-linecap:round; stroke-linejoin:round;">
<rect x="69685.9" y="65357.2" width="42519.7" height="12598.4" rx="0" />
</g>
<g style="fill:#000000; fill-opacity:0.0; 
stroke:#000000; stroke-width:39.3701; stroke-opacity:1; 
stroke-linecap:round; stroke-linejoin:round;">
</g>
<g style="fill:#000000; fill-opacity:0.0; 
stroke:#000000; stroke-width:59.0551; stroke-opacity:1; 
stroke-linecap:round; stroke-linejoin:round;">
<rect x="3937.01" y="3937.01" width="109056" height="74806" rx="0" />
</g>
<g style="fill:#000000; fill-opacity:0.0; 
stroke:#000000; stroke-width:39.3701; stroke-opacity:1; 
stroke-linecap:round; stroke-linejoin:round;">
</g>
<g style="fill:#000000; fill-opacity:0.0; 
stroke:#000000; stroke-width:59.0551; stroke-opacity:1; 
stroke-linecap:round; stroke-linejoin:round;">
<rect x="4724.41" y="4724.41" width="107481" height="73231.2" rx="0" />
</g>
<g style="fill:#000000; fill-opacity:0.0; 
stroke:#000000; stroke-width:39.3701; stroke-opacity:1; 
stroke-linecap:round; stroke-linejoin:round;">
</g>
<g style="fill:#000000; fill-opacity:0.0; 
stroke:#000000; stroke-width:59.0551; stroke-opacity:1; 
stroke-linecap:round; stroke-linejoin:round;">
<path d="M23622 4724
L23622 3937
" />
</g>
<g style="fill:#000000; fill-opacity:0.0; 
stroke:#000000; stroke-width:39.3701; stroke-opacity:1; 
stroke-linecap:round; stroke-linejoin:round;">
</g>
<g style="fill:#000000; fill-opacity:0.0; 
stroke:#000000; stroke-width:59.0551; stroke-opacity:1; 
stroke-linecap:round; stroke-linejoin:round;">
<path d="M43307 4724
L43307 3937
" />
</g>
<g style="fill:#000000; fill-opacity:0.0; 
stroke:#000000; stroke-width:39.3701; stroke-opacity:1; 
stroke-linecap:round; stroke-linejoin:round;">
</g>
<g style="fill:#000000; fill-opacity:0.0; 
stroke:#000000; stroke-width:59.0551; stroke-opacity:1; 
stroke-linecap:round; stroke-linejoin:round;">
<path d="M62992 4724
L62992 3937
" />
</g>
<g style="fill:#000000; fill-opacity:0.0; 
stroke:#000000; stroke-width:39.3701; stroke-opacity:1; 
stroke-linecap:round; stroke-linejoin:round;">
</g>
<g style="fill:#000000; fill-opacity:0.0; 
stroke:#000000; stroke-width:59.0551; stroke-opacity:1; 
stroke-linecap:round; stroke-linejoin:round;">
<path d="M82677 4724
L82677 3937
" />
</g>
<g style="fill:#000000; fill-opacity:0.0; 
stroke:#000000; stroke-width:39.3701; stroke-opacity:1; 
stroke-linecap:round; stroke-linejoin:round;">
</g>
<g style="fill:#000000; fill-opacity:0.0; 
stroke:#000000; stroke-width:59.0551; stroke-opacity:1; 
stroke-linecap:round; stroke-linejoin:round;">
<path d="M102362 4724
L102362 3937
" />
</g>
<g style="fill:#000000; fill-opacity:0.0; 
stroke:#000000; stroke-width:39.3701; stroke-opacity:1; 
stroke-linecap:round; stroke-linejoin:round;">
</g>
<g style="fill:#000000; fill-opacity:0.0; 
stroke:#000000; stroke-width:59.0551; stroke-opacity:1; 
stroke-linecap:round; stroke-linejoin:round;">
<path d="M14199 4562
L13906 4562
" />
<path d="M14052 4562
L14052 4050
L14004 4123
L13955 4172
L13906 4196
" />
</g>
<g style="fill:#000000; fill-opacity:0.0; 
stroke:#000000; stroke-width:39.3701; stroke-opacity:1; 
stroke-linecap:round; stroke-linejoin:round;">
</g>
<g style="fill:#000000; fill-opacity:0.0; 
stroke:#000000; stroke-width:59.0551; stroke-opacity:1; 
stroke-linecap:round; stroke-linejoin:round;">
<path d="M33591 4099
L33615 4074
L33664 4050
L33786 4050
L33835 4074
L33859 4099
L33884 4147
L33884 4196
L33859 4269
L33567 4562
L33884 4562
" />
</g>
<g style="fill:#000000; fill-opacity:0.0; 
stroke:#000000; stroke-width:39.3701; stroke-opacity:1; 
stroke-linecap:round; stroke-linejoin:round;">
</g>
<g style="fill:#000000; fill-opacity:0.0; 
stroke:#000000; stroke-width:59.0551; stroke-opacity:1; 
stroke-linecap:round; stroke-linejoin:round;">
<path d="M53252 4050
L53569 4050
L53398 4245
L53471 4245
L53520 4269
L53544 4294
L53569 4342
L53569 4464
L53544 4513
L53520 4537
L53471 4562
L53325 4562
L53276 4537
L53252 4513
" />
</g>
<g style="fill:#000000; fill-opacity:0.0; 
stroke:#000000; stroke-width:39.3701; stroke-opacity:1; 
stroke-linecap:round; stroke-linejoin:round;">
</g>
<g style="fill:#000000; fill-opacity:0.0; 
stroke:#000000; stroke-width:59.0551; stroke-opacity:1; 
stroke-linecap:round; stroke-linejoin:round;">
<path d="M73205 4221
L73205 4562
" />
<path d="M73083 4026
L72961 4391
L73278 4391
" />
</g>
<g style="fill:#000000; fill-opacity:0.0; 
stroke:#000000; stroke-width:39.3701; stroke-opacity:1; 
stroke-linecap:round; stroke-linejoin:round;">
</g>
<g style="fill:#000000; fill-opacity:0.0; 
stroke:#000000; stroke-width:59.0551; stroke-opacity:1; 
stroke-linecap:round; stroke-linejoin:round;">
<path d="M92914 4050
L92671 4050
L92646 4294
L92671 4269
L92719 4245
L92841 4245
L92890 4269
L92914 4294
L92939 4342
L92939 4464
L92914 4513
L92890 4537
L92841 4562
L92719 4562
L92671 4537
L92646 4513
" />
</g>
<g style="fill:#000000; fill-opacity:0.0; 
stroke:#000000; stroke-width:39.3701; stroke-opacity:1; 
stroke-linecap:round; stroke-linejoin:round;">
</g>
<g style="fill:#000000; fill-opacity:0.0; 
stroke:#000000; stroke-width:59.0551; stroke-opacity:1; 
stroke-linecap:round; stroke-linejoin:round;">
<path d="M112575 4050
L112477 4050
L112429 4074
L112404 4099
L112356 4172
L112331 4269
L112331 4464
L112356 4513
L112380 4537
L112429 4562
L112526 4562
L112575 4537
L112599 4513
L112624 4464
L112624 4342
L112599 4294
L112575 4269
L112526 4245
L112429 4245
L112380 4269
L112356 4294
L112331 4342
" />
</g>
<g style="fill:#000000; fill-opacity:0.0; 
stroke:#000000; stroke-width:39.3701; stroke-opacity:1; 
stroke-linecap:round; stroke-linejoin:round;">
</g>
<g style="fill:#000000; fill-opacity:0.0; 
stroke:#000000; stroke-width:59.0551; stroke-opacity:1; 
stroke-linecap:round; stroke-linejoin:round;">
<path d="M23622 77955
L23622 78742
" />
</g>
<g style="fill:#000000; fill-opacity:0.0; 
stroke:#000000; stroke-width:39.3701; stroke-opacity:1; 
stroke-linecap:round; stroke-linejoin:round;">
</g>
<g style="fill:#000000; fill-opacity:0.0; 
stroke:#000000; stroke-width:59.0551; stroke-opacity:1; 
stroke-linecap:round; stroke-linejoin:round;">
<path d="M43307 77955
L43307 78742
" />
</g>
<g style="fill:#000000; fill-opacity:0.0; 
stroke:#000000; stroke-width:39.3701; stroke-opacity:1; 
stroke-linecap:round; stroke-linejoin:round;">
</g>
<g style="fill:#000000; fill-opacity:0.0; 
stroke:#000000; stroke-width:59.0551; stroke-opacity:1; 
stroke-linecap:round; stroke-linejoin:round;">
<path d="M62992 77955
L62992 78742
" />
</g>
<g style="fill:#000000; fill-opacity:0.0; 
stroke:#000000; stroke-width:39.3701; stroke-opacity:1; 
stroke-linecap:round; stroke-linejoin:round;">
</g>
<g style="fill:#000000; fill-opacity:0.0; 
stroke:#000000; stroke-width:59.0551; stroke-opacity:1; 
stroke-linecap:round; stroke-linejoin:round;">
<path d="M82677 77955
L82677 78742
" />
</g>
<g style="fill:#000000; fill-opacity:0.0; 
stroke:#000000; stroke-width:39.3701; stroke-opacity:1; 
stroke-linecap:round; stroke-linejoin:round;">
</g>
<g style="fill:#000000; fill-opacity:0.0; 
stroke:#000000; stroke-width:59.0551; stroke-opacity:1; 
stroke-linecap:round; stroke-linejoin:round;">
<path d="M102362 77955
L102362 78742
" />
</g>
<g style="fill:#000000; fill-opacity:0.0; 
stroke:#000000; stroke-width:39.3701; stroke-opacity:1; 
stroke-linecap:round; stroke-linejoin:round;">
</g>
<g style="fill:#000000; fill-opacity:0.0; 
stroke:#000000; stroke-width:59.0551; stroke-opacity:1; 
stroke-linecap:round; stroke-linejoin:round;">
<path d="M14199 78580
L13906 78580
" />
<path d="M14052 78580
L14052 78069
L14004 78142
L13955 78190
L13906 78215
" />
</g>
<g style="fill:#000000; fill-opacity:0.0; 
stroke:#000000; stroke-width:39.3701; stroke-opacity:1; 
stroke-linecap:round; stroke-linejoin:round;">
</g>
<g style="fill:#000000; fill-opacity:0.0; 
stroke:#000000; stroke-width:59.0551; stroke-opacity:1; 
stroke-linecap:round; stroke-linejoin:round;">
<path d="M33591 78117
L33615 78093
L33664 78069
L33786 78069
L33835 78093
L33859 78117
L33884 78166
L33884 78215
L33859 78288
L33567 78580
L33884 78580
" />
</g>
<g style="fill:#000000; fill-opacity:0.0; 
stroke:#000000; stroke-width:39.3701; stroke-opacity:1; 
stroke-linecap:round; stroke-linejoin:round;">
</g>
<g style="fill:#000000; fill-opacity:0.0; 
stroke:#000000; stroke-width:59.0551; stroke-opacity:1; 
stroke-linecap:round; stroke-linejoin:round;">
<path d="M53252 78069
L53569 78069
L53398 78263
L53471 78263
L53520 78288
L53544 78312
L53569 78361
L53569 78483
L53544 78532
L53520 78556
L53471 78580
L53325 78580
L53276 78556
L53252 78532
" />
</g>
<g style="fill:#000000; fill-opacity:0.0; 
stroke:#000000; stroke-width:39.3701; stroke-opacity:1; 
stroke-linecap:round; stroke-linejoin:round;">
</g>
<g style="fill:#000000; fill-opacity:0.0; 
stroke:#000000; stroke-width:59.0551; stroke-opacity:1; 
stroke-linecap:round; stroke-linejoin:round;">
<path d="M73205 78239
L73205 78580
" />
<path d="M73083 78044
L72961 78410
L73278 78410
" />
</g>
<g style="fill:#000000; fill-opacity:0.0; 
stroke:#000000; stroke-width:39.3701; stroke-opacity:1; 
stroke-linecap:round; stroke-linejoin:round;">
</g>
<g style="fill:#000000; fill-opacity:0.0; 
stroke:#000000; stroke-width:59.0551; stroke-opacity:1; 
stroke-linecap:round; stroke-linejoin:round;">
<path d="M92914 78069
L92671 78069
L92646 78312
L92671 78288
L92719 78263
L92841 78263
L92890 78288
L92914 78312
L92939 78361
L92939 78483
L92914 78532
L92890 78556
L92841 78580
L92719 78580
L92671 78556
L92646 78532
" />
</g>
<g style="fill:#000000; fill-opacity:0.0; 
stroke:#000000; stroke-width:39.3701; stroke-opacity:1; 
stroke-linecap:round; stroke-linejoin:round;">
</g>
<g style="fill:#000000; fill-opacity:0.0; 
stroke:#000000; stroke-width:59.0551; stroke-opacity:1; 
stroke-linecap:round; stroke-linejoin:round;">
<path d="M112575 78069
L112477 78069
L112429 78093
L112404 78117
L112356 78190
L112331 78288
L112331 78483
L112356 78532
L112380 78556
L112429 78580
L112526 78580
L112575 78556
L112599 78532
L112624 78483
L112624 78361
L112599 78312
L112575 78288
L112526 78263
L112429 78263
L112380 78288
L112356 78312
L112331 78361
" />
</g>
<g style="fill:#000000; fill-opacity:0.0; 
stroke:#000000; stroke-width:39.3701; stroke-opacity:1; 
stroke-linecap:round; stroke-linejoin:round;">
</g>
<g style="fill:#000000; fill-opacity:0.0; 
stroke:#000000; stroke-width:59.0551; stroke-opacity:1; 
stroke-linecap:round; stroke-linejoin:round;">
<path d="M3937 23622
L4724 23622
" />
</g>
<g style="fill:#000000; fill-opacity:0.0; 
stroke:#000000; stroke-width:39.3701; stroke-opacity:1; 
stroke-linecap:round; stroke-linejoin:round;">
</g>
<g style="fill:#000000; fill-opacity:0.0; 
stroke:#000000; stroke-width:59.0551; stroke-opacity:1; 
stroke-linecap:round; stroke-linejoin:round;">
<path d="M3937 43307
L4724 43307
" />
</g>
<g style="fill:#000000; fill-opacity:0.0; 
stroke:#000000; stroke-width:39.3701; stroke-opacity:1; 
stroke-linecap:round; stroke-linejoin:round;">
</g>
<g style="fill:#000000; fill-opacity:0.0; 
stroke:#000000; stroke-width:59.0551; stroke-opacity:1; 
stroke-linecap:round; stroke-linejoin:round;">
<path d="M3937 62992
L4724 62992
" />
</g>
<g style="fill:#000000; fill-opacity:0.0; 
stroke:#000000; stroke-width:39.3701; stroke-opacity:1; 
stroke-linecap:round; stroke-linejoin:round;">
</g>
<g style="fill:#000000; fill-opacity:0.0; 
stroke:#000000; stroke-width:59.0551; stroke-opacity:1; 
stroke-linecap:round; stroke-linejoin:round;">
<path d="M4208 13864
L4452 13864
" />
<path d="M4160 14011
L4330 13499
L4501 14011
" />
</g>
<g style="fill:#000000; fill-opacity:0.0; 
stroke:#000000; stroke-width:39.3701; stroke-opacity:1; 
stroke-linecap:round; stroke-linejoin:round;">
</g>
<g style="fill:#000000; fill-opacity:0.0; 
stroke:#000000; stroke-width:59.0551; stroke-opacity:1; 
stroke-linecap:round; stroke-linejoin:round;">
<path d="M4367 33428
L4440 33452
L4464 33476
L4489 33525
L4489 33598
L4464 33647
L4440 33671
L4391 33696
L4196 33696
L4196 33184
L4367 33184
L4416 33208
L4440 33233
L4464 33281
L4464 33330
L4440 33379
L4416 33403
L4367 33428
L4196 33428
" />
</g>
<g style="fill:#000000; fill-opacity:0.0; 
stroke:#000000; stroke-width:39.3701; stroke-opacity:1; 
stroke-linecap:round; stroke-linejoin:round;">
</g>
<g style="fill:#000000; fill-opacity:0.0; 
stroke:#000000; stroke-width:59.0551; stroke-opacity:1; 
stroke-linecap:round; stroke-linejoin:round;">
<path d="M4489 53332
L4464 53356
L4391 53381
L4342 53381
L4269 53356
L4221 53308
L4196 53259
L4172 53161
L4172 53088
L4196 52991
L4221 52942
L4269 52893
L4342 52869
L4391 52869
L4464 52893
L4489 52918
" />
</g>
<g style="fill:#000000; fill-opacity:0.0; 
stroke:#000000; stroke-width:39.3701; stroke-opacity:1; 
stroke-linecap:round; stroke-linejoin:round;">
</g>
<g style="fill:#000000; fill-opacity:0.0; 
stroke:#000000; stroke-width:59.0551; stroke-opacity:1; 
stroke-linecap:round; stroke-linejoin:round;">
<path d="M4196 73066
L4196 72554
L4318 72554
L4391 72578
L4440 72627
L4464 72676
L4489 72773
L4489 72846
L4464 72944
L4440 72993
L4391 73041
L4318 73066
L4196 73066
" />
</g>
<g style="fill:#000000; fill-opacity:0.0; 
stroke:#000000; stroke-width:39.3701; stroke-opacity:1; 
stroke-linecap:round; stroke-linejoin:round;">
</g>
<g style="fill:#000000; fill-opacity:0.0; 
stroke:#000000; stroke-width:59.0551; stroke-opacity:1; 
stroke-linecap:round; stroke-linejoin:round;">
<path d="M112992 23622
L112205 23622
" />
</g>
<g style="fill:#000000; fill-opacity:0.0; 
stroke:#000000; stroke-width:39.3701; stroke-opacity:1; 
stroke-linecap:round; stroke-linejoin:round;">
</g>
<g style="fill:#000000; fill-opacity:0.0; 
stroke:#000000; stroke-width:59.0551; stroke-opacity:1; 
stroke-linecap:round; stroke-linejoin:round;">
<path d="M112992 43307
L112205 43307
" />
</g>
<g style="fill:#000000; fill-opacity:0.0; 
stroke:#000000; stroke-width:39.3701; stroke-opacity:1; 
stroke-linecap:round; stroke-linejoin:round;">
</g>
<g style="fill:#000000; fill-opacity:0.0; 
stroke:#000000; stroke-width:59.0551; stroke-opacity:1; 
stroke-linecap:round; stroke-linejoin:round;">
<path d="M112992 62992
L112205 62992
" />
</g>
<g style="fill:#000000; fill-opacity:0.0; 
stroke:#000000; stroke-width:39.3701; stroke-opacity:1; 
stroke-linecap:round; stroke-linejoin:round;">
</g>
<g style="fill:#000000; fill-opacity:0.0; 
stroke:#000000; stroke-width:59.0551; stroke-opacity:1; 
stroke-linecap:round; stroke-linejoin:round;">
<path d="M112477 13864
L112721 13864
" />
<path d="M112428 14011
L112599 13499
L112769 14011
" />
</g>
<g style="fill:#000000; fill-opacity:0.0; 
stroke:#000000; stroke-width:39.3701; stroke-opacity:1; 
stroke-linecap:round; stroke-linejoin:round;">
</g>
<g style="fill:#000000; fill-opacity:0.0; 
stroke:#000000; stroke-width:59.0551; stroke-opacity:1; 
stroke-linecap:round; stroke-linejoin:round;">
<path d="M112635 33428
L112708 33452
L112733 33476
L112757 33525
L112757 33598
L112733 33647
L112708 33671
L112660 33696
L112465 33696
L112465 33184
L112635 33184
L112684 33208
L112708 33233
L112733 33281
L112733 33330
L112708 33379
L112684 33403
L112635 33428
L112465 33428
" />
</g>
<g style="fill:#000000; fill-opacity:0.0; 
stroke:#000000; stroke-width:39.3701; stroke-opacity:1; 
stroke-linecap:round; stroke-linejoin:round;">
</g>
<g style="fill:#000000; fill-opacity:0.0; 
stroke:#000000; stroke-width:59.0551; stroke-opacity:1; 
stroke-linecap:round; stroke-linejoin:round;">
<path d="M112757 53332
L112733 53356
L112660 53381
L112611 53381
L112538 53356
L112489 53308
L112465 53259
L112440 53161
L112440 53088
L112465 52991
L112489 52942
L112538 52893
L112611 52869
L112660 52869
L112733 52893
L112757 52918
" />
</g>
<g style="fill:#000000; fill-opacity:0.0; 
stroke:#000000; stroke-width:39.3701; stroke-opacity:1; 
stroke-linecap:round; stroke-linejoin:round;">
</g>
<g style="fill:#000000; fill-opacity:0.0; 
stroke:#000000; stroke-width:59.0551; stroke-opacity:1; 
stroke-linecap:round; stroke-linejoin:round;">
<path d="M112465 73066
L112465 72554
L112587 72554
L112660 72578
L112708 72627
L112733 72676
L112757 72773
L112757 72846
L112733 72944
L112708 72993
L112660 73041
L112587 73066
L112465 73066
" />
</g>
<g style="fill:#000000; fill-opacity:0.0; 
stroke:#000000; stroke-width:39.3701; stroke-opacity:1; 
stroke-linecap:round; stroke-linejoin:round;">
</g>
<g style="fill:#000000; fill-opacity:0.0; 
stroke:#000000; stroke-width:59.0551; stroke-opacity:1; 
stroke-linecap:round; stroke-linejoin:round;">
<path d="M78911 76293
L78911 75703
L79051 75703
L79136 75731
L79192 75787
L79220 75843
L79248 75956
L79248 76040
L79220 76153
L79192 76209
L79136 76265
L79051 76293
L78911 76293
" />
<path d="M79754 76293
L79754 75984
L79726 75928
L79670 75899
L79557 75899
L79501 75928
" />
<path d="M79754 76265
L79698 76293
L79557 76293
L79501 76265
L79473 76209
L79473 76153
L79501 76096
L79557 76068
L79698 76068
L79754 76040
" />
<path d="M79951 75899
L80176 75899
" />
<path d="M80036 75703
L80036 76209
L80064 76265
L80120 76293
L80176 76293
" />
<path d="M80598 76265
L80542 76293
L80429 76293
L80373 76265
L80345 76209
L80345 75984
L80373 75928
L80429 75899
L80542 75899
L80598 75928
L80626 75984
L80626 76040
L80345 76096
" />
<path d="M80879 76237
L80907 76265
L80879 76293
L80851 76265
L80879 76237
L80879 76293
" />
<path d="M80879 75928
L80907 75956
L80879 75984
L80851 75956
L80879 75928
L80879 75984
" />
</g>
<g style="fill:#000000; fill-opacity:0.0; 
stroke:#000000; stroke-width:39.3701; stroke-opacity:1; 
stroke-linecap:round; stroke-linejoin:round;">
</g>
<g style="fill:#000000; fill-opacity:0.0; 
stroke:#000000; stroke-width:59.0551; stroke-opacity:1; 
stroke-linecap:round; stroke-linejoin:round;">
<path d="M69685 76577
L112205 76577
" />
</g>
<g style="fill:#000000; fill-opacity:0.0; 
stroke:#000000; stroke-width:39.3701; stroke-opacity:1; 
stroke-linecap:round; stroke-linejoin:round;">
</g>
<g style="fill:#000000; fill-opacity:0.0; 
stroke:#000000; stroke-width:59.0551; stroke-opacity:1; 
stroke-linecap:round; stroke-linejoin:round;">
<path d="M70249 77395
L70249 76805
" />
<path d="M70587 77395
L70334 77058
" />
<path d="M70587 76805
L70249 77142
" />
<path d="M70840 77395
L70840 77002
" />
<path d="M70840 76805
L70812 76833
L70840 76861
L70868 76833
L70840 76805
L70840 76861
" />
<path d="M71458 77339
L71430 77367
L71346 77395
L71290 77395
L71205 77367
L71149 77311
L71121 77255
L71093 77142
L71093 77058
L71121 76946
L71149 76889
L71205 76833
L71290 76805
L71346 76805
L71430 76833
L71458 76861
" />
<path d="M71965 77395
L71965 77086
L71937 77030
L71880 77002
L71768 77002
L71712 77030
" />
<path d="M71965 77367
L71908 77395
L71768 77395
L71712 77367
L71683 77311
L71683 77255
L71712 77199
L71768 77171
L71908 77171
L71965 77142
" />
<path d="M72499 77395
L72499 76805
" />
<path d="M72499 77367
L72443 77395
L72330 77395
L72274 77367
L72246 77339
L72218 77283
L72218 77114
L72246 77058
L72274 77030
L72330 77002
L72443 77002
L72499 77030
" />
<path d="M73230 77086
L73427 77086
" />
<path d="M73511 77395
L73230 77395
L73230 76805
L73511 76805
" />
<path d="M73764 77339
L73793 77367
L73764 77395
L73736 77367
L73764 77339
L73764 77395
" />
<path d="M74046 77395
L74046 76805
L74186 76805
L74271 76833
L74327 76889
L74355 76946
L74383 77058
L74383 77142
L74355 77255
L74327 77311
L74271 77367
L74186 77395
L74046 77395
" />
<path d="M74636 77339
L74664 77367
L74636 77395
L74608 77367
L74636 77339
L74636 77395
" />
<path d="M74889 77227
L75171 77227
" />
<path d="M74833 77395
L75030 76805
L75227 77395
" />
<path d="M75424 77339
L75452 77367
L75424 77395
L75395 77367
L75424 77339
L75424 77395
" />
<path d="M76605 77395
L76605 76805
" />
<path d="M76661 77171
L76830 77395
" />
<path d="M76830 77002
L76605 77227
" />
<path d="M77083 77395
L77083 77002
" />
<path d="M77083 76805
L77055 76833
L77083 76861
L77111 76833
L77083 76805
L77083 76861
" />
<path d="M77617 77367
L77561 77395
L77448 77395
L77392 77367
L77364 77339
L77336 77283
L77336 77114
L77364 77058
L77392 77030
L77448 77002
L77561 77002
L77617 77030
" />
<path d="M78123 77395
L78123 77086
L78095 77030
L78039 77002
L77926 77002
L77870 77030
" />
<path d="M78123 77367
L78067 77395
L77926 77395
L77870 77367
L77842 77311
L77842 77255
L77870 77199
L77926 77171
L78067 77171
L78123 77142
" />
<path d="M78658 77395
L78658 76805
" />
<path d="M78658 77367
L78601 77395
L78489 77395
L78433 77367
L78404 77339
L78376 77283
L78376 77114
L78404 77058
L78433 77030
L78489 77002
L78601 77002
L78658 77030
" />
<path d="M79670 76805
L79389 76805
L79361 77086
L79389 77058
L79445 77030
L79586 77030
L79642 77058
L79670 77086
L79698 77142
L79698 77283
L79670 77339
L79642 77367
L79586 77395
L79445 77395
L79389 77367
L79361 77339
" />
<path d="M79951 77339
L79979 77367
L79951 77395
L79923 77367
L79951 77339
L79951 77395
" />
<path d="M80345 76805
L80401 76805
L80457 76833
L80485 76861
L80514 76917
L80542 77030
L80542 77171
L80514 77283
L80485 77339
L80457 77367
L80401 77395
L80345 77395
L80289 77367
L80260 77339
L80232 77283
L80204 77171
L80204 77030
L80232 76917
L80260 76861
L80289 76833
L80345 76805
" />
<path d="M80795 77339
L80823 77367
L80795 77395
L80767 77367
L80795 77339
L80795 77395
" />
<path d="M81048 76861
L81076 76833
L81132 76805
L81273 76805
L81329 76833
L81357 76861
L81385 76917
L81385 76974
L81357 77058
L81020 77395
L81385 77395
" />
<path d="M81638 77171
L82088 77171
" />
<path d="M81863 77395
L81863 76946
" />
<path d="M82623 77395
L82623 76805
" />
<path d="M82623 77367
L82566 77395
L82454 77395
L82398 77367
L82370 77339
L82341 77283
L82341 77114
L82370 77058
L82398 77030
L82454 77002
L82566 77002
L82623 77030
" />
<path d="M82820 77002
L83045 77002
" />
<path d="M82904 77395
L82904 76889
L82932 76833
L82988 76805
L83045 76805
" />
<path d="M83213 77367
L83269 77395
L83382 77395
L83438 77367
L83466 77311
L83466 77283
L83438 77227
L83382 77199
L83298 77199
L83241 77171
L83213 77114
L83213 77086
L83241 77030
L83298 77002
L83382 77002
L83438 77030
" />
<path d="M83973 77002
L83973 77480
L83944 77536
L83916 77564
L83860 77592
L83776 77592
L83719 77564
" />
<path d="M83973 77367
L83916 77395
L83804 77395
L83748 77367
L83719 77339
L83691 77283
L83691 77114
L83719 77058
L83748 77030
L83804 77002
L83916 77002
L83973 77030
" />
<path d="M84563 77395
L84226 77395
" />
<path d="M84394 77395
L84394 76805
L84338 76889
L84282 76946
L84226 76974
" />
<path d="M84816 77171
L85266 77171
" />
<path d="M85857 77395
L85519 77395
" />
<path d="M85688 77395
L85688 76805
L85632 76889
L85575 76946
L85519 76974
" />
<path d="M85969 76644
L86503 76644
" />
<path d="M86110 77395
L86110 76805
" />
<path d="M86110 77030
L86166 77002
L86278 77002
L86335 77030
L86363 77058
L86391 77114
L86391 77283
L86363 77339
L86335 77367
L86278 77395
L86166 77395
L86110 77367
" />
<path d="M86503 76644
L87038 76644
" />
<path d="M86644 77002
L86644 77592
" />
<path d="M86644 77030
L86700 77002
L86813 77002
L86869 77030
L86897 77058
L86925 77114
L86925 77283
L86897 77339
L86869 77367
L86813 77395
L86700 77395
L86644 77367
" />
<path d="M87038 76644
L87572 76644
" />
<path d="M87263 77395
L87206 77367
L87178 77339
L87150 77283
L87150 77114
L87178 77058
L87206 77030
L87263 77002
L87347 77002
L87403 77030
L87431 77058
L87460 77114
L87460 77283
L87431 77339
L87403 77367
L87347 77395
L87263 77395
" />
<path d="M87572 76644
L88135 76644
" />
<path d="M87741 77395
L87853 77395
L87910 77367
L87938 77339
L87994 77255
L88022 77142
L88022 76917
L87994 76861
L87966 76833
L87910 76805
L87797 76805
L87741 76833
L87713 76861
L87685 76917
L87685 77058
L87713 77114
L87741 77142
L87797 77171
L87910 77171
L87966 77142
L87994 77114
L88022 77058
" />
<path d="M88135 76644
L88866 76644
" />
<path d="M88275 77171
L88725 77171
" />
<path d="M88500 77395
L88500 76946
" />
<path d="M88866 76644
L89428 76644
" />
<path d="M89316 77395
L88978 77395
" />
<path d="M89147 77395
L89147 76805
L89091 76889
L89034 76946
L88978 76974
" />
</g>
<g style="fill:#000000; fill-opacity:0.0; 
stroke:#000000; stroke-width:39.3701; stroke-opacity:1; 
stroke-linecap:round; stroke-linejoin:round;">
</g>
<g style="fill:#000000; fill-opacity:0.0; 
stroke:#000000; stroke-width:59.0551; stroke-opacity:1; 
stroke-linecap:round; stroke-linejoin:round;">
<path d="M69685 75396
L112205 75396
" />
</g>
<g style="fill:#000000; fill-opacity:0.0; 
stroke:#000000; stroke-width:39.3701; stroke-opacity:1; 
stroke-linecap:round; stroke-linejoin:round;">
</g>
<g style="fill:#000000; fill-opacity:0.0; 
stroke:#000000; stroke-width:118.11; stroke-opacity:1; 
stroke-linecap:round; stroke-linejoin:round;">
<path d="M104099 76293
L103902 76012
" />
<path d="M103761 76293
L103761 75703
L103986 75703
L104042 75731
L104070 75759
L104099 75815
L104099 75899
L104070 75956
L104042 75984
L103986 76012
L103761 76012
" />
<path d="M104577 76265
L104520 76293
L104408 76293
L104352 76265
L104323 76209
L104323 75984
L104352 75928
L104408 75899
L104520 75899
L104577 75928
L104605 75984
L104605 76040
L104323 76096
" />
<path d="M104802 75899
L104942 76293
L105083 75899
" />
<path d="M105308 76237
L105336 76265
L105308 76293
L105280 76265
L105308 76237
L105308 76293
" />
<path d="M105308 75928
L105336 75956
L105308 75984
L105280 75956
L105308 75928
L105308 75984
" />
</g>
<g style="fill:#000000; fill-opacity:0.0; 
stroke:#000000; stroke-width:39.3701; stroke-opacity:1; 
stroke-linecap:round; stroke-linejoin:round;">
</g>
<g style="fill:#000000; fill-opacity:0.0; 
stroke:#000000; stroke-width:59.0551; stroke-opacity:1; 
stroke-linecap:round; stroke-linejoin:round;">
<path d="M70221 76265
L70305 76293
L70446 76293
L70502 76265
L70530 76237
L70559 76181
L70559 76124
L70530 76068
L70502 76040
L70446 76012
L70334 75984
L70277 75956
L70249 75928
L70221 75871
L70221 75815
L70249 75759
L70277 75731
L70334 75703
L70474 75703
L70559 75731
" />
<path d="M70812 76293
L70812 75899
" />
<path d="M70812 75703
L70784 75731
L70812 75759
L70840 75731
L70812 75703
L70812 75759
" />
<path d="M71037 75899
L71346 75899
L71037 76293
L71346 76293
" />
<path d="M71796 76265
L71740 76293
L71627 76293
L71571 76265
L71543 76209
L71543 75984
L71571 75928
L71627 75899
L71740 75899
L71796 75928
L71824 75984
L71824 76040
L71543 76096
" />
<path d="M72077 76237
L72105 76265
L72077 76293
L72049 76265
L72077 76237
L72077 76293
" />
<path d="M72077 75928
L72105 75956
L72077 75984
L72049 75956
L72077 75928
L72077 75984
" />
<path d="M72780 76124
L73061 76124
" />
<path d="M72724 76293
L72921 75703
L73118 76293
" />
<path d="M73568 75899
L73568 76293
" />
<path d="M73427 75674
L73286 76096
L73652 76096
" />
</g>
<g style="fill:#000000; fill-opacity:0.0; 
stroke:#000000; stroke-width:39.3701; stroke-opacity:1; 
stroke-linecap:round; stroke-linejoin:round;">
</g>
<g style="fill:#000000; fill-opacity:0.0; 
stroke:#000000; stroke-width:59.0551; stroke-opacity:1; 
stroke-linecap:round; stroke-linejoin:round;">
<path d="M103714 77395
L103714 76805
" />
<path d="M104248 77395
L104248 76805
" />
<path d="M104248 77367
L104192 77395
L104079 77395
L104023 77367
L103995 77339
L103967 77283
L103967 77114
L103995 77058
L104023 77030
L104079 77002
L104192 77002
L104248 77030
" />
<path d="M104529 77339
L104557 77367
L104529 77395
L104501 77367
L104529 77339
L104529 77395
" />
<path d="M104529 77030
L104557 77058
L104529 77086
L104501 77058
L104529 77030
L104529 77086
" />
<path d="M105570 77395
L105232 77395
" />
<path d="M105401 77395
L105401 76805
L105345 76889
L105289 76946
L105232 76974
" />
<path d="M106245 76777
L105739 77536
" />
<path d="M106751 77395
L106413 77395
" />
<path d="M106582 77395
L106582 76805
L106526 76889
L106470 76946
L106413 76974
" />
</g>
<g style="fill:#000000; fill-opacity:0.0; 
stroke:#000000; stroke-width:39.3701; stroke-opacity:1; 
stroke-linecap:round; stroke-linejoin:round;">
</g>
<g style="fill:#000000; fill-opacity:0.0; 
stroke:#000000; stroke-width:59.0551; stroke-opacity:1; 
stroke-linecap:round; stroke-linejoin:round;">
<path d="M69685 73821
L112205 73821
" />
</g>
<g style="fill:#000000; fill-opacity:0.0; 
stroke:#000000; stroke-width:39.3701; stroke-opacity:1; 
stroke-linecap:round; stroke-linejoin:round;">
</g>
<g style="fill:#000000; fill-opacity:0.0; 
stroke:#000000; stroke-width:157.48; stroke-opacity:1; 
stroke-linecap:round; stroke-linejoin:round;">
<path d="M70360 74099
L70810 74099
" />
<path d="M70486 74886
L70585 74099
" />
<path d="M70974 74886
L71039 74361
" />
<path d="M71072 74099
L71030 74136
L71063 74174
L71105 74136
L71072 74099
L71063 74174
" />
<path d="M71302 74361
L71602 74361
" />
<path d="M71447 74099
L71363 74774
L71391 74849
L71461 74886
L71536 74886
" />
<path d="M71911 74886
L71841 74849
L71813 74774
L71897 74099
" />
<path d="M72516 74849
L72436 74886
L72286 74886
L72216 74849
L72187 74774
L72225 74474
L72272 74399
L72352 74361
L72501 74361
L72572 74399
L72600 74474
L72591 74549
L72206 74624
" />
<path d="M72895 74811
L72928 74849
L72886 74886
L72853 74849
L72895 74811
L72886 74886
" />
<path d="M72947 74399
L72980 74436
L72937 74474
L72905 74436
L72947 74399
L72937 74474
" />
</g>
<g style="fill:#000000; fill-opacity:0.0; 
stroke:#000000; stroke-width:39.3701; stroke-opacity:1; 
stroke-linecap:round; stroke-linejoin:round;">
</g>
<g style="fill:#000000; fill-opacity:0.0; 
stroke:#000000; stroke-width:59.0551; stroke-opacity:1; 
stroke-linecap:round; stroke-linejoin:round;">
<path d="M70446 73070
L70249 73070
" />
<path d="M70249 73380
L70249 72789
L70530 72789
" />
<path d="M70755 73380
L70755 72986
" />
<path d="M70755 72789
L70727 72817
L70755 72845
L70784 72817
L70755 72789
L70755 72845
" />
<path d="M71121 73380
L71065 73352
L71037 73295
L71037 72789
" />
<path d="M71571 73352
L71515 73380
L71402 73380
L71346 73352
L71318 73295
L71318 73070
L71346 73014
L71402 72986
L71515 72986
L71571 73014
L71599 73070
L71599 73127
L71318 73183
" />
<path d="M71852 73323
L71880 73352
L71852 73380
L71824 73352
L71852 73323
L71852 73380
" />
<path d="M71852 73014
L71880 73042
L71852 73070
L71824 73042
L71852 73014
L71852 73070
" />
<path d="M72583 72986
L72583 73380
" />
<path d="M72583 73042
L72611 73014
L72668 72986
L72752 72986
L72808 73014
L72836 73070
L72836 73380
" />
<path d="M73371 72986
L73371 73380
" />
<path d="M73118 72986
L73118 73295
L73146 73352
L73202 73380
L73286 73380
L73343 73352
L73371 73323
" />
<path d="M73652 73323
L73680 73352
L73652 73380
L73624 73352
L73652 73323
L73652 73380
" />
<path d="M74186 73380
L74186 73070
L74158 73014
L74102 72986
L73989 72986
L73933 73014
" />
<path d="M74186 73352
L74130 73380
L73989 73380
L73933 73352
L73905 73295
L73905 73239
L73933 73183
L73989 73155
L74130 73155
L74186 73127
" />
<path d="M74467 73380
L74467 72986
" />
<path d="M74467 72789
L74439 72817
L74467 72845
L74496 72817
L74467 72789
L74467 72845
" />
<path d="M74608 73436
L75058 73436
" />
<path d="M75199 73380
L75199 72986
" />
<path d="M75199 73042
L75227 73014
L75283 72986
L75367 72986
L75424 73014
L75452 73070
L75452 73380
" />
<path d="M75452 73070
L75480 73014
L75536 72986
L75620 72986
L75677 73014
L75705 73070
L75705 73380
" />
<path d="M76070 73380
L76014 73352
L75986 73323
L75958 73267
L75958 73099
L75986 73042
L76014 73014
L76070 72986
L76155 72986
L76211 73014
L76239 73042
L76267 73099
L76267 73267
L76239 73323
L76211 73352
L76155 73380
L76070 73380
" />
<path d="M76436 72986
L76661 72986
" />
<path d="M76520 72789
L76520 73295
L76548 73352
L76605 73380
L76661 73380
" />
<path d="M76942 73380
L76886 73352
L76858 73323
L76830 73267
L76830 73099
L76858 73042
L76886 73014
L76942 72986
L77027 72986
L77083 73014
L77111 73042
L77139 73099
L77139 73267
L77111 73323
L77083 73352
L77027 73380
L76942 73380
" />
<path d="M77392 73380
L77392 72986
" />
<path d="M77392 73099
L77420 73042
L77448 73014
L77505 72986
L77561 72986
" />
<path d="M77617 73436
L78067 73436
" />
<path d="M78461 73352
L78404 73380
L78292 73380
L78236 73352
L78208 73323
L78180 73267
L78180 73099
L78208 73042
L78236 73014
L78292 72986
L78404 72986
L78461 73014
" />
<path d="M78798 73380
L78742 73352
L78714 73323
L78686 73267
L78686 73099
L78714 73042
L78742 73014
L78798 72986
L78883 72986
L78939 73014
L78967 73042
L78995 73099
L78995 73267
L78967 73323
L78939 73352
L78883 73380
L78798 73380
" />
<path d="M79248 72986
L79248 73380
" />
<path d="M79248 73042
L79276 73014
L79332 72986
L79417 72986
L79473 73014
L79501 73070
L79501 73380
" />
<path d="M79698 72986
L79923 72986
" />
<path d="M79782 72789
L79782 73295
L79811 73352
L79867 73380
L79923 73380
" />
<path d="M80120 73380
L80120 72986
" />
<path d="M80120 73099
L80148 73042
L80176 73014
L80232 72986
L80289 72986
" />
<path d="M80570 73380
L80514 73352
L80485 73323
L80457 73267
L80457 73099
L80485 73042
L80514 73014
L80570 72986
L80654 72986
L80710 73014
L80739 73042
L80767 73099
L80767 73267
L80739 73323
L80710 73352
L80654 73380
L80570 73380
" />
<path d="M81104 73380
L81048 73352
L81020 73295
L81020 72789
" />
<path d="M81413 73380
L81357 73352
L81329 73295
L81329 72789
" />
<path d="M81863 73352
L81807 73380
L81695 73380
L81638 73352
L81610 73295
L81610 73070
L81638 73014
L81695 72986
L81807 72986
L81863 73014
L81892 73070
L81892 73127
L81610 73183
" />
<path d="M82145 73380
L82145 72986
" />
<path d="M82145 73099
L82173 73042
L82201 73014
L82257 72986
L82313 72986
" />
<path d="M82510 73323
L82538 73352
L82510 73380
L82482 73352
L82510 73323
L82510 73380
" />
<path d="M82791 73380
L82791 72789
" />
<path d="M82848 73155
L83016 73380
" />
<path d="M83016 72986
L82791 73211
" />
<path d="M83269 73380
L83269 72986
" />
<path d="M83269 72789
L83241 72817
L83269 72845
L83298 72817
L83269 72789
L83269 72845
" />
<path d="M83804 73352
L83748 73380
L83635 73380
L83579 73352
L83551 73323
L83523 73267
L83523 73099
L83551 73042
L83579 73014
L83635 72986
L83748 72986
L83804 73014
" />
<path d="M84310 73380
L84310 73070
L84282 73014
L84226 72986
L84113 72986
L84057 73014
" />
<path d="M84310 73352
L84254 73380
L84113 73380
L84057 73352
L84029 73295
L84029 73239
L84057 73183
L84113 73155
L84254 73155
L84310 73127
" />
<path d="M84844 73380
L84844 72789
" />
<path d="M84844 73352
L84788 73380
L84676 73380
L84619 73352
L84591 73323
L84563 73267
L84563 73099
L84591 73042
L84619 73014
L84676 72986
L84788 72986
L84844 73014
" />
<path d="M84985 73436
L85435 73436
" />
<path d="M85575 72986
L85575 73577
" />
<path d="M85575 73014
L85632 72986
L85744 72986
L85800 73014
L85829 73042
L85857 73099
L85857 73267
L85829 73323
L85800 73352
L85744 73380
L85632 73380
L85575 73352
" />
<path d="M86363 73352
L86307 73380
L86194 73380
L86138 73352
L86110 73323
L86082 73267
L86082 73099
L86110 73042
L86138 73014
L86194 72986
L86307 72986
L86363 73014
" />
<path d="M86616 73380
L86616 72789
" />
<path d="M86616 73014
L86672 72986
L86785 72986
L86841 73014
L86869 73042
L86897 73099
L86897 73267
L86869 73323
L86841 73352
L86785 73380
L86672 73380
L86616 73352
" />
</g>
<g style="fill:#000000; fill-opacity:0.0; 
stroke:#000000; stroke-width:39.3701; stroke-opacity:1; 
stroke-linecap:round; stroke-linejoin:round;">
</g>
<g style="fill:#000000; fill-opacity:0.0; 
stroke:#000000; stroke-width:59.0551; stroke-opacity:1; 
stroke-linecap:round; stroke-linejoin:round;">
<path d="M69685 71459
L112205 71459
" />
</g>
<g style="fill:#000000; fill-opacity:0.0; 
stroke:#000000; stroke-width:39.3701; stroke-opacity:1; 
stroke-linecap:round; stroke-linejoin:round;">
</g>
<g style="fill:#000000; fill-opacity:0.0; 
stroke:#000000; stroke-width:59.0551; stroke-opacity:1; 
stroke-linecap:round; stroke-linejoin:round;">
<path d="M70221 72289
L70305 72317
L70446 72317
L70502 72289
L70530 72260
L70559 72204
L70559 72148
L70530 72092
L70502 72064
L70446 72036
L70334 72007
L70277 71979
L70249 71951
L70221 71895
L70221 71839
L70249 71782
L70277 71754
L70334 71726
L70474 71726
L70559 71754
" />
<path d="M70812 72317
L70812 71726
" />
<path d="M71065 72317
L71065 72007
L71037 71951
L70980 71923
L70896 71923
L70840 71951
L70812 71979
" />
<path d="M71571 72289
L71515 72317
L71402 72317
L71346 72289
L71318 72232
L71318 72007
L71346 71951
L71402 71923
L71515 71923
L71571 71951
L71599 72007
L71599 72064
L71318 72120
" />
<path d="M72077 72289
L72021 72317
L71908 72317
L71852 72289
L71824 72232
L71824 72007
L71852 71951
L71908 71923
L72021 71923
L72077 71951
L72105 72007
L72105 72064
L71824 72120
" />
<path d="M72274 71923
L72499 71923
" />
<path d="M72358 71726
L72358 72232
L72386 72289
L72443 72317
L72499 72317
" />
<path d="M72696 72260
L72724 72289
L72696 72317
L72668 72289
L72696 72260
L72696 72317
" />
<path d="M72696 71951
L72724 71979
L72696 72007
L72668 71979
L72696 71951
L72696 72007
" />
</g>
<g style="fill:#000000; fill-opacity:0.0; 
stroke:#000000; stroke-width:39.3701; stroke-opacity:1; 
stroke-linecap:round; stroke-linejoin:round;">
</g>
<g style="fill:#000000; fill-opacity:0.0; 
stroke:#000000; stroke-width:59.0551; stroke-opacity:1; 
stroke-linecap:round; stroke-linejoin:round;">
<path d="M77559 75396
L77559 76577
" />
</g>
<g style="fill:#000000; fill-opacity:0.0; 
stroke:#000000; stroke-width:39.3701; stroke-opacity:1; 
stroke-linecap:round; stroke-linejoin:round;">
</g>
<g style="fill:#000000; fill-opacity:0.0; 
stroke:#000000; stroke-width:59.0551; stroke-opacity:1; 
stroke-linecap:round; stroke-linejoin:round;">
<path d="M102756 75396
L102756 77955
" />
</g>
<g style="fill:#840084; fill-opacity:0.0; 
stroke:#840084; stroke-width:59.0551; stroke-opacity:1; 
stroke-linecap:round; stroke-linejoin:round;">
</g>
<g style="fill:#840084; fill-opacity:0.0; 
stroke:#840084; stroke-width:118.11; stroke-opacity:1; 
stroke-linecap:round; stroke-linejoin:round;">
<path d="M68538 18118
L68257 17921
" />
<path d="M68538 17780
L67947 17780
L67947 18005
L67975 18062
L68004 18090
L68060 18118
L68144 18118
L68200 18090
L68229 18062
L68257 18005
L68257 17780
" />
<path d="M68510 18343
L68538 18427
L68538 18568
L68510 18624
L68482 18652
L68425 18680
L68369 18680
L68313 18652
L68285 18624
L68257 18568
L68229 18455
L68200 18399
L68172 18371
L68116 18343
L68060 18343
L68004 18371
L67975 18399
L67947 18455
L67947 18596
L67975 18680
" />
<path d="M67947 18849
L67947 19186
" />
<path d="M68538 19018
L67947 19018
" />
<path d="M55997 17579
L55997 17691
L56025 17748
L56082 17804
L56194 17832
L56391 17832
L56504 17804
L56560 17748
L56588 17691
L56588 17579
L56560 17523
L56504 17466
L56391 17438
L56194 17438
L56082 17466
L56025 17523
L55997 17579
" />
<path d="M56279 18282
L56279 18085
" />
<path d="M56588 18085
L55997 18085
L55997 18366
" />
<path d="M56279 18788
L56279 18591
" />
<path d="M56588 18591
L55997 18591
L55997 18872
" />
<path d="M57497 17776
L57497 17888
L57525 17944
L57582 18001
L57694 18029
L57891 18029
L58004 18001
L58060 17944
L58088 17888
L58088 17776
L58060 17719
L58004 17663
L57891 17635
L57694 17635
L57582 17663
L57525 17719
L57497 17776
" />
<path d="M58088 18282
L57497 18282
L58088 18619
L57497 18619
" />
</g>
<g style="fill:#840084; fill-opacity:0.0; 
stroke:#840084; stroke-width:47.2441; stroke-opacity:1; 
stroke-linecap:round; stroke-linejoin:round;">
<path d="M61035 25142
L60907 25142
" />
<path d="M61035 24740
L60907 24740
" />
<path d="M53117 23290
L53245 23290
" />
<path d="M53117 23692
L53245 23692
" />
<path d="M58720 26995
L58720 26867
" />
<path d="M59122 26995
L59122 26867
" />
<path d="M59320 25105
L59320 24977
" />
<path d="M59722 25105
L59722 24977
" />
<path d="M61185 27842
L61057 27842
" />
<path d="M61185 27440
L61057 27440
" />
<path d="M61722 26287
L61722 26415
" />
<path d="M61320 26287
L61320 26415
" />
<path d="M60322 26619
L60322 26747
" />
<path d="M59920 26619
L59920 26747
" />
</g>
<g style="fill:#840084; fill-opacity:0.0; 
stroke:#840084; stroke-width:196.85; stroke-opacity:1; 
stroke-linecap:round; stroke-linejoin:round;">
<circle cx="66295.3" cy="22914.2" r="100" /> 
</g>
<g style="fill:#840084; fill-opacity:0.0; 
stroke:#840084; stroke-width:47.2441; stroke-opacity:1; 
stroke-linecap:round; stroke-linejoin:round;">
<path d="M52819 26275
L51762 26275
" />
<path d="M52819 25519
L52819 26275
" />
<path d="M51762 25519
L52819 25519
" />
</g>
<g style="fill:#840084; fill-opacity:0.0; 
stroke:#840084; stroke-width:59.0551; stroke-opacity:1; 
stroke-linecap:round; stroke-linejoin:round;">
<path d="M67121 38641
L67121 39441
" />
<path d="M67121 39441
L67921 39441
" />
<path d="M73721 39441
L74521 39441
" />
<path d="M74521 39441
L74521 38641
" />
<path d="M74521 33841
L74521 33041
" />
<path d="M74521 33041
L73721 33041
" />
<path d="M67921 33041
L67121 33041
" />
<path d="M67121 33041
L67121 33841
" />
</g>
<g style="fill:#840084; fill-opacity:0.0; 
stroke:#840084; stroke-width:47.2441; stroke-opacity:1; 
stroke-linecap:round; stroke-linejoin:round;">
<path d="M59320 26755
L59320 26627
" />
<path d="M59722 26755
L59722 26627
" />
<path d="M66572 25377
L66572 25505
" />
<path d="M66170 25377
L66170 25505
" />
<path d="M67470 25505
L67470 25377
" />
<path d="M67872 25505
L67872 25377
" />
<path d="M63472 21027
L63472 21155
" />
<path d="M63070 21027
L63070 21155
" />
<path d="M67222 25377
L67222 25505
" />
<path d="M66820 25377
L66820 25505
" />
</g>
<g style="fill:#840084; fill-opacity:0.0; 
stroke:#840084; stroke-width:100; stroke-opacity:1; 
stroke-linecap:round; stroke-linejoin:round;">
<path d="M67571 17041
L67071 17041
" />
<path d="M67571 17541
L67571 17041
" />
<path d="M67571 20041
L67571 19541
" />
<path d="M67071 20041
L67571 20041
" />
<path d="M63571 20041
L64071 20041
" />
<path d="M63571 19541
L63571 20041
" />
<path d="M63571 17041
L63571 17541
" />
<path d="M64071 17041
L63571 17041
" />
<path d="M51600 20027
L52100 20027
" />
<path d="M51600 19527
L51600 20027
" />
<path d="M51600 17027
L51600 17527
" />
<path d="M52100 17027
L51600 17027
" />
<path d="M55600 17027
L55100 17027
" />
<path d="M55600 17527
L55600 17027
" />
<path d="M55600 20027
L55600 19527
" />
<path d="M55100 20027
L55600 20027
" />
<path d="M58541 20027
L59041 20027
" />
<path d="M58541 19527
L58541 20027
" />
<path d="M58541 17027
L58541 17527
" />
<path d="M59041 17027
L58541 17027
" />
<path d="M62541 17027
L62041 17027
" />
<path d="M62541 17527
L62541 17027
" />
<path d="M62541 20027
L62541 19527
" />
<path d="M62041 20027
L62541 20027
" />
<path d="M68721 46641
L69221 46641
" />
<path d="M68721 46141
L68721 46641
" />
<path d="M68721 41541
L68721 42041
" />
<path d="M69221 41541
L68721 41541
" />
</g>
<g style="fill:#840084; fill-opacity:0.0; 
stroke:#840084; stroke-width:196.85; stroke-opacity:1; 
stroke-linecap:round; stroke-linejoin:round;">
<circle cx="69721.3" cy="26291.7" r="100" /> 
</g>
<g style="fill:#840084; fill-opacity:0.0; 
stroke:#840084; stroke-width:47.2441; stroke-opacity:1; 
stroke-linecap:round; stroke-linejoin:round;">
<circle cx="68021.3" cy="42591.7" r="275.591" /> 
<circle cx="68021.3" cy="43591.7" r="275.591" /> 
<circle cx="68021.3" cy="44591.7" r="275.591" /> 
<circle cx="68021.3" cy="45591.7" r="275.591" /> 
<circle cx="65490" cy="27930" r="275.591" /> 
<circle cx="54471.3" cy="24491.7" r="472.441" /> 
<circle cx="54471.3" cy="22491.7" r="472.441" /> 
</g>
<g style="fill:#840084; fill-opacity:0.0; 
stroke:#840084; stroke-width:59.0551; stroke-opacity:1; 
stroke-linecap:round; stroke-linejoin:round;">
<path d="M62383 24860
L62401 24879
L62458 24898
L62495 24898
L62551 24879
L62589 24841
L62608 24804
L62626 24729
L62626 24673
L62608 24598
L62589 24560
L62551 24523
L62495 24504
L62458 24504
L62401 24523
L62383 24541
" />
<path d="M62008 24898
L62233 24898
" />
<path d="M62120 24898
L62120 24504
L62158 24560
L62195 24598
L62233 24616
" />
<path d="M61764 24504
L61726 24504
L61689 24523
L61670 24541
L61651 24579
L61633 24654
L61633 24748
L61651 24823
L61670 24860
L61689 24879
L61726 24898
L61764 24898
L61801 24879
L61820 24860
L61839 24823
L61858 24748
L61858 24654
L61839 24579
L61820 24541
L61801 24523
L61764 24504
" />
<path d="M53246 24195
L53265 24214
L53321 24232
L53359 24232
L53415 24214
L53453 24176
L53471 24139
L53490 24064
L53490 24007
L53471 23932
L53453 23895
L53415 23857
L53359 23839
L53321 23839
L53265 23857
L53246 23876
" />
<path d="M52909 23839
L52984 23839
L53021 23857
L53040 23876
L53078 23932
L53096 24007
L53096 24157
L53078 24195
L53059 24214
L53021 24232
L52946 24232
L52909 24214
L52890 24195
L52871 24157
L52871 24064
L52890 24026
L52909 24007
L52946 23989
L53021 23989
L53059 24007
L53078 24026
L53096 24064
" />
<path d="M58510 26854
L58529 26835
L58548 26779
L58548 26741
L58529 26685
L58491 26648
L58454 26629
L58379 26610
L58323 26610
L58248 26629
L58210 26648
L58173 26685
L58154 26741
L58154 26779
L58173 26835
L58191 26854
" />
<path d="M58548 27041
L58548 27116
L58529 27154
L58510 27173
L58454 27210
L58379 27229
L58229 27229
L58191 27210
L58173 27191
L58154 27154
L58154 27079
L58173 27041
L58191 27023
L58229 27004
L58323 27004
L58360 27023
L58379 27041
L58398 27079
L58398 27154
L58379 27191
L58360 27210
L58323 27229
" />
<path d="M59833 24290
L59851 24309
L59908 24328
L59945 24328
L60001 24309
L60039 24271
L60058 24234
L60076 24159
L60076 24103
L60058 24028
L60039 23990
L60001 23953
L59945 23934
L59908 23934
L59851 23953
L59833 23971
" />
<path d="M59458 24328
L59683 24328
" />
<path d="M59570 24328
L59570 23934
L59608 23990
L59645 24028
L59683 24046
" />
<path d="M59120 24065
L59120 24328
" />
<path d="M59214 23915
L59308 24196
L59064 24196
" />
<path d="M61383 28380
L61401 28399
L61458 28418
L61495 28418
L61551 28399
L61589 28361
L61608 28324
L61626 28249
L61626 28193
L61608 28118
L61589 28080
L61551 28043
L61495 28024
L61458 28024
L61401 28043
L61383 28061
" />
<path d="M61008 28418
L61233 28418
" />
<path d="M61120 28418
L61120 28024
L61158 28080
L61195 28118
L61233 28136
" />
<path d="M60651 28024
L60839 28024
L60858 28211
L60839 28193
L60801 28174
L60708 28174
L60670 28193
L60651 28211
L60633 28249
L60633 28343
L60651 28380
L60670 28399
L60708 28418
L60801 28418
L60839 28399
L60858 28380
" />
<path d="M62623 27270
L62641 27289
L62698 27308
L62735 27308
L62791 27289
L62829 27251
L62848 27214
L62866 27139
L62866 27083
L62848 27008
L62829 26970
L62791 26933
L62735 26914
L62698 26914
L62641 26933
L62623 26951
" />
<path d="M62473 26951
L62454 26933
L62416 26914
L62323 26914
L62285 26933
L62266 26951
L62248 26989
L62248 27026
L62266 27083
L62491 27308
L62248 27308
" />
<path d="M62004 26914
L61966 26914
L61929 26933
L61910 26951
L61891 26989
L61873 27064
L61873 27158
L61891 27233
L61910 27270
L61929 27289
L61966 27308
L62004 27308
L62041 27289
L62060 27270
L62079 27233
L62098 27158
L62098 27064
L62079 26989
L62060 26951
L62041 26933
L62004 26914
" />
<path d="M60870 26566
L60889 26548
L60908 26491
L60908 26454
L60889 26398
L60851 26360
L60814 26341
L60739 26323
L60683 26323
L60608 26341
L60570 26360
L60533 26398
L60514 26454
L60514 26491
L60533 26548
L60551 26566
" />
<path d="M60514 26698
L60514 26941
L60664 26810
L60664 26866
L60683 26904
L60701 26923
L60739 26941
L60833 26941
L60870 26923
L60889 26904
L60908 26866
L60908 26754
L60889 26716
L60870 26698
" />
<path d="M60908 27316
L60908 27091
" />
<path d="M60908 27204
L60514 27204
L60570 27166
L60608 27129
L60626 27091
" />
<path d="M68138 22749
L67744 22749
L67744 22843
L67763 22899
L67800 22936
L67838 22955
L67913 22974
L67969 22974
L68044 22955
L68081 22936
L68119 22899
L68138 22843
L68138 22749
" />
<path d="M67744 23311
L67744 23236
L67763 23199
L67781 23180
L67838 23143
L67913 23124
L68063 23124
L68100 23143
L68119 23161
L68138 23199
L68138 23274
L68119 23311
L68100 23330
L68063 23349
L67969 23349
L67931 23330
L67913 23311
L67894 23274
L67894 23199
L67913 23161
L67931 23143
L67969 23124
" />
<path d="M52447 25425
L52447 25032
L52353 25032
L52297 25050
L52259 25088
L52240 25125
L52222 25200
L52222 25256
L52240 25331
L52259 25369
L52297 25406
L52353 25425
L52447 25425
" />
<path d="M52090 25032
L51828 25032
L51997 25425
" />
<path d="M71234 23681
L71515 23681
L71571 23662
L71609 23625
L71628 23568
L71628 23531
" />
<path d="M71628 24074
L71628 23850
" />
<path d="M71628 23962
L71234 23962
L71290 23925
L71328 23887
L71346 23850
" />
<path d="M71628 24449
L71628 24224
" />
<path d="M71628 24337
L71234 24337
L71290 24299
L71328 24262
L71346 24224
" />
<path d="M68039 39826
L68039 40107
L68058 40163
L68096 40201
L68152 40219
L68189 40219
" />
<path d="M67646 40219
L67871 40219
" />
<path d="M67758 40219
L67758 39826
L67796 39882
L67833 39919
L67871 39938
" />
<path d="M67421 39994
L67458 39976
L67477 39957
L67496 39919
L67496 39901
L67477 39863
L67458 39844
L67421 39826
L67346 39826
L67308 39844
L67290 39863
L67271 39901
L67271 39919
L67290 39957
L67308 39976
L67346 39994
L67421 39994
L67458 40013
L67477 40032
L67496 40069
L67496 40144
L67477 40182
L67458 40201
L67421 40219
L67346 40219
L67308 40201
L67290 40182
L67271 40144
L67271 40069
L67290 40032
L67308 40013
L67346 39994
" />
<path d="M60145 25988
L60333 25988
L60333 25594
" />
<path d="M59808 25988
L60033 25988
" />
<path d="M59920 25988
L59920 25594
L59958 25650
L59995 25688
L60033 25706
" />
<path d="M40924 20969
L40924 20576
L40699 20969
L40699 20576
" />
<path d="M40511 20969
L40511 20576
L40361 20576
L40324 20594
L40305 20613
L40286 20651
L40286 20707
L40305 20744
L40324 20763
L40361 20782
L40511 20782
" />
<path d="M40174 20576
L39949 20576
" />
<path d="M40061 20969
L40061 20576
" />
<path d="M39818 20969
L39818 20576
" />
<path d="M39818 20763
L39593 20763
" />
<path d="M39593 20969
L39593 20576
" />
<path d="M39199 20969
L39424 20969
" />
<path d="M39311 20969
L39311 20576
L39349 20632
L39386 20669
L39424 20688
" />
<path d="M43024 20469
L43024 20076
L42799 20469
L42799 20076
" />
<path d="M42611 20469
L42611 20076
L42461 20076
L42424 20094
L42405 20113
L42386 20151
L42386 20207
L42405 20244
L42424 20263
L42461 20282
L42611 20282
" />
<path d="M42274 20076
L42049 20076
" />
<path d="M42161 20469
L42161 20076
" />
<path d="M41918 20469
L41918 20076
" />
<path d="M41918 20263
L41693 20263
" />
<path d="M41693 20469
L41693 20076
" />
<path d="M41524 20113
L41505 20094
L41468 20076
L41374 20076
L41336 20094
L41318 20113
L41299 20151
L41299 20188
L41318 20244
L41543 20469
L41299 20469
" />
<path d="M70874 18619
L70874 18226
L70649 18619
L70649 18226
" />
<path d="M70461 18619
L70461 18226
L70311 18226
L70274 18244
L70255 18263
L70236 18301
L70236 18357
L70255 18394
L70274 18413
L70311 18432
L70461 18432
" />
<path d="M70124 18226
L69899 18226
" />
<path d="M70011 18619
L70011 18226
" />
<path d="M69768 18619
L69768 18226
" />
<path d="M69768 18413
L69543 18413
" />
<path d="M69543 18619
L69543 18226
" />
<path d="M69393 18226
L69149 18226
L69280 18376
L69224 18376
L69186 18394
L69168 18413
L69149 18451
L69149 18544
L69168 18582
L69186 18601
L69224 18619
L69336 18619
L69374 18601
L69393 18582
" />
<path d="M70874 20469
L70874 20076
L70649 20469
L70649 20076
" />
<path d="M70461 20469
L70461 20076
L70311 20076
L70274 20094
L70255 20113
L70236 20151
L70236 20207
L70255 20244
L70274 20263
L70311 20282
L70461 20282
" />
<path d="M70124 20076
L69899 20076
" />
<path d="M70011 20469
L70011 20076
" />
<path d="M69768 20469
L69768 20076
" />
<path d="M69768 20263
L69543 20263
" />
<path d="M69543 20469
L69543 20076
" />
<path d="M69186 20207
L69186 20469
" />
<path d="M69280 20057
L69374 20338
L69130 20338
" />
<path d="M40553 48178
L40553 47784
L40328 48178
L40328 47784
" />
<path d="M40140 48178
L40140 47784
L39990 47784
L39953 47803
L39934 47821
L39915 47859
L39915 47915
L39934 47953
L39953 47971
L39990 47990
L40140 47990
" />
<path d="M39803 47784
L39578 47784
" />
<path d="M39690 48178
L39690 47784
" />
<path d="M39446 48178
L39446 47784
" />
<path d="M39446 47971
L39221 47971
" />
<path d="M39221 48178
L39221 47784
" />
<path d="M38846 47784
L39034 47784
L39053 47971
L39034 47953
L38996 47934
L38903 47934
L38865 47953
L38846 47971
L38828 48009
L38828 48103
L38846 48140
L38865 48159
L38903 48178
L38996 48178
L39034 48159
L39053 48140
" />
<path d="M41653 50078
L41653 49684
L41428 50078
L41428 49684
" />
<path d="M41240 50078
L41240 49684
L41090 49684
L41053 49703
L41034 49721
L41015 49759
L41015 49815
L41034 49853
L41053 49871
L41090 49890
L41240 49890
" />
<path d="M40903 49684
L40678 49684
" />
<path d="M40790 50078
L40790 49684
" />
<path d="M40546 50078
L40546 49684
" />
<path d="M40546 49871
L40321 49871
" />
<path d="M40321 50078
L40321 49684
" />
<path d="M39965 49684
L40040 49684
L40078 49703
L40096 49721
L40134 49778
L40153 49853
L40153 50003
L40134 50040
L40115 50059
L40078 50078
L40003 50078
L39965 50059
L39946 50040
L39928 50003
L39928 49909
L39946 49871
L39965 49853
L40003 49834
L40078 49834
L40115 49853
L40134 49871
L40153 49909
" />
<path d="M65274 51119
L65274 50726
L65049 51119
L65049 50726
" />
<path d="M64861 51119
L64861 50726
L64711 50726
L64674 50744
L64655 50763
L64636 50801
L64636 50857
L64655 50894
L64674 50913
L64711 50932
L64861 50932
" />
<path d="M64524 50726
L64299 50726
" />
<path d="M64411 51119
L64411 50726
" />
<path d="M64168 51119
L64168 50726
" />
<path d="M64168 50913
L63943 50913
" />
<path d="M63943 51119
L63943 50726
" />
<path d="M63793 50726
L63530 50726
L63699 51119
" />
<path d="M67224 48919
L67224 48526
L66999 48919
L66999 48526
" />
<path d="M66811 48919
L66811 48526
L66661 48526
L66624 48544
L66605 48563
L66586 48601
L66586 48657
L66605 48694
L66624 48713
L66661 48732
L66811 48732
" />
<path d="M66474 48526
L66249 48526
" />
<path d="M66361 48919
L66361 48526
" />
<path d="M66118 48919
L66118 48526
" />
<path d="M66118 48713
L65893 48713
" />
<path d="M65893 48919
L65893 48526
" />
<path d="M65649 48694
L65686 48676
L65705 48657
L65724 48619
L65724 48601
L65705 48563
L65686 48544
L65649 48526
L65574 48526
L65536 48544
L65518 48563
L65499 48601
L65499 48619
L65518 48657
L65536 48676
L65574 48694
L65649 48694
L65686 48713
L65705 48732
L65724 48769
L65724 48844
L65705 48882
L65686 48901
L65649 48919
L65574 48919
L65536 48901
L65518 48882
L65499 48844
L65499 48769
L65518 48732
L65536 48713
L65574 48694
" />
<path d="M66068 24006
L65880 23875
" />
<path d="M66068 23781
L65674 23781
L65674 23931
L65693 23969
L65711 23988
L65749 24006
L65805 24006
L65843 23988
L65861 23969
L65880 23931
L65880 23781
" />
<path d="M66068 24381
L66068 24156
" />
<path d="M66068 24269
L65674 24269
L65730 24231
L65768 24194
L65786 24156
" />
<path d="M65843 24606
L65824 24569
L65805 24550
L65768 24531
L65749 24531
L65711 24550
L65693 24569
L65674 24606
L65674 24681
L65693 24719
L65711 24738
L65749 24756
L65768 24756
L65805 24738
L65824 24719
L65843 24681
L65843 24606
L65861 24569
L65880 24550
L65918 24531
L65993 24531
L66030 24550
L66049 24569
L66068 24606
L66068 24681
L66049 24719
L66030 24738
L65993 24756
L65918 24756
L65880 24738
L65861 24719
L65843 24681
" />
<path d="M68268 23986
L68080 23855
" />
<path d="M68268 23761
L67874 23761
L67874 23911
L67893 23949
L67911 23968
L67949 23986
L68005 23986
L68043 23968
L68061 23949
L68080 23911
L68080 23761
" />
<path d="M68268 24361
L68268 24136
" />
<path d="M68268 24249
L67874 24249
L67930 24211
L67968 24174
L67986 24136
" />
<path d="M68268 24549
L68268 24624
L68249 24661
L68230 24680
L68174 24718
L68099 24736
L67949 24736
L67911 24718
L67893 24699
L67874 24661
L67874 24586
L67893 24549
L67911 24530
L67949 24511
L68043 24511
L68080 24530
L68099 24549
L68118 24586
L68118 24661
L68099 24699
L68080 24718
L68043 24736
" />
<path d="M62838 21446
L62650 21315
" />
<path d="M62838 21221
L62444 21221
L62444 21371
L62463 21409
L62481 21428
L62519 21446
L62575 21446
L62613 21428
L62631 21409
L62650 21371
L62650 21221
" />
<path d="M62481 21596
L62463 21615
L62444 21653
L62444 21746
L62463 21784
L62481 21803
L62519 21821
L62556 21821
L62613 21803
L62838 21578
L62838 21821
" />
<path d="M62444 21953
L62444 22215
L62838 22046
" />
<path d="M67278 26716
L67090 26585
" />
<path d="M67278 26491
L66884 26491
L66884 26641
L66903 26679
L66921 26698
L66959 26716
L67015 26716
L67053 26698
L67071 26679
L67090 26641
L67090 26491
" />
<path d="M66884 26848
L66884 27091
L67034 26960
L67034 27016
L67053 27054
L67071 27073
L67109 27091
L67203 27091
L67240 27073
L67259 27054
L67278 27016
L67278 26904
L67259 26866
L67240 26848
" />
<path d="M66884 27429
L66884 27354
L66903 27316
L66921 27298
L66978 27260
L67053 27241
L67203 27241
L67240 27260
L67259 27279
L67278 27316
L67278 27391
L67259 27429
L67240 27448
L67203 27466
L67109 27466
L67071 27448
L67053 27429
L67034 27391
L67034 27316
L67053 27279
L67071 27260
L67109 27241
" />
<path d="M67646 20751
L67589 20769
L67496 20769
L67458 20751
L67439 20732
L67421 20694
L67421 20657
L67439 20619
L67458 20601
L67496 20582
L67571 20563
L67608 20544
L67627 20526
L67646 20488
L67646 20451
L67627 20413
L67608 20394
L67571 20376
L67477 20376
L67421 20394
" />
<path d="M67289 20376
L67196 20769
L67121 20488
L67046 20769
L66952 20376
" />
<path d="M66596 20769
L66821 20769
" />
<path d="M66708 20769
L66708 20376
L66746 20432
L66783 20469
L66821 20488
" />
<path d="M52346 20701
L52289 20719
L52196 20719
L52158 20701
L52139 20682
L52121 20644
L52121 20607
L52139 20569
L52158 20551
L52196 20532
L52271 20513
L52308 20494
L52327 20476
L52346 20438
L52346 20401
L52327 20363
L52308 20344
L52271 20326
L52177 20326
L52121 20344
" />
<path d="M51989 20326
L51896 20719
L51821 20438
L51746 20719
L51652 20326
" />
<path d="M51521 20363
L51502 20344
L51465 20326
L51371 20326
L51333 20344
L51315 20363
L51296 20401
L51296 20438
L51315 20494
L51540 20719
L51296 20719
" />
<path d="M59346 20701
L59289 20719
L59196 20719
L59158 20701
L59139 20682
L59121 20644
L59121 20607
L59139 20569
L59158 20551
L59196 20532
L59271 20513
L59308 20494
L59327 20476
L59346 20438
L59346 20401
L59327 20363
L59308 20344
L59271 20326
L59177 20326
L59121 20344
" />
<path d="M58989 20326
L58896 20719
L58821 20438
L58746 20719
L58652 20326
" />
<path d="M58540 20326
L58296 20326
L58427 20476
L58371 20476
L58333 20494
L58315 20513
L58296 20551
L58296 20644
L58315 20682
L58333 20701
L58371 20719
L58483 20719
L58521 20701
L58540 20682
" />
<path d="M51971 24417
L51971 24736
L51952 24774
L51933 24792
L51896 24811
L51821 24811
L51783 24792
L51764 24774
L51746 24736
L51746 24417
" />
<path d="M51596 24417
L51333 24417
L51502 24811
" />
<path d="M71639 40776
L71639 41057
L71658 41113
L71696 41151
L71752 41169
L71789 41169
" />
<path d="M71246 41169
L71471 41169
" />
<path d="M71358 41169
L71358 40776
L71396 40832
L71433 40869
L71471 40888
" />
<path d="M71115 40776
L70852 40776
L71021 41169
" />
<path d="M68930 28078
L68930 27684
L68836 27684
L68780 27703
L68743 27740
L68724 27778
L68705 27853
L68705 27909
L68724 27984
L68743 28021
L68780 28059
L68836 28078
L68930 28078
" />
<path d="M68518 28078
L68443 28078
L68405 28059
L68386 28040
L68349 27984
L68330 27909
L68330 27759
L68349 27721
L68368 27703
L68405 27684
L68480 27684
L68518 27703
L68536 27721
L68555 27759
L68555 27853
L68536 27890
L68518 27909
L68480 27928
L68405 27928
L68368 27909
L68349 27890
L68330 27853
" />
<path d="M67516 42354
L67291 42354
" />
<path d="M67404 42748
L67404 42354
" />
<path d="M67160 42748
L67160 42354
L67010 42354
L66973 42373
L66954 42391
L66935 42429
L66935 42485
L66954 42523
L66973 42541
L67010 42560
L67160 42560
" />
<path d="M66560 42748
L66785 42748
" />
<path d="M66673 42748
L66673 42354
L66710 42410
L66748 42448
L66785 42466
" />
<path d="M67516 43404
L67291 43404
" />
<path d="M67404 43798
L67404 43404
" />
<path d="M67160 43798
L67160 43404
L67010 43404
L66973 43423
L66954 43441
L66935 43479
L66935 43535
L66954 43573
L66973 43591
L67010 43610
L67160 43610
" />
<path d="M66785 43441
L66766 43423
L66729 43404
L66635 43404
L66598 43423
L66579 43441
L66560 43479
L66560 43516
L66579 43573
L66804 43798
L66560 43798
" />
<path d="M67506 44454
L67281 44454
" />
<path d="M67394 44848
L67394 44454
" />
<path d="M67150 44848
L67150 44454
L67000 44454
L66963 44473
L66944 44491
L66925 44529
L66925 44585
L66944 44623
L66963 44641
L67000 44660
L67150 44660
" />
<path d="M66794 44454
L66550 44454
L66681 44604
L66625 44604
L66588 44623
L66569 44641
L66550 44679
L66550 44773
L66569 44810
L66588 44829
L66625 44848
L66738 44848
L66775 44829
L66794 44810
" />
<path d="M67496 45474
L67271 45474
" />
<path d="M67384 45868
L67384 45474
" />
<path d="M67140 45868
L67140 45474
L66990 45474
L66953 45493
L66934 45511
L66915 45549
L66915 45605
L66934 45643
L66953 45661
L66990 45680
L67140 45680
" />
<path d="M66578 45605
L66578 45868
" />
<path d="M66671 45455
L66765 45736
L66521 45736
" />
<path d="M55224 43503
L55224 43728
" />
<path d="M55618 43615
L55224 43615
" />
<path d="M55618 43859
L55224 43859
L55224 44009
L55243 44046
L55261 44065
L55299 44084
L55355 44084
L55393 44065
L55411 44046
L55430 44009
L55430 43859
" />
<path d="M55224 44440
L55224 44253
L55411 44234
L55393 44253
L55374 44290
L55374 44384
L55393 44421
L55411 44440
L55449 44459
L55543 44459
L55580 44440
L55599 44421
L55618 44384
L55618 44290
L55599 44253
L55580 44234
" />
<path d="M57116 47014
L56891 47014
" />
<path d="M57004 47408
L57004 47014
" />
<path d="M56760 47408
L56760 47014
L56610 47014
L56573 47033
L56554 47051
L56535 47089
L56535 47145
L56554 47183
L56573 47201
L56610 47220
L56760 47220
" />
<path d="M56198 47014
L56273 47014
L56310 47033
L56329 47051
L56366 47108
L56385 47183
L56385 47333
L56366 47370
L56348 47389
L56310 47408
L56235 47408
L56198 47389
L56179 47370
L56160 47333
L56160 47239
L56179 47201
L56198 47183
L56235 47164
L56310 47164
L56348 47183
L56366 47201
L56385 47239
" />
<path d="M52646 46934
L52421 46934
" />
<path d="M52534 47328
L52534 46934
" />
<path d="M52290 47328
L52290 46934
L52140 46934
L52103 46953
L52084 46971
L52065 47009
L52065 47065
L52084 47103
L52103 47121
L52140 47140
L52290 47140
" />
<path d="M51934 46934
L51671 46934
L51840 47328
" />
<path d="M41755 43194
L41755 43419
" />
<path d="M42149 43307
L41755 43307
" />
<path d="M42149 43551
L41755 43551
L41755 43701
L41774 43738
L41793 43757
L41830 43776
L41886 43776
L41924 43757
L41943 43738
L41961 43701
L41961 43551
" />
<path d="M41924 44001
L41905 43963
L41886 43944
L41849 43926
L41830 43926
L41793 43944
L41774 43963
L41755 44001
L41755 44076
L41774 44113
L41793 44132
L41830 44151
L41849 44151
L41886 44132
L41905 44113
L41924 44076
L41924 44001
L41943 43963
L41961 43944
L41999 43926
L42074 43926
L42111 43944
L42130 43963
L42149 44001
L42149 44076
L42130 44113
L42111 44132
L42074 44151
L41999 44151
L41961 44132
L41943 44113
L41924 44076
" />
<path d="M48706 36444
L48481 36444
" />
<path d="M48594 36838
L48594 36444
" />
<path d="M48350 36838
L48350 36444
L48200 36444
L48163 36463
L48144 36481
L48125 36519
L48125 36575
L48144 36613
L48163 36631
L48200 36650
L48350 36650
" />
<path d="M47938 36838
L47863 36838
L47825 36819
L47806 36800
L47769 36744
L47750 36669
L47750 36519
L47769 36481
L47788 36463
L47825 36444
L47900 36444
L47938 36463
L47956 36481
L47975 36519
L47975 36613
L47956 36650
L47938 36669
L47900 36688
L47825 36688
L47788 36669
L47769 36650
L47750 36613
" />
<path d="M48594 39304
L48369 39304
" />
<path d="M48481 39698
L48481 39304
" />
<path d="M48238 39698
L48238 39304
L48088 39304
L48050 39323
L48031 39341
L48013 39379
L48013 39435
L48031 39473
L48050 39491
L48088 39510
L48238 39510
" />
<path d="M47638 39698
L47863 39698
" />
<path d="M47750 39698
L47750 39304
L47788 39360
L47825 39398
L47863 39416
" />
<path d="M47394 39304
L47356 39304
L47319 39323
L47300 39341
L47281 39379
L47263 39454
L47263 39548
L47281 39623
L47300 39660
L47319 39679
L47356 39698
L47394 39698
L47431 39679
L47450 39660
L47469 39623
L47488 39548
L47488 39454
L47469 39379
L47450 39341
L47431 39323
L47394 39304
" />
<path d="M42004 38614
L41779 38614
" />
<path d="M41891 39008
L41891 38614
" />
<path d="M41648 39008
L41648 38614
L41498 38614
L41460 38633
L41441 38651
L41423 38689
L41423 38745
L41441 38783
L41460 38801
L41498 38820
L41648 38820
" />
<path d="M41048 39008
L41273 39008
" />
<path d="M41160 39008
L41160 38614
L41198 38670
L41235 38708
L41273 38726
" />
<path d="M40673 39008
L40898 39008
" />
<path d="M40785 39008
L40785 38614
L40823 38670
L40860 38708
L40898 38726
" />
<path d="M55444 37074
L55219 37074
" />
<path d="M55331 37468
L55331 37074
" />
<path d="M55088 37468
L55088 37074
L54938 37074
L54900 37093
L54881 37111
L54863 37149
L54863 37205
L54881 37243
L54900 37261
L54938 37280
L55088 37280
" />
<path d="M54488 37468
L54713 37468
" />
<path d="M54600 37468
L54600 37074
L54638 37130
L54675 37168
L54713 37186
" />
<path d="M54338 37111
L54319 37093
L54281 37074
L54188 37074
L54150 37093
L54131 37111
L54113 37149
L54113 37186
L54131 37243
L54356 37468
L54113 37468
" />
<path d="M66055 40076
L65830 40076
" />
<path d="M65943 40469
L65943 40076
" />
<path d="M65699 40469
L65699 40076
L65549 40076
L65511 40094
L65493 40113
L65474 40151
L65474 40207
L65493 40244
L65511 40263
L65549 40282
L65699 40282
" />
<path d="M65099 40469
L65324 40469
" />
<path d="M65211 40469
L65211 40076
L65249 40132
L65286 40169
L65324 40188
" />
<path d="M64968 40076
L64724 40076
L64855 40226
L64799 40226
L64761 40244
L64743 40263
L64724 40301
L64724 40394
L64743 40432
L64761 40451
L64799 40469
L64911 40469
L64949 40451
L64968 40432
" />
<path d="M41164 40194
L40939 40194
" />
<path d="M41051 40588
L41051 40194
" />
<path d="M40808 40588
L40808 40194
L40658 40194
L40620 40213
L40601 40231
L40583 40269
L40583 40325
L40601 40363
L40620 40381
L40658 40400
L40808 40400
" />
<path d="M40208 40588
L40433 40588
" />
<path d="M40320 40588
L40320 40194
L40358 40250
L40395 40288
L40433 40306
" />
<path d="M39870 40325
L39870 40588
" />
<path d="M39964 40175
L40058 40456
L39814 40456
" />
<path d="M49114 37954
L48889 37954
" />
<path d="M49001 38348
L49001 37954
" />
<path d="M48758 38348
L48758 37954
L48608 37954
L48570 37973
L48551 37991
L48533 38029
L48533 38085
L48551 38123
L48570 38141
L48608 38160
L48758 38160
" />
<path d="M48158 38348
L48383 38348
" />
<path d="M48270 38348
L48270 37954
L48308 38010
L48345 38048
L48383 38066
" />
<path d="M47820 37954
L47895 37954
L47933 37973
L47951 37991
L47989 38048
L48008 38123
L48008 38273
L47989 38310
L47970 38329
L47933 38348
L47858 38348
L47820 38329
L47801 38310
L47783 38273
L47783 38179
L47801 38141
L47820 38123
L47858 38104
L47933 38104
L47970 38123
L47989 38141
L48008 38179
" />
<path d="M66084 37835
L66084 38060
" />
<path d="M66478 37948
L66084 37948
" />
<path d="M66478 38191
L66084 38191
L66084 38341
L66103 38379
L66121 38398
L66159 38416
L66215 38416
L66253 38398
L66271 38379
L66290 38341
L66290 38191
" />
<path d="M66478 38791
L66478 38566
" />
<path d="M66478 38679
L66084 38679
L66140 38641
L66178 38604
L66196 38566
" />
<path d="M66084 38923
L66084 39185
L66478 39016
" />
<path d="M51855 30476
L51630 30476
" />
<path d="M51743 30869
L51743 30476
" />
<path d="M51499 30869
L51499 30476
L51349 30476
L51311 30494
L51293 30513
L51274 30551
L51274 30607
L51293 30644
L51311 30663
L51349 30682
L51499 30682
" />
<path d="M51143 30476
L50899 30476
L51030 30626
L50974 30626
L50936 30644
L50918 30663
L50899 30701
L50899 30794
L50918 30832
L50936 30851
L50974 30869
L51086 30869
L51124 30851
L51143 30832
" />
<path d="M50561 30607
L50561 30869
" />
<path d="M50655 30457
L50749 30738
L50505 30738
" />
<path d="M66874 28524
L66649 28524
" />
<path d="M66761 28918
L66761 28524
" />
<path d="M66518 28918
L66518 28524
L66368 28524
L66330 28543
L66311 28561
L66293 28599
L66293 28655
L66311 28693
L66330 28711
L66368 28730
L66518 28730
" />
<path d="M66161 28524
L65918 28524
L66049 28674
L65993 28674
L65955 28693
L65936 28711
L65918 28749
L65918 28843
L65936 28880
L65955 28899
L65993 28918
L66105 28918
L66143 28899
L66161 28880
" />
<path d="M65561 28524
L65749 28524
L65768 28711
L65749 28693
L65711 28674
L65618 28674
L65580 28693
L65561 28711
L65543 28749
L65543 28843
L65561 28880
L65580 28899
L65618 28918
L65711 28918
L65749 28899
L65768 28880
" />
<path d="M68605 46426
L68380 46426
" />
<path d="M68493 46819
L68493 46426
" />
<path d="M68249 46819
L68249 46426
L68099 46426
L68061 46444
L68043 46463
L68024 46501
L68024 46557
L68043 46594
L68061 46613
L68099 46632
L68249 46632
" />
<path d="M67668 46426
L67855 46426
L67874 46613
L67855 46594
L67818 46576
L67724 46576
L67686 46594
L67668 46613
L67649 46651
L67649 46744
L67668 46782
L67686 46801
L67724 46819
L67818 46819
L67855 46801
L67874 46782
" />
<path d="M67499 46463
L67480 46444
L67443 46426
L67349 46426
L67311 46444
L67293 46463
L67274 46501
L67274 46538
L67293 46594
L67518 46819
L67274 46819
" />
<path d="M35930 35026
L35705 35026
" />
<path d="M35818 35419
L35818 35026
" />
<path d="M35574 35419
L35574 35026
L35424 35026
L35386 35044
L35368 35063
L35349 35101
L35349 35157
L35368 35194
L35386 35213
L35424 35232
L35574 35232
" />
<path d="M34993 35026
L35180 35026
L35199 35213
L35180 35194
L35143 35176
L35049 35176
L35011 35194
L34993 35213
L34974 35251
L34974 35344
L34993 35382
L35011 35401
L35049 35419
L35143 35419
L35180 35401
L35199 35382
" />
<path d="M34843 35026
L34599 35026
L34730 35176
L34674 35176
L34636 35194
L34618 35213
L34599 35251
L34599 35344
L34618 35382
L34636 35401
L34674 35419
L34786 35419
L34824 35401
L34843 35382
" />
<path d="M40184 28484
L39959 28484
" />
<path d="M40071 28878
L40071 28484
" />
<path d="M39828 28878
L39828 28484
L39678 28484
L39640 28503
L39621 28521
L39603 28559
L39603 28615
L39621 28653
L39640 28671
L39678 28690
L39828 28690
" />
<path d="M39246 28484
L39434 28484
L39453 28671
L39434 28653
L39396 28634
L39303 28634
L39265 28653
L39246 28671
L39228 28709
L39228 28803
L39246 28840
L39265 28859
L39303 28878
L39396 28878
L39434 28859
L39453 28840
" />
<path d="M38890 28615
L38890 28878
" />
<path d="M38984 28465
L39078 28746
L38834 28746
" />
<path d="M42584 28384
L42359 28384
" />
<path d="M42471 28778
L42471 28384
" />
<path d="M42228 28778
L42228 28384
L42078 28384
L42040 28403
L42021 28421
L42003 28459
L42003 28515
L42021 28553
L42040 28571
L42078 28590
L42228 28590
" />
<path d="M41646 28384
L41834 28384
L41853 28571
L41834 28553
L41796 28534
L41703 28534
L41665 28553
L41646 28571
L41628 28609
L41628 28703
L41646 28740
L41665 28759
L41703 28778
L41796 28778
L41834 28759
L41853 28740
" />
<path d="M41271 28384
L41459 28384
L41478 28571
L41459 28553
L41421 28534
L41328 28534
L41290 28553
L41271 28571
L41253 28609
L41253 28703
L41271 28740
L41290 28759
L41328 28778
L41421 28778
L41459 28759
L41478 28740
" />
<path d="M42584 31984
L42359 31984
" />
<path d="M42471 32378
L42471 31984
" />
<path d="M42228 32378
L42228 31984
L42078 31984
L42040 32003
L42021 32021
L42003 32059
L42003 32115
L42021 32153
L42040 32171
L42078 32190
L42228 32190
" />
<path d="M41646 31984
L41834 31984
L41853 32171
L41834 32153
L41796 32134
L41703 32134
L41665 32153
L41646 32171
L41628 32209
L41628 32303
L41646 32340
L41665 32359
L41703 32378
L41796 32378
L41834 32359
L41853 32340
" />
<path d="M41290 31984
L41365 31984
L41403 32003
L41421 32021
L41459 32078
L41478 32153
L41478 32303
L41459 32340
L41440 32359
L41403 32378
L41328 32378
L41290 32359
L41271 32340
L41253 32303
L41253 32209
L41271 32171
L41290 32153
L41328 32134
L41403 32134
L41440 32153
L41459 32171
L41478 32209
" />
<path d="M43202 23676
L43202 23957
L43221 24013
L43258 24051
L43314 24069
L43352 24069
" />
<path d="M42808 24069
L43033 24069
" />
<path d="M42921 24069
L42921 23676
L42958 23732
L42996 23769
L43033 23788
" />
<path d="M44252 21926
L44252 22207
L44271 22263
L44308 22301
L44364 22319
L44402 22319
" />
<path d="M44083 21963
L44065 21944
L44027 21926
L43933 21926
L43896 21944
L43877 21963
L43858 22001
L43858 22038
L43877 22094
L44102 22319
L43858 22319
" />
<path d="M54602 25062
L54602 25343
L54621 25400
L54658 25437
L54714 25456
L54752 25456
" />
<path d="M54452 25062
L54208 25062
L54340 25212
L54283 25212
L54246 25231
L54227 25250
L54208 25287
L54208 25381
L54227 25418
L54246 25437
L54283 25456
L54396 25456
L54433 25437
L54452 25418
" />
<path d="M54602 23062
L54602 23343
L54621 23400
L54658 23437
L54714 23456
L54752 23456
" />
<path d="M54246 23193
L54246 23456
" />
<path d="M54340 23044
L54433 23325
L54190 23325
" />
<path d="M41031 45804
L41031 46085
L41049 46141
L41087 46179
L41143 46198
L41181 46198
" />
<path d="M40656 45804
L40843 45804
L40862 45991
L40843 45973
L40806 45954
L40712 45954
L40675 45973
L40656 45991
L40637 46029
L40637 46123
L40656 46160
L40675 46179
L40712 46198
L40806 46198
L40843 46179
L40862 46160
" />
<path d="M38581 45874
L38581 46155
L38599 46211
L38637 46249
L38693 46268
L38731 46268
" />
<path d="M38225 45874
L38300 45874
L38337 45893
L38356 45911
L38393 45968
L38412 46043
L38412 46193
L38393 46230
L38375 46249
L38337 46268
L38262 46268
L38225 46249
L38206 46230
L38187 46193
L38187 46099
L38206 46061
L38225 46043
L38262 46024
L38337 46024
L38375 46043
L38393 46061
L38412 46099
" />
<path d="M63802 47626
L63802 47907
L63821 47963
L63858 48001
L63914 48019
L63952 48019
" />
<path d="M63652 47626
L63390 47626
L63558 48019
" />
<path d="M61502 49926
L61502 50207
L61521 50263
L61558 50301
L61614 50319
L61652 50319
" />
<path d="M61258 50094
L61296 50076
L61315 50057
L61333 50019
L61333 50001
L61315 49963
L61296 49944
L61258 49926
L61183 49926
L61146 49944
L61127 49963
L61108 50001
L61108 50019
L61127 50057
L61146 50076
L61183 50094
L61258 50094
L61296 50113
L61315 50132
L61333 50169
L61333 50244
L61315 50282
L61296 50301
L61258 50319
L61183 50319
L61146 50301
L61127 50282
L61108 50244
L61108 50169
L61127 50132
L61146 50113
L61183 50094
" />
<path d="M33324 18878
L33324 18484
L33193 18765
L33062 18484
L33062 18878
" />
<path d="M32874 18878
L32874 18484
" />
<path d="M32874 18671
L32650 18671
" />
<path d="M32650 18878
L32650 18484
" />
<path d="M32256 18878
L32481 18878
" />
<path d="M32368 18878
L32368 18484
L32406 18540
L32443 18578
L32481 18596
" />
<path d="M33324 51178
L33324 50784
L33193 51065
L33062 50784
L33062 51178
" />
<path d="M32874 51178
L32874 50784
" />
<path d="M32874 50971
L32650 50971
" />
<path d="M32650 51178
L32650 50784
" />
<path d="M32481 50821
L32462 50803
L32425 50784
L32331 50784
L32293 50803
L32275 50821
L32256 50859
L32256 50896
L32275 50953
L32500 51178
L32256 51178
" />
<path d="M45728 49219
L45728 48826
L45597 49107
L45466 48826
L45466 49219
" />
<path d="M45278 49219
L45278 48826
" />
<path d="M45278 49013
L45053 49013
" />
<path d="M45053 49219
L45053 48826
" />
<path d="M44903 48826
L44660 48826
L44791 48976
L44735 48976
L44697 48994
L44678 49013
L44660 49051
L44660 49144
L44678 49182
L44697 49201
L44735 49219
L44847 49219
L44885 49201
L44903 49182
" />
<path d="M48324 19078
L48324 18684
L48193 18965
L48062 18684
L48062 19078
" />
<path d="M47874 19078
L47874 18684
" />
<path d="M47874 18871
L47650 18871
" />
<path d="M47650 19078
L47650 18684
" />
<path d="M47293 18815
L47293 19078
" />
<path d="M47387 18665
L47481 18946
L47237 18946
" />
<path d="M70586 28919
L70586 28526
L70454 28807
L70323 28526
L70323 28919
" />
<path d="M70136 28919
L70136 28526
" />
<path d="M70136 28713
L69911 28713
" />
<path d="M69911 28919
L69911 28526
" />
<path d="M69536 28526
L69723 28526
L69742 28713
L69723 28694
L69686 28676
L69592 28676
L69555 28694
L69536 28713
L69517 28751
L69517 28844
L69536 28882
L69555 28901
L69592 28919
L69686 28919
L69723 28901
L69742 28882
" />
</g>
<g style="fill:#000000; fill-opacity:0.0; 
stroke:#000000; stroke-width:59.0551; stroke-opacity:1; 
stroke-linecap:round; stroke-linejoin:round;">
</g>
<g style="fill:#C2C200; fill-opacity:0.0; 
stroke:#C2C200; stroke-width:59.0551; stroke-opacity:1; 
stroke-linecap:round; stroke-linejoin:round;">
<path d="M72035 53110
L29515 53110
" />
<path d="M72035 16889
L72035 53110
" />
<path d="M29515 16889
L72035 16889
" />
<path d="M29515 53110
L29515 16889
" />
</g> 
</svg>
