G04 #@! TF.GenerationSoftware,KiCad,Pcbnew,5.0.1*
G04 #@! TF.CreationDate,2019-03-15T16:12:09-04:00*
G04 #@! TF.ProjectId,nu.ai_motor_controller,6E752E61695F6D6F746F725F636F6E74,rev?*
G04 #@! TF.SameCoordinates,Original*
G04 #@! TF.FileFunction,Legend,Top*
G04 #@! TF.FilePolarity,Positive*
%FSLAX46Y46*%
G04 Gerber Fmt 4.6, Leading zero omitted, Abs format (unit mm)*
G04 Created by KiCad (PCBNEW 5.0.1) date Fri Mar 15 16:12:09 2019*
%MOMM*%
%LPD*%
G01*
G04 APERTURE LIST*
%ADD10C,0.300000*%
%ADD11C,0.200000*%
%ADD12C,0.150000*%
%ADD13C,0.381000*%
%ADD14C,0.400000*%
%ADD15C,0.120000*%
%ADD16C,0.500000*%
%ADD17C,0.254000*%
G04 APERTURE END LIST*
D10*
X66941023Y-82833021D02*
X66941181Y-83118736D01*
X67012689Y-83261553D01*
X67084157Y-83332942D01*
X67298521Y-83475681D01*
X67584275Y-83546952D01*
X68155703Y-83546637D01*
X68298521Y-83475129D01*
X68369910Y-83403661D01*
X68441260Y-83260765D01*
X68441102Y-82975051D01*
X68369595Y-82832233D01*
X68298127Y-82760844D01*
X68155230Y-82689494D01*
X67798087Y-82689691D01*
X67655270Y-82761199D01*
X67583881Y-82832667D01*
X67512531Y-82975563D01*
X67512688Y-83261277D01*
X67584196Y-83404095D01*
X67655664Y-83475484D01*
X67798560Y-83546834D01*
X68298876Y-84117986D02*
X68370344Y-84189376D01*
X68441851Y-84332193D01*
X68442048Y-84689336D01*
X68370698Y-84832233D01*
X68299309Y-84903701D01*
X68156492Y-84975208D01*
X68013634Y-84975287D01*
X67799309Y-84903977D01*
X66941694Y-84047307D01*
X66942206Y-84975878D01*
X67085418Y-85618656D02*
X67014029Y-85690124D01*
X66942561Y-85618735D01*
X67013950Y-85547267D01*
X67085418Y-85618656D01*
X66942561Y-85618735D01*
X68443113Y-86617907D02*
X68443191Y-86760764D01*
X68371842Y-86903661D01*
X68300452Y-86975129D01*
X68157635Y-87046636D01*
X67871960Y-87118223D01*
X67514817Y-87118420D01*
X67229064Y-87047149D01*
X67086167Y-86975799D01*
X67014699Y-86904410D01*
X66943192Y-86761592D01*
X66943113Y-86618735D01*
X67014462Y-86475839D01*
X67085852Y-86404371D01*
X67228669Y-86332863D01*
X67514344Y-86261277D01*
X67871487Y-86261080D01*
X68157241Y-86332351D01*
X68300137Y-86403700D01*
X68371605Y-86475090D01*
X68443113Y-86617907D01*
X68444137Y-88475050D02*
X68443743Y-87760764D01*
X67729418Y-87689730D01*
X67800886Y-87761119D01*
X67872394Y-87903937D01*
X67872591Y-88261079D01*
X67801241Y-88403976D01*
X67729852Y-88475444D01*
X67587034Y-88546951D01*
X67229891Y-88547149D01*
X67086995Y-88475799D01*
X67015527Y-88404410D01*
X66944019Y-88261592D01*
X66943822Y-87904449D01*
X67015172Y-87761553D01*
X67086561Y-87690085D01*
X68444689Y-89475050D02*
X68444768Y-89617907D01*
X68373418Y-89760803D01*
X68302029Y-89832271D01*
X68159212Y-89903779D01*
X67873537Y-89975365D01*
X67516394Y-89975562D01*
X67230640Y-89904291D01*
X67087744Y-89832941D01*
X67016276Y-89761552D01*
X66944768Y-89618735D01*
X66944690Y-89475877D01*
X67016039Y-89332981D01*
X67087428Y-89261513D01*
X67230246Y-89190006D01*
X67515921Y-89118419D01*
X67873064Y-89118222D01*
X68158817Y-89189493D01*
X68301714Y-89260843D01*
X68373182Y-89332232D01*
X68444689Y-89475050D01*
X66945951Y-91761591D02*
X67945951Y-91761040D01*
X67803094Y-91761118D02*
X67874562Y-91832508D01*
X67946069Y-91975325D01*
X67946187Y-92189611D01*
X67874838Y-92332507D01*
X67732020Y-92404015D01*
X66946306Y-92404448D01*
X67732020Y-92404015D02*
X67874916Y-92475365D01*
X67946424Y-92618182D01*
X67946542Y-92832468D01*
X67875192Y-92975364D01*
X67732375Y-93046872D01*
X66946661Y-93047305D01*
X66947055Y-93761591D02*
X67947055Y-93761039D01*
X67804197Y-93761118D02*
X67875665Y-93832507D01*
X67947173Y-93975325D01*
X67947291Y-94189611D01*
X67875941Y-94332507D01*
X67733124Y-94404015D01*
X66947409Y-94404448D01*
X67733124Y-94404015D02*
X67876020Y-94475364D01*
X67947528Y-94618182D01*
X67947646Y-94832468D01*
X67876296Y-94975364D01*
X67733478Y-95046872D01*
X66947764Y-95047305D01*
X69697546Y-42878116D02*
X69748346Y-134927716D01*
X74980800Y-42875200D02*
X69111125Y-42878439D01*
X75031600Y-134924800D02*
X69161925Y-134928039D01*
X69748346Y-134927716D02*
X69161304Y-133801536D01*
X69748346Y-134927716D02*
X70334145Y-133800889D01*
X69697546Y-42878116D02*
X69111747Y-44004943D01*
X69697546Y-42878116D02*
X70284588Y-44004296D01*
X122884371Y-36780171D02*
X122027228Y-36780171D01*
X122455800Y-36780171D02*
X122455800Y-35280171D01*
X122312942Y-35494457D01*
X122170085Y-35637314D01*
X122027228Y-35708742D01*
X123812942Y-35280171D02*
X123955800Y-35280171D01*
X124098657Y-35351600D01*
X124170085Y-35423028D01*
X124241514Y-35565885D01*
X124312942Y-35851600D01*
X124312942Y-36208742D01*
X124241514Y-36494457D01*
X124170085Y-36637314D01*
X124098657Y-36708742D01*
X123955800Y-36780171D01*
X123812942Y-36780171D01*
X123670085Y-36708742D01*
X123598657Y-36637314D01*
X123527228Y-36494457D01*
X123455800Y-36208742D01*
X123455800Y-35851600D01*
X123527228Y-35565885D01*
X123598657Y-35423028D01*
X123670085Y-35351600D01*
X123812942Y-35280171D01*
X124812942Y-35280171D02*
X125812942Y-35280171D01*
X125170085Y-36780171D01*
X126384371Y-36637314D02*
X126455800Y-36708742D01*
X126384371Y-36780171D01*
X126312942Y-36708742D01*
X126384371Y-36637314D01*
X126384371Y-36780171D01*
X127170085Y-36780171D02*
X127455800Y-36780171D01*
X127598657Y-36708742D01*
X127670085Y-36637314D01*
X127812942Y-36423028D01*
X127884371Y-36137314D01*
X127884371Y-35565885D01*
X127812942Y-35423028D01*
X127741514Y-35351600D01*
X127598657Y-35280171D01*
X127312942Y-35280171D01*
X127170085Y-35351600D01*
X127098657Y-35423028D01*
X127027228Y-35565885D01*
X127027228Y-35923028D01*
X127098657Y-36065885D01*
X127170085Y-36137314D01*
X127312942Y-36208742D01*
X127598657Y-36208742D01*
X127741514Y-36137314D01*
X127812942Y-36065885D01*
X127884371Y-35923028D01*
X129241514Y-35280171D02*
X128527228Y-35280171D01*
X128455800Y-35994457D01*
X128527228Y-35923028D01*
X128670085Y-35851600D01*
X129027228Y-35851600D01*
X129170085Y-35923028D01*
X129241514Y-35994457D01*
X129312942Y-36137314D01*
X129312942Y-36494457D01*
X129241514Y-36637314D01*
X129170085Y-36708742D01*
X129027228Y-36780171D01*
X128670085Y-36780171D01*
X128527228Y-36708742D01*
X128455800Y-36637314D01*
X130241514Y-35280171D02*
X130384371Y-35280171D01*
X130527228Y-35351600D01*
X130598657Y-35423028D01*
X130670085Y-35565885D01*
X130741514Y-35851600D01*
X130741514Y-36208742D01*
X130670085Y-36494457D01*
X130598657Y-36637314D01*
X130527228Y-36708742D01*
X130384371Y-36780171D01*
X130241514Y-36780171D01*
X130098657Y-36708742D01*
X130027228Y-36637314D01*
X129955800Y-36494457D01*
X129884371Y-36208742D01*
X129884371Y-35851600D01*
X129955800Y-35565885D01*
X130027228Y-35423028D01*
X130098657Y-35351600D01*
X130241514Y-35280171D01*
X132527228Y-36780171D02*
X132527228Y-35780171D01*
X132527228Y-35923028D02*
X132598657Y-35851600D01*
X132741514Y-35780171D01*
X132955800Y-35780171D01*
X133098657Y-35851600D01*
X133170085Y-35994457D01*
X133170085Y-36780171D01*
X133170085Y-35994457D02*
X133241514Y-35851600D01*
X133384371Y-35780171D01*
X133598657Y-35780171D01*
X133741514Y-35851600D01*
X133812942Y-35994457D01*
X133812942Y-36780171D01*
X134527228Y-36780171D02*
X134527228Y-35780171D01*
X134527228Y-35923028D02*
X134598657Y-35851600D01*
X134741514Y-35780171D01*
X134955800Y-35780171D01*
X135098657Y-35851600D01*
X135170085Y-35994457D01*
X135170085Y-36780171D01*
X135170085Y-35994457D02*
X135241514Y-35851600D01*
X135384371Y-35780171D01*
X135598657Y-35780171D01*
X135741514Y-35851600D01*
X135812942Y-35994457D01*
X135812942Y-36780171D01*
X74980800Y-38201600D02*
X182930800Y-38201600D01*
X74980800Y-42926000D02*
X74980800Y-37615179D01*
X182930800Y-42926000D02*
X182930800Y-37615179D01*
X182930800Y-38201600D02*
X181804296Y-38788021D01*
X182930800Y-38201600D02*
X181804296Y-37615179D01*
X74980800Y-38201600D02*
X76107304Y-38788021D01*
X74980800Y-38201600D02*
X76107304Y-37615179D01*
D11*
X168554400Y-84734400D02*
X169570400Y-84734400D01*
X91186000Y-123698000D02*
X92202000Y-123698000D01*
X96367600Y-66395600D02*
X97383600Y-66395600D01*
D12*
X85191695Y-84793200D02*
X85096457Y-84745580D01*
X84953600Y-84745580D01*
X84810742Y-84793200D01*
X84715504Y-84888438D01*
X84667885Y-84983676D01*
X84620266Y-85174152D01*
X84620266Y-85317009D01*
X84667885Y-85507485D01*
X84715504Y-85602723D01*
X84810742Y-85697961D01*
X84953600Y-85745580D01*
X85048838Y-85745580D01*
X85191695Y-85697961D01*
X85239314Y-85650342D01*
X85239314Y-85317009D01*
X85048838Y-85317009D01*
X85667885Y-85745580D02*
X85667885Y-84745580D01*
X86239314Y-85745580D01*
X86239314Y-84745580D01*
X86715504Y-85745580D02*
X86715504Y-84745580D01*
X86953600Y-84745580D01*
X87096457Y-84793200D01*
X87191695Y-84888438D01*
X87239314Y-84983676D01*
X87286933Y-85174152D01*
X87286933Y-85317009D01*
X87239314Y-85507485D01*
X87191695Y-85602723D01*
X87096457Y-85697961D01*
X86953600Y-85745580D01*
X86715504Y-85745580D01*
X86360095Y-100338000D02*
X86264857Y-100290380D01*
X86122000Y-100290380D01*
X85979142Y-100338000D01*
X85883904Y-100433238D01*
X85836285Y-100528476D01*
X85788666Y-100718952D01*
X85788666Y-100861809D01*
X85836285Y-101052285D01*
X85883904Y-101147523D01*
X85979142Y-101242761D01*
X86122000Y-101290380D01*
X86217238Y-101290380D01*
X86360095Y-101242761D01*
X86407714Y-101195142D01*
X86407714Y-100861809D01*
X86217238Y-100861809D01*
X86836285Y-101290380D02*
X86836285Y-100290380D01*
X87407714Y-101290380D01*
X87407714Y-100290380D01*
X87883904Y-101290380D02*
X87883904Y-100290380D01*
X88122000Y-100290380D01*
X88264857Y-100338000D01*
X88360095Y-100433238D01*
X88407714Y-100528476D01*
X88455333Y-100718952D01*
X88455333Y-100861809D01*
X88407714Y-101052285D01*
X88360095Y-101147523D01*
X88264857Y-101242761D01*
X88122000Y-101290380D01*
X87883904Y-101290380D01*
X178155695Y-131935600D02*
X178060457Y-131887980D01*
X177917600Y-131887980D01*
X177774742Y-131935600D01*
X177679504Y-132030838D01*
X177631885Y-132126076D01*
X177584266Y-132316552D01*
X177584266Y-132459409D01*
X177631885Y-132649885D01*
X177679504Y-132745123D01*
X177774742Y-132840361D01*
X177917600Y-132887980D01*
X178012838Y-132887980D01*
X178155695Y-132840361D01*
X178203314Y-132792742D01*
X178203314Y-132459409D01*
X178012838Y-132459409D01*
X178631885Y-132887980D02*
X178631885Y-131887980D01*
X179203314Y-132887980D01*
X179203314Y-131887980D01*
X179679504Y-132887980D02*
X179679504Y-131887980D01*
X179917600Y-131887980D01*
X180060457Y-131935600D01*
X180155695Y-132030838D01*
X180203314Y-132126076D01*
X180250933Y-132316552D01*
X180250933Y-132459409D01*
X180203314Y-132649885D01*
X180155695Y-132745123D01*
X180060457Y-132840361D01*
X179917600Y-132887980D01*
X179679504Y-132887980D01*
X176401790Y-119035580D02*
X176735123Y-120035580D01*
X177068457Y-119035580D01*
X177401790Y-120035580D02*
X177401790Y-119035580D01*
X177639885Y-119035580D01*
X177782742Y-119083200D01*
X177877980Y-119178438D01*
X177925600Y-119273676D01*
X177973219Y-119464152D01*
X177973219Y-119607009D01*
X177925600Y-119797485D01*
X177877980Y-119892723D01*
X177782742Y-119987961D01*
X177639885Y-120035580D01*
X177401790Y-120035580D01*
X178401790Y-120035580D02*
X178401790Y-119035580D01*
X178639885Y-119035580D01*
X178782742Y-119083200D01*
X178877980Y-119178438D01*
X178925600Y-119273676D01*
X178973219Y-119464152D01*
X178973219Y-119607009D01*
X178925600Y-119797485D01*
X178877980Y-119892723D01*
X178782742Y-119987961D01*
X178639885Y-120035580D01*
X178401790Y-120035580D01*
X179163695Y-120130819D02*
X179925600Y-120130819D01*
X180497028Y-119511771D02*
X180639885Y-119559390D01*
X180687504Y-119607009D01*
X180735123Y-119702247D01*
X180735123Y-119845104D01*
X180687504Y-119940342D01*
X180639885Y-119987961D01*
X180544647Y-120035580D01*
X180163695Y-120035580D01*
X180163695Y-119035580D01*
X180497028Y-119035580D01*
X180592266Y-119083200D01*
X180639885Y-119130819D01*
X180687504Y-119226057D01*
X180687504Y-119321295D01*
X180639885Y-119416533D01*
X180592266Y-119464152D01*
X180497028Y-119511771D01*
X180163695Y-119511771D01*
X181116076Y-119749866D02*
X181592266Y-119749866D01*
X181020838Y-120035580D02*
X181354171Y-119035580D01*
X181687504Y-120035580D01*
X181877980Y-119035580D02*
X182449409Y-119035580D01*
X182163695Y-120035580D02*
X182163695Y-119035580D01*
X162996857Y-108224628D02*
X163044476Y-108177009D01*
X163139714Y-108129390D01*
X163330190Y-108224628D01*
X163425428Y-108177009D01*
X163473047Y-108129390D01*
X164377809Y-108605580D02*
X163806380Y-108605580D01*
X164092095Y-108605580D02*
X164092095Y-107605580D01*
X163996857Y-107748438D01*
X163901619Y-107843676D01*
X163806380Y-107891295D01*
X165330190Y-108605580D02*
X164758761Y-108605580D01*
X165044476Y-108605580D02*
X165044476Y-107605580D01*
X164949238Y-107748438D01*
X164854000Y-107843676D01*
X164758761Y-107891295D01*
X165758761Y-108510342D02*
X165806380Y-108557961D01*
X165758761Y-108605580D01*
X165711142Y-108557961D01*
X165758761Y-108510342D01*
X165758761Y-108605580D01*
X166758761Y-108605580D02*
X166187333Y-108605580D01*
X166473047Y-108605580D02*
X166473047Y-107605580D01*
X166377809Y-107748438D01*
X166282571Y-107843676D01*
X166187333Y-107891295D01*
X167044476Y-107605580D02*
X167377809Y-108605580D01*
X167711142Y-107605580D01*
X163727047Y-110866228D02*
X163774666Y-110818609D01*
X163869904Y-110770990D01*
X164060380Y-110866228D01*
X164155619Y-110818609D01*
X164203238Y-110770990D01*
X164488952Y-110247180D02*
X165155619Y-110247180D01*
X164727047Y-111247180D01*
X165536571Y-111151942D02*
X165584190Y-111199561D01*
X165536571Y-111247180D01*
X165488952Y-111199561D01*
X165536571Y-111151942D01*
X165536571Y-111247180D01*
X166441333Y-110580514D02*
X166441333Y-111247180D01*
X166203238Y-110199561D02*
X165965142Y-110913847D01*
X166584190Y-110913847D01*
X166822285Y-110247180D02*
X167155619Y-111247180D01*
X167488952Y-110247180D01*
X164744495Y-115527200D02*
X164649257Y-115479580D01*
X164506400Y-115479580D01*
X164363542Y-115527200D01*
X164268304Y-115622438D01*
X164220685Y-115717676D01*
X164173066Y-115908152D01*
X164173066Y-116051009D01*
X164220685Y-116241485D01*
X164268304Y-116336723D01*
X164363542Y-116431961D01*
X164506400Y-116479580D01*
X164601638Y-116479580D01*
X164744495Y-116431961D01*
X164792114Y-116384342D01*
X164792114Y-116051009D01*
X164601638Y-116051009D01*
X165220685Y-116479580D02*
X165220685Y-115479580D01*
X165792114Y-116479580D01*
X165792114Y-115479580D01*
X166268304Y-116479580D02*
X166268304Y-115479580D01*
X166506400Y-115479580D01*
X166649257Y-115527200D01*
X166744495Y-115622438D01*
X166792114Y-115717676D01*
X166839733Y-115908152D01*
X166839733Y-116051009D01*
X166792114Y-116241485D01*
X166744495Y-116336723D01*
X166649257Y-116431961D01*
X166506400Y-116479580D01*
X166268304Y-116479580D01*
X163727047Y-113507828D02*
X163774666Y-113460209D01*
X163869904Y-113412590D01*
X164060380Y-113507828D01*
X164155619Y-113460209D01*
X164203238Y-113412590D01*
X164488952Y-112888780D02*
X165108000Y-112888780D01*
X164774666Y-113269733D01*
X164917523Y-113269733D01*
X165012761Y-113317352D01*
X165060380Y-113364971D01*
X165108000Y-113460209D01*
X165108000Y-113698304D01*
X165060380Y-113793542D01*
X165012761Y-113841161D01*
X164917523Y-113888780D01*
X164631809Y-113888780D01*
X164536571Y-113841161D01*
X164488952Y-113793542D01*
X165536571Y-113793542D02*
X165584190Y-113841161D01*
X165536571Y-113888780D01*
X165488952Y-113841161D01*
X165536571Y-113793542D01*
X165536571Y-113888780D01*
X165917523Y-112888780D02*
X166584190Y-112888780D01*
X166155619Y-113888780D01*
X166822285Y-112888780D02*
X167155619Y-113888780D01*
X167488952Y-112888780D01*
X140205009Y-61733180D02*
X140395485Y-61733180D01*
X140490723Y-61780800D01*
X140585961Y-61876038D01*
X140633580Y-62066514D01*
X140633580Y-62399847D01*
X140585961Y-62590323D01*
X140490723Y-62685561D01*
X140395485Y-62733180D01*
X140205009Y-62733180D01*
X140109771Y-62685561D01*
X140014533Y-62590323D01*
X139966914Y-62399847D01*
X139966914Y-62066514D01*
X140014533Y-61876038D01*
X140109771Y-61780800D01*
X140205009Y-61733180D01*
X141062152Y-61733180D02*
X141062152Y-62542704D01*
X141109771Y-62637942D01*
X141157390Y-62685561D01*
X141252628Y-62733180D01*
X141443104Y-62733180D01*
X141538342Y-62685561D01*
X141585961Y-62637942D01*
X141633580Y-62542704D01*
X141633580Y-61733180D01*
X141966914Y-61733180D02*
X142538342Y-61733180D01*
X142252628Y-62733180D02*
X142252628Y-61733180D01*
X143395485Y-62733180D02*
X142824057Y-62733180D01*
X143109771Y-62733180D02*
X143109771Y-61733180D01*
X143014533Y-61876038D01*
X142919295Y-61971276D01*
X142824057Y-62018895D01*
X106524609Y-64323980D02*
X106715085Y-64323980D01*
X106810323Y-64371600D01*
X106905561Y-64466838D01*
X106953180Y-64657314D01*
X106953180Y-64990647D01*
X106905561Y-65181123D01*
X106810323Y-65276361D01*
X106715085Y-65323980D01*
X106524609Y-65323980D01*
X106429371Y-65276361D01*
X106334133Y-65181123D01*
X106286514Y-64990647D01*
X106286514Y-64657314D01*
X106334133Y-64466838D01*
X106429371Y-64371600D01*
X106524609Y-64323980D01*
X107381752Y-64323980D02*
X107381752Y-65133504D01*
X107429371Y-65228742D01*
X107476990Y-65276361D01*
X107572228Y-65323980D01*
X107762704Y-65323980D01*
X107857942Y-65276361D01*
X107905561Y-65228742D01*
X107953180Y-65133504D01*
X107953180Y-64323980D01*
X108286514Y-64323980D02*
X108857942Y-64323980D01*
X108572228Y-65323980D02*
X108572228Y-64323980D01*
X109715085Y-65323980D02*
X109143657Y-65323980D01*
X109429371Y-65323980D02*
X109429371Y-64323980D01*
X109334133Y-64466838D01*
X109238895Y-64562076D01*
X109143657Y-64609695D01*
X105508609Y-114158780D02*
X105699085Y-114158780D01*
X105794323Y-114206400D01*
X105889561Y-114301638D01*
X105937180Y-114492114D01*
X105937180Y-114825447D01*
X105889561Y-115015923D01*
X105794323Y-115111161D01*
X105699085Y-115158780D01*
X105508609Y-115158780D01*
X105413371Y-115111161D01*
X105318133Y-115015923D01*
X105270514Y-114825447D01*
X105270514Y-114492114D01*
X105318133Y-114301638D01*
X105413371Y-114206400D01*
X105508609Y-114158780D01*
X106365752Y-114158780D02*
X106365752Y-114968304D01*
X106413371Y-115063542D01*
X106460990Y-115111161D01*
X106556228Y-115158780D01*
X106746704Y-115158780D01*
X106841942Y-115111161D01*
X106889561Y-115063542D01*
X106937180Y-114968304D01*
X106937180Y-114158780D01*
X107270514Y-114158780D02*
X107841942Y-114158780D01*
X107556228Y-115158780D02*
X107556228Y-114158780D01*
X108699085Y-115158780D02*
X108127657Y-115158780D01*
X108413371Y-115158780D02*
X108413371Y-114158780D01*
X108318133Y-114301638D01*
X108222895Y-114396876D01*
X108127657Y-114444495D01*
X161439409Y-125131580D02*
X161629885Y-125131580D01*
X161725123Y-125179200D01*
X161820361Y-125274438D01*
X161867980Y-125464914D01*
X161867980Y-125798247D01*
X161820361Y-125988723D01*
X161725123Y-126083961D01*
X161629885Y-126131580D01*
X161439409Y-126131580D01*
X161344171Y-126083961D01*
X161248933Y-125988723D01*
X161201314Y-125798247D01*
X161201314Y-125464914D01*
X161248933Y-125274438D01*
X161344171Y-125179200D01*
X161439409Y-125131580D01*
X162296552Y-125131580D02*
X162296552Y-125941104D01*
X162344171Y-126036342D01*
X162391790Y-126083961D01*
X162487028Y-126131580D01*
X162677504Y-126131580D01*
X162772742Y-126083961D01*
X162820361Y-126036342D01*
X162867980Y-125941104D01*
X162867980Y-125131580D01*
X163201314Y-125131580D02*
X163772742Y-125131580D01*
X163487028Y-126131580D02*
X163487028Y-125131580D01*
X164629885Y-126131580D02*
X164058457Y-126131580D01*
X164344171Y-126131580D02*
X164344171Y-125131580D01*
X164248933Y-125274438D01*
X164153695Y-125369676D01*
X164058457Y-125417295D01*
X121627923Y-87691980D02*
X121151733Y-87691980D01*
X121104114Y-88168171D01*
X121151733Y-88120552D01*
X121246971Y-88072933D01*
X121485066Y-88072933D01*
X121580304Y-88120552D01*
X121627923Y-88168171D01*
X121675542Y-88263409D01*
X121675542Y-88501504D01*
X121627923Y-88596742D01*
X121580304Y-88644361D01*
X121485066Y-88691980D01*
X121246971Y-88691980D01*
X121151733Y-88644361D01*
X121104114Y-88596742D01*
X121961257Y-87691980D02*
X122294590Y-88691980D01*
X122627923Y-87691980D01*
X131451504Y-87691980D02*
X132070552Y-87691980D01*
X131737219Y-88072933D01*
X131880076Y-88072933D01*
X131975314Y-88120552D01*
X132022933Y-88168171D01*
X132070552Y-88263409D01*
X132070552Y-88501504D01*
X132022933Y-88596742D01*
X131975314Y-88644361D01*
X131880076Y-88691980D01*
X131594361Y-88691980D01*
X131499123Y-88644361D01*
X131451504Y-88596742D01*
X132356266Y-87691980D02*
X132689600Y-88691980D01*
X133022933Y-87691980D01*
X133261028Y-87691980D02*
X133880076Y-87691980D01*
X133546742Y-88072933D01*
X133689600Y-88072933D01*
X133784838Y-88120552D01*
X133832457Y-88168171D01*
X133880076Y-88263409D01*
X133880076Y-88501504D01*
X133832457Y-88596742D01*
X133784838Y-88644361D01*
X133689600Y-88691980D01*
X133403885Y-88691980D01*
X133308647Y-88644361D01*
X133261028Y-88596742D01*
X157899123Y-88758780D02*
X157422933Y-88758780D01*
X157375314Y-89234971D01*
X157422933Y-89187352D01*
X157518171Y-89139733D01*
X157756266Y-89139733D01*
X157851504Y-89187352D01*
X157899123Y-89234971D01*
X157946742Y-89330209D01*
X157946742Y-89568304D01*
X157899123Y-89663542D01*
X157851504Y-89711161D01*
X157756266Y-89758780D01*
X157518171Y-89758780D01*
X157422933Y-89711161D01*
X157375314Y-89663542D01*
X158232457Y-88758780D02*
X158565790Y-89758780D01*
X158899123Y-88758780D01*
X154362304Y-96480380D02*
X154981352Y-96480380D01*
X154648019Y-96861333D01*
X154790876Y-96861333D01*
X154886114Y-96908952D01*
X154933733Y-96956571D01*
X154981352Y-97051809D01*
X154981352Y-97289904D01*
X154933733Y-97385142D01*
X154886114Y-97432761D01*
X154790876Y-97480380D01*
X154505161Y-97480380D01*
X154409923Y-97432761D01*
X154362304Y-97385142D01*
X155267066Y-96480380D02*
X155600400Y-97480380D01*
X155933733Y-96480380D01*
X156171828Y-96480380D02*
X156790876Y-96480380D01*
X156457542Y-96861333D01*
X156600400Y-96861333D01*
X156695638Y-96908952D01*
X156743257Y-96956571D01*
X156790876Y-97051809D01*
X156790876Y-97289904D01*
X156743257Y-97385142D01*
X156695638Y-97432761D01*
X156600400Y-97480380D01*
X156314685Y-97480380D01*
X156219447Y-97432761D01*
X156171828Y-97385142D01*
D11*
X170942000Y-101600000D02*
X171958000Y-101600000D01*
X171450000Y-102108000D02*
X171450000Y-101092000D01*
X92456000Y-105867200D02*
X92456000Y-104851200D01*
X91948000Y-105359200D02*
X92964000Y-105359200D01*
X97028000Y-59385200D02*
X97028000Y-58369200D01*
X96520000Y-58877200D02*
X97536000Y-58877200D01*
X173536000Y-129011000D02*
X174552000Y-129011000D01*
X173536000Y-122915000D02*
X174552000Y-122915000D01*
X174044000Y-122407000D02*
X174044000Y-123423000D01*
D12*
X182970000Y-134900000D02*
X74970000Y-134900000D01*
X182970000Y-42900000D02*
X182970000Y-134900000D01*
X74970000Y-42900000D02*
X182970000Y-42900000D01*
X74970000Y-134900000D02*
X74970000Y-42900000D01*
D13*
G04 #@! TO.C,REF\002A\002A*
X146039840Y-55102760D02*
X144840960Y-58201560D01*
X144840960Y-58191400D02*
X146431000Y-57048400D01*
X146441160Y-57101740D02*
X145140680Y-59903360D01*
X146039840Y-55102760D02*
X145440400Y-55801260D01*
X145641060Y-60101480D02*
X146441160Y-57101740D01*
X145242280Y-57901840D02*
X146039840Y-55102760D01*
X146039840Y-55102760D02*
X146141440Y-56001920D01*
X145542000Y-62001400D02*
X140843000Y-54508400D01*
X140843000Y-54508400D02*
X150241000Y-54508400D01*
X150241000Y-54508400D02*
X145542000Y-62001400D01*
X146441160Y-57101740D02*
X145542000Y-59842400D01*
D14*
X145186400Y-59944000D02*
X145592800Y-60096400D01*
D13*
X181269640Y-92598240D02*
X178170840Y-91399360D01*
X178181000Y-91399360D02*
X179324000Y-92989400D01*
X179270660Y-92999560D02*
X176469040Y-91699080D01*
X181269640Y-92598240D02*
X180571140Y-91998800D01*
X176270920Y-92199460D02*
X179270660Y-92999560D01*
X178470560Y-91800680D02*
X181269640Y-92598240D01*
X181269640Y-92598240D02*
X180370480Y-92699840D01*
X174371000Y-92100400D02*
X181864000Y-87401400D01*
X181864000Y-87401400D02*
X181864000Y-96799400D01*
X181864000Y-96799400D02*
X174371000Y-92100400D01*
X179270660Y-92999560D02*
X176530000Y-92100400D01*
D14*
X176428400Y-91744800D02*
X176276000Y-92151200D01*
X82296000Y-88696800D02*
X82448400Y-88290400D01*
D13*
X79453740Y-87442040D02*
X82194400Y-88341200D01*
X76860400Y-83642200D02*
X84353400Y-88341200D01*
X76860400Y-93040200D02*
X76860400Y-83642200D01*
X84353400Y-88341200D02*
X76860400Y-93040200D01*
X77454760Y-87843360D02*
X78353920Y-87741760D01*
X80253840Y-88640920D02*
X77454760Y-87843360D01*
X82453480Y-88242140D02*
X79453740Y-87442040D01*
X77454760Y-87843360D02*
X78153260Y-88442800D01*
X79453740Y-87442040D02*
X82255360Y-88742520D01*
X80543400Y-89042240D02*
X79400400Y-87452200D01*
X77454760Y-87843360D02*
X80553560Y-89042240D01*
X77607160Y-114106960D02*
X80705960Y-115305840D01*
X80695800Y-115305840D02*
X79552800Y-113715800D01*
X79606140Y-113705640D02*
X82407760Y-115006120D01*
X77607160Y-114106960D02*
X78305660Y-114706400D01*
X82605880Y-114505740D02*
X79606140Y-113705640D01*
X80406240Y-114904520D02*
X77607160Y-114106960D01*
X77607160Y-114106960D02*
X78506320Y-114005360D01*
X84505800Y-114604800D02*
X77012800Y-119303800D01*
X77012800Y-119303800D02*
X77012800Y-109905800D01*
X77012800Y-109905800D02*
X84505800Y-114604800D01*
X79606140Y-113705640D02*
X82346800Y-114604800D01*
D14*
X82448400Y-114960400D02*
X82600800Y-114554000D01*
X82499200Y-62890400D02*
X82651600Y-62484000D01*
D13*
X79656940Y-61635640D02*
X82397600Y-62534800D01*
X77063600Y-57835800D02*
X84556600Y-62534800D01*
X77063600Y-67233800D02*
X77063600Y-57835800D01*
X84556600Y-62534800D02*
X77063600Y-67233800D01*
X77657960Y-62036960D02*
X78557120Y-61935360D01*
X80457040Y-62834520D02*
X77657960Y-62036960D01*
X82656680Y-62435740D02*
X79656940Y-61635640D01*
X77657960Y-62036960D02*
X78356460Y-62636400D01*
X79656940Y-61635640D02*
X82458560Y-62936120D01*
X80746600Y-63235840D02*
X79603600Y-61645800D01*
X77657960Y-62036960D02*
X80756760Y-63235840D01*
D15*
G04 #@! TO.C,R25*
X142331221Y-105666000D02*
X142656779Y-105666000D01*
X142331221Y-104646000D02*
X142656779Y-104646000D01*
G04 #@! TO.C,Q5*
X142238000Y-122687200D02*
X142238000Y-121757200D01*
X142238000Y-119527200D02*
X142238000Y-120457200D01*
X142238000Y-119527200D02*
X140078000Y-119527200D01*
X142238000Y-122687200D02*
X140778000Y-122687200D01*
G04 #@! TO.C,Q6*
X140362400Y-125267600D02*
X140362400Y-126197600D01*
X140362400Y-128427600D02*
X140362400Y-127497600D01*
X140362400Y-128427600D02*
X142522400Y-128427600D01*
X140362400Y-125267600D02*
X141822400Y-125267600D01*
G04 #@! TO.C,R41*
X138990800Y-126502379D02*
X138990800Y-126176821D01*
X137970800Y-126502379D02*
X137970800Y-126176821D01*
G04 #@! TO.C,Q4*
X137310400Y-112679600D02*
X135850400Y-112679600D01*
X137310400Y-109519600D02*
X135150400Y-109519600D01*
X137310400Y-109519600D02*
X137310400Y-110449600D01*
X137310400Y-112679600D02*
X137310400Y-111749600D01*
G04 #@! TO.C,R24*
X138580400Y-111190821D02*
X138580400Y-111516379D01*
X139600400Y-111190821D02*
X139600400Y-111516379D01*
G04 #@! TO.C,R26*
X134418800Y-111008379D02*
X134418800Y-110682821D01*
X133398800Y-111008379D02*
X133398800Y-110682821D01*
G04 #@! TO.C,R29*
X139397200Y-121295479D02*
X139397200Y-120969921D01*
X138377200Y-121295479D02*
X138377200Y-120969921D01*
G04 #@! TO.C,R30*
X143304800Y-126634021D02*
X143304800Y-126959579D01*
X144324800Y-126634021D02*
X144324800Y-126959579D01*
G04 #@! TO.C,R31*
X144680400Y-121015979D02*
X144680400Y-120690421D01*
X143660400Y-121015979D02*
X143660400Y-120690421D01*
G04 #@! TO.C,U3*
X126251000Y-72888000D02*
X126251000Y-70438000D01*
X123031000Y-71088000D02*
X123031000Y-72888000D01*
G04 #@! TO.C,C25*
X129338000Y-104464221D02*
X129338000Y-104789779D01*
X130358000Y-104464221D02*
X130358000Y-104789779D01*
G04 #@! TO.C,C26*
X137847000Y-101517721D02*
X137847000Y-101843279D01*
X138867000Y-101517721D02*
X138867000Y-101843279D01*
G04 #@! TO.C,R5*
X128199000Y-95264779D02*
X128199000Y-94939221D01*
X127179000Y-95264779D02*
X127179000Y-94939221D01*
G04 #@! TO.C,R3*
X128199000Y-98566779D02*
X128199000Y-98241221D01*
X127179000Y-98566779D02*
X127179000Y-98241221D01*
G04 #@! TO.C,U1*
X128923000Y-96010000D02*
X134933000Y-96010000D01*
X131173000Y-102830000D02*
X134933000Y-102830000D01*
X134933000Y-96010000D02*
X134933000Y-97270000D01*
X134933000Y-102830000D02*
X134933000Y-101570000D01*
D16*
G04 #@! TO.C,D3*
X148771000Y-77068000D02*
G75*
G03X148771000Y-77068000I-254000J0D01*
G01*
D15*
G04 #@! TO.C,C1*
X112066000Y-111220721D02*
X112066000Y-111546279D01*
X113086000Y-111220721D02*
X113086000Y-111546279D01*
G04 #@! TO.C,C2*
X113590000Y-111220721D02*
X113590000Y-111546279D01*
X114610000Y-111220721D02*
X114610000Y-111546279D01*
G04 #@! TO.C,C3*
X114191221Y-100946000D02*
X114516779Y-100946000D01*
X114191221Y-99926000D02*
X114516779Y-99926000D01*
G04 #@! TO.C,C4*
X108349221Y-101962000D02*
X108674779Y-101962000D01*
X108349221Y-100942000D02*
X108674779Y-100942000D01*
G04 #@! TO.C,C5*
X114331325Y-60134295D02*
X114005767Y-60134295D01*
X114331325Y-61154295D02*
X114005767Y-61154295D01*
G04 #@! TO.C,C7*
X100128000Y-109950721D02*
X100128000Y-110276279D01*
X101148000Y-109950721D02*
X101148000Y-110276279D01*
G04 #@! TO.C,C8*
X128628808Y-116807536D02*
X128628808Y-117133094D01*
X129648808Y-116807536D02*
X129648808Y-117133094D01*
G04 #@! TO.C,C11*
X161607492Y-71105660D02*
X161933050Y-71105660D01*
X161607492Y-70085660D02*
X161933050Y-70085660D01*
G04 #@! TO.C,C12*
X148306271Y-74369881D02*
X148306271Y-74695439D01*
X149326271Y-74369881D02*
X149326271Y-74695439D01*
G04 #@! TO.C,C13*
X156012000Y-58053779D02*
X156012000Y-57728221D01*
X154992000Y-58053779D02*
X154992000Y-57728221D01*
G04 #@! TO.C,C16*
X150630050Y-54845660D02*
X150304492Y-54845660D01*
X150630050Y-55865660D02*
X150304492Y-55865660D01*
G04 #@! TO.C,C17*
X158178492Y-54087660D02*
X158504050Y-54087660D01*
X158178492Y-53067660D02*
X158504050Y-53067660D01*
G04 #@! TO.C,C18*
X155291271Y-74496881D02*
X155291271Y-74822439D01*
X156311271Y-74496881D02*
X156311271Y-74822439D01*
G04 #@! TO.C,C19*
X161708992Y-65771660D02*
X162034550Y-65771660D01*
X161708992Y-64751660D02*
X162034550Y-64751660D01*
G04 #@! TO.C,C21*
X175887288Y-64480090D02*
X175561730Y-64480090D01*
X175887288Y-65500090D02*
X175561730Y-65500090D01*
G04 #@! TO.C,C22*
X111558000Y-96209221D02*
X111558000Y-96534779D01*
X112578000Y-96209221D02*
X112578000Y-96534779D01*
G04 #@! TO.C,C23*
X111050775Y-95811000D02*
X111050775Y-95311000D01*
X111300775Y-95561000D02*
X110800775Y-95561000D01*
X105895000Y-94370000D02*
X105895000Y-93802000D01*
X105935000Y-94604000D02*
X105935000Y-93568000D01*
X105975000Y-94763000D02*
X105975000Y-93409000D01*
X106015000Y-94891000D02*
X106015000Y-93281000D01*
X106055000Y-95001000D02*
X106055000Y-93171000D01*
X106095000Y-95097000D02*
X106095000Y-93075000D01*
X106135000Y-95184000D02*
X106135000Y-92988000D01*
X106175000Y-95264000D02*
X106175000Y-92908000D01*
X106215000Y-95337000D02*
X106215000Y-92835000D01*
X106255000Y-95405000D02*
X106255000Y-92767000D01*
X106295000Y-95469000D02*
X106295000Y-92703000D01*
X106335000Y-95529000D02*
X106335000Y-92643000D01*
X106375000Y-95586000D02*
X106375000Y-92586000D01*
X106415000Y-95640000D02*
X106415000Y-92532000D01*
X106455000Y-95691000D02*
X106455000Y-92481000D01*
X106495000Y-93046000D02*
X106495000Y-92433000D01*
X106495000Y-95739000D02*
X106495000Y-95126000D01*
X106535000Y-93046000D02*
X106535000Y-92387000D01*
X106535000Y-95785000D02*
X106535000Y-95126000D01*
X106575000Y-93046000D02*
X106575000Y-92343000D01*
X106575000Y-95829000D02*
X106575000Y-95126000D01*
X106615000Y-93046000D02*
X106615000Y-92301000D01*
X106615000Y-95871000D02*
X106615000Y-95126000D01*
X106655000Y-93046000D02*
X106655000Y-92260000D01*
X106655000Y-95912000D02*
X106655000Y-95126000D01*
X106695000Y-93046000D02*
X106695000Y-92222000D01*
X106695000Y-95950000D02*
X106695000Y-95126000D01*
X106735000Y-93046000D02*
X106735000Y-92185000D01*
X106735000Y-95987000D02*
X106735000Y-95126000D01*
X106775000Y-93046000D02*
X106775000Y-92149000D01*
X106775000Y-96023000D02*
X106775000Y-95126000D01*
X106815000Y-93046000D02*
X106815000Y-92115000D01*
X106815000Y-96057000D02*
X106815000Y-95126000D01*
X106855000Y-93046000D02*
X106855000Y-92082000D01*
X106855000Y-96090000D02*
X106855000Y-95126000D01*
X106895000Y-93046000D02*
X106895000Y-92051000D01*
X106895000Y-96121000D02*
X106895000Y-95126000D01*
X106935000Y-93046000D02*
X106935000Y-92021000D01*
X106935000Y-96151000D02*
X106935000Y-95126000D01*
X106975000Y-93046000D02*
X106975000Y-91991000D01*
X106975000Y-96181000D02*
X106975000Y-95126000D01*
X107015000Y-93046000D02*
X107015000Y-91964000D01*
X107015000Y-96208000D02*
X107015000Y-95126000D01*
X107055000Y-93046000D02*
X107055000Y-91937000D01*
X107055000Y-96235000D02*
X107055000Y-95126000D01*
X107095000Y-93046000D02*
X107095000Y-91911000D01*
X107095000Y-96261000D02*
X107095000Y-95126000D01*
X107135000Y-93046000D02*
X107135000Y-91886000D01*
X107135000Y-96286000D02*
X107135000Y-95126000D01*
X107175000Y-93046000D02*
X107175000Y-91862000D01*
X107175000Y-96310000D02*
X107175000Y-95126000D01*
X107215000Y-93046000D02*
X107215000Y-91839000D01*
X107215000Y-96333000D02*
X107215000Y-95126000D01*
X107255000Y-93046000D02*
X107255000Y-91818000D01*
X107255000Y-96354000D02*
X107255000Y-95126000D01*
X107295000Y-93046000D02*
X107295000Y-91796000D01*
X107295000Y-96376000D02*
X107295000Y-95126000D01*
X107335000Y-93046000D02*
X107335000Y-91776000D01*
X107335000Y-96396000D02*
X107335000Y-95126000D01*
X107375000Y-93046000D02*
X107375000Y-91757000D01*
X107375000Y-96415000D02*
X107375000Y-95126000D01*
X107415000Y-93046000D02*
X107415000Y-91738000D01*
X107415000Y-96434000D02*
X107415000Y-95126000D01*
X107455000Y-93046000D02*
X107455000Y-91721000D01*
X107455000Y-96451000D02*
X107455000Y-95126000D01*
X107495000Y-93046000D02*
X107495000Y-91704000D01*
X107495000Y-96468000D02*
X107495000Y-95126000D01*
X107535000Y-93046000D02*
X107535000Y-91688000D01*
X107535000Y-96484000D02*
X107535000Y-95126000D01*
X107575000Y-93046000D02*
X107575000Y-91672000D01*
X107575000Y-96500000D02*
X107575000Y-95126000D01*
X107615000Y-93046000D02*
X107615000Y-91658000D01*
X107615000Y-96514000D02*
X107615000Y-95126000D01*
X107655000Y-93046000D02*
X107655000Y-91644000D01*
X107655000Y-96528000D02*
X107655000Y-95126000D01*
X107695000Y-93046000D02*
X107695000Y-91631000D01*
X107695000Y-96541000D02*
X107695000Y-95126000D01*
X107735000Y-93046000D02*
X107735000Y-91618000D01*
X107735000Y-96554000D02*
X107735000Y-95126000D01*
X107775000Y-93046000D02*
X107775000Y-91606000D01*
X107775000Y-96566000D02*
X107775000Y-95126000D01*
X107816000Y-93046000D02*
X107816000Y-91595000D01*
X107816000Y-96577000D02*
X107816000Y-95126000D01*
X107856000Y-93046000D02*
X107856000Y-91585000D01*
X107856000Y-96587000D02*
X107856000Y-95126000D01*
X107896000Y-93046000D02*
X107896000Y-91575000D01*
X107896000Y-96597000D02*
X107896000Y-95126000D01*
X107936000Y-93046000D02*
X107936000Y-91566000D01*
X107936000Y-96606000D02*
X107936000Y-95126000D01*
X107976000Y-93046000D02*
X107976000Y-91558000D01*
X107976000Y-96614000D02*
X107976000Y-95126000D01*
X108016000Y-93046000D02*
X108016000Y-91550000D01*
X108016000Y-96622000D02*
X108016000Y-95126000D01*
X108056000Y-93046000D02*
X108056000Y-91543000D01*
X108056000Y-96629000D02*
X108056000Y-95126000D01*
X108096000Y-93046000D02*
X108096000Y-91536000D01*
X108096000Y-96636000D02*
X108096000Y-95126000D01*
X108136000Y-93046000D02*
X108136000Y-91530000D01*
X108136000Y-96642000D02*
X108136000Y-95126000D01*
X108176000Y-93046000D02*
X108176000Y-91525000D01*
X108176000Y-96647000D02*
X108176000Y-95126000D01*
X108216000Y-93046000D02*
X108216000Y-91521000D01*
X108216000Y-96651000D02*
X108216000Y-95126000D01*
X108256000Y-93046000D02*
X108256000Y-91517000D01*
X108256000Y-96655000D02*
X108256000Y-95126000D01*
X108296000Y-93046000D02*
X108296000Y-91513000D01*
X108296000Y-96659000D02*
X108296000Y-95126000D01*
X108336000Y-93046000D02*
X108336000Y-91510000D01*
X108336000Y-96662000D02*
X108336000Y-95126000D01*
X108376000Y-93046000D02*
X108376000Y-91508000D01*
X108376000Y-96664000D02*
X108376000Y-95126000D01*
X108416000Y-93046000D02*
X108416000Y-91507000D01*
X108416000Y-96665000D02*
X108416000Y-95126000D01*
X108456000Y-96666000D02*
X108456000Y-95126000D01*
X108456000Y-93046000D02*
X108456000Y-91506000D01*
X108496000Y-96666000D02*
X108496000Y-95126000D01*
X108496000Y-93046000D02*
X108496000Y-91506000D01*
X111116000Y-94086000D02*
G75*
G03X111116000Y-94086000I-2620000J0D01*
G01*
G04 #@! TO.C,C24*
X112578000Y-99836779D02*
X112578000Y-99511221D01*
X111558000Y-99836779D02*
X111558000Y-99511221D01*
G04 #@! TO.C,C27*
X157683653Y-92901785D02*
X157683653Y-93227343D01*
X158703653Y-92901785D02*
X158703653Y-93227343D01*
G04 #@! TO.C,C28*
X160642432Y-99666564D02*
X160316874Y-99666564D01*
X160642432Y-100686564D02*
X160316874Y-100686564D01*
G04 #@! TO.C,C29*
X124131000Y-75406721D02*
X124131000Y-75732279D01*
X125151000Y-75406721D02*
X125151000Y-75732279D01*
G04 #@! TO.C,C30*
X126002221Y-106788000D02*
X126327779Y-106788000D01*
X126002221Y-105768000D02*
X126327779Y-105768000D01*
D16*
G04 #@! TO.C,D1*
X165154000Y-51287000D02*
G75*
G03X165154000Y-51287000I-254000J0D01*
G01*
G04 #@! TO.C,D2*
X155895307Y-108414219D02*
G75*
G03X155895307Y-108414219I-254000J0D01*
G01*
G04 #@! TO.C,D4*
X142280907Y-115272219D02*
G75*
G03X142280907Y-115272219I-254000J0D01*
G01*
G04 #@! TO.C,D5*
X152948907Y-101810219D02*
G75*
G03X152948907Y-101810219I-254000J0D01*
G01*
G04 #@! TO.C,D8*
X130356000Y-44302000D02*
G75*
G03X130356000Y-44302000I-254000J0D01*
G01*
D15*
G04 #@! TO.C,F2*
X89781721Y-81896000D02*
X90107279Y-81896000D01*
X89781721Y-80876000D02*
X90107279Y-80876000D01*
G04 #@! TO.C,J9*
X146284907Y-88288219D02*
X147614907Y-88288219D01*
X146284907Y-89618219D02*
X146284907Y-88288219D01*
X148884907Y-88288219D02*
X151484907Y-88288219D01*
X148884907Y-90888219D02*
X148884907Y-88288219D01*
X146284907Y-90888219D02*
X148884907Y-90888219D01*
X151484907Y-88288219D02*
X151484907Y-118888219D01*
X146284907Y-90888219D02*
X146284907Y-118888219D01*
X146284907Y-118888219D02*
X151484907Y-118888219D01*
G04 #@! TO.C,J10*
X146171000Y-86780000D02*
X146171000Y-85450000D01*
X147501000Y-86780000D02*
X146171000Y-86780000D01*
X146171000Y-84180000D02*
X146171000Y-81580000D01*
X148771000Y-84180000D02*
X146171000Y-84180000D01*
X148771000Y-86780000D02*
X148771000Y-84180000D01*
X146171000Y-81580000D02*
X158991000Y-81580000D01*
X148771000Y-86780000D02*
X158991000Y-86780000D01*
X158991000Y-86780000D02*
X158991000Y-81580000D01*
D12*
G04 #@! TO.C,J12*
X94002000Y-120756000D02*
X94002000Y-122788000D01*
X94002000Y-122788000D02*
X91970000Y-122788000D01*
X77238000Y-122788000D02*
X75206000Y-122788000D01*
X75206000Y-122788000D02*
X75206000Y-120756000D01*
X75206000Y-108564000D02*
X75206000Y-106532000D01*
X75206000Y-106532000D02*
X77238000Y-106532000D01*
X91970000Y-106532000D02*
X94002000Y-106532000D01*
X94002000Y-106532000D02*
X94002000Y-108564000D01*
D17*
G04 #@! TO.C,J14*
X181664000Y-129773000D02*
X182934000Y-129773000D01*
X181664000Y-127233000D02*
X181664000Y-129773000D01*
X182934000Y-127233000D02*
X181664000Y-127233000D01*
X181664000Y-124693000D02*
X182934000Y-124693000D01*
X181664000Y-122153000D02*
X181664000Y-124693000D01*
X182934000Y-122153000D02*
X181664000Y-122153000D01*
X176584000Y-120883000D02*
X176584000Y-131043000D01*
X175314000Y-131043000D02*
X182934000Y-131043000D01*
X175314000Y-120883000D02*
X175314000Y-131043000D01*
X182934000Y-120883000D02*
X175314000Y-120883000D01*
X182934000Y-131043000D02*
X182934000Y-120883000D01*
D12*
G04 #@! TO.C,J15*
X94002000Y-68686000D02*
X94002000Y-70718000D01*
X94002000Y-70718000D02*
X91970000Y-70718000D01*
X77238000Y-70718000D02*
X75206000Y-70718000D01*
X75206000Y-70718000D02*
X75206000Y-68686000D01*
X75206000Y-56494000D02*
X75206000Y-54462000D01*
X75206000Y-54462000D02*
X77238000Y-54462000D01*
X91970000Y-54462000D02*
X94002000Y-54462000D01*
X94002000Y-54462000D02*
X94002000Y-56494000D01*
D15*
G04 #@! TO.C,JP1*
X154172000Y-88184000D02*
X155502000Y-88184000D01*
X154172000Y-89514000D02*
X154172000Y-88184000D01*
X154172000Y-90784000D02*
X156832000Y-90784000D01*
X156832000Y-90784000D02*
X156832000Y-95924000D01*
X154172000Y-90784000D02*
X154172000Y-95924000D01*
X154172000Y-95924000D02*
X156832000Y-95924000D01*
G04 #@! TO.C,JP2*
X123184000Y-89574000D02*
X123184000Y-88244000D01*
X124514000Y-89574000D02*
X123184000Y-89574000D01*
X125784000Y-89574000D02*
X125784000Y-86914000D01*
X125784000Y-86914000D02*
X130924000Y-86914000D01*
X125784000Y-89574000D02*
X130924000Y-89574000D01*
X130924000Y-89574000D02*
X130924000Y-86914000D01*
G04 #@! TO.C,L2*
X165010992Y-66787660D02*
X165336550Y-66787660D01*
X165010992Y-65767660D02*
X165336550Y-65767660D01*
G04 #@! TO.C,L3*
X119232000Y-99268000D02*
X119232000Y-92968000D01*
X113032000Y-99268000D02*
X113032000Y-92968000D01*
G04 #@! TO.C,Q2*
X102183000Y-78400000D02*
X102783000Y-78400000D01*
X103183000Y-79800000D02*
X103183000Y-79800000D01*
X101983000Y-79800000D02*
X103183000Y-79800000D01*
G04 #@! TO.C,Q3*
X114725505Y-74314755D02*
X114725505Y-73714755D01*
X116125505Y-73314755D02*
X116125505Y-73314755D01*
X116125505Y-74514755D02*
X116125505Y-73314755D01*
G04 #@! TO.C,R1*
X108349221Y-100438000D02*
X108674779Y-100438000D01*
X108349221Y-99418000D02*
X108674779Y-99418000D01*
G04 #@! TO.C,R2*
X108674779Y-102466000D02*
X108349221Y-102466000D01*
X108674779Y-103486000D02*
X108349221Y-103486000D01*
G04 #@! TO.C,R4*
X163618874Y-90018564D02*
X163944432Y-90018564D01*
X163618874Y-88998564D02*
X163944432Y-88998564D01*
G04 #@! TO.C,R6*
X166793874Y-90018564D02*
X167119432Y-90018564D01*
X166793874Y-88998564D02*
X167119432Y-88998564D01*
G04 #@! TO.C,R7*
X126167000Y-68569279D02*
X126167000Y-68243721D01*
X125147000Y-68569279D02*
X125147000Y-68243721D01*
G04 #@! TO.C,R8*
X124135000Y-68569279D02*
X124135000Y-68243721D01*
X123115000Y-68569279D02*
X123115000Y-68243721D01*
G04 #@! TO.C,R9*
X122353000Y-75406721D02*
X122353000Y-75732279D01*
X123373000Y-75406721D02*
X123373000Y-75732279D01*
G04 #@! TO.C,R10*
X125909000Y-75406721D02*
X125909000Y-75732279D01*
X126929000Y-75406721D02*
X126929000Y-75732279D01*
G04 #@! TO.C,R11*
X119215779Y-104752000D02*
X118890221Y-104752000D01*
X119215779Y-105772000D02*
X118890221Y-105772000D01*
G04 #@! TO.C,R12*
X119215779Y-106784000D02*
X118890221Y-106784000D01*
X119215779Y-107804000D02*
X118890221Y-107804000D01*
G04 #@! TO.C,R13*
X158478550Y-57893660D02*
X158152992Y-57893660D01*
X158478550Y-58913660D02*
X158152992Y-58913660D01*
G04 #@! TO.C,R14*
X146278271Y-71520439D02*
X146278271Y-71194881D01*
X145258271Y-71520439D02*
X145258271Y-71194881D01*
G04 #@! TO.C,R15*
X161623944Y-67948346D02*
X161949502Y-67948346D01*
X161623944Y-66928346D02*
X161949502Y-66928346D01*
G04 #@! TO.C,R16*
X161598444Y-69472346D02*
X161924002Y-69472346D01*
X161598444Y-68452346D02*
X161924002Y-68452346D01*
G04 #@! TO.C,R17*
X175832279Y-62842000D02*
X175506721Y-62842000D01*
X175832279Y-63862000D02*
X175506721Y-63862000D01*
G04 #@! TO.C,R20*
X136646144Y-66261549D02*
X136971702Y-66261549D01*
X136646144Y-65241549D02*
X136971702Y-65241549D01*
G04 #@! TO.C,R21*
X95115721Y-79610000D02*
X95441279Y-79610000D01*
X95115721Y-78590000D02*
X95441279Y-78590000D01*
G04 #@! TO.C,R22*
X144671221Y-49892000D02*
X144996779Y-49892000D01*
X144671221Y-48872000D02*
X144996779Y-48872000D01*
G04 #@! TO.C,R23*
X99459221Y-79610000D02*
X99784779Y-79610000D01*
X99459221Y-78590000D02*
X99784779Y-78590000D01*
G04 #@! TO.C,R28*
X104958000Y-79262779D02*
X104958000Y-78937221D01*
X103938000Y-79262779D02*
X103938000Y-78937221D01*
G04 #@! TO.C,R32*
X126027721Y-108566000D02*
X126353279Y-108566000D01*
X126027721Y-107546000D02*
X126353279Y-107546000D01*
G04 #@! TO.C,R33*
X126002221Y-105010000D02*
X126327779Y-105010000D01*
X126002221Y-103990000D02*
X126327779Y-103990000D01*
G04 #@! TO.C,R34*
X114526226Y-76556755D02*
X114851784Y-76556755D01*
X114526226Y-75536755D02*
X114851784Y-75536755D01*
G04 #@! TO.C,R35*
X115588284Y-71218755D02*
X115262726Y-71218755D01*
X115588284Y-72238755D02*
X115262726Y-72238755D01*
G04 #@! TO.C,R37*
X96131721Y-48368000D02*
X96457279Y-48368000D01*
X96131721Y-47348000D02*
X96457279Y-47348000D01*
G04 #@! TO.C,R38*
X96131721Y-130410000D02*
X96457279Y-130410000D01*
X96131721Y-129390000D02*
X96457279Y-129390000D01*
G04 #@! TO.C,R39*
X108903279Y-129390000D02*
X108577721Y-129390000D01*
X108903279Y-130410000D02*
X108577721Y-130410000D01*
G04 #@! TO.C,R40*
X108954279Y-47348000D02*
X108628721Y-47348000D01*
X108954279Y-48368000D02*
X108628721Y-48368000D01*
G04 #@! TO.C,U2*
X166175653Y-90767564D02*
X166175653Y-96777564D01*
X159355653Y-93017564D02*
X159355653Y-96777564D01*
X166175653Y-96777564D02*
X164915653Y-96777564D01*
X159355653Y-96777564D02*
X160615653Y-96777564D01*
G04 #@! TO.C,U4*
X123509000Y-104668000D02*
X121059000Y-104668000D01*
X121709000Y-107888000D02*
X123509000Y-107888000D01*
D16*
G04 #@! TO.C,U5*
X116640000Y-101960000D02*
G75*
G03X116640000Y-101960000I-254000J0D01*
G01*
D12*
G04 #@! TO.C,U9*
X158554223Y-70768346D02*
X159829223Y-70768346D01*
X148204223Y-71343346D02*
X148879223Y-71343346D01*
X148204223Y-60993346D02*
X148879223Y-60993346D01*
X158554223Y-60993346D02*
X157879223Y-60993346D01*
X158554223Y-71343346D02*
X157879223Y-71343346D01*
X158554223Y-60993346D02*
X158554223Y-61668346D01*
X148204223Y-60993346D02*
X148204223Y-61668346D01*
X148204223Y-71343346D02*
X148204223Y-70668346D01*
X158554223Y-71343346D02*
X158554223Y-70768346D01*
D15*
G04 #@! TO.C,Y1*
X152447271Y-56077660D02*
X156447271Y-56077660D01*
X152447271Y-52777660D02*
X152447271Y-56077660D01*
D17*
G04 #@! TO.C,J13*
X87430000Y-103357000D02*
X86160000Y-103357000D01*
X87430000Y-102087000D02*
X87430000Y-103357000D01*
X87430000Y-90403000D02*
X87430000Y-91673000D01*
X86160000Y-90403000D02*
X87430000Y-90403000D01*
G04 #@! TO.C,J16*
X87430000Y-86847000D02*
X86160000Y-86847000D01*
X87430000Y-85577000D02*
X87430000Y-86847000D01*
X87430000Y-73893000D02*
X87430000Y-75163000D01*
X86160000Y-73893000D02*
X87430000Y-73893000D01*
G04 #@! TO.C,BZ1*
X121267505Y-83920755D02*
G75*
G03X121267505Y-83920755I-6350000J0D01*
G01*
D15*
G04 #@! TO.C,Q1*
X94288000Y-85076000D02*
X94288000Y-82536000D01*
X96828000Y-85076000D02*
X96828000Y-82536000D01*
X99368000Y-85076000D02*
X99368000Y-82536000D01*
X91708000Y-100966000D02*
X91708000Y-85076000D01*
X101948000Y-100966000D02*
X101948000Y-85076000D01*
X101948000Y-100966000D02*
X91708000Y-100966000D01*
X101948000Y-85076000D02*
X91708000Y-85076000D01*
G04 #@! TO.C,C32*
X133119225Y-74835000D02*
X133119225Y-75335000D01*
X132869225Y-75085000D02*
X133369225Y-75085000D01*
X138275000Y-76276000D02*
X138275000Y-76844000D01*
X138235000Y-76042000D02*
X138235000Y-77078000D01*
X138195000Y-75883000D02*
X138195000Y-77237000D01*
X138155000Y-75755000D02*
X138155000Y-77365000D01*
X138115000Y-75645000D02*
X138115000Y-77475000D01*
X138075000Y-75549000D02*
X138075000Y-77571000D01*
X138035000Y-75462000D02*
X138035000Y-77658000D01*
X137995000Y-75382000D02*
X137995000Y-77738000D01*
X137955000Y-75309000D02*
X137955000Y-77811000D01*
X137915000Y-75241000D02*
X137915000Y-77879000D01*
X137875000Y-75177000D02*
X137875000Y-77943000D01*
X137835000Y-75117000D02*
X137835000Y-78003000D01*
X137795000Y-75060000D02*
X137795000Y-78060000D01*
X137755000Y-75006000D02*
X137755000Y-78114000D01*
X137715000Y-74955000D02*
X137715000Y-78165000D01*
X137675000Y-77600000D02*
X137675000Y-78213000D01*
X137675000Y-74907000D02*
X137675000Y-75520000D01*
X137635000Y-77600000D02*
X137635000Y-78259000D01*
X137635000Y-74861000D02*
X137635000Y-75520000D01*
X137595000Y-77600000D02*
X137595000Y-78303000D01*
X137595000Y-74817000D02*
X137595000Y-75520000D01*
X137555000Y-77600000D02*
X137555000Y-78345000D01*
X137555000Y-74775000D02*
X137555000Y-75520000D01*
X137515000Y-77600000D02*
X137515000Y-78386000D01*
X137515000Y-74734000D02*
X137515000Y-75520000D01*
X137475000Y-77600000D02*
X137475000Y-78424000D01*
X137475000Y-74696000D02*
X137475000Y-75520000D01*
X137435000Y-77600000D02*
X137435000Y-78461000D01*
X137435000Y-74659000D02*
X137435000Y-75520000D01*
X137395000Y-77600000D02*
X137395000Y-78497000D01*
X137395000Y-74623000D02*
X137395000Y-75520000D01*
X137355000Y-77600000D02*
X137355000Y-78531000D01*
X137355000Y-74589000D02*
X137355000Y-75520000D01*
X137315000Y-77600000D02*
X137315000Y-78564000D01*
X137315000Y-74556000D02*
X137315000Y-75520000D01*
X137275000Y-77600000D02*
X137275000Y-78595000D01*
X137275000Y-74525000D02*
X137275000Y-75520000D01*
X137235000Y-77600000D02*
X137235000Y-78625000D01*
X137235000Y-74495000D02*
X137235000Y-75520000D01*
X137195000Y-77600000D02*
X137195000Y-78655000D01*
X137195000Y-74465000D02*
X137195000Y-75520000D01*
X137155000Y-77600000D02*
X137155000Y-78682000D01*
X137155000Y-74438000D02*
X137155000Y-75520000D01*
X137115000Y-77600000D02*
X137115000Y-78709000D01*
X137115000Y-74411000D02*
X137115000Y-75520000D01*
X137075000Y-77600000D02*
X137075000Y-78735000D01*
X137075000Y-74385000D02*
X137075000Y-75520000D01*
X137035000Y-77600000D02*
X137035000Y-78760000D01*
X137035000Y-74360000D02*
X137035000Y-75520000D01*
X136995000Y-77600000D02*
X136995000Y-78784000D01*
X136995000Y-74336000D02*
X136995000Y-75520000D01*
X136955000Y-77600000D02*
X136955000Y-78807000D01*
X136955000Y-74313000D02*
X136955000Y-75520000D01*
X136915000Y-77600000D02*
X136915000Y-78828000D01*
X136915000Y-74292000D02*
X136915000Y-75520000D01*
X136875000Y-77600000D02*
X136875000Y-78850000D01*
X136875000Y-74270000D02*
X136875000Y-75520000D01*
X136835000Y-77600000D02*
X136835000Y-78870000D01*
X136835000Y-74250000D02*
X136835000Y-75520000D01*
X136795000Y-77600000D02*
X136795000Y-78889000D01*
X136795000Y-74231000D02*
X136795000Y-75520000D01*
X136755000Y-77600000D02*
X136755000Y-78908000D01*
X136755000Y-74212000D02*
X136755000Y-75520000D01*
X136715000Y-77600000D02*
X136715000Y-78925000D01*
X136715000Y-74195000D02*
X136715000Y-75520000D01*
X136675000Y-77600000D02*
X136675000Y-78942000D01*
X136675000Y-74178000D02*
X136675000Y-75520000D01*
X136635000Y-77600000D02*
X136635000Y-78958000D01*
X136635000Y-74162000D02*
X136635000Y-75520000D01*
X136595000Y-77600000D02*
X136595000Y-78974000D01*
X136595000Y-74146000D02*
X136595000Y-75520000D01*
X136555000Y-77600000D02*
X136555000Y-78988000D01*
X136555000Y-74132000D02*
X136555000Y-75520000D01*
X136515000Y-77600000D02*
X136515000Y-79002000D01*
X136515000Y-74118000D02*
X136515000Y-75520000D01*
X136475000Y-77600000D02*
X136475000Y-79015000D01*
X136475000Y-74105000D02*
X136475000Y-75520000D01*
X136435000Y-77600000D02*
X136435000Y-79028000D01*
X136435000Y-74092000D02*
X136435000Y-75520000D01*
X136395000Y-77600000D02*
X136395000Y-79040000D01*
X136395000Y-74080000D02*
X136395000Y-75520000D01*
X136354000Y-77600000D02*
X136354000Y-79051000D01*
X136354000Y-74069000D02*
X136354000Y-75520000D01*
X136314000Y-77600000D02*
X136314000Y-79061000D01*
X136314000Y-74059000D02*
X136314000Y-75520000D01*
X136274000Y-77600000D02*
X136274000Y-79071000D01*
X136274000Y-74049000D02*
X136274000Y-75520000D01*
X136234000Y-77600000D02*
X136234000Y-79080000D01*
X136234000Y-74040000D02*
X136234000Y-75520000D01*
X136194000Y-77600000D02*
X136194000Y-79088000D01*
X136194000Y-74032000D02*
X136194000Y-75520000D01*
X136154000Y-77600000D02*
X136154000Y-79096000D01*
X136154000Y-74024000D02*
X136154000Y-75520000D01*
X136114000Y-77600000D02*
X136114000Y-79103000D01*
X136114000Y-74017000D02*
X136114000Y-75520000D01*
X136074000Y-77600000D02*
X136074000Y-79110000D01*
X136074000Y-74010000D02*
X136074000Y-75520000D01*
X136034000Y-77600000D02*
X136034000Y-79116000D01*
X136034000Y-74004000D02*
X136034000Y-75520000D01*
X135994000Y-77600000D02*
X135994000Y-79121000D01*
X135994000Y-73999000D02*
X135994000Y-75520000D01*
X135954000Y-77600000D02*
X135954000Y-79125000D01*
X135954000Y-73995000D02*
X135954000Y-75520000D01*
X135914000Y-77600000D02*
X135914000Y-79129000D01*
X135914000Y-73991000D02*
X135914000Y-75520000D01*
X135874000Y-77600000D02*
X135874000Y-79133000D01*
X135874000Y-73987000D02*
X135874000Y-75520000D01*
X135834000Y-77600000D02*
X135834000Y-79136000D01*
X135834000Y-73984000D02*
X135834000Y-75520000D01*
X135794000Y-77600000D02*
X135794000Y-79138000D01*
X135794000Y-73982000D02*
X135794000Y-75520000D01*
X135754000Y-77600000D02*
X135754000Y-79139000D01*
X135754000Y-73981000D02*
X135754000Y-75520000D01*
X135714000Y-73980000D02*
X135714000Y-75520000D01*
X135714000Y-77600000D02*
X135714000Y-79140000D01*
X135674000Y-73980000D02*
X135674000Y-75520000D01*
X135674000Y-77600000D02*
X135674000Y-79140000D01*
X138294000Y-76560000D02*
G75*
G03X138294000Y-76560000I-2620000J0D01*
G01*
G04 #@! TO.C,R42*
X172936779Y-81130000D02*
X172611221Y-81130000D01*
X172936779Y-82150000D02*
X172611221Y-82150000D01*
G04 #@! TO.C,TP5*
X140044400Y-106730800D02*
G75*
G03X140044400Y-106730800I-700000J0D01*
G01*
G04 #@! TO.C,TP6*
X141314400Y-116789200D02*
G75*
G03X141314400Y-116789200I-700000J0D01*
G01*
G04 #@! TO.C,TP7*
X136539200Y-116992400D02*
G75*
G03X136539200Y-116992400I-700000J0D01*
G01*
G04 #@! TO.C,TP8*
X109339000Y-110723000D02*
G75*
G03X109339000Y-110723000I-700000J0D01*
G01*
G04 #@! TO.C,TP9*
X123055000Y-94721000D02*
G75*
G03X123055000Y-94721000I-700000J0D01*
G01*
G04 #@! TO.C,TP10*
X120261000Y-101833000D02*
G75*
G03X120261000Y-101833000I-700000J0D01*
G01*
G04 #@! TO.C,TP11*
X106164000Y-96880000D02*
G75*
G03X106164000Y-96880000I-700000J0D01*
G01*
G04 #@! TO.C,TP12*
X136898000Y-94086000D02*
G75*
G03X136898000Y-94086000I-700000J0D01*
G01*
G04 #@! TO.C,TP13*
X166489000Y-100309000D02*
G75*
G03X166489000Y-100309000I-700000J0D01*
G01*
G04 #@! TO.C,TP14*
X106418000Y-103230000D02*
G75*
G03X106418000Y-103230000I-700000J0D01*
G01*
G04 #@! TO.C,TP16*
X126611000Y-96753000D02*
G75*
G03X126611000Y-96753000I-700000J0D01*
G01*
G04 #@! TO.C,TP17*
X168267000Y-94721000D02*
G75*
G03X168267000Y-94721000I-700000J0D01*
G01*
G04 #@! TO.C,TP34*
X130929000Y-79989000D02*
G75*
G03X130929000Y-79989000I-700000J0D01*
G01*
G04 #@! TO.C,TP52*
X173474000Y-120502000D02*
G75*
G03X173474000Y-120502000I-700000J0D01*
G01*
G04 #@! TO.C,TP53*
X89336500Y-87672500D02*
G75*
G03X89336500Y-87672500I-700000J0D01*
G01*
G04 #@! TO.C,TP54*
X103243000Y-74401000D02*
G75*
G03X103243000Y-74401000I-700000J0D01*
G01*
G04 #@! TO.C,TP55*
X106164000Y-74401000D02*
G75*
G03X106164000Y-74401000I-700000J0D01*
G01*
G04 #@! TO.C,TP56*
X107815000Y-79735000D02*
G75*
G03X107815000Y-79735000I-700000J0D01*
G01*
G04 #@! TO.C,F1*
X89807221Y-79102000D02*
X90132779Y-79102000D01*
X89807221Y-78082000D02*
X90132779Y-78082000D01*
G04 #@! TO.C,F3*
X89807221Y-84690000D02*
X90132779Y-84690000D01*
X89807221Y-83670000D02*
X90132779Y-83670000D01*
G04 #@! TO.C,J1*
X110601000Y-62717000D02*
G75*
G03X110601000Y-62717000I-1200000J0D01*
G01*
G04 #@! TO.C,J2*
X113268000Y-58272000D02*
G75*
G03X113268000Y-58272000I-1200000J0D01*
G01*
G04 #@! TO.C,J5*
X104886000Y-114406000D02*
G75*
G03X104886000Y-114406000I-1200000J0D01*
G01*
G04 #@! TO.C,J6*
X98790000Y-114406000D02*
G75*
G03X98790000Y-114406000I-1200000J0D01*
G01*
G04 #@! TO.C,J7*
X162925000Y-123550000D02*
G75*
G03X162925000Y-123550000I-1200000J0D01*
G01*
G04 #@! TO.C,J8*
X157083000Y-129392000D02*
G75*
G03X157083000Y-129392000I-1200000J0D01*
G01*
G04 #@! TO.C,Q7*
X133751600Y-109005600D02*
X133151600Y-109005600D01*
X132751600Y-107605600D02*
X132751600Y-107605600D01*
X133951600Y-107605600D02*
X132751600Y-107605600D01*
G04 #@! TO.C,Q8*
X139234800Y-117867200D02*
X138034800Y-117867200D01*
X138034800Y-117867200D02*
X138034800Y-117867200D01*
X139034800Y-119267200D02*
X138434800Y-119267200D01*
G04 #@! TO.C,Q9*
X145143600Y-128309600D02*
X146343600Y-128309600D01*
X146343600Y-128309600D02*
X146343600Y-128309600D01*
X145343600Y-126909600D02*
X145943600Y-126909600D01*
G04 #@! TO.C,R43*
X140015179Y-109526800D02*
X139689621Y-109526800D01*
X140015179Y-108506800D02*
X139689621Y-108506800D01*
G04 #@! TO.C,R44*
X143571179Y-118006400D02*
X143245621Y-118006400D01*
X143571179Y-119026400D02*
X143245621Y-119026400D01*
G04 #@! TO.C,R45*
X137416000Y-126176821D02*
X137416000Y-126502379D01*
X136396000Y-126176821D02*
X136396000Y-126502379D01*
G04 #@! TD*
G04 #@! TO.C,R25*
D12*
X138752342Y-105405180D02*
X138419009Y-104928990D01*
X138180914Y-105405180D02*
X138180914Y-104405180D01*
X138561866Y-104405180D01*
X138657104Y-104452800D01*
X138704723Y-104500419D01*
X138752342Y-104595657D01*
X138752342Y-104738514D01*
X138704723Y-104833752D01*
X138657104Y-104881371D01*
X138561866Y-104928990D01*
X138180914Y-104928990D01*
X139133295Y-104500419D02*
X139180914Y-104452800D01*
X139276152Y-104405180D01*
X139514247Y-104405180D01*
X139609485Y-104452800D01*
X139657104Y-104500419D01*
X139704723Y-104595657D01*
X139704723Y-104690895D01*
X139657104Y-104833752D01*
X139085676Y-105405180D01*
X139704723Y-105405180D01*
X140609485Y-104405180D02*
X140133295Y-104405180D01*
X140085676Y-104881371D01*
X140133295Y-104833752D01*
X140228533Y-104786133D01*
X140466628Y-104786133D01*
X140561866Y-104833752D01*
X140609485Y-104881371D01*
X140657104Y-104976609D01*
X140657104Y-105214704D01*
X140609485Y-105309942D01*
X140561866Y-105357561D01*
X140466628Y-105405180D01*
X140228533Y-105405180D01*
X140133295Y-105357561D01*
X140085676Y-105309942D01*
G04 #@! TO.C,Q5*
X140773161Y-124296419D02*
X140677923Y-124248800D01*
X140582685Y-124153561D01*
X140439828Y-124010704D01*
X140344590Y-123963085D01*
X140249352Y-123963085D01*
X140296971Y-124201180D02*
X140201733Y-124153561D01*
X140106495Y-124058323D01*
X140058876Y-123867847D01*
X140058876Y-123534514D01*
X140106495Y-123344038D01*
X140201733Y-123248800D01*
X140296971Y-123201180D01*
X140487447Y-123201180D01*
X140582685Y-123248800D01*
X140677923Y-123344038D01*
X140725542Y-123534514D01*
X140725542Y-123867847D01*
X140677923Y-124058323D01*
X140582685Y-124153561D01*
X140487447Y-124201180D01*
X140296971Y-124201180D01*
X141630304Y-123201180D02*
X141154114Y-123201180D01*
X141106495Y-123677371D01*
X141154114Y-123629752D01*
X141249352Y-123582133D01*
X141487447Y-123582133D01*
X141582685Y-123629752D01*
X141630304Y-123677371D01*
X141677923Y-123772609D01*
X141677923Y-124010704D01*
X141630304Y-124105942D01*
X141582685Y-124153561D01*
X141487447Y-124201180D01*
X141249352Y-124201180D01*
X141154114Y-124153561D01*
X141106495Y-124105942D01*
G04 #@! TO.C,Q6*
X141027161Y-129895219D02*
X140931923Y-129847600D01*
X140836685Y-129752361D01*
X140693828Y-129609504D01*
X140598590Y-129561885D01*
X140503352Y-129561885D01*
X140550971Y-129799980D02*
X140455733Y-129752361D01*
X140360495Y-129657123D01*
X140312876Y-129466647D01*
X140312876Y-129133314D01*
X140360495Y-128942838D01*
X140455733Y-128847600D01*
X140550971Y-128799980D01*
X140741447Y-128799980D01*
X140836685Y-128847600D01*
X140931923Y-128942838D01*
X140979542Y-129133314D01*
X140979542Y-129466647D01*
X140931923Y-129657123D01*
X140836685Y-129752361D01*
X140741447Y-129799980D01*
X140550971Y-129799980D01*
X141836685Y-128799980D02*
X141646209Y-128799980D01*
X141550971Y-128847600D01*
X141503352Y-128895219D01*
X141408114Y-129038076D01*
X141360495Y-129228552D01*
X141360495Y-129609504D01*
X141408114Y-129704742D01*
X141455733Y-129752361D01*
X141550971Y-129799980D01*
X141741447Y-129799980D01*
X141836685Y-129752361D01*
X141884304Y-129704742D01*
X141931923Y-129609504D01*
X141931923Y-129371409D01*
X141884304Y-129276171D01*
X141836685Y-129228552D01*
X141741447Y-129180933D01*
X141550971Y-129180933D01*
X141455733Y-129228552D01*
X141408114Y-129276171D01*
X141360495Y-129371409D01*
G04 #@! TO.C,R41*
X138983980Y-129979657D02*
X138507790Y-130312990D01*
X138983980Y-130551085D02*
X137983980Y-130551085D01*
X137983980Y-130170133D01*
X138031600Y-130074895D01*
X138079219Y-130027276D01*
X138174457Y-129979657D01*
X138317314Y-129979657D01*
X138412552Y-130027276D01*
X138460171Y-130074895D01*
X138507790Y-130170133D01*
X138507790Y-130551085D01*
X138317314Y-129122514D02*
X138983980Y-129122514D01*
X137936361Y-129360609D02*
X138650647Y-129598704D01*
X138650647Y-128979657D01*
X138983980Y-128074895D02*
X138983980Y-128646323D01*
X138983980Y-128360609D02*
X137983980Y-128360609D01*
X138126838Y-128455847D01*
X138222076Y-128551085D01*
X138269695Y-128646323D01*
G04 #@! TO.C,Q4*
X136455161Y-109147219D02*
X136359923Y-109099600D01*
X136264685Y-109004361D01*
X136121828Y-108861504D01*
X136026590Y-108813885D01*
X135931352Y-108813885D01*
X135978971Y-109051980D02*
X135883733Y-109004361D01*
X135788495Y-108909123D01*
X135740876Y-108718647D01*
X135740876Y-108385314D01*
X135788495Y-108194838D01*
X135883733Y-108099600D01*
X135978971Y-108051980D01*
X136169447Y-108051980D01*
X136264685Y-108099600D01*
X136359923Y-108194838D01*
X136407542Y-108385314D01*
X136407542Y-108718647D01*
X136359923Y-108909123D01*
X136264685Y-109004361D01*
X136169447Y-109051980D01*
X135978971Y-109051980D01*
X137264685Y-108385314D02*
X137264685Y-109051980D01*
X137026590Y-108004361D02*
X136788495Y-108718647D01*
X137407542Y-108718647D01*
G04 #@! TO.C,R24*
X141168380Y-112047257D02*
X140692190Y-112380590D01*
X141168380Y-112618685D02*
X140168380Y-112618685D01*
X140168380Y-112237733D01*
X140216000Y-112142495D01*
X140263619Y-112094876D01*
X140358857Y-112047257D01*
X140501714Y-112047257D01*
X140596952Y-112094876D01*
X140644571Y-112142495D01*
X140692190Y-112237733D01*
X140692190Y-112618685D01*
X140263619Y-111666304D02*
X140216000Y-111618685D01*
X140168380Y-111523447D01*
X140168380Y-111285352D01*
X140216000Y-111190114D01*
X140263619Y-111142495D01*
X140358857Y-111094876D01*
X140454095Y-111094876D01*
X140596952Y-111142495D01*
X141168380Y-111713923D01*
X141168380Y-111094876D01*
X140501714Y-110237733D02*
X141168380Y-110237733D01*
X140120761Y-110475828D02*
X140835047Y-110713923D01*
X140835047Y-110094876D01*
G04 #@! TO.C,R26*
X134411980Y-114739657D02*
X133935790Y-115072990D01*
X134411980Y-115311085D02*
X133411980Y-115311085D01*
X133411980Y-114930133D01*
X133459600Y-114834895D01*
X133507219Y-114787276D01*
X133602457Y-114739657D01*
X133745314Y-114739657D01*
X133840552Y-114787276D01*
X133888171Y-114834895D01*
X133935790Y-114930133D01*
X133935790Y-115311085D01*
X133507219Y-114358704D02*
X133459600Y-114311085D01*
X133411980Y-114215847D01*
X133411980Y-113977752D01*
X133459600Y-113882514D01*
X133507219Y-113834895D01*
X133602457Y-113787276D01*
X133697695Y-113787276D01*
X133840552Y-113834895D01*
X134411980Y-114406323D01*
X134411980Y-113787276D01*
X133411980Y-112930133D02*
X133411980Y-113120609D01*
X133459600Y-113215847D01*
X133507219Y-113263466D01*
X133650076Y-113358704D01*
X133840552Y-113406323D01*
X134221504Y-113406323D01*
X134316742Y-113358704D01*
X134364361Y-113311085D01*
X134411980Y-113215847D01*
X134411980Y-113025371D01*
X134364361Y-112930133D01*
X134316742Y-112882514D01*
X134221504Y-112834895D01*
X133983409Y-112834895D01*
X133888171Y-112882514D01*
X133840552Y-112930133D01*
X133792933Y-113025371D01*
X133792933Y-113215847D01*
X133840552Y-113311085D01*
X133888171Y-113358704D01*
X133983409Y-113406323D01*
G04 #@! TO.C,R29*
X137764780Y-121800857D02*
X137288590Y-122134190D01*
X137764780Y-122372285D02*
X136764780Y-122372285D01*
X136764780Y-121991333D01*
X136812400Y-121896095D01*
X136860019Y-121848476D01*
X136955257Y-121800857D01*
X137098114Y-121800857D01*
X137193352Y-121848476D01*
X137240971Y-121896095D01*
X137288590Y-121991333D01*
X137288590Y-122372285D01*
X136860019Y-121419904D02*
X136812400Y-121372285D01*
X136764780Y-121277047D01*
X136764780Y-121038952D01*
X136812400Y-120943714D01*
X136860019Y-120896095D01*
X136955257Y-120848476D01*
X137050495Y-120848476D01*
X137193352Y-120896095D01*
X137764780Y-121467523D01*
X137764780Y-120848476D01*
X137764780Y-120372285D02*
X137764780Y-120181809D01*
X137717161Y-120086571D01*
X137669542Y-120038952D01*
X137526685Y-119943714D01*
X137336209Y-119896095D01*
X136955257Y-119896095D01*
X136860019Y-119943714D01*
X136812400Y-119991333D01*
X136764780Y-120086571D01*
X136764780Y-120277047D01*
X136812400Y-120372285D01*
X136860019Y-120419904D01*
X136955257Y-120467523D01*
X137193352Y-120467523D01*
X137288590Y-120419904D01*
X137336209Y-120372285D01*
X137383828Y-120277047D01*
X137383828Y-120086571D01*
X137336209Y-119991333D01*
X137288590Y-119943714D01*
X137193352Y-119896095D01*
G04 #@! TO.C,R30*
X144317980Y-130589257D02*
X143841790Y-130922590D01*
X144317980Y-131160685D02*
X143317980Y-131160685D01*
X143317980Y-130779733D01*
X143365600Y-130684495D01*
X143413219Y-130636876D01*
X143508457Y-130589257D01*
X143651314Y-130589257D01*
X143746552Y-130636876D01*
X143794171Y-130684495D01*
X143841790Y-130779733D01*
X143841790Y-131160685D01*
X143317980Y-130255923D02*
X143317980Y-129636876D01*
X143698933Y-129970209D01*
X143698933Y-129827352D01*
X143746552Y-129732114D01*
X143794171Y-129684495D01*
X143889409Y-129636876D01*
X144127504Y-129636876D01*
X144222742Y-129684495D01*
X144270361Y-129732114D01*
X144317980Y-129827352D01*
X144317980Y-130113066D01*
X144270361Y-130208304D01*
X144222742Y-130255923D01*
X143317980Y-129017828D02*
X143317980Y-128922590D01*
X143365600Y-128827352D01*
X143413219Y-128779733D01*
X143508457Y-128732114D01*
X143698933Y-128684495D01*
X143937028Y-128684495D01*
X144127504Y-128732114D01*
X144222742Y-128779733D01*
X144270361Y-128827352D01*
X144317980Y-128922590D01*
X144317980Y-129017828D01*
X144270361Y-129113066D01*
X144222742Y-129160685D01*
X144127504Y-129208304D01*
X143937028Y-129255923D01*
X143698933Y-129255923D01*
X143508457Y-129208304D01*
X143413219Y-129160685D01*
X143365600Y-129113066D01*
X143317980Y-129017828D01*
G04 #@! TO.C,R31*
X146197580Y-121597657D02*
X145721390Y-121930990D01*
X146197580Y-122169085D02*
X145197580Y-122169085D01*
X145197580Y-121788133D01*
X145245200Y-121692895D01*
X145292819Y-121645276D01*
X145388057Y-121597657D01*
X145530914Y-121597657D01*
X145626152Y-121645276D01*
X145673771Y-121692895D01*
X145721390Y-121788133D01*
X145721390Y-122169085D01*
X145197580Y-121264323D02*
X145197580Y-120645276D01*
X145578533Y-120978609D01*
X145578533Y-120835752D01*
X145626152Y-120740514D01*
X145673771Y-120692895D01*
X145769009Y-120645276D01*
X146007104Y-120645276D01*
X146102342Y-120692895D01*
X146149961Y-120740514D01*
X146197580Y-120835752D01*
X146197580Y-121121466D01*
X146149961Y-121216704D01*
X146102342Y-121264323D01*
X146197580Y-119692895D02*
X146197580Y-120264323D01*
X146197580Y-119978609D02*
X145197580Y-119978609D01*
X145340438Y-120073847D01*
X145435676Y-120169085D01*
X145483295Y-120264323D01*
G04 #@! TO.C,U3*
X120791380Y-72749904D02*
X121600904Y-72749904D01*
X121696142Y-72702285D01*
X121743761Y-72654666D01*
X121791380Y-72559428D01*
X121791380Y-72368952D01*
X121743761Y-72273714D01*
X121696142Y-72226095D01*
X121600904Y-72178476D01*
X120791380Y-72178476D01*
X120791380Y-71797523D02*
X120791380Y-71178476D01*
X121172333Y-71511809D01*
X121172333Y-71368952D01*
X121219952Y-71273714D01*
X121267571Y-71226095D01*
X121362809Y-71178476D01*
X121600904Y-71178476D01*
X121696142Y-71226095D01*
X121743761Y-71273714D01*
X121791380Y-71368952D01*
X121791380Y-71654666D01*
X121743761Y-71749904D01*
X121696142Y-71797523D01*
G04 #@! TO.C,C25*
X131564142Y-104420942D02*
X131516523Y-104468561D01*
X131373666Y-104516180D01*
X131278428Y-104516180D01*
X131135571Y-104468561D01*
X131040333Y-104373323D01*
X130992714Y-104278085D01*
X130945095Y-104087609D01*
X130945095Y-103944752D01*
X130992714Y-103754276D01*
X131040333Y-103659038D01*
X131135571Y-103563800D01*
X131278428Y-103516180D01*
X131373666Y-103516180D01*
X131516523Y-103563800D01*
X131564142Y-103611419D01*
X131945095Y-103611419D02*
X131992714Y-103563800D01*
X132087952Y-103516180D01*
X132326047Y-103516180D01*
X132421285Y-103563800D01*
X132468904Y-103611419D01*
X132516523Y-103706657D01*
X132516523Y-103801895D01*
X132468904Y-103944752D01*
X131897476Y-104516180D01*
X132516523Y-104516180D01*
X133421285Y-103516180D02*
X132945095Y-103516180D01*
X132897476Y-103992371D01*
X132945095Y-103944752D01*
X133040333Y-103897133D01*
X133278428Y-103897133D01*
X133373666Y-103944752D01*
X133421285Y-103992371D01*
X133468904Y-104087609D01*
X133468904Y-104325704D01*
X133421285Y-104420942D01*
X133373666Y-104468561D01*
X133278428Y-104516180D01*
X133040333Y-104516180D01*
X132945095Y-104468561D01*
X132897476Y-104420942D01*
G04 #@! TO.C,C26*
X140361942Y-102395257D02*
X140409561Y-102442876D01*
X140457180Y-102585733D01*
X140457180Y-102680971D01*
X140409561Y-102823828D01*
X140314323Y-102919066D01*
X140219085Y-102966685D01*
X140028609Y-103014304D01*
X139885752Y-103014304D01*
X139695276Y-102966685D01*
X139600038Y-102919066D01*
X139504800Y-102823828D01*
X139457180Y-102680971D01*
X139457180Y-102585733D01*
X139504800Y-102442876D01*
X139552419Y-102395257D01*
X139552419Y-102014304D02*
X139504800Y-101966685D01*
X139457180Y-101871447D01*
X139457180Y-101633352D01*
X139504800Y-101538114D01*
X139552419Y-101490495D01*
X139647657Y-101442876D01*
X139742895Y-101442876D01*
X139885752Y-101490495D01*
X140457180Y-102061923D01*
X140457180Y-101442876D01*
X139457180Y-100585733D02*
X139457180Y-100776209D01*
X139504800Y-100871447D01*
X139552419Y-100919066D01*
X139695276Y-101014304D01*
X139885752Y-101061923D01*
X140266704Y-101061923D01*
X140361942Y-101014304D01*
X140409561Y-100966685D01*
X140457180Y-100871447D01*
X140457180Y-100680971D01*
X140409561Y-100585733D01*
X140361942Y-100538114D01*
X140266704Y-100490495D01*
X140028609Y-100490495D01*
X139933371Y-100538114D01*
X139885752Y-100585733D01*
X139838133Y-100680971D01*
X139838133Y-100871447D01*
X139885752Y-100966685D01*
X139933371Y-101014304D01*
X140028609Y-101061923D01*
G04 #@! TO.C,R5*
X127595333Y-93365580D02*
X127262000Y-92889390D01*
X127023904Y-93365580D02*
X127023904Y-92365580D01*
X127404857Y-92365580D01*
X127500095Y-92413200D01*
X127547714Y-92460819D01*
X127595333Y-92556057D01*
X127595333Y-92698914D01*
X127547714Y-92794152D01*
X127500095Y-92841771D01*
X127404857Y-92889390D01*
X127023904Y-92889390D01*
X128500095Y-92365580D02*
X128023904Y-92365580D01*
X127976285Y-92841771D01*
X128023904Y-92794152D01*
X128119142Y-92746533D01*
X128357238Y-92746533D01*
X128452476Y-92794152D01*
X128500095Y-92841771D01*
X128547714Y-92937009D01*
X128547714Y-93175104D01*
X128500095Y-93270342D01*
X128452476Y-93317961D01*
X128357238Y-93365580D01*
X128119142Y-93365580D01*
X128023904Y-93317961D01*
X127976285Y-93270342D01*
G04 #@! TO.C,R3*
X127163533Y-101214180D02*
X126830200Y-100737990D01*
X126592104Y-101214180D02*
X126592104Y-100214180D01*
X126973057Y-100214180D01*
X127068295Y-100261800D01*
X127115914Y-100309419D01*
X127163533Y-100404657D01*
X127163533Y-100547514D01*
X127115914Y-100642752D01*
X127068295Y-100690371D01*
X126973057Y-100737990D01*
X126592104Y-100737990D01*
X127496866Y-100214180D02*
X128115914Y-100214180D01*
X127782580Y-100595133D01*
X127925438Y-100595133D01*
X128020676Y-100642752D01*
X128068295Y-100690371D01*
X128115914Y-100785609D01*
X128115914Y-101023704D01*
X128068295Y-101118942D01*
X128020676Y-101166561D01*
X127925438Y-101214180D01*
X127639723Y-101214180D01*
X127544485Y-101166561D01*
X127496866Y-101118942D01*
G04 #@! TO.C,U1*
X132261095Y-94372380D02*
X132261095Y-95181904D01*
X132308714Y-95277142D01*
X132356333Y-95324761D01*
X132451571Y-95372380D01*
X132642047Y-95372380D01*
X132737285Y-95324761D01*
X132784904Y-95277142D01*
X132832523Y-95181904D01*
X132832523Y-94372380D01*
X133832523Y-95372380D02*
X133261095Y-95372380D01*
X133546809Y-95372380D02*
X133546809Y-94372380D01*
X133451571Y-94515238D01*
X133356333Y-94610476D01*
X133261095Y-94658095D01*
G04 #@! TO.C,D3*
X150722104Y-76957180D02*
X150722104Y-75957180D01*
X150960200Y-75957180D01*
X151103057Y-76004800D01*
X151198295Y-76100038D01*
X151245914Y-76195276D01*
X151293533Y-76385752D01*
X151293533Y-76528609D01*
X151245914Y-76719085D01*
X151198295Y-76814323D01*
X151103057Y-76909561D01*
X150960200Y-76957180D01*
X150722104Y-76957180D01*
X151626866Y-75957180D02*
X152245914Y-75957180D01*
X151912580Y-76338133D01*
X152055438Y-76338133D01*
X152150676Y-76385752D01*
X152198295Y-76433371D01*
X152245914Y-76528609D01*
X152245914Y-76766704D01*
X152198295Y-76861942D01*
X152150676Y-76909561D01*
X152055438Y-76957180D01*
X151769723Y-76957180D01*
X151674485Y-76909561D01*
X151626866Y-76861942D01*
G04 #@! TO.C,C1*
X112933142Y-115000066D02*
X112980761Y-115047685D01*
X113028380Y-115190542D01*
X113028380Y-115285780D01*
X112980761Y-115428638D01*
X112885523Y-115523876D01*
X112790285Y-115571495D01*
X112599809Y-115619114D01*
X112456952Y-115619114D01*
X112266476Y-115571495D01*
X112171238Y-115523876D01*
X112076000Y-115428638D01*
X112028380Y-115285780D01*
X112028380Y-115190542D01*
X112076000Y-115047685D01*
X112123619Y-115000066D01*
X113028380Y-114047685D02*
X113028380Y-114619114D01*
X113028380Y-114333400D02*
X112028380Y-114333400D01*
X112171238Y-114428638D01*
X112266476Y-114523876D01*
X112314095Y-114619114D01*
G04 #@! TO.C,C2*
X114504742Y-115127066D02*
X114552361Y-115174685D01*
X114599980Y-115317542D01*
X114599980Y-115412780D01*
X114552361Y-115555638D01*
X114457123Y-115650876D01*
X114361885Y-115698495D01*
X114171409Y-115746114D01*
X114028552Y-115746114D01*
X113838076Y-115698495D01*
X113742838Y-115650876D01*
X113647600Y-115555638D01*
X113599980Y-115412780D01*
X113599980Y-115317542D01*
X113647600Y-115174685D01*
X113695219Y-115127066D01*
X113695219Y-114746114D02*
X113647600Y-114698495D01*
X113599980Y-114603257D01*
X113599980Y-114365161D01*
X113647600Y-114269923D01*
X113695219Y-114222304D01*
X113790457Y-114174685D01*
X113885695Y-114174685D01*
X114028552Y-114222304D01*
X114599980Y-114793733D01*
X114599980Y-114174685D01*
G04 #@! TO.C,C3*
X116981333Y-100793142D02*
X116933714Y-100840761D01*
X116790857Y-100888380D01*
X116695619Y-100888380D01*
X116552761Y-100840761D01*
X116457523Y-100745523D01*
X116409904Y-100650285D01*
X116362285Y-100459809D01*
X116362285Y-100316952D01*
X116409904Y-100126476D01*
X116457523Y-100031238D01*
X116552761Y-99936000D01*
X116695619Y-99888380D01*
X116790857Y-99888380D01*
X116933714Y-99936000D01*
X116981333Y-99983619D01*
X117314666Y-99888380D02*
X117933714Y-99888380D01*
X117600380Y-100269333D01*
X117743238Y-100269333D01*
X117838476Y-100316952D01*
X117886095Y-100364571D01*
X117933714Y-100459809D01*
X117933714Y-100697904D01*
X117886095Y-100793142D01*
X117838476Y-100840761D01*
X117743238Y-100888380D01*
X117457523Y-100888380D01*
X117362285Y-100840761D01*
X117314666Y-100793142D01*
G04 #@! TO.C,C4*
X104786133Y-101804742D02*
X104738514Y-101852361D01*
X104595657Y-101899980D01*
X104500419Y-101899980D01*
X104357561Y-101852361D01*
X104262323Y-101757123D01*
X104214704Y-101661885D01*
X104167085Y-101471409D01*
X104167085Y-101328552D01*
X104214704Y-101138076D01*
X104262323Y-101042838D01*
X104357561Y-100947600D01*
X104500419Y-100899980D01*
X104595657Y-100899980D01*
X104738514Y-100947600D01*
X104786133Y-100995219D01*
X105643276Y-101233314D02*
X105643276Y-101899980D01*
X105405180Y-100852361D02*
X105167085Y-101566647D01*
X105786133Y-101566647D01*
G04 #@! TO.C,C5*
X114001879Y-62431437D02*
X113954260Y-62479056D01*
X113811403Y-62526675D01*
X113716165Y-62526675D01*
X113573307Y-62479056D01*
X113478069Y-62383818D01*
X113430450Y-62288580D01*
X113382831Y-62098104D01*
X113382831Y-61955247D01*
X113430450Y-61764771D01*
X113478069Y-61669533D01*
X113573307Y-61574295D01*
X113716165Y-61526675D01*
X113811403Y-61526675D01*
X113954260Y-61574295D01*
X114001879Y-61621914D01*
X114906641Y-61526675D02*
X114430450Y-61526675D01*
X114382831Y-62002866D01*
X114430450Y-61955247D01*
X114525688Y-61907628D01*
X114763784Y-61907628D01*
X114859022Y-61955247D01*
X114906641Y-62002866D01*
X114954260Y-62098104D01*
X114954260Y-62336199D01*
X114906641Y-62431437D01*
X114859022Y-62479056D01*
X114763784Y-62526675D01*
X114525688Y-62526675D01*
X114430450Y-62479056D01*
X114382831Y-62431437D01*
G04 #@! TO.C,C7*
X102119133Y-112447342D02*
X102071514Y-112494961D01*
X101928657Y-112542580D01*
X101833419Y-112542580D01*
X101690561Y-112494961D01*
X101595323Y-112399723D01*
X101547704Y-112304485D01*
X101500085Y-112114009D01*
X101500085Y-111971152D01*
X101547704Y-111780676D01*
X101595323Y-111685438D01*
X101690561Y-111590200D01*
X101833419Y-111542580D01*
X101928657Y-111542580D01*
X102071514Y-111590200D01*
X102119133Y-111637819D01*
X102452466Y-111542580D02*
X103119133Y-111542580D01*
X102690561Y-112542580D01*
G04 #@! TO.C,C8*
X127738142Y-117159066D02*
X127785761Y-117206685D01*
X127833380Y-117349542D01*
X127833380Y-117444780D01*
X127785761Y-117587638D01*
X127690523Y-117682876D01*
X127595285Y-117730495D01*
X127404809Y-117778114D01*
X127261952Y-117778114D01*
X127071476Y-117730495D01*
X126976238Y-117682876D01*
X126881000Y-117587638D01*
X126833380Y-117444780D01*
X126833380Y-117349542D01*
X126881000Y-117206685D01*
X126928619Y-117159066D01*
X127261952Y-116587638D02*
X127214333Y-116682876D01*
X127166714Y-116730495D01*
X127071476Y-116778114D01*
X127023857Y-116778114D01*
X126928619Y-116730495D01*
X126881000Y-116682876D01*
X126833380Y-116587638D01*
X126833380Y-116397161D01*
X126881000Y-116301923D01*
X126928619Y-116254304D01*
X127023857Y-116206685D01*
X127071476Y-116206685D01*
X127166714Y-116254304D01*
X127214333Y-116301923D01*
X127261952Y-116397161D01*
X127261952Y-116587638D01*
X127309571Y-116682876D01*
X127357190Y-116730495D01*
X127452428Y-116778114D01*
X127642904Y-116778114D01*
X127738142Y-116730495D01*
X127785761Y-116682876D01*
X127833380Y-116587638D01*
X127833380Y-116397161D01*
X127785761Y-116301923D01*
X127738142Y-116254304D01*
X127642904Y-116206685D01*
X127452428Y-116206685D01*
X127357190Y-116254304D01*
X127309571Y-116301923D01*
X127261952Y-116397161D01*
G04 #@! TO.C,C11*
X164364942Y-72220057D02*
X164412561Y-72267676D01*
X164460180Y-72410533D01*
X164460180Y-72505771D01*
X164412561Y-72648628D01*
X164317323Y-72743866D01*
X164222085Y-72791485D01*
X164031609Y-72839104D01*
X163888752Y-72839104D01*
X163698276Y-72791485D01*
X163603038Y-72743866D01*
X163507800Y-72648628D01*
X163460180Y-72505771D01*
X163460180Y-72410533D01*
X163507800Y-72267676D01*
X163555419Y-72220057D01*
X164460180Y-71267676D02*
X164460180Y-71839104D01*
X164460180Y-71553390D02*
X163460180Y-71553390D01*
X163603038Y-71648628D01*
X163698276Y-71743866D01*
X163745895Y-71839104D01*
X164460180Y-70315295D02*
X164460180Y-70886723D01*
X164460180Y-70601009D02*
X163460180Y-70601009D01*
X163603038Y-70696247D01*
X163698276Y-70791485D01*
X163745895Y-70886723D01*
G04 #@! TO.C,C12*
X150817342Y-74956942D02*
X150769723Y-75004561D01*
X150626866Y-75052180D01*
X150531628Y-75052180D01*
X150388771Y-75004561D01*
X150293533Y-74909323D01*
X150245914Y-74814085D01*
X150198295Y-74623609D01*
X150198295Y-74480752D01*
X150245914Y-74290276D01*
X150293533Y-74195038D01*
X150388771Y-74099800D01*
X150531628Y-74052180D01*
X150626866Y-74052180D01*
X150769723Y-74099800D01*
X150817342Y-74147419D01*
X151769723Y-75052180D02*
X151198295Y-75052180D01*
X151484009Y-75052180D02*
X151484009Y-74052180D01*
X151388771Y-74195038D01*
X151293533Y-74290276D01*
X151198295Y-74337895D01*
X152150676Y-74147419D02*
X152198295Y-74099800D01*
X152293533Y-74052180D01*
X152531628Y-74052180D01*
X152626866Y-74099800D01*
X152674485Y-74147419D01*
X152722104Y-74242657D01*
X152722104Y-74337895D01*
X152674485Y-74480752D01*
X152103057Y-75052180D01*
X152722104Y-75052180D01*
G04 #@! TO.C,C13*
X157954742Y-57329342D02*
X157907123Y-57376961D01*
X157764266Y-57424580D01*
X157669028Y-57424580D01*
X157526171Y-57376961D01*
X157430933Y-57281723D01*
X157383314Y-57186485D01*
X157335695Y-56996009D01*
X157335695Y-56853152D01*
X157383314Y-56662676D01*
X157430933Y-56567438D01*
X157526171Y-56472200D01*
X157669028Y-56424580D01*
X157764266Y-56424580D01*
X157907123Y-56472200D01*
X157954742Y-56519819D01*
X158907123Y-57424580D02*
X158335695Y-57424580D01*
X158621409Y-57424580D02*
X158621409Y-56424580D01*
X158526171Y-56567438D01*
X158430933Y-56662676D01*
X158335695Y-56710295D01*
X159240457Y-56424580D02*
X159859504Y-56424580D01*
X159526171Y-56805533D01*
X159669028Y-56805533D01*
X159764266Y-56853152D01*
X159811885Y-56900771D01*
X159859504Y-56996009D01*
X159859504Y-57234104D01*
X159811885Y-57329342D01*
X159764266Y-57376961D01*
X159669028Y-57424580D01*
X159383314Y-57424580D01*
X159288076Y-57376961D01*
X159240457Y-57329342D01*
G04 #@! TO.C,C16*
X149779142Y-57232142D02*
X149731523Y-57279761D01*
X149588666Y-57327380D01*
X149493428Y-57327380D01*
X149350571Y-57279761D01*
X149255333Y-57184523D01*
X149207714Y-57089285D01*
X149160095Y-56898809D01*
X149160095Y-56755952D01*
X149207714Y-56565476D01*
X149255333Y-56470238D01*
X149350571Y-56375000D01*
X149493428Y-56327380D01*
X149588666Y-56327380D01*
X149731523Y-56375000D01*
X149779142Y-56422619D01*
X150731523Y-57327380D02*
X150160095Y-57327380D01*
X150445809Y-57327380D02*
X150445809Y-56327380D01*
X150350571Y-56470238D01*
X150255333Y-56565476D01*
X150160095Y-56613095D01*
X151588666Y-56327380D02*
X151398190Y-56327380D01*
X151302952Y-56375000D01*
X151255333Y-56422619D01*
X151160095Y-56565476D01*
X151112476Y-56755952D01*
X151112476Y-57136904D01*
X151160095Y-57232142D01*
X151207714Y-57279761D01*
X151302952Y-57327380D01*
X151493428Y-57327380D01*
X151588666Y-57279761D01*
X151636285Y-57232142D01*
X151683904Y-57136904D01*
X151683904Y-56898809D01*
X151636285Y-56803571D01*
X151588666Y-56755952D01*
X151493428Y-56708333D01*
X151302952Y-56708333D01*
X151207714Y-56755952D01*
X151160095Y-56803571D01*
X151112476Y-56898809D01*
G04 #@! TO.C,C17*
X158157942Y-55754542D02*
X158110323Y-55802161D01*
X157967466Y-55849780D01*
X157872228Y-55849780D01*
X157729371Y-55802161D01*
X157634133Y-55706923D01*
X157586514Y-55611685D01*
X157538895Y-55421209D01*
X157538895Y-55278352D01*
X157586514Y-55087876D01*
X157634133Y-54992638D01*
X157729371Y-54897400D01*
X157872228Y-54849780D01*
X157967466Y-54849780D01*
X158110323Y-54897400D01*
X158157942Y-54945019D01*
X159110323Y-55849780D02*
X158538895Y-55849780D01*
X158824609Y-55849780D02*
X158824609Y-54849780D01*
X158729371Y-54992638D01*
X158634133Y-55087876D01*
X158538895Y-55135495D01*
X159443657Y-54849780D02*
X160110323Y-54849780D01*
X159681752Y-55849780D01*
G04 #@! TO.C,C18*
X155440142Y-77395342D02*
X155392523Y-77442961D01*
X155249666Y-77490580D01*
X155154428Y-77490580D01*
X155011571Y-77442961D01*
X154916333Y-77347723D01*
X154868714Y-77252485D01*
X154821095Y-77062009D01*
X154821095Y-76919152D01*
X154868714Y-76728676D01*
X154916333Y-76633438D01*
X155011571Y-76538200D01*
X155154428Y-76490580D01*
X155249666Y-76490580D01*
X155392523Y-76538200D01*
X155440142Y-76585819D01*
X156392523Y-77490580D02*
X155821095Y-77490580D01*
X156106809Y-77490580D02*
X156106809Y-76490580D01*
X156011571Y-76633438D01*
X155916333Y-76728676D01*
X155821095Y-76776295D01*
X156963952Y-76919152D02*
X156868714Y-76871533D01*
X156821095Y-76823914D01*
X156773476Y-76728676D01*
X156773476Y-76681057D01*
X156821095Y-76585819D01*
X156868714Y-76538200D01*
X156963952Y-76490580D01*
X157154428Y-76490580D01*
X157249666Y-76538200D01*
X157297285Y-76585819D01*
X157344904Y-76681057D01*
X157344904Y-76728676D01*
X157297285Y-76823914D01*
X157249666Y-76871533D01*
X157154428Y-76919152D01*
X156963952Y-76919152D01*
X156868714Y-76966771D01*
X156821095Y-77014390D01*
X156773476Y-77109628D01*
X156773476Y-77300104D01*
X156821095Y-77395342D01*
X156868714Y-77442961D01*
X156963952Y-77490580D01*
X157154428Y-77490580D01*
X157249666Y-77442961D01*
X157297285Y-77395342D01*
X157344904Y-77300104D01*
X157344904Y-77109628D01*
X157297285Y-77014390D01*
X157249666Y-76966771D01*
X157154428Y-76919152D01*
G04 #@! TO.C,C19*
X164276913Y-65110802D02*
X164229294Y-65158421D01*
X164086437Y-65206040D01*
X163991199Y-65206040D01*
X163848342Y-65158421D01*
X163753104Y-65063183D01*
X163705485Y-64967945D01*
X163657866Y-64777469D01*
X163657866Y-64634612D01*
X163705485Y-64444136D01*
X163753104Y-64348898D01*
X163848342Y-64253660D01*
X163991199Y-64206040D01*
X164086437Y-64206040D01*
X164229294Y-64253660D01*
X164276913Y-64301279D01*
X165229294Y-65206040D02*
X164657866Y-65206040D01*
X164943580Y-65206040D02*
X164943580Y-64206040D01*
X164848342Y-64348898D01*
X164753104Y-64444136D01*
X164657866Y-64491755D01*
X165705485Y-65206040D02*
X165895961Y-65206040D01*
X165991199Y-65158421D01*
X166038818Y-65110802D01*
X166134056Y-64967945D01*
X166181675Y-64777469D01*
X166181675Y-64396517D01*
X166134056Y-64301279D01*
X166086437Y-64253660D01*
X165991199Y-64206040D01*
X165800723Y-64206040D01*
X165705485Y-64253660D01*
X165657866Y-64301279D01*
X165610247Y-64396517D01*
X165610247Y-64634612D01*
X165657866Y-64729850D01*
X165705485Y-64777469D01*
X165800723Y-64825088D01*
X165991199Y-64825088D01*
X166086437Y-64777469D01*
X166134056Y-64729850D01*
X166181675Y-64634612D01*
G04 #@! TO.C,C21*
X171779651Y-65347232D02*
X171732032Y-65394851D01*
X171589175Y-65442470D01*
X171493937Y-65442470D01*
X171351080Y-65394851D01*
X171255842Y-65299613D01*
X171208223Y-65204375D01*
X171160604Y-65013899D01*
X171160604Y-64871042D01*
X171208223Y-64680566D01*
X171255842Y-64585328D01*
X171351080Y-64490090D01*
X171493937Y-64442470D01*
X171589175Y-64442470D01*
X171732032Y-64490090D01*
X171779651Y-64537709D01*
X172160604Y-64537709D02*
X172208223Y-64490090D01*
X172303461Y-64442470D01*
X172541556Y-64442470D01*
X172636794Y-64490090D01*
X172684413Y-64537709D01*
X172732032Y-64632947D01*
X172732032Y-64728185D01*
X172684413Y-64871042D01*
X172112985Y-65442470D01*
X172732032Y-65442470D01*
X173684413Y-65442470D02*
X173112985Y-65442470D01*
X173398699Y-65442470D02*
X173398699Y-64442470D01*
X173303461Y-64585328D01*
X173208223Y-64680566D01*
X173112985Y-64728185D01*
G04 #@! TO.C,C22*
X108424742Y-97715342D02*
X108377123Y-97762961D01*
X108234266Y-97810580D01*
X108139028Y-97810580D01*
X107996171Y-97762961D01*
X107900933Y-97667723D01*
X107853314Y-97572485D01*
X107805695Y-97382009D01*
X107805695Y-97239152D01*
X107853314Y-97048676D01*
X107900933Y-96953438D01*
X107996171Y-96858200D01*
X108139028Y-96810580D01*
X108234266Y-96810580D01*
X108377123Y-96858200D01*
X108424742Y-96905819D01*
X108805695Y-96905819D02*
X108853314Y-96858200D01*
X108948552Y-96810580D01*
X109186647Y-96810580D01*
X109281885Y-96858200D01*
X109329504Y-96905819D01*
X109377123Y-97001057D01*
X109377123Y-97096295D01*
X109329504Y-97239152D01*
X108758076Y-97810580D01*
X109377123Y-97810580D01*
X109758076Y-96905819D02*
X109805695Y-96858200D01*
X109900933Y-96810580D01*
X110139028Y-96810580D01*
X110234266Y-96858200D01*
X110281885Y-96905819D01*
X110329504Y-97001057D01*
X110329504Y-97096295D01*
X110281885Y-97239152D01*
X109710457Y-97810580D01*
X110329504Y-97810580D01*
G04 #@! TO.C,C23*
X106697542Y-90882742D02*
X106649923Y-90930361D01*
X106507066Y-90977980D01*
X106411828Y-90977980D01*
X106268971Y-90930361D01*
X106173733Y-90835123D01*
X106126114Y-90739885D01*
X106078495Y-90549409D01*
X106078495Y-90406552D01*
X106126114Y-90216076D01*
X106173733Y-90120838D01*
X106268971Y-90025600D01*
X106411828Y-89977980D01*
X106507066Y-89977980D01*
X106649923Y-90025600D01*
X106697542Y-90073219D01*
X107078495Y-90073219D02*
X107126114Y-90025600D01*
X107221352Y-89977980D01*
X107459447Y-89977980D01*
X107554685Y-90025600D01*
X107602304Y-90073219D01*
X107649923Y-90168457D01*
X107649923Y-90263695D01*
X107602304Y-90406552D01*
X107030876Y-90977980D01*
X107649923Y-90977980D01*
X107983257Y-89977980D02*
X108602304Y-89977980D01*
X108268971Y-90358933D01*
X108411828Y-90358933D01*
X108507066Y-90406552D01*
X108554685Y-90454171D01*
X108602304Y-90549409D01*
X108602304Y-90787504D01*
X108554685Y-90882742D01*
X108507066Y-90930361D01*
X108411828Y-90977980D01*
X108126114Y-90977980D01*
X108030876Y-90930361D01*
X107983257Y-90882742D01*
G04 #@! TO.C,C24*
X108475542Y-99036142D02*
X108427923Y-99083761D01*
X108285066Y-99131380D01*
X108189828Y-99131380D01*
X108046971Y-99083761D01*
X107951733Y-98988523D01*
X107904114Y-98893285D01*
X107856495Y-98702809D01*
X107856495Y-98559952D01*
X107904114Y-98369476D01*
X107951733Y-98274238D01*
X108046971Y-98179000D01*
X108189828Y-98131380D01*
X108285066Y-98131380D01*
X108427923Y-98179000D01*
X108475542Y-98226619D01*
X108856495Y-98226619D02*
X108904114Y-98179000D01*
X108999352Y-98131380D01*
X109237447Y-98131380D01*
X109332685Y-98179000D01*
X109380304Y-98226619D01*
X109427923Y-98321857D01*
X109427923Y-98417095D01*
X109380304Y-98559952D01*
X108808876Y-99131380D01*
X109427923Y-99131380D01*
X110285066Y-98464714D02*
X110285066Y-99131380D01*
X110046971Y-98083761D02*
X109808876Y-98798047D01*
X110427923Y-98798047D01*
G04 #@! TO.C,C27*
X159783542Y-94337142D02*
X159735923Y-94384761D01*
X159593066Y-94432380D01*
X159497828Y-94432380D01*
X159354971Y-94384761D01*
X159259733Y-94289523D01*
X159212114Y-94194285D01*
X159164495Y-94003809D01*
X159164495Y-93860952D01*
X159212114Y-93670476D01*
X159259733Y-93575238D01*
X159354971Y-93480000D01*
X159497828Y-93432380D01*
X159593066Y-93432380D01*
X159735923Y-93480000D01*
X159783542Y-93527619D01*
X160164495Y-93527619D02*
X160212114Y-93480000D01*
X160307352Y-93432380D01*
X160545447Y-93432380D01*
X160640685Y-93480000D01*
X160688304Y-93527619D01*
X160735923Y-93622857D01*
X160735923Y-93718095D01*
X160688304Y-93860952D01*
X160116876Y-94432380D01*
X160735923Y-94432380D01*
X161069257Y-93432380D02*
X161735923Y-93432380D01*
X161307352Y-94432380D01*
G04 #@! TO.C,C28*
X159836795Y-101963706D02*
X159789176Y-102011325D01*
X159646319Y-102058944D01*
X159551081Y-102058944D01*
X159408224Y-102011325D01*
X159312986Y-101916087D01*
X159265367Y-101820849D01*
X159217748Y-101630373D01*
X159217748Y-101487516D01*
X159265367Y-101297040D01*
X159312986Y-101201802D01*
X159408224Y-101106564D01*
X159551081Y-101058944D01*
X159646319Y-101058944D01*
X159789176Y-101106564D01*
X159836795Y-101154183D01*
X160217748Y-101154183D02*
X160265367Y-101106564D01*
X160360605Y-101058944D01*
X160598700Y-101058944D01*
X160693938Y-101106564D01*
X160741557Y-101154183D01*
X160789176Y-101249421D01*
X160789176Y-101344659D01*
X160741557Y-101487516D01*
X160170129Y-102058944D01*
X160789176Y-102058944D01*
X161360605Y-101487516D02*
X161265367Y-101439897D01*
X161217748Y-101392278D01*
X161170129Y-101297040D01*
X161170129Y-101249421D01*
X161217748Y-101154183D01*
X161265367Y-101106564D01*
X161360605Y-101058944D01*
X161551081Y-101058944D01*
X161646319Y-101106564D01*
X161693938Y-101154183D01*
X161741557Y-101249421D01*
X161741557Y-101297040D01*
X161693938Y-101392278D01*
X161646319Y-101439897D01*
X161551081Y-101487516D01*
X161360605Y-101487516D01*
X161265367Y-101535135D01*
X161217748Y-101582754D01*
X161170129Y-101677992D01*
X161170129Y-101868468D01*
X161217748Y-101963706D01*
X161265367Y-102011325D01*
X161360605Y-102058944D01*
X161551081Y-102058944D01*
X161646319Y-102011325D01*
X161693938Y-101963706D01*
X161741557Y-101868468D01*
X161741557Y-101677992D01*
X161693938Y-101582754D01*
X161646319Y-101535135D01*
X161551081Y-101487516D01*
G04 #@! TO.C,C29*
X124744142Y-80250857D02*
X124791761Y-80298476D01*
X124839380Y-80441333D01*
X124839380Y-80536571D01*
X124791761Y-80679428D01*
X124696523Y-80774666D01*
X124601285Y-80822285D01*
X124410809Y-80869904D01*
X124267952Y-80869904D01*
X124077476Y-80822285D01*
X123982238Y-80774666D01*
X123887000Y-80679428D01*
X123839380Y-80536571D01*
X123839380Y-80441333D01*
X123887000Y-80298476D01*
X123934619Y-80250857D01*
X123934619Y-79869904D02*
X123887000Y-79822285D01*
X123839380Y-79727047D01*
X123839380Y-79488952D01*
X123887000Y-79393714D01*
X123934619Y-79346095D01*
X124029857Y-79298476D01*
X124125095Y-79298476D01*
X124267952Y-79346095D01*
X124839380Y-79917523D01*
X124839380Y-79298476D01*
X124839380Y-78822285D02*
X124839380Y-78631809D01*
X124791761Y-78536571D01*
X124744142Y-78488952D01*
X124601285Y-78393714D01*
X124410809Y-78346095D01*
X124029857Y-78346095D01*
X123934619Y-78393714D01*
X123887000Y-78441333D01*
X123839380Y-78536571D01*
X123839380Y-78727047D01*
X123887000Y-78822285D01*
X123934619Y-78869904D01*
X124029857Y-78917523D01*
X124267952Y-78917523D01*
X124363190Y-78869904D01*
X124410809Y-78822285D01*
X124458428Y-78727047D01*
X124458428Y-78536571D01*
X124410809Y-78441333D01*
X124363190Y-78393714D01*
X124267952Y-78346095D01*
G04 #@! TO.C,C30*
X130303542Y-108338857D02*
X130351161Y-108386476D01*
X130398780Y-108529333D01*
X130398780Y-108624571D01*
X130351161Y-108767428D01*
X130255923Y-108862666D01*
X130160685Y-108910285D01*
X129970209Y-108957904D01*
X129827352Y-108957904D01*
X129636876Y-108910285D01*
X129541638Y-108862666D01*
X129446400Y-108767428D01*
X129398780Y-108624571D01*
X129398780Y-108529333D01*
X129446400Y-108386476D01*
X129494019Y-108338857D01*
X129398780Y-108005523D02*
X129398780Y-107386476D01*
X129779733Y-107719809D01*
X129779733Y-107576952D01*
X129827352Y-107481714D01*
X129874971Y-107434095D01*
X129970209Y-107386476D01*
X130208304Y-107386476D01*
X130303542Y-107434095D01*
X130351161Y-107481714D01*
X130398780Y-107576952D01*
X130398780Y-107862666D01*
X130351161Y-107957904D01*
X130303542Y-108005523D01*
X129398780Y-106767428D02*
X129398780Y-106672190D01*
X129446400Y-106576952D01*
X129494019Y-106529333D01*
X129589257Y-106481714D01*
X129779733Y-106434095D01*
X130017828Y-106434095D01*
X130208304Y-106481714D01*
X130303542Y-106529333D01*
X130351161Y-106576952D01*
X130398780Y-106672190D01*
X130398780Y-106767428D01*
X130351161Y-106862666D01*
X130303542Y-106910285D01*
X130208304Y-106957904D01*
X130017828Y-107005523D01*
X129779733Y-107005523D01*
X129589257Y-106957904D01*
X129494019Y-106910285D01*
X129446400Y-106862666D01*
X129398780Y-106767428D01*
G04 #@! TO.C,D1*
X166114380Y-55073095D02*
X165114380Y-55073095D01*
X165114380Y-54835000D01*
X165162000Y-54692142D01*
X165257238Y-54596904D01*
X165352476Y-54549285D01*
X165542952Y-54501666D01*
X165685809Y-54501666D01*
X165876285Y-54549285D01*
X165971523Y-54596904D01*
X166066761Y-54692142D01*
X166114380Y-54835000D01*
X166114380Y-55073095D01*
X166114380Y-53549285D02*
X166114380Y-54120714D01*
X166114380Y-53835000D02*
X165114380Y-53835000D01*
X165257238Y-53930238D01*
X165352476Y-54025476D01*
X165400095Y-54120714D01*
G04 #@! TO.C,D2*
X156662380Y-114733295D02*
X155662380Y-114733295D01*
X155662380Y-114495200D01*
X155710000Y-114352342D01*
X155805238Y-114257104D01*
X155900476Y-114209485D01*
X156090952Y-114161866D01*
X156233809Y-114161866D01*
X156424285Y-114209485D01*
X156519523Y-114257104D01*
X156614761Y-114352342D01*
X156662380Y-114495200D01*
X156662380Y-114733295D01*
X155757619Y-113780914D02*
X155710000Y-113733295D01*
X155662380Y-113638057D01*
X155662380Y-113399961D01*
X155710000Y-113304723D01*
X155757619Y-113257104D01*
X155852857Y-113209485D01*
X155948095Y-113209485D01*
X156090952Y-113257104D01*
X156662380Y-113828533D01*
X156662380Y-113209485D01*
G04 #@! TO.C,D4*
X140181104Y-114091980D02*
X140181104Y-113091980D01*
X140419200Y-113091980D01*
X140562057Y-113139600D01*
X140657295Y-113234838D01*
X140704914Y-113330076D01*
X140752533Y-113520552D01*
X140752533Y-113663409D01*
X140704914Y-113853885D01*
X140657295Y-113949123D01*
X140562057Y-114044361D01*
X140419200Y-114091980D01*
X140181104Y-114091980D01*
X141609676Y-113425314D02*
X141609676Y-114091980D01*
X141371580Y-113044361D02*
X141133485Y-113758647D01*
X141752533Y-113758647D01*
G04 #@! TO.C,D5*
X155004811Y-101500599D02*
X155004811Y-100500599D01*
X155242907Y-100500599D01*
X155385764Y-100548219D01*
X155481002Y-100643457D01*
X155528621Y-100738695D01*
X155576240Y-100929171D01*
X155576240Y-101072028D01*
X155528621Y-101262504D01*
X155481002Y-101357742D01*
X155385764Y-101452980D01*
X155242907Y-101500599D01*
X155004811Y-101500599D01*
X156481002Y-100500599D02*
X156004811Y-100500599D01*
X155957192Y-100976790D01*
X156004811Y-100929171D01*
X156100049Y-100881552D01*
X156338145Y-100881552D01*
X156433383Y-100929171D01*
X156481002Y-100976790D01*
X156528621Y-101072028D01*
X156528621Y-101310123D01*
X156481002Y-101405361D01*
X156433383Y-101452980D01*
X156338145Y-101500599D01*
X156100049Y-101500599D01*
X156004811Y-101452980D01*
X155957192Y-101405361D01*
G04 #@! TO.C,D8*
X126236380Y-47834095D02*
X125236380Y-47834095D01*
X125236380Y-47596000D01*
X125284000Y-47453142D01*
X125379238Y-47357904D01*
X125474476Y-47310285D01*
X125664952Y-47262666D01*
X125807809Y-47262666D01*
X125998285Y-47310285D01*
X126093523Y-47357904D01*
X126188761Y-47453142D01*
X126236380Y-47596000D01*
X126236380Y-47834095D01*
X125664952Y-46691238D02*
X125617333Y-46786476D01*
X125569714Y-46834095D01*
X125474476Y-46881714D01*
X125426857Y-46881714D01*
X125331619Y-46834095D01*
X125284000Y-46786476D01*
X125236380Y-46691238D01*
X125236380Y-46500761D01*
X125284000Y-46405523D01*
X125331619Y-46357904D01*
X125426857Y-46310285D01*
X125474476Y-46310285D01*
X125569714Y-46357904D01*
X125617333Y-46405523D01*
X125664952Y-46500761D01*
X125664952Y-46691238D01*
X125712571Y-46786476D01*
X125760190Y-46834095D01*
X125855428Y-46881714D01*
X126045904Y-46881714D01*
X126141142Y-46834095D01*
X126188761Y-46786476D01*
X126236380Y-46691238D01*
X126236380Y-46500761D01*
X126188761Y-46405523D01*
X126141142Y-46357904D01*
X126045904Y-46310285D01*
X125855428Y-46310285D01*
X125760190Y-46357904D01*
X125712571Y-46405523D01*
X125664952Y-46500761D01*
G04 #@! TO.C,F2*
X90462166Y-79981071D02*
X90128833Y-79981071D01*
X90128833Y-80504880D02*
X90128833Y-79504880D01*
X90605023Y-79504880D01*
X90938357Y-79600119D02*
X90985976Y-79552500D01*
X91081214Y-79504880D01*
X91319309Y-79504880D01*
X91414547Y-79552500D01*
X91462166Y-79600119D01*
X91509785Y-79695357D01*
X91509785Y-79790595D01*
X91462166Y-79933452D01*
X90890738Y-80504880D01*
X91509785Y-80504880D01*
G04 #@! TO.C,J9*
X148409066Y-119187980D02*
X148409066Y-119902266D01*
X148361447Y-120045123D01*
X148266209Y-120140361D01*
X148123352Y-120187980D01*
X148028114Y-120187980D01*
X148932876Y-120187980D02*
X149123352Y-120187980D01*
X149218590Y-120140361D01*
X149266209Y-120092742D01*
X149361447Y-119949885D01*
X149409066Y-119759409D01*
X149409066Y-119378457D01*
X149361447Y-119283219D01*
X149313828Y-119235600D01*
X149218590Y-119187980D01*
X149028114Y-119187980D01*
X148932876Y-119235600D01*
X148885257Y-119283219D01*
X148837638Y-119378457D01*
X148837638Y-119616552D01*
X148885257Y-119711790D01*
X148932876Y-119759409D01*
X149028114Y-119807028D01*
X149218590Y-119807028D01*
X149313828Y-119759409D01*
X149361447Y-119711790D01*
X149409066Y-119616552D01*
G04 #@! TO.C,J10*
X159751780Y-85010523D02*
X160466066Y-85010523D01*
X160608923Y-85058142D01*
X160704161Y-85153380D01*
X160751780Y-85296238D01*
X160751780Y-85391476D01*
X160751780Y-84010523D02*
X160751780Y-84581952D01*
X160751780Y-84296238D02*
X159751780Y-84296238D01*
X159894638Y-84391476D01*
X159989876Y-84486714D01*
X160037495Y-84581952D01*
X159751780Y-83391476D02*
X159751780Y-83296238D01*
X159799400Y-83201000D01*
X159847019Y-83153380D01*
X159942257Y-83105761D01*
X160132733Y-83058142D01*
X160370828Y-83058142D01*
X160561304Y-83105761D01*
X160656542Y-83153380D01*
X160704161Y-83201000D01*
X160751780Y-83296238D01*
X160751780Y-83391476D01*
X160704161Y-83486714D01*
X160656542Y-83534333D01*
X160561304Y-83581952D01*
X160370828Y-83629571D01*
X160132733Y-83629571D01*
X159942257Y-83581952D01*
X159847019Y-83534333D01*
X159799400Y-83486714D01*
X159751780Y-83391476D01*
G04 #@! TO.C,J12*
X80778476Y-124018380D02*
X80778476Y-124732666D01*
X80730857Y-124875523D01*
X80635619Y-124970761D01*
X80492761Y-125018380D01*
X80397523Y-125018380D01*
X81778476Y-125018380D02*
X81207047Y-125018380D01*
X81492761Y-125018380D02*
X81492761Y-124018380D01*
X81397523Y-124161238D01*
X81302285Y-124256476D01*
X81207047Y-124304095D01*
X82159428Y-124113619D02*
X82207047Y-124066000D01*
X82302285Y-124018380D01*
X82540380Y-124018380D01*
X82635619Y-124066000D01*
X82683238Y-124113619D01*
X82730857Y-124208857D01*
X82730857Y-124304095D01*
X82683238Y-124446952D01*
X82111809Y-125018380D01*
X82730857Y-125018380D01*
G04 #@! TO.C,J14*
X172726476Y-125415380D02*
X172726476Y-126129666D01*
X172678857Y-126272523D01*
X172583619Y-126367761D01*
X172440761Y-126415380D01*
X172345523Y-126415380D01*
X173726476Y-126415380D02*
X173155047Y-126415380D01*
X173440761Y-126415380D02*
X173440761Y-125415380D01*
X173345523Y-125558238D01*
X173250285Y-125653476D01*
X173155047Y-125701095D01*
X174583619Y-125748714D02*
X174583619Y-126415380D01*
X174345523Y-125367761D02*
X174107428Y-126082047D01*
X174726476Y-126082047D01*
G04 #@! TO.C,J15*
X91668476Y-71694380D02*
X91668476Y-72408666D01*
X91620857Y-72551523D01*
X91525619Y-72646761D01*
X91382761Y-72694380D01*
X91287523Y-72694380D01*
X92668476Y-72694380D02*
X92097047Y-72694380D01*
X92382761Y-72694380D02*
X92382761Y-71694380D01*
X92287523Y-71837238D01*
X92192285Y-71932476D01*
X92097047Y-71980095D01*
X93573238Y-71694380D02*
X93097047Y-71694380D01*
X93049428Y-72170571D01*
X93097047Y-72122952D01*
X93192285Y-72075333D01*
X93430380Y-72075333D01*
X93525619Y-72122952D01*
X93573238Y-72170571D01*
X93620857Y-72265809D01*
X93620857Y-72503904D01*
X93573238Y-72599142D01*
X93525619Y-72646761D01*
X93430380Y-72694380D01*
X93192285Y-72694380D01*
X93097047Y-72646761D01*
X93049428Y-72599142D01*
G04 #@! TO.C,JP1*
X152817580Y-93797333D02*
X153531866Y-93797333D01*
X153674723Y-93844952D01*
X153769961Y-93940190D01*
X153817580Y-94083047D01*
X153817580Y-94178285D01*
X153817580Y-93321142D02*
X152817580Y-93321142D01*
X152817580Y-92940190D01*
X152865200Y-92844952D01*
X152912819Y-92797333D01*
X153008057Y-92749714D01*
X153150914Y-92749714D01*
X153246152Y-92797333D01*
X153293771Y-92844952D01*
X153341390Y-92940190D01*
X153341390Y-93321142D01*
X153817580Y-91797333D02*
X153817580Y-92368761D01*
X153817580Y-92083047D02*
X152817580Y-92083047D01*
X152960438Y-92178285D01*
X153055676Y-92273523D01*
X153103295Y-92368761D01*
G04 #@! TO.C,JP2*
X123296466Y-84516980D02*
X123296466Y-85231266D01*
X123248847Y-85374123D01*
X123153609Y-85469361D01*
X123010752Y-85516980D01*
X122915514Y-85516980D01*
X123772657Y-85516980D02*
X123772657Y-84516980D01*
X124153609Y-84516980D01*
X124248847Y-84564600D01*
X124296466Y-84612219D01*
X124344085Y-84707457D01*
X124344085Y-84850314D01*
X124296466Y-84945552D01*
X124248847Y-84993171D01*
X124153609Y-85040790D01*
X123772657Y-85040790D01*
X124725038Y-84612219D02*
X124772657Y-84564600D01*
X124867895Y-84516980D01*
X125105990Y-84516980D01*
X125201228Y-84564600D01*
X125248847Y-84612219D01*
X125296466Y-84707457D01*
X125296466Y-84802695D01*
X125248847Y-84945552D01*
X124677419Y-85516980D01*
X125296466Y-85516980D01*
G04 #@! TO.C,L2*
X167572604Y-66730040D02*
X167096413Y-66730040D01*
X167096413Y-65730040D01*
X167858318Y-65825279D02*
X167905937Y-65777660D01*
X168001175Y-65730040D01*
X168239271Y-65730040D01*
X168334509Y-65777660D01*
X168382128Y-65825279D01*
X168429747Y-65920517D01*
X168429747Y-66015755D01*
X168382128Y-66158612D01*
X167810699Y-66730040D01*
X168429747Y-66730040D01*
G04 #@! TO.C,L3*
X118527533Y-91968580D02*
X118051342Y-91968580D01*
X118051342Y-90968580D01*
X118765628Y-90968580D02*
X119384676Y-90968580D01*
X119051342Y-91349533D01*
X119194200Y-91349533D01*
X119289438Y-91397152D01*
X119337057Y-91444771D01*
X119384676Y-91540009D01*
X119384676Y-91778104D01*
X119337057Y-91873342D01*
X119289438Y-91920961D01*
X119194200Y-91968580D01*
X118908485Y-91968580D01*
X118813247Y-91920961D01*
X118765628Y-91873342D01*
G04 #@! TO.C,NPTH1*
X99741333Y-53199880D02*
X99741333Y-52199880D01*
X100312761Y-53199880D01*
X100312761Y-52199880D01*
X100788952Y-53199880D02*
X100788952Y-52199880D01*
X101169904Y-52199880D01*
X101265142Y-52247500D01*
X101312761Y-52295119D01*
X101360380Y-52390357D01*
X101360380Y-52533214D01*
X101312761Y-52628452D01*
X101265142Y-52676071D01*
X101169904Y-52723690D01*
X100788952Y-52723690D01*
X101646095Y-52199880D02*
X102217523Y-52199880D01*
X101931809Y-53199880D02*
X101931809Y-52199880D01*
X102550857Y-53199880D02*
X102550857Y-52199880D01*
X102550857Y-52676071D02*
X103122285Y-52676071D01*
X103122285Y-53199880D02*
X103122285Y-52199880D01*
X104122285Y-53199880D02*
X103550857Y-53199880D01*
X103836571Y-53199880D02*
X103836571Y-52199880D01*
X103741333Y-52342738D01*
X103646095Y-52437976D01*
X103550857Y-52485595D01*
G04 #@! TO.C,NPTH2*
X104821333Y-52120380D02*
X104821333Y-51120380D01*
X105392761Y-52120380D01*
X105392761Y-51120380D01*
X105868952Y-52120380D02*
X105868952Y-51120380D01*
X106249904Y-51120380D01*
X106345142Y-51168000D01*
X106392761Y-51215619D01*
X106440380Y-51310857D01*
X106440380Y-51453714D01*
X106392761Y-51548952D01*
X106345142Y-51596571D01*
X106249904Y-51644190D01*
X105868952Y-51644190D01*
X106726095Y-51120380D02*
X107297523Y-51120380D01*
X107011809Y-52120380D02*
X107011809Y-51120380D01*
X107630857Y-52120380D02*
X107630857Y-51120380D01*
X107630857Y-51596571D02*
X108202285Y-51596571D01*
X108202285Y-52120380D02*
X108202285Y-51120380D01*
X108630857Y-51215619D02*
X108678476Y-51168000D01*
X108773714Y-51120380D01*
X109011809Y-51120380D01*
X109107047Y-51168000D01*
X109154666Y-51215619D01*
X109202285Y-51310857D01*
X109202285Y-51406095D01*
X109154666Y-51548952D01*
X108583238Y-52120380D01*
X109202285Y-52120380D01*
G04 #@! TO.C,NPTH3*
X175560333Y-47421380D02*
X175560333Y-46421380D01*
X176131761Y-47421380D01*
X176131761Y-46421380D01*
X176607952Y-47421380D02*
X176607952Y-46421380D01*
X176988904Y-46421380D01*
X177084142Y-46469000D01*
X177131761Y-46516619D01*
X177179380Y-46611857D01*
X177179380Y-46754714D01*
X177131761Y-46849952D01*
X177084142Y-46897571D01*
X176988904Y-46945190D01*
X176607952Y-46945190D01*
X177465095Y-46421380D02*
X178036523Y-46421380D01*
X177750809Y-47421380D02*
X177750809Y-46421380D01*
X178369857Y-47421380D02*
X178369857Y-46421380D01*
X178369857Y-46897571D02*
X178941285Y-46897571D01*
X178941285Y-47421380D02*
X178941285Y-46421380D01*
X179322238Y-46421380D02*
X179941285Y-46421380D01*
X179607952Y-46802333D01*
X179750809Y-46802333D01*
X179846047Y-46849952D01*
X179893666Y-46897571D01*
X179941285Y-46992809D01*
X179941285Y-47230904D01*
X179893666Y-47326142D01*
X179846047Y-47373761D01*
X179750809Y-47421380D01*
X179465095Y-47421380D01*
X179369857Y-47373761D01*
X179322238Y-47326142D01*
G04 #@! TO.C,NPTH4*
X175560333Y-52120380D02*
X175560333Y-51120380D01*
X176131761Y-52120380D01*
X176131761Y-51120380D01*
X176607952Y-52120380D02*
X176607952Y-51120380D01*
X176988904Y-51120380D01*
X177084142Y-51168000D01*
X177131761Y-51215619D01*
X177179380Y-51310857D01*
X177179380Y-51453714D01*
X177131761Y-51548952D01*
X177084142Y-51596571D01*
X176988904Y-51644190D01*
X176607952Y-51644190D01*
X177465095Y-51120380D02*
X178036523Y-51120380D01*
X177750809Y-52120380D02*
X177750809Y-51120380D01*
X178369857Y-52120380D02*
X178369857Y-51120380D01*
X178369857Y-51596571D02*
X178941285Y-51596571D01*
X178941285Y-52120380D02*
X178941285Y-51120380D01*
X179846047Y-51453714D02*
X179846047Y-52120380D01*
X179607952Y-51072761D02*
X179369857Y-51787047D01*
X179988904Y-51787047D01*
G04 #@! TO.C,NPTH5*
X98598333Y-122351380D02*
X98598333Y-121351380D01*
X99169761Y-122351380D01*
X99169761Y-121351380D01*
X99645952Y-122351380D02*
X99645952Y-121351380D01*
X100026904Y-121351380D01*
X100122142Y-121399000D01*
X100169761Y-121446619D01*
X100217380Y-121541857D01*
X100217380Y-121684714D01*
X100169761Y-121779952D01*
X100122142Y-121827571D01*
X100026904Y-121875190D01*
X99645952Y-121875190D01*
X100503095Y-121351380D02*
X101074523Y-121351380D01*
X100788809Y-122351380D02*
X100788809Y-121351380D01*
X101407857Y-122351380D02*
X101407857Y-121351380D01*
X101407857Y-121827571D02*
X101979285Y-121827571D01*
X101979285Y-122351380D02*
X101979285Y-121351380D01*
X102931666Y-121351380D02*
X102455476Y-121351380D01*
X102407857Y-121827571D01*
X102455476Y-121779952D01*
X102550714Y-121732333D01*
X102788809Y-121732333D01*
X102884047Y-121779952D01*
X102931666Y-121827571D01*
X102979285Y-121922809D01*
X102979285Y-122160904D01*
X102931666Y-122256142D01*
X102884047Y-122303761D01*
X102788809Y-122351380D01*
X102550714Y-122351380D01*
X102455476Y-122303761D01*
X102407857Y-122256142D01*
G04 #@! TO.C,NPTH6*
X101392333Y-127177380D02*
X101392333Y-126177380D01*
X101963761Y-127177380D01*
X101963761Y-126177380D01*
X102439952Y-127177380D02*
X102439952Y-126177380D01*
X102820904Y-126177380D01*
X102916142Y-126225000D01*
X102963761Y-126272619D01*
X103011380Y-126367857D01*
X103011380Y-126510714D01*
X102963761Y-126605952D01*
X102916142Y-126653571D01*
X102820904Y-126701190D01*
X102439952Y-126701190D01*
X103297095Y-126177380D02*
X103868523Y-126177380D01*
X103582809Y-127177380D02*
X103582809Y-126177380D01*
X104201857Y-127177380D02*
X104201857Y-126177380D01*
X104201857Y-126653571D02*
X104773285Y-126653571D01*
X104773285Y-127177380D02*
X104773285Y-126177380D01*
X105678047Y-126177380D02*
X105487571Y-126177380D01*
X105392333Y-126225000D01*
X105344714Y-126272619D01*
X105249476Y-126415476D01*
X105201857Y-126605952D01*
X105201857Y-126986904D01*
X105249476Y-127082142D01*
X105297095Y-127129761D01*
X105392333Y-127177380D01*
X105582809Y-127177380D01*
X105678047Y-127129761D01*
X105725666Y-127082142D01*
X105773285Y-126986904D01*
X105773285Y-126748809D01*
X105725666Y-126653571D01*
X105678047Y-126605952D01*
X105582809Y-126558333D01*
X105392333Y-126558333D01*
X105297095Y-126605952D01*
X105249476Y-126653571D01*
X105201857Y-126748809D01*
G04 #@! TO.C,NPTH7*
X161336333Y-129971380D02*
X161336333Y-128971380D01*
X161907761Y-129971380D01*
X161907761Y-128971380D01*
X162383952Y-129971380D02*
X162383952Y-128971380D01*
X162764904Y-128971380D01*
X162860142Y-129019000D01*
X162907761Y-129066619D01*
X162955380Y-129161857D01*
X162955380Y-129304714D01*
X162907761Y-129399952D01*
X162860142Y-129447571D01*
X162764904Y-129495190D01*
X162383952Y-129495190D01*
X163241095Y-128971380D02*
X163812523Y-128971380D01*
X163526809Y-129971380D02*
X163526809Y-128971380D01*
X164145857Y-129971380D02*
X164145857Y-128971380D01*
X164145857Y-129447571D02*
X164717285Y-129447571D01*
X164717285Y-129971380D02*
X164717285Y-128971380D01*
X165098238Y-128971380D02*
X165764904Y-128971380D01*
X165336333Y-129971380D01*
G04 #@! TO.C,NPTH8*
X166289333Y-124383380D02*
X166289333Y-123383380D01*
X166860761Y-124383380D01*
X166860761Y-123383380D01*
X167336952Y-124383380D02*
X167336952Y-123383380D01*
X167717904Y-123383380D01*
X167813142Y-123431000D01*
X167860761Y-123478619D01*
X167908380Y-123573857D01*
X167908380Y-123716714D01*
X167860761Y-123811952D01*
X167813142Y-123859571D01*
X167717904Y-123907190D01*
X167336952Y-123907190D01*
X168194095Y-123383380D02*
X168765523Y-123383380D01*
X168479809Y-124383380D02*
X168479809Y-123383380D01*
X169098857Y-124383380D02*
X169098857Y-123383380D01*
X169098857Y-123859571D02*
X169670285Y-123859571D01*
X169670285Y-124383380D02*
X169670285Y-123383380D01*
X170289333Y-123811952D02*
X170194095Y-123764333D01*
X170146476Y-123716714D01*
X170098857Y-123621476D01*
X170098857Y-123573857D01*
X170146476Y-123478619D01*
X170194095Y-123431000D01*
X170289333Y-123383380D01*
X170479809Y-123383380D01*
X170575047Y-123431000D01*
X170622666Y-123478619D01*
X170670285Y-123573857D01*
X170670285Y-123621476D01*
X170622666Y-123716714D01*
X170575047Y-123764333D01*
X170479809Y-123811952D01*
X170289333Y-123811952D01*
X170194095Y-123859571D01*
X170146476Y-123907190D01*
X170098857Y-124002428D01*
X170098857Y-124192904D01*
X170146476Y-124288142D01*
X170194095Y-124335761D01*
X170289333Y-124383380D01*
X170479809Y-124383380D01*
X170575047Y-124335761D01*
X170622666Y-124288142D01*
X170670285Y-124192904D01*
X170670285Y-124002428D01*
X170622666Y-123907190D01*
X170575047Y-123859571D01*
X170479809Y-123811952D01*
G04 #@! TO.C,Q2*
X102066761Y-77869619D02*
X101971523Y-77822000D01*
X101876285Y-77726761D01*
X101733428Y-77583904D01*
X101638190Y-77536285D01*
X101542952Y-77536285D01*
X101590571Y-77774380D02*
X101495333Y-77726761D01*
X101400095Y-77631523D01*
X101352476Y-77441047D01*
X101352476Y-77107714D01*
X101400095Y-76917238D01*
X101495333Y-76822000D01*
X101590571Y-76774380D01*
X101781047Y-76774380D01*
X101876285Y-76822000D01*
X101971523Y-76917238D01*
X102019142Y-77107714D01*
X102019142Y-77441047D01*
X101971523Y-77631523D01*
X101876285Y-77726761D01*
X101781047Y-77774380D01*
X101590571Y-77774380D01*
X102400095Y-76869619D02*
X102447714Y-76822000D01*
X102542952Y-76774380D01*
X102781047Y-76774380D01*
X102876285Y-76822000D01*
X102923904Y-76869619D01*
X102971523Y-76964857D01*
X102971523Y-77060095D01*
X102923904Y-77202952D01*
X102352476Y-77774380D01*
X102971523Y-77774380D01*
G04 #@! TO.C,Q3*
X117794019Y-74263238D02*
X117746400Y-74358476D01*
X117651161Y-74453714D01*
X117508304Y-74596571D01*
X117460685Y-74691809D01*
X117460685Y-74787047D01*
X117698780Y-74739428D02*
X117651161Y-74834666D01*
X117555923Y-74929904D01*
X117365447Y-74977523D01*
X117032114Y-74977523D01*
X116841638Y-74929904D01*
X116746400Y-74834666D01*
X116698780Y-74739428D01*
X116698780Y-74548952D01*
X116746400Y-74453714D01*
X116841638Y-74358476D01*
X117032114Y-74310857D01*
X117365447Y-74310857D01*
X117555923Y-74358476D01*
X117651161Y-74453714D01*
X117698780Y-74548952D01*
X117698780Y-74739428D01*
X116698780Y-73977523D02*
X116698780Y-73358476D01*
X117079733Y-73691809D01*
X117079733Y-73548952D01*
X117127352Y-73453714D01*
X117174971Y-73406095D01*
X117270209Y-73358476D01*
X117508304Y-73358476D01*
X117603542Y-73406095D01*
X117651161Y-73453714D01*
X117698780Y-73548952D01*
X117698780Y-73834666D01*
X117651161Y-73929904D01*
X117603542Y-73977523D01*
G04 #@! TO.C,R1*
X104913133Y-100350580D02*
X104579800Y-99874390D01*
X104341704Y-100350580D02*
X104341704Y-99350580D01*
X104722657Y-99350580D01*
X104817895Y-99398200D01*
X104865514Y-99445819D01*
X104913133Y-99541057D01*
X104913133Y-99683914D01*
X104865514Y-99779152D01*
X104817895Y-99826771D01*
X104722657Y-99874390D01*
X104341704Y-99874390D01*
X105865514Y-100350580D02*
X105294085Y-100350580D01*
X105579800Y-100350580D02*
X105579800Y-99350580D01*
X105484561Y-99493438D01*
X105389323Y-99588676D01*
X105294085Y-99636295D01*
G04 #@! TO.C,R2*
X106183133Y-105201980D02*
X105849800Y-104725790D01*
X105611704Y-105201980D02*
X105611704Y-104201980D01*
X105992657Y-104201980D01*
X106087895Y-104249600D01*
X106135514Y-104297219D01*
X106183133Y-104392457D01*
X106183133Y-104535314D01*
X106135514Y-104630552D01*
X106087895Y-104678171D01*
X105992657Y-104725790D01*
X105611704Y-104725790D01*
X106564085Y-104297219D02*
X106611704Y-104249600D01*
X106706942Y-104201980D01*
X106945038Y-104201980D01*
X107040276Y-104249600D01*
X107087895Y-104297219D01*
X107135514Y-104392457D01*
X107135514Y-104487695D01*
X107087895Y-104630552D01*
X106516466Y-105201980D01*
X107135514Y-105201980D01*
G04 #@! TO.C,R4*
X163233986Y-88530944D02*
X162900653Y-88054754D01*
X162662557Y-88530944D02*
X162662557Y-87530944D01*
X163043510Y-87530944D01*
X163138748Y-87578564D01*
X163186367Y-87626183D01*
X163233986Y-87721421D01*
X163233986Y-87864278D01*
X163186367Y-87959516D01*
X163138748Y-88007135D01*
X163043510Y-88054754D01*
X162662557Y-88054754D01*
X164091129Y-87864278D02*
X164091129Y-88530944D01*
X163853033Y-87483325D02*
X163614938Y-88197611D01*
X164233986Y-88197611D01*
G04 #@! TO.C,R6*
X166789986Y-88530944D02*
X166456653Y-88054754D01*
X166218557Y-88530944D02*
X166218557Y-87530944D01*
X166599510Y-87530944D01*
X166694748Y-87578564D01*
X166742367Y-87626183D01*
X166789986Y-87721421D01*
X166789986Y-87864278D01*
X166742367Y-87959516D01*
X166694748Y-88007135D01*
X166599510Y-88054754D01*
X166218557Y-88054754D01*
X167647129Y-87530944D02*
X167456653Y-87530944D01*
X167361414Y-87578564D01*
X167313795Y-87626183D01*
X167218557Y-87769040D01*
X167170938Y-87959516D01*
X167170938Y-88340468D01*
X167218557Y-88435706D01*
X167266176Y-88483325D01*
X167361414Y-88530944D01*
X167551891Y-88530944D01*
X167647129Y-88483325D01*
X167694748Y-88435706D01*
X167742367Y-88340468D01*
X167742367Y-88102373D01*
X167694748Y-88007135D01*
X167647129Y-87959516D01*
X167551891Y-87911897D01*
X167361414Y-87911897D01*
X167266176Y-87959516D01*
X167218557Y-88007135D01*
X167170938Y-88102373D01*
G04 #@! TO.C,R7*
X125855380Y-65804666D02*
X125379190Y-66138000D01*
X125855380Y-66376095D02*
X124855380Y-66376095D01*
X124855380Y-65995142D01*
X124903000Y-65899904D01*
X124950619Y-65852285D01*
X125045857Y-65804666D01*
X125188714Y-65804666D01*
X125283952Y-65852285D01*
X125331571Y-65899904D01*
X125379190Y-65995142D01*
X125379190Y-66376095D01*
X124855380Y-65471333D02*
X124855380Y-64804666D01*
X125855380Y-65233238D01*
G04 #@! TO.C,R8*
X124077380Y-65804666D02*
X123601190Y-66138000D01*
X124077380Y-66376095D02*
X123077380Y-66376095D01*
X123077380Y-65995142D01*
X123125000Y-65899904D01*
X123172619Y-65852285D01*
X123267857Y-65804666D01*
X123410714Y-65804666D01*
X123505952Y-65852285D01*
X123553571Y-65899904D01*
X123601190Y-65995142D01*
X123601190Y-66376095D01*
X123505952Y-65233238D02*
X123458333Y-65328476D01*
X123410714Y-65376095D01*
X123315476Y-65423714D01*
X123267857Y-65423714D01*
X123172619Y-65376095D01*
X123125000Y-65328476D01*
X123077380Y-65233238D01*
X123077380Y-65042761D01*
X123125000Y-64947523D01*
X123172619Y-64899904D01*
X123267857Y-64852285D01*
X123315476Y-64852285D01*
X123410714Y-64899904D01*
X123458333Y-64947523D01*
X123505952Y-65042761D01*
X123505952Y-65233238D01*
X123553571Y-65328476D01*
X123601190Y-65376095D01*
X123696428Y-65423714D01*
X123886904Y-65423714D01*
X123982142Y-65376095D01*
X124029761Y-65328476D01*
X124077380Y-65233238D01*
X124077380Y-65042761D01*
X124029761Y-64947523D01*
X123982142Y-64899904D01*
X123886904Y-64852285D01*
X123696428Y-64852285D01*
X123601190Y-64899904D01*
X123553571Y-64947523D01*
X123505952Y-65042761D01*
G04 #@! TO.C,R9*
X123061380Y-79266666D02*
X122585190Y-79600000D01*
X123061380Y-79838095D02*
X122061380Y-79838095D01*
X122061380Y-79457142D01*
X122109000Y-79361904D01*
X122156619Y-79314285D01*
X122251857Y-79266666D01*
X122394714Y-79266666D01*
X122489952Y-79314285D01*
X122537571Y-79361904D01*
X122585190Y-79457142D01*
X122585190Y-79838095D01*
X123061380Y-78790476D02*
X123061380Y-78600000D01*
X123013761Y-78504761D01*
X122966142Y-78457142D01*
X122823285Y-78361904D01*
X122632809Y-78314285D01*
X122251857Y-78314285D01*
X122156619Y-78361904D01*
X122109000Y-78409523D01*
X122061380Y-78504761D01*
X122061380Y-78695238D01*
X122109000Y-78790476D01*
X122156619Y-78838095D01*
X122251857Y-78885714D01*
X122489952Y-78885714D01*
X122585190Y-78838095D01*
X122632809Y-78790476D01*
X122680428Y-78695238D01*
X122680428Y-78504761D01*
X122632809Y-78409523D01*
X122585190Y-78361904D01*
X122489952Y-78314285D01*
G04 #@! TO.C,R10*
X126871380Y-80250857D02*
X126395190Y-80584190D01*
X126871380Y-80822285D02*
X125871380Y-80822285D01*
X125871380Y-80441333D01*
X125919000Y-80346095D01*
X125966619Y-80298476D01*
X126061857Y-80250857D01*
X126204714Y-80250857D01*
X126299952Y-80298476D01*
X126347571Y-80346095D01*
X126395190Y-80441333D01*
X126395190Y-80822285D01*
X126871380Y-79298476D02*
X126871380Y-79869904D01*
X126871380Y-79584190D02*
X125871380Y-79584190D01*
X126014238Y-79679428D01*
X126109476Y-79774666D01*
X126157095Y-79869904D01*
X125871380Y-78679428D02*
X125871380Y-78584190D01*
X125919000Y-78488952D01*
X125966619Y-78441333D01*
X126061857Y-78393714D01*
X126252333Y-78346095D01*
X126490428Y-78346095D01*
X126680904Y-78393714D01*
X126776142Y-78441333D01*
X126823761Y-78488952D01*
X126871380Y-78584190D01*
X126871380Y-78679428D01*
X126823761Y-78774666D01*
X126776142Y-78822285D01*
X126680904Y-78869904D01*
X126490428Y-78917523D01*
X126252333Y-78917523D01*
X126061857Y-78869904D01*
X125966619Y-78822285D01*
X125919000Y-78774666D01*
X125871380Y-78679428D01*
G04 #@! TO.C,R11*
X119651542Y-104236780D02*
X119318209Y-103760590D01*
X119080114Y-104236780D02*
X119080114Y-103236780D01*
X119461066Y-103236780D01*
X119556304Y-103284400D01*
X119603923Y-103332019D01*
X119651542Y-103427257D01*
X119651542Y-103570114D01*
X119603923Y-103665352D01*
X119556304Y-103712971D01*
X119461066Y-103760590D01*
X119080114Y-103760590D01*
X120603923Y-104236780D02*
X120032495Y-104236780D01*
X120318209Y-104236780D02*
X120318209Y-103236780D01*
X120222971Y-103379638D01*
X120127733Y-103474876D01*
X120032495Y-103522495D01*
X121556304Y-104236780D02*
X120984876Y-104236780D01*
X121270590Y-104236780D02*
X121270590Y-103236780D01*
X121175352Y-103379638D01*
X121080114Y-103474876D01*
X120984876Y-103522495D01*
G04 #@! TO.C,R12*
X118457742Y-110129580D02*
X118124409Y-109653390D01*
X117886314Y-110129580D02*
X117886314Y-109129580D01*
X118267266Y-109129580D01*
X118362504Y-109177200D01*
X118410123Y-109224819D01*
X118457742Y-109320057D01*
X118457742Y-109462914D01*
X118410123Y-109558152D01*
X118362504Y-109605771D01*
X118267266Y-109653390D01*
X117886314Y-109653390D01*
X119410123Y-110129580D02*
X118838695Y-110129580D01*
X119124409Y-110129580D02*
X119124409Y-109129580D01*
X119029171Y-109272438D01*
X118933933Y-109367676D01*
X118838695Y-109415295D01*
X119791076Y-109224819D02*
X119838695Y-109177200D01*
X119933933Y-109129580D01*
X120172028Y-109129580D01*
X120267266Y-109177200D01*
X120314885Y-109224819D01*
X120362504Y-109320057D01*
X120362504Y-109415295D01*
X120314885Y-109558152D01*
X119743457Y-110129580D01*
X120362504Y-110129580D01*
G04 #@! TO.C,R13*
X161510742Y-58719980D02*
X161177409Y-58243790D01*
X160939314Y-58719980D02*
X160939314Y-57719980D01*
X161320266Y-57719980D01*
X161415504Y-57767600D01*
X161463123Y-57815219D01*
X161510742Y-57910457D01*
X161510742Y-58053314D01*
X161463123Y-58148552D01*
X161415504Y-58196171D01*
X161320266Y-58243790D01*
X160939314Y-58243790D01*
X162463123Y-58719980D02*
X161891695Y-58719980D01*
X162177409Y-58719980D02*
X162177409Y-57719980D01*
X162082171Y-57862838D01*
X161986933Y-57958076D01*
X161891695Y-58005695D01*
X162796457Y-57719980D02*
X163415504Y-57719980D01*
X163082171Y-58100933D01*
X163225028Y-58100933D01*
X163320266Y-58148552D01*
X163367885Y-58196171D01*
X163415504Y-58291409D01*
X163415504Y-58529504D01*
X163367885Y-58624742D01*
X163320266Y-58672361D01*
X163225028Y-58719980D01*
X162939314Y-58719980D01*
X162844076Y-58672361D01*
X162796457Y-58624742D01*
G04 #@! TO.C,R14*
X142333742Y-72689980D02*
X142000409Y-72213790D01*
X141762314Y-72689980D02*
X141762314Y-71689980D01*
X142143266Y-71689980D01*
X142238504Y-71737600D01*
X142286123Y-71785219D01*
X142333742Y-71880457D01*
X142333742Y-72023314D01*
X142286123Y-72118552D01*
X142238504Y-72166171D01*
X142143266Y-72213790D01*
X141762314Y-72213790D01*
X143286123Y-72689980D02*
X142714695Y-72689980D01*
X143000409Y-72689980D02*
X143000409Y-71689980D01*
X142905171Y-71832838D01*
X142809933Y-71928076D01*
X142714695Y-71975695D01*
X144143266Y-72023314D02*
X144143266Y-72689980D01*
X143905171Y-71642361D02*
X143667076Y-72356647D01*
X144286123Y-72356647D01*
G04 #@! TO.C,R15*
X165092142Y-68381040D02*
X164758809Y-67904850D01*
X164520714Y-68381040D02*
X164520714Y-67381040D01*
X164901666Y-67381040D01*
X164996904Y-67428660D01*
X165044523Y-67476279D01*
X165092142Y-67571517D01*
X165092142Y-67714374D01*
X165044523Y-67809612D01*
X164996904Y-67857231D01*
X164901666Y-67904850D01*
X164520714Y-67904850D01*
X166044523Y-68381040D02*
X165473095Y-68381040D01*
X165758809Y-68381040D02*
X165758809Y-67381040D01*
X165663571Y-67523898D01*
X165568333Y-67619136D01*
X165473095Y-67666755D01*
X166949285Y-67381040D02*
X166473095Y-67381040D01*
X166425476Y-67857231D01*
X166473095Y-67809612D01*
X166568333Y-67761993D01*
X166806428Y-67761993D01*
X166901666Y-67809612D01*
X166949285Y-67857231D01*
X166996904Y-67952469D01*
X166996904Y-68190564D01*
X166949285Y-68285802D01*
X166901666Y-68333421D01*
X166806428Y-68381040D01*
X166568333Y-68381040D01*
X166473095Y-68333421D01*
X166425476Y-68285802D01*
G04 #@! TO.C,R16*
X165015942Y-69743580D02*
X164682609Y-69267390D01*
X164444514Y-69743580D02*
X164444514Y-68743580D01*
X164825466Y-68743580D01*
X164920704Y-68791200D01*
X164968323Y-68838819D01*
X165015942Y-68934057D01*
X165015942Y-69076914D01*
X164968323Y-69172152D01*
X164920704Y-69219771D01*
X164825466Y-69267390D01*
X164444514Y-69267390D01*
X165968323Y-69743580D02*
X165396895Y-69743580D01*
X165682609Y-69743580D02*
X165682609Y-68743580D01*
X165587371Y-68886438D01*
X165492133Y-68981676D01*
X165396895Y-69029295D01*
X166825466Y-68743580D02*
X166634990Y-68743580D01*
X166539752Y-68791200D01*
X166492133Y-68838819D01*
X166396895Y-68981676D01*
X166349276Y-69172152D01*
X166349276Y-69553104D01*
X166396895Y-69648342D01*
X166444514Y-69695961D01*
X166539752Y-69743580D01*
X166730228Y-69743580D01*
X166825466Y-69695961D01*
X166873085Y-69648342D01*
X166920704Y-69553104D01*
X166920704Y-69315009D01*
X166873085Y-69219771D01*
X166825466Y-69172152D01*
X166730228Y-69124533D01*
X166539752Y-69124533D01*
X166444514Y-69172152D01*
X166396895Y-69219771D01*
X166349276Y-69315009D01*
G04 #@! TO.C,R17*
X171750142Y-63804380D02*
X171416809Y-63328190D01*
X171178714Y-63804380D02*
X171178714Y-62804380D01*
X171559666Y-62804380D01*
X171654904Y-62852000D01*
X171702523Y-62899619D01*
X171750142Y-62994857D01*
X171750142Y-63137714D01*
X171702523Y-63232952D01*
X171654904Y-63280571D01*
X171559666Y-63328190D01*
X171178714Y-63328190D01*
X172702523Y-63804380D02*
X172131095Y-63804380D01*
X172416809Y-63804380D02*
X172416809Y-62804380D01*
X172321571Y-62947238D01*
X172226333Y-63042476D01*
X172131095Y-63090095D01*
X173035857Y-62804380D02*
X173702523Y-62804380D01*
X173273952Y-63804380D01*
G04 #@! TO.C,R20*
X136166065Y-67762380D02*
X135832732Y-67286190D01*
X135594637Y-67762380D02*
X135594637Y-66762380D01*
X135975589Y-66762380D01*
X136070827Y-66810000D01*
X136118446Y-66857619D01*
X136166065Y-66952857D01*
X136166065Y-67095714D01*
X136118446Y-67190952D01*
X136070827Y-67238571D01*
X135975589Y-67286190D01*
X135594637Y-67286190D01*
X136547018Y-66857619D02*
X136594637Y-66810000D01*
X136689875Y-66762380D01*
X136927970Y-66762380D01*
X137023208Y-66810000D01*
X137070827Y-66857619D01*
X137118446Y-66952857D01*
X137118446Y-67048095D01*
X137070827Y-67190952D01*
X136499399Y-67762380D01*
X137118446Y-67762380D01*
X137737494Y-66762380D02*
X137832732Y-66762380D01*
X137927970Y-66810000D01*
X137975589Y-66857619D01*
X138023208Y-66952857D01*
X138070827Y-67143333D01*
X138070827Y-67381428D01*
X138023208Y-67571904D01*
X137975589Y-67667142D01*
X137927970Y-67714761D01*
X137832732Y-67762380D01*
X137737494Y-67762380D01*
X137642256Y-67714761D01*
X137594637Y-67667142D01*
X137547018Y-67571904D01*
X137499399Y-67381428D01*
X137499399Y-67143333D01*
X137547018Y-66952857D01*
X137594637Y-66857619D01*
X137642256Y-66810000D01*
X137737494Y-66762380D01*
G04 #@! TO.C,R21*
X94635642Y-78122380D02*
X94302309Y-77646190D01*
X94064214Y-78122380D02*
X94064214Y-77122380D01*
X94445166Y-77122380D01*
X94540404Y-77170000D01*
X94588023Y-77217619D01*
X94635642Y-77312857D01*
X94635642Y-77455714D01*
X94588023Y-77550952D01*
X94540404Y-77598571D01*
X94445166Y-77646190D01*
X94064214Y-77646190D01*
X95016595Y-77217619D02*
X95064214Y-77170000D01*
X95159452Y-77122380D01*
X95397547Y-77122380D01*
X95492785Y-77170000D01*
X95540404Y-77217619D01*
X95588023Y-77312857D01*
X95588023Y-77408095D01*
X95540404Y-77550952D01*
X94968976Y-78122380D01*
X95588023Y-78122380D01*
X96540404Y-78122380D02*
X95968976Y-78122380D01*
X96254690Y-78122380D02*
X96254690Y-77122380D01*
X96159452Y-77265238D01*
X96064214Y-77360476D01*
X95968976Y-77408095D01*
G04 #@! TO.C,R22*
X144191142Y-51358380D02*
X143857809Y-50882190D01*
X143619714Y-51358380D02*
X143619714Y-50358380D01*
X144000666Y-50358380D01*
X144095904Y-50406000D01*
X144143523Y-50453619D01*
X144191142Y-50548857D01*
X144191142Y-50691714D01*
X144143523Y-50786952D01*
X144095904Y-50834571D01*
X144000666Y-50882190D01*
X143619714Y-50882190D01*
X144572095Y-50453619D02*
X144619714Y-50406000D01*
X144714952Y-50358380D01*
X144953047Y-50358380D01*
X145048285Y-50406000D01*
X145095904Y-50453619D01*
X145143523Y-50548857D01*
X145143523Y-50644095D01*
X145095904Y-50786952D01*
X144524476Y-51358380D01*
X145143523Y-51358380D01*
X145524476Y-50453619D02*
X145572095Y-50406000D01*
X145667333Y-50358380D01*
X145905428Y-50358380D01*
X146000666Y-50406000D01*
X146048285Y-50453619D01*
X146095904Y-50548857D01*
X146095904Y-50644095D01*
X146048285Y-50786952D01*
X145476857Y-51358380D01*
X146095904Y-51358380D01*
G04 #@! TO.C,R23*
X98217142Y-78028380D02*
X97883809Y-77552190D01*
X97645714Y-78028380D02*
X97645714Y-77028380D01*
X98026666Y-77028380D01*
X98121904Y-77076000D01*
X98169523Y-77123619D01*
X98217142Y-77218857D01*
X98217142Y-77361714D01*
X98169523Y-77456952D01*
X98121904Y-77504571D01*
X98026666Y-77552190D01*
X97645714Y-77552190D01*
X98598095Y-77123619D02*
X98645714Y-77076000D01*
X98740952Y-77028380D01*
X98979047Y-77028380D01*
X99074285Y-77076000D01*
X99121904Y-77123619D01*
X99169523Y-77218857D01*
X99169523Y-77314095D01*
X99121904Y-77456952D01*
X98550476Y-78028380D01*
X99169523Y-78028380D01*
X99502857Y-77028380D02*
X100121904Y-77028380D01*
X99788571Y-77409333D01*
X99931428Y-77409333D01*
X100026666Y-77456952D01*
X100074285Y-77504571D01*
X100121904Y-77599809D01*
X100121904Y-77837904D01*
X100074285Y-77933142D01*
X100026666Y-77980761D01*
X99931428Y-78028380D01*
X99645714Y-78028380D01*
X99550476Y-77980761D01*
X99502857Y-77933142D01*
G04 #@! TO.C,R28*
X106218142Y-77774380D02*
X105884809Y-77298190D01*
X105646714Y-77774380D02*
X105646714Y-76774380D01*
X106027666Y-76774380D01*
X106122904Y-76822000D01*
X106170523Y-76869619D01*
X106218142Y-76964857D01*
X106218142Y-77107714D01*
X106170523Y-77202952D01*
X106122904Y-77250571D01*
X106027666Y-77298190D01*
X105646714Y-77298190D01*
X106599095Y-76869619D02*
X106646714Y-76822000D01*
X106741952Y-76774380D01*
X106980047Y-76774380D01*
X107075285Y-76822000D01*
X107122904Y-76869619D01*
X107170523Y-76964857D01*
X107170523Y-77060095D01*
X107122904Y-77202952D01*
X106551476Y-77774380D01*
X107170523Y-77774380D01*
X107741952Y-77202952D02*
X107646714Y-77155333D01*
X107599095Y-77107714D01*
X107551476Y-77012476D01*
X107551476Y-76964857D01*
X107599095Y-76869619D01*
X107646714Y-76822000D01*
X107741952Y-76774380D01*
X107932428Y-76774380D01*
X108027666Y-76822000D01*
X108075285Y-76869619D01*
X108122904Y-76964857D01*
X108122904Y-77012476D01*
X108075285Y-77107714D01*
X108027666Y-77155333D01*
X107932428Y-77202952D01*
X107741952Y-77202952D01*
X107646714Y-77250571D01*
X107599095Y-77298190D01*
X107551476Y-77393428D01*
X107551476Y-77583904D01*
X107599095Y-77679142D01*
X107646714Y-77726761D01*
X107741952Y-77774380D01*
X107932428Y-77774380D01*
X108027666Y-77726761D01*
X108075285Y-77679142D01*
X108122904Y-77583904D01*
X108122904Y-77393428D01*
X108075285Y-77298190D01*
X108027666Y-77250571D01*
X107932428Y-77202952D01*
G04 #@! TO.C,R32*
X125874542Y-110205780D02*
X125541209Y-109729590D01*
X125303114Y-110205780D02*
X125303114Y-109205780D01*
X125684066Y-109205780D01*
X125779304Y-109253400D01*
X125826923Y-109301019D01*
X125874542Y-109396257D01*
X125874542Y-109539114D01*
X125826923Y-109634352D01*
X125779304Y-109681971D01*
X125684066Y-109729590D01*
X125303114Y-109729590D01*
X126207876Y-109205780D02*
X126826923Y-109205780D01*
X126493590Y-109586733D01*
X126636447Y-109586733D01*
X126731685Y-109634352D01*
X126779304Y-109681971D01*
X126826923Y-109777209D01*
X126826923Y-110015304D01*
X126779304Y-110110542D01*
X126731685Y-110158161D01*
X126636447Y-110205780D01*
X126350733Y-110205780D01*
X126255495Y-110158161D01*
X126207876Y-110110542D01*
X127207876Y-109301019D02*
X127255495Y-109253400D01*
X127350733Y-109205780D01*
X127588828Y-109205780D01*
X127684066Y-109253400D01*
X127731685Y-109301019D01*
X127779304Y-109396257D01*
X127779304Y-109491495D01*
X127731685Y-109634352D01*
X127160257Y-110205780D01*
X127779304Y-110205780D01*
G04 #@! TO.C,R33*
X126179342Y-103474780D02*
X125846009Y-102998590D01*
X125607914Y-103474780D02*
X125607914Y-102474780D01*
X125988866Y-102474780D01*
X126084104Y-102522400D01*
X126131723Y-102570019D01*
X126179342Y-102665257D01*
X126179342Y-102808114D01*
X126131723Y-102903352D01*
X126084104Y-102950971D01*
X125988866Y-102998590D01*
X125607914Y-102998590D01*
X126512676Y-102474780D02*
X127131723Y-102474780D01*
X126798390Y-102855733D01*
X126941247Y-102855733D01*
X127036485Y-102903352D01*
X127084104Y-102950971D01*
X127131723Y-103046209D01*
X127131723Y-103284304D01*
X127084104Y-103379542D01*
X127036485Y-103427161D01*
X126941247Y-103474780D01*
X126655533Y-103474780D01*
X126560295Y-103427161D01*
X126512676Y-103379542D01*
X127465057Y-102474780D02*
X128084104Y-102474780D01*
X127750771Y-102855733D01*
X127893628Y-102855733D01*
X127988866Y-102903352D01*
X128036485Y-102950971D01*
X128084104Y-103046209D01*
X128084104Y-103284304D01*
X128036485Y-103379542D01*
X127988866Y-103427161D01*
X127893628Y-103474780D01*
X127607914Y-103474780D01*
X127512676Y-103427161D01*
X127465057Y-103379542D01*
G04 #@! TO.C,R34*
X110769647Y-76499135D02*
X110436314Y-76022945D01*
X110198219Y-76499135D02*
X110198219Y-75499135D01*
X110579171Y-75499135D01*
X110674409Y-75546755D01*
X110722028Y-75594374D01*
X110769647Y-75689612D01*
X110769647Y-75832469D01*
X110722028Y-75927707D01*
X110674409Y-75975326D01*
X110579171Y-76022945D01*
X110198219Y-76022945D01*
X111102981Y-75499135D02*
X111722028Y-75499135D01*
X111388695Y-75880088D01*
X111531552Y-75880088D01*
X111626790Y-75927707D01*
X111674409Y-75975326D01*
X111722028Y-76070564D01*
X111722028Y-76308659D01*
X111674409Y-76403897D01*
X111626790Y-76451516D01*
X111531552Y-76499135D01*
X111245838Y-76499135D01*
X111150600Y-76451516D01*
X111102981Y-76403897D01*
X112579171Y-75832469D02*
X112579171Y-76499135D01*
X112341076Y-75451516D02*
X112102981Y-76165802D01*
X112722028Y-76165802D01*
G04 #@! TO.C,R35*
X114782647Y-70657135D02*
X114449314Y-70180945D01*
X114211219Y-70657135D02*
X114211219Y-69657135D01*
X114592171Y-69657135D01*
X114687409Y-69704755D01*
X114735028Y-69752374D01*
X114782647Y-69847612D01*
X114782647Y-69990469D01*
X114735028Y-70085707D01*
X114687409Y-70133326D01*
X114592171Y-70180945D01*
X114211219Y-70180945D01*
X115115981Y-69657135D02*
X115735028Y-69657135D01*
X115401695Y-70038088D01*
X115544552Y-70038088D01*
X115639790Y-70085707D01*
X115687409Y-70133326D01*
X115735028Y-70228564D01*
X115735028Y-70466659D01*
X115687409Y-70561897D01*
X115639790Y-70609516D01*
X115544552Y-70657135D01*
X115258838Y-70657135D01*
X115163600Y-70609516D01*
X115115981Y-70561897D01*
X116639790Y-69657135D02*
X116163600Y-69657135D01*
X116115981Y-70133326D01*
X116163600Y-70085707D01*
X116258838Y-70038088D01*
X116496933Y-70038088D01*
X116592171Y-70085707D01*
X116639790Y-70133326D01*
X116687409Y-70228564D01*
X116687409Y-70466659D01*
X116639790Y-70561897D01*
X116592171Y-70609516D01*
X116496933Y-70657135D01*
X116258838Y-70657135D01*
X116163600Y-70609516D01*
X116115981Y-70561897D01*
G04 #@! TO.C,R37*
X95651642Y-46880380D02*
X95318309Y-46404190D01*
X95080214Y-46880380D02*
X95080214Y-45880380D01*
X95461166Y-45880380D01*
X95556404Y-45928000D01*
X95604023Y-45975619D01*
X95651642Y-46070857D01*
X95651642Y-46213714D01*
X95604023Y-46308952D01*
X95556404Y-46356571D01*
X95461166Y-46404190D01*
X95080214Y-46404190D01*
X95984976Y-45880380D02*
X96604023Y-45880380D01*
X96270690Y-46261333D01*
X96413547Y-46261333D01*
X96508785Y-46308952D01*
X96556404Y-46356571D01*
X96604023Y-46451809D01*
X96604023Y-46689904D01*
X96556404Y-46785142D01*
X96508785Y-46832761D01*
X96413547Y-46880380D01*
X96127833Y-46880380D01*
X96032595Y-46832761D01*
X95984976Y-46785142D01*
X96937357Y-45880380D02*
X97604023Y-45880380D01*
X97175452Y-46880380D01*
G04 #@! TO.C,R38*
X95931142Y-132130380D02*
X95597809Y-131654190D01*
X95359714Y-132130380D02*
X95359714Y-131130380D01*
X95740666Y-131130380D01*
X95835904Y-131178000D01*
X95883523Y-131225619D01*
X95931142Y-131320857D01*
X95931142Y-131463714D01*
X95883523Y-131558952D01*
X95835904Y-131606571D01*
X95740666Y-131654190D01*
X95359714Y-131654190D01*
X96264476Y-131130380D02*
X96883523Y-131130380D01*
X96550190Y-131511333D01*
X96693047Y-131511333D01*
X96788285Y-131558952D01*
X96835904Y-131606571D01*
X96883523Y-131701809D01*
X96883523Y-131939904D01*
X96835904Y-132035142D01*
X96788285Y-132082761D01*
X96693047Y-132130380D01*
X96407333Y-132130380D01*
X96312095Y-132082761D01*
X96264476Y-132035142D01*
X97454952Y-131558952D02*
X97359714Y-131511333D01*
X97312095Y-131463714D01*
X97264476Y-131368476D01*
X97264476Y-131320857D01*
X97312095Y-131225619D01*
X97359714Y-131178000D01*
X97454952Y-131130380D01*
X97645428Y-131130380D01*
X97740666Y-131178000D01*
X97788285Y-131225619D01*
X97835904Y-131320857D01*
X97835904Y-131368476D01*
X97788285Y-131463714D01*
X97740666Y-131511333D01*
X97645428Y-131558952D01*
X97454952Y-131558952D01*
X97359714Y-131606571D01*
X97312095Y-131654190D01*
X97264476Y-131749428D01*
X97264476Y-131939904D01*
X97312095Y-132035142D01*
X97359714Y-132082761D01*
X97454952Y-132130380D01*
X97645428Y-132130380D01*
X97740666Y-132082761D01*
X97788285Y-132035142D01*
X97835904Y-131939904D01*
X97835904Y-131749428D01*
X97788285Y-131654190D01*
X97740666Y-131606571D01*
X97645428Y-131558952D01*
G04 #@! TO.C,R39*
X108097642Y-131782380D02*
X107764309Y-131306190D01*
X107526214Y-131782380D02*
X107526214Y-130782380D01*
X107907166Y-130782380D01*
X108002404Y-130830000D01*
X108050023Y-130877619D01*
X108097642Y-130972857D01*
X108097642Y-131115714D01*
X108050023Y-131210952D01*
X108002404Y-131258571D01*
X107907166Y-131306190D01*
X107526214Y-131306190D01*
X108430976Y-130782380D02*
X109050023Y-130782380D01*
X108716690Y-131163333D01*
X108859547Y-131163333D01*
X108954785Y-131210952D01*
X109002404Y-131258571D01*
X109050023Y-131353809D01*
X109050023Y-131591904D01*
X109002404Y-131687142D01*
X108954785Y-131734761D01*
X108859547Y-131782380D01*
X108573833Y-131782380D01*
X108478595Y-131734761D01*
X108430976Y-131687142D01*
X109526214Y-131782380D02*
X109716690Y-131782380D01*
X109811928Y-131734761D01*
X109859547Y-131687142D01*
X109954785Y-131544285D01*
X110002404Y-131353809D01*
X110002404Y-130972857D01*
X109954785Y-130877619D01*
X109907166Y-130830000D01*
X109811928Y-130782380D01*
X109621452Y-130782380D01*
X109526214Y-130830000D01*
X109478595Y-130877619D01*
X109430976Y-130972857D01*
X109430976Y-131210952D01*
X109478595Y-131306190D01*
X109526214Y-131353809D01*
X109621452Y-131401428D01*
X109811928Y-131401428D01*
X109907166Y-131353809D01*
X109954785Y-131306190D01*
X110002404Y-131210952D01*
G04 #@! TO.C,R40*
X108148642Y-49740380D02*
X107815309Y-49264190D01*
X107577214Y-49740380D02*
X107577214Y-48740380D01*
X107958166Y-48740380D01*
X108053404Y-48788000D01*
X108101023Y-48835619D01*
X108148642Y-48930857D01*
X108148642Y-49073714D01*
X108101023Y-49168952D01*
X108053404Y-49216571D01*
X107958166Y-49264190D01*
X107577214Y-49264190D01*
X109005785Y-49073714D02*
X109005785Y-49740380D01*
X108767690Y-48692761D02*
X108529595Y-49407047D01*
X109148642Y-49407047D01*
X109720071Y-48740380D02*
X109815309Y-48740380D01*
X109910547Y-48788000D01*
X109958166Y-48835619D01*
X110005785Y-48930857D01*
X110053404Y-49121333D01*
X110053404Y-49359428D01*
X110005785Y-49549904D01*
X109958166Y-49645142D01*
X109910547Y-49692761D01*
X109815309Y-49740380D01*
X109720071Y-49740380D01*
X109624833Y-49692761D01*
X109577214Y-49645142D01*
X109529595Y-49549904D01*
X109481976Y-49359428D01*
X109481976Y-49121333D01*
X109529595Y-48930857D01*
X109577214Y-48835619D01*
X109624833Y-48788000D01*
X109720071Y-48740380D01*
G04 #@! TO.C,U2*
X165201695Y-97242380D02*
X165201695Y-98051904D01*
X165249314Y-98147142D01*
X165296933Y-98194761D01*
X165392171Y-98242380D01*
X165582647Y-98242380D01*
X165677885Y-98194761D01*
X165725504Y-98147142D01*
X165773123Y-98051904D01*
X165773123Y-97242380D01*
X166201695Y-97337619D02*
X166249314Y-97290000D01*
X166344552Y-97242380D01*
X166582647Y-97242380D01*
X166677885Y-97290000D01*
X166725504Y-97337619D01*
X166773123Y-97432857D01*
X166773123Y-97528095D01*
X166725504Y-97670952D01*
X166154076Y-98242380D01*
X166773123Y-98242380D01*
G04 #@! TO.C,U4*
X122351895Y-108545380D02*
X122351895Y-109354904D01*
X122399514Y-109450142D01*
X122447133Y-109497761D01*
X122542371Y-109545380D01*
X122732847Y-109545380D01*
X122828085Y-109497761D01*
X122875704Y-109450142D01*
X122923323Y-109354904D01*
X122923323Y-108545380D01*
X123828085Y-108878714D02*
X123828085Y-109545380D01*
X123589990Y-108497761D02*
X123351895Y-109212047D01*
X123970942Y-109212047D01*
G04 #@! TO.C,U5*
X108102495Y-107199180D02*
X108102495Y-108008704D01*
X108150114Y-108103942D01*
X108197733Y-108151561D01*
X108292971Y-108199180D01*
X108483447Y-108199180D01*
X108578685Y-108151561D01*
X108626304Y-108103942D01*
X108673923Y-108008704D01*
X108673923Y-107199180D01*
X109626304Y-107199180D02*
X109150114Y-107199180D01*
X109102495Y-107675371D01*
X109150114Y-107627752D01*
X109245352Y-107580133D01*
X109483447Y-107580133D01*
X109578685Y-107627752D01*
X109626304Y-107675371D01*
X109673923Y-107770609D01*
X109673923Y-108008704D01*
X109626304Y-108103942D01*
X109578685Y-108151561D01*
X109483447Y-108199180D01*
X109245352Y-108199180D01*
X109150114Y-108151561D01*
X109102495Y-108103942D01*
G04 #@! TO.C,U6*
X119502641Y-57377596D02*
X119502641Y-58187120D01*
X119550260Y-58282358D01*
X119597879Y-58329977D01*
X119693117Y-58377596D01*
X119883593Y-58377596D01*
X119978831Y-58329977D01*
X120026450Y-58282358D01*
X120074069Y-58187120D01*
X120074069Y-57377596D01*
X120978831Y-57377596D02*
X120788355Y-57377596D01*
X120693117Y-57425216D01*
X120645498Y-57472835D01*
X120550260Y-57615692D01*
X120502641Y-57806168D01*
X120502641Y-58187120D01*
X120550260Y-58282358D01*
X120597879Y-58329977D01*
X120693117Y-58377596D01*
X120883593Y-58377596D01*
X120978831Y-58329977D01*
X121026450Y-58282358D01*
X121074069Y-58187120D01*
X121074069Y-57949025D01*
X121026450Y-57853787D01*
X120978831Y-57806168D01*
X120883593Y-57758549D01*
X120693117Y-57758549D01*
X120597879Y-57806168D01*
X120550260Y-57853787D01*
X120502641Y-57949025D01*
G04 #@! TO.C,U8*
X97623380Y-106832304D02*
X98432904Y-106832304D01*
X98528142Y-106784685D01*
X98575761Y-106737066D01*
X98623380Y-106641828D01*
X98623380Y-106451352D01*
X98575761Y-106356114D01*
X98528142Y-106308495D01*
X98432904Y-106260876D01*
X97623380Y-106260876D01*
X98051952Y-105641828D02*
X98004333Y-105737066D01*
X97956714Y-105784685D01*
X97861476Y-105832304D01*
X97813857Y-105832304D01*
X97718619Y-105784685D01*
X97671000Y-105737066D01*
X97623380Y-105641828D01*
X97623380Y-105451352D01*
X97671000Y-105356114D01*
X97718619Y-105308495D01*
X97813857Y-105260876D01*
X97861476Y-105260876D01*
X97956714Y-105308495D01*
X98004333Y-105356114D01*
X98051952Y-105451352D01*
X98051952Y-105641828D01*
X98099571Y-105737066D01*
X98147190Y-105784685D01*
X98242428Y-105832304D01*
X98432904Y-105832304D01*
X98528142Y-105784685D01*
X98575761Y-105737066D01*
X98623380Y-105641828D01*
X98623380Y-105451352D01*
X98575761Y-105356114D01*
X98528142Y-105308495D01*
X98432904Y-105260876D01*
X98242428Y-105260876D01*
X98147190Y-105308495D01*
X98099571Y-105356114D01*
X98051952Y-105451352D01*
G04 #@! TO.C,U9*
X158445295Y-72070980D02*
X158445295Y-72880504D01*
X158492914Y-72975742D01*
X158540533Y-73023361D01*
X158635771Y-73070980D01*
X158826247Y-73070980D01*
X158921485Y-73023361D01*
X158969104Y-72975742D01*
X159016723Y-72880504D01*
X159016723Y-72070980D01*
X159540533Y-73070980D02*
X159731009Y-73070980D01*
X159826247Y-73023361D01*
X159873866Y-72975742D01*
X159969104Y-72832885D01*
X160016723Y-72642409D01*
X160016723Y-72261457D01*
X159969104Y-72166219D01*
X159921485Y-72118600D01*
X159826247Y-72070980D01*
X159635771Y-72070980D01*
X159540533Y-72118600D01*
X159492914Y-72166219D01*
X159445295Y-72261457D01*
X159445295Y-72499552D01*
X159492914Y-72594790D01*
X159540533Y-72642409D01*
X159635771Y-72690028D01*
X159826247Y-72690028D01*
X159921485Y-72642409D01*
X159969104Y-72594790D01*
X160016723Y-72499552D01*
G04 #@! TO.C,U10*
X123958504Y-112634780D02*
X123958504Y-113444304D01*
X124006123Y-113539542D01*
X124053742Y-113587161D01*
X124148980Y-113634780D01*
X124339457Y-113634780D01*
X124434695Y-113587161D01*
X124482314Y-113539542D01*
X124529933Y-113444304D01*
X124529933Y-112634780D01*
X125529933Y-113634780D02*
X124958504Y-113634780D01*
X125244219Y-113634780D02*
X125244219Y-112634780D01*
X125148980Y-112777638D01*
X125053742Y-112872876D01*
X124958504Y-112920495D01*
X126148980Y-112634780D02*
X126244219Y-112634780D01*
X126339457Y-112682400D01*
X126387076Y-112730019D01*
X126434695Y-112825257D01*
X126482314Y-113015733D01*
X126482314Y-113253828D01*
X126434695Y-113444304D01*
X126387076Y-113539542D01*
X126339457Y-113587161D01*
X126244219Y-113634780D01*
X126148980Y-113634780D01*
X126053742Y-113587161D01*
X126006123Y-113539542D01*
X125958504Y-113444304D01*
X125910885Y-113253828D01*
X125910885Y-113015733D01*
X125958504Y-112825257D01*
X126006123Y-112730019D01*
X126053742Y-112682400D01*
X126148980Y-112634780D01*
G04 #@! TO.C,Y1*
X153971080Y-51953850D02*
X153971080Y-52430040D01*
X153637747Y-51430040D02*
X153971080Y-51953850D01*
X154304413Y-51430040D01*
X155161556Y-52430040D02*
X154590128Y-52430040D01*
X154875842Y-52430040D02*
X154875842Y-51430040D01*
X154780604Y-51572898D01*
X154685366Y-51668136D01*
X154590128Y-51715755D01*
G04 #@! TO.C,J13*
X88652476Y-102936380D02*
X88652476Y-103650666D01*
X88604857Y-103793523D01*
X88509619Y-103888761D01*
X88366761Y-103936380D01*
X88271523Y-103936380D01*
X89652476Y-103936380D02*
X89081047Y-103936380D01*
X89366761Y-103936380D02*
X89366761Y-102936380D01*
X89271523Y-103079238D01*
X89176285Y-103174476D01*
X89081047Y-103222095D01*
X89985809Y-102936380D02*
X90604857Y-102936380D01*
X90271523Y-103317333D01*
X90414380Y-103317333D01*
X90509619Y-103364952D01*
X90557238Y-103412571D01*
X90604857Y-103507809D01*
X90604857Y-103745904D01*
X90557238Y-103841142D01*
X90509619Y-103888761D01*
X90414380Y-103936380D01*
X90128666Y-103936380D01*
X90033428Y-103888761D01*
X89985809Y-103841142D01*
G04 #@! TO.C,J16*
X88271476Y-74043880D02*
X88271476Y-74758166D01*
X88223857Y-74901023D01*
X88128619Y-74996261D01*
X87985761Y-75043880D01*
X87890523Y-75043880D01*
X89271476Y-75043880D02*
X88700047Y-75043880D01*
X88985761Y-75043880D02*
X88985761Y-74043880D01*
X88890523Y-74186738D01*
X88795285Y-74281976D01*
X88700047Y-74329595D01*
X90128619Y-74043880D02*
X89938142Y-74043880D01*
X89842904Y-74091500D01*
X89795285Y-74139119D01*
X89700047Y-74281976D01*
X89652428Y-74472452D01*
X89652428Y-74853404D01*
X89700047Y-74948642D01*
X89747666Y-74996261D01*
X89842904Y-75043880D01*
X90033380Y-75043880D01*
X90128619Y-74996261D01*
X90176238Y-74948642D01*
X90223857Y-74853404D01*
X90223857Y-74615309D01*
X90176238Y-74520071D01*
X90128619Y-74472452D01*
X90033380Y-74424833D01*
X89842904Y-74424833D01*
X89747666Y-74472452D01*
X89700047Y-74520071D01*
X89652428Y-74615309D01*
G04 #@! TO.C,BZ1*
X106357847Y-86618771D02*
X106500704Y-86666390D01*
X106548323Y-86714009D01*
X106595942Y-86809247D01*
X106595942Y-86952104D01*
X106548323Y-87047342D01*
X106500704Y-87094961D01*
X106405466Y-87142580D01*
X106024514Y-87142580D01*
X106024514Y-86142580D01*
X106357847Y-86142580D01*
X106453085Y-86190200D01*
X106500704Y-86237819D01*
X106548323Y-86333057D01*
X106548323Y-86428295D01*
X106500704Y-86523533D01*
X106453085Y-86571152D01*
X106357847Y-86618771D01*
X106024514Y-86618771D01*
X106929276Y-86142580D02*
X107595942Y-86142580D01*
X106929276Y-87142580D01*
X107595942Y-87142580D01*
X108500704Y-87142580D02*
X107929276Y-87142580D01*
X108214990Y-87142580D02*
X108214990Y-86142580D01*
X108119752Y-86285438D01*
X108024514Y-86380676D01*
X107929276Y-86428295D01*
G04 #@! TO.C,Q1*
X103206561Y-92267019D02*
X103111323Y-92219400D01*
X103016085Y-92124161D01*
X102873228Y-91981304D01*
X102777990Y-91933685D01*
X102682752Y-91933685D01*
X102730371Y-92171780D02*
X102635133Y-92124161D01*
X102539895Y-92028923D01*
X102492276Y-91838447D01*
X102492276Y-91505114D01*
X102539895Y-91314638D01*
X102635133Y-91219400D01*
X102730371Y-91171780D01*
X102920847Y-91171780D01*
X103016085Y-91219400D01*
X103111323Y-91314638D01*
X103158942Y-91505114D01*
X103158942Y-91838447D01*
X103111323Y-92028923D01*
X103016085Y-92124161D01*
X102920847Y-92171780D01*
X102730371Y-92171780D01*
X104111323Y-92171780D02*
X103539895Y-92171780D01*
X103825609Y-92171780D02*
X103825609Y-91171780D01*
X103730371Y-91314638D01*
X103635133Y-91409876D01*
X103539895Y-91457495D01*
G04 #@! TO.C,C32*
X135031142Y-73167142D02*
X134983523Y-73214761D01*
X134840666Y-73262380D01*
X134745428Y-73262380D01*
X134602571Y-73214761D01*
X134507333Y-73119523D01*
X134459714Y-73024285D01*
X134412095Y-72833809D01*
X134412095Y-72690952D01*
X134459714Y-72500476D01*
X134507333Y-72405238D01*
X134602571Y-72310000D01*
X134745428Y-72262380D01*
X134840666Y-72262380D01*
X134983523Y-72310000D01*
X135031142Y-72357619D01*
X135364476Y-72262380D02*
X135983523Y-72262380D01*
X135650190Y-72643333D01*
X135793047Y-72643333D01*
X135888285Y-72690952D01*
X135935904Y-72738571D01*
X135983523Y-72833809D01*
X135983523Y-73071904D01*
X135935904Y-73167142D01*
X135888285Y-73214761D01*
X135793047Y-73262380D01*
X135507333Y-73262380D01*
X135412095Y-73214761D01*
X135364476Y-73167142D01*
X136364476Y-72357619D02*
X136412095Y-72310000D01*
X136507333Y-72262380D01*
X136745428Y-72262380D01*
X136840666Y-72310000D01*
X136888285Y-72357619D01*
X136935904Y-72452857D01*
X136935904Y-72548095D01*
X136888285Y-72690952D01*
X136316857Y-73262380D01*
X136935904Y-73262380D01*
G04 #@! TO.C,R42*
X168673542Y-82062580D02*
X168340209Y-81586390D01*
X168102114Y-82062580D02*
X168102114Y-81062580D01*
X168483066Y-81062580D01*
X168578304Y-81110200D01*
X168625923Y-81157819D01*
X168673542Y-81253057D01*
X168673542Y-81395914D01*
X168625923Y-81491152D01*
X168578304Y-81538771D01*
X168483066Y-81586390D01*
X168102114Y-81586390D01*
X169530685Y-81395914D02*
X169530685Y-82062580D01*
X169292590Y-81014961D02*
X169054495Y-81729247D01*
X169673542Y-81729247D01*
X170006876Y-81157819D02*
X170054495Y-81110200D01*
X170149733Y-81062580D01*
X170387828Y-81062580D01*
X170483066Y-81110200D01*
X170530685Y-81157819D01*
X170578304Y-81253057D01*
X170578304Y-81348295D01*
X170530685Y-81491152D01*
X169959257Y-82062580D01*
X170578304Y-82062580D01*
G04 #@! TO.C,TP1*
X168918095Y-107605580D02*
X169489523Y-107605580D01*
X169203809Y-108605580D02*
X169203809Y-107605580D01*
X169822857Y-108605580D02*
X169822857Y-107605580D01*
X170203809Y-107605580D01*
X170299047Y-107653200D01*
X170346666Y-107700819D01*
X170394285Y-107796057D01*
X170394285Y-107938914D01*
X170346666Y-108034152D01*
X170299047Y-108081771D01*
X170203809Y-108129390D01*
X169822857Y-108129390D01*
X171346666Y-108605580D02*
X170775238Y-108605580D01*
X171060952Y-108605580D02*
X171060952Y-107605580D01*
X170965714Y-107748438D01*
X170870476Y-107843676D01*
X170775238Y-107891295D01*
G04 #@! TO.C,TP2*
X168791095Y-110247180D02*
X169362523Y-110247180D01*
X169076809Y-111247180D02*
X169076809Y-110247180D01*
X169695857Y-111247180D02*
X169695857Y-110247180D01*
X170076809Y-110247180D01*
X170172047Y-110294800D01*
X170219666Y-110342419D01*
X170267285Y-110437657D01*
X170267285Y-110580514D01*
X170219666Y-110675752D01*
X170172047Y-110723371D01*
X170076809Y-110770990D01*
X169695857Y-110770990D01*
X170648238Y-110342419D02*
X170695857Y-110294800D01*
X170791095Y-110247180D01*
X171029190Y-110247180D01*
X171124428Y-110294800D01*
X171172047Y-110342419D01*
X171219666Y-110437657D01*
X171219666Y-110532895D01*
X171172047Y-110675752D01*
X170600619Y-111247180D01*
X171219666Y-111247180D01*
G04 #@! TO.C,TP3*
X168892695Y-112837980D02*
X169464123Y-112837980D01*
X169178409Y-113837980D02*
X169178409Y-112837980D01*
X169797457Y-113837980D02*
X169797457Y-112837980D01*
X170178409Y-112837980D01*
X170273647Y-112885600D01*
X170321266Y-112933219D01*
X170368885Y-113028457D01*
X170368885Y-113171314D01*
X170321266Y-113266552D01*
X170273647Y-113314171D01*
X170178409Y-113361790D01*
X169797457Y-113361790D01*
X170702219Y-112837980D02*
X171321266Y-112837980D01*
X170987933Y-113218933D01*
X171130790Y-113218933D01*
X171226028Y-113266552D01*
X171273647Y-113314171D01*
X171321266Y-113409409D01*
X171321266Y-113647504D01*
X171273647Y-113742742D01*
X171226028Y-113790361D01*
X171130790Y-113837980D01*
X170845076Y-113837980D01*
X170749838Y-113790361D01*
X170702219Y-113742742D01*
G04 #@! TO.C,TP4*
X168816495Y-115555780D02*
X169387923Y-115555780D01*
X169102209Y-116555780D02*
X169102209Y-115555780D01*
X169721257Y-116555780D02*
X169721257Y-115555780D01*
X170102209Y-115555780D01*
X170197447Y-115603400D01*
X170245066Y-115651019D01*
X170292685Y-115746257D01*
X170292685Y-115889114D01*
X170245066Y-115984352D01*
X170197447Y-116031971D01*
X170102209Y-116079590D01*
X169721257Y-116079590D01*
X171149828Y-115889114D02*
X171149828Y-116555780D01*
X170911733Y-115508161D02*
X170673638Y-116222447D01*
X171292685Y-116222447D01*
G04 #@! TO.C,TP5*
X135868295Y-106643580D02*
X136439723Y-106643580D01*
X136154009Y-107643580D02*
X136154009Y-106643580D01*
X136773057Y-107643580D02*
X136773057Y-106643580D01*
X137154009Y-106643580D01*
X137249247Y-106691200D01*
X137296866Y-106738819D01*
X137344485Y-106834057D01*
X137344485Y-106976914D01*
X137296866Y-107072152D01*
X137249247Y-107119771D01*
X137154009Y-107167390D01*
X136773057Y-107167390D01*
X138249247Y-106643580D02*
X137773057Y-106643580D01*
X137725438Y-107119771D01*
X137773057Y-107072152D01*
X137868295Y-107024533D01*
X138106390Y-107024533D01*
X138201628Y-107072152D01*
X138249247Y-107119771D01*
X138296866Y-107215009D01*
X138296866Y-107453104D01*
X138249247Y-107548342D01*
X138201628Y-107595961D01*
X138106390Y-107643580D01*
X137868295Y-107643580D01*
X137773057Y-107595961D01*
X137725438Y-107548342D01*
G04 #@! TO.C,TP6*
X137879295Y-114514380D02*
X138450723Y-114514380D01*
X138165009Y-115514380D02*
X138165009Y-114514380D01*
X138784057Y-115514380D02*
X138784057Y-114514380D01*
X139165009Y-114514380D01*
X139260247Y-114562000D01*
X139307866Y-114609619D01*
X139355485Y-114704857D01*
X139355485Y-114847714D01*
X139307866Y-114942952D01*
X139260247Y-114990571D01*
X139165009Y-115038190D01*
X138784057Y-115038190D01*
X140212628Y-114514380D02*
X140022152Y-114514380D01*
X139926914Y-114562000D01*
X139879295Y-114609619D01*
X139784057Y-114752476D01*
X139736438Y-114942952D01*
X139736438Y-115323904D01*
X139784057Y-115419142D01*
X139831676Y-115466761D01*
X139926914Y-115514380D01*
X140117390Y-115514380D01*
X140212628Y-115466761D01*
X140260247Y-115419142D01*
X140307866Y-115323904D01*
X140307866Y-115085809D01*
X140260247Y-114990571D01*
X140212628Y-114942952D01*
X140117390Y-114895333D01*
X139926914Y-114895333D01*
X139831676Y-114942952D01*
X139784057Y-114990571D01*
X139736438Y-115085809D01*
G04 #@! TO.C,TP7*
X132088095Y-117308380D02*
X132659523Y-117308380D01*
X132373809Y-118308380D02*
X132373809Y-117308380D01*
X132992857Y-118308380D02*
X132992857Y-117308380D01*
X133373809Y-117308380D01*
X133469047Y-117356000D01*
X133516666Y-117403619D01*
X133564285Y-117498857D01*
X133564285Y-117641714D01*
X133516666Y-117736952D01*
X133469047Y-117784571D01*
X133373809Y-117832190D01*
X132992857Y-117832190D01*
X133897619Y-117308380D02*
X134564285Y-117308380D01*
X134135714Y-118308380D01*
G04 #@! TO.C,TP8*
X106132380Y-112259904D02*
X106132380Y-111688476D01*
X107132380Y-111974190D02*
X106132380Y-111974190D01*
X107132380Y-111355142D02*
X106132380Y-111355142D01*
X106132380Y-110974190D01*
X106180000Y-110878952D01*
X106227619Y-110831333D01*
X106322857Y-110783714D01*
X106465714Y-110783714D01*
X106560952Y-110831333D01*
X106608571Y-110878952D01*
X106656190Y-110974190D01*
X106656190Y-111355142D01*
X106560952Y-110212285D02*
X106513333Y-110307523D01*
X106465714Y-110355142D01*
X106370476Y-110402761D01*
X106322857Y-110402761D01*
X106227619Y-110355142D01*
X106180000Y-110307523D01*
X106132380Y-110212285D01*
X106132380Y-110021809D01*
X106180000Y-109926571D01*
X106227619Y-109878952D01*
X106322857Y-109831333D01*
X106370476Y-109831333D01*
X106465714Y-109878952D01*
X106513333Y-109926571D01*
X106560952Y-110021809D01*
X106560952Y-110212285D01*
X106608571Y-110307523D01*
X106656190Y-110355142D01*
X106751428Y-110402761D01*
X106941904Y-110402761D01*
X107037142Y-110355142D01*
X107084761Y-110307523D01*
X107132380Y-110212285D01*
X107132380Y-110021809D01*
X107084761Y-109926571D01*
X107037142Y-109878952D01*
X106941904Y-109831333D01*
X106751428Y-109831333D01*
X106656190Y-109878952D01*
X106608571Y-109926571D01*
X106560952Y-110021809D01*
G04 #@! TO.C,TP9*
X120966095Y-92776380D02*
X121537523Y-92776380D01*
X121251809Y-93776380D02*
X121251809Y-92776380D01*
X121870857Y-93776380D02*
X121870857Y-92776380D01*
X122251809Y-92776380D01*
X122347047Y-92824000D01*
X122394666Y-92871619D01*
X122442285Y-92966857D01*
X122442285Y-93109714D01*
X122394666Y-93204952D01*
X122347047Y-93252571D01*
X122251809Y-93300190D01*
X121870857Y-93300190D01*
X122918476Y-93776380D02*
X123108952Y-93776380D01*
X123204190Y-93728761D01*
X123251809Y-93681142D01*
X123347047Y-93538285D01*
X123394666Y-93347809D01*
X123394666Y-92966857D01*
X123347047Y-92871619D01*
X123299428Y-92824000D01*
X123204190Y-92776380D01*
X123013714Y-92776380D01*
X122918476Y-92824000D01*
X122870857Y-92871619D01*
X122823238Y-92966857D01*
X122823238Y-93204952D01*
X122870857Y-93300190D01*
X122918476Y-93347809D01*
X123013714Y-93395428D01*
X123204190Y-93395428D01*
X123299428Y-93347809D01*
X123347047Y-93300190D01*
X123394666Y-93204952D01*
G04 #@! TO.C,TP10*
X119953304Y-99985580D02*
X120524733Y-99985580D01*
X120239019Y-100985580D02*
X120239019Y-99985580D01*
X120858066Y-100985580D02*
X120858066Y-99985580D01*
X121239019Y-99985580D01*
X121334257Y-100033200D01*
X121381876Y-100080819D01*
X121429495Y-100176057D01*
X121429495Y-100318914D01*
X121381876Y-100414152D01*
X121334257Y-100461771D01*
X121239019Y-100509390D01*
X120858066Y-100509390D01*
X122381876Y-100985580D02*
X121810447Y-100985580D01*
X122096161Y-100985580D02*
X122096161Y-99985580D01*
X122000923Y-100128438D01*
X121905685Y-100223676D01*
X121810447Y-100271295D01*
X123000923Y-99985580D02*
X123096161Y-99985580D01*
X123191400Y-100033200D01*
X123239019Y-100080819D01*
X123286638Y-100176057D01*
X123334257Y-100366533D01*
X123334257Y-100604628D01*
X123286638Y-100795104D01*
X123239019Y-100890342D01*
X123191400Y-100937961D01*
X123096161Y-100985580D01*
X123000923Y-100985580D01*
X122905685Y-100937961D01*
X122858066Y-100890342D01*
X122810447Y-100795104D01*
X122762828Y-100604628D01*
X122762828Y-100366533D01*
X122810447Y-100176057D01*
X122858066Y-100080819D01*
X122905685Y-100033200D01*
X123000923Y-99985580D01*
G04 #@! TO.C,TP11*
X103290904Y-97877380D02*
X103862333Y-97877380D01*
X103576619Y-98877380D02*
X103576619Y-97877380D01*
X104195666Y-98877380D02*
X104195666Y-97877380D01*
X104576619Y-97877380D01*
X104671857Y-97925000D01*
X104719476Y-97972619D01*
X104767095Y-98067857D01*
X104767095Y-98210714D01*
X104719476Y-98305952D01*
X104671857Y-98353571D01*
X104576619Y-98401190D01*
X104195666Y-98401190D01*
X105719476Y-98877380D02*
X105148047Y-98877380D01*
X105433761Y-98877380D02*
X105433761Y-97877380D01*
X105338523Y-98020238D01*
X105243285Y-98115476D01*
X105148047Y-98163095D01*
X106671857Y-98877380D02*
X106100428Y-98877380D01*
X106386142Y-98877380D02*
X106386142Y-97877380D01*
X106290904Y-98020238D01*
X106195666Y-98115476D01*
X106100428Y-98163095D01*
G04 #@! TO.C,TP12*
X137380904Y-94173380D02*
X137952333Y-94173380D01*
X137666619Y-95173380D02*
X137666619Y-94173380D01*
X138285666Y-95173380D02*
X138285666Y-94173380D01*
X138666619Y-94173380D01*
X138761857Y-94221000D01*
X138809476Y-94268619D01*
X138857095Y-94363857D01*
X138857095Y-94506714D01*
X138809476Y-94601952D01*
X138761857Y-94649571D01*
X138666619Y-94697190D01*
X138285666Y-94697190D01*
X139809476Y-95173380D02*
X139238047Y-95173380D01*
X139523761Y-95173380D02*
X139523761Y-94173380D01*
X139428523Y-94316238D01*
X139333285Y-94411476D01*
X139238047Y-94459095D01*
X140190428Y-94268619D02*
X140238047Y-94221000D01*
X140333285Y-94173380D01*
X140571380Y-94173380D01*
X140666619Y-94221000D01*
X140714238Y-94268619D01*
X140761857Y-94363857D01*
X140761857Y-94459095D01*
X140714238Y-94601952D01*
X140142809Y-95173380D01*
X140761857Y-95173380D01*
G04 #@! TO.C,TP13*
X164276304Y-101814380D02*
X164847733Y-101814380D01*
X164562019Y-102814380D02*
X164562019Y-101814380D01*
X165181066Y-102814380D02*
X165181066Y-101814380D01*
X165562019Y-101814380D01*
X165657257Y-101862000D01*
X165704876Y-101909619D01*
X165752495Y-102004857D01*
X165752495Y-102147714D01*
X165704876Y-102242952D01*
X165657257Y-102290571D01*
X165562019Y-102338190D01*
X165181066Y-102338190D01*
X166704876Y-102814380D02*
X166133447Y-102814380D01*
X166419161Y-102814380D02*
X166419161Y-101814380D01*
X166323923Y-101957238D01*
X166228685Y-102052476D01*
X166133447Y-102100095D01*
X167038209Y-101814380D02*
X167657257Y-101814380D01*
X167323923Y-102195333D01*
X167466780Y-102195333D01*
X167562019Y-102242952D01*
X167609638Y-102290571D01*
X167657257Y-102385809D01*
X167657257Y-102623904D01*
X167609638Y-102719142D01*
X167562019Y-102766761D01*
X167466780Y-102814380D01*
X167181066Y-102814380D01*
X167085828Y-102766761D01*
X167038209Y-102719142D01*
G04 #@! TO.C,TP14*
X101157304Y-102093780D02*
X101728733Y-102093780D01*
X101443019Y-103093780D02*
X101443019Y-102093780D01*
X102062066Y-103093780D02*
X102062066Y-102093780D01*
X102443019Y-102093780D01*
X102538257Y-102141400D01*
X102585876Y-102189019D01*
X102633495Y-102284257D01*
X102633495Y-102427114D01*
X102585876Y-102522352D01*
X102538257Y-102569971D01*
X102443019Y-102617590D01*
X102062066Y-102617590D01*
X103585876Y-103093780D02*
X103014447Y-103093780D01*
X103300161Y-103093780D02*
X103300161Y-102093780D01*
X103204923Y-102236638D01*
X103109685Y-102331876D01*
X103014447Y-102379495D01*
X104443019Y-102427114D02*
X104443019Y-103093780D01*
X104204923Y-102046161D02*
X103966828Y-102760447D01*
X104585876Y-102760447D01*
G04 #@! TO.C,TP16*
X121477304Y-96404180D02*
X122048733Y-96404180D01*
X121763019Y-97404180D02*
X121763019Y-96404180D01*
X122382066Y-97404180D02*
X122382066Y-96404180D01*
X122763019Y-96404180D01*
X122858257Y-96451800D01*
X122905876Y-96499419D01*
X122953495Y-96594657D01*
X122953495Y-96737514D01*
X122905876Y-96832752D01*
X122858257Y-96880371D01*
X122763019Y-96927990D01*
X122382066Y-96927990D01*
X123905876Y-97404180D02*
X123334447Y-97404180D01*
X123620161Y-97404180D02*
X123620161Y-96404180D01*
X123524923Y-96547038D01*
X123429685Y-96642276D01*
X123334447Y-96689895D01*
X124763019Y-96404180D02*
X124572542Y-96404180D01*
X124477304Y-96451800D01*
X124429685Y-96499419D01*
X124334447Y-96642276D01*
X124286828Y-96832752D01*
X124286828Y-97213704D01*
X124334447Y-97308942D01*
X124382066Y-97356561D01*
X124477304Y-97404180D01*
X124667780Y-97404180D01*
X124763019Y-97356561D01*
X124810638Y-97308942D01*
X124858257Y-97213704D01*
X124858257Y-96975609D01*
X124810638Y-96880371D01*
X124763019Y-96832752D01*
X124667780Y-96785133D01*
X124477304Y-96785133D01*
X124382066Y-96832752D01*
X124334447Y-96880371D01*
X124286828Y-96975609D01*
G04 #@! TO.C,TP17*
X167701980Y-99553495D02*
X167701980Y-98982066D01*
X168701980Y-99267780D02*
X167701980Y-99267780D01*
X168701980Y-98648733D02*
X167701980Y-98648733D01*
X167701980Y-98267780D01*
X167749600Y-98172542D01*
X167797219Y-98124923D01*
X167892457Y-98077304D01*
X168035314Y-98077304D01*
X168130552Y-98124923D01*
X168178171Y-98172542D01*
X168225790Y-98267780D01*
X168225790Y-98648733D01*
X168701980Y-97124923D02*
X168701980Y-97696352D01*
X168701980Y-97410638D02*
X167701980Y-97410638D01*
X167844838Y-97505876D01*
X167940076Y-97601114D01*
X167987695Y-97696352D01*
X167701980Y-96791590D02*
X167701980Y-96124923D01*
X168701980Y-96553495D01*
G04 #@! TO.C,TP34*
X128309904Y-77430380D02*
X128881333Y-77430380D01*
X128595619Y-78430380D02*
X128595619Y-77430380D01*
X129214666Y-78430380D02*
X129214666Y-77430380D01*
X129595619Y-77430380D01*
X129690857Y-77478000D01*
X129738476Y-77525619D01*
X129786095Y-77620857D01*
X129786095Y-77763714D01*
X129738476Y-77858952D01*
X129690857Y-77906571D01*
X129595619Y-77954190D01*
X129214666Y-77954190D01*
X130119428Y-77430380D02*
X130738476Y-77430380D01*
X130405142Y-77811333D01*
X130548000Y-77811333D01*
X130643238Y-77858952D01*
X130690857Y-77906571D01*
X130738476Y-78001809D01*
X130738476Y-78239904D01*
X130690857Y-78335142D01*
X130643238Y-78382761D01*
X130548000Y-78430380D01*
X130262285Y-78430380D01*
X130167047Y-78382761D01*
X130119428Y-78335142D01*
X131595619Y-77763714D02*
X131595619Y-78430380D01*
X131357523Y-77382761D02*
X131119428Y-78097047D01*
X131738476Y-78097047D01*
G04 #@! TO.C,TP35*
X166219404Y-72324980D02*
X166790833Y-72324980D01*
X166505119Y-73324980D02*
X166505119Y-72324980D01*
X167124166Y-73324980D02*
X167124166Y-72324980D01*
X167505119Y-72324980D01*
X167600357Y-72372600D01*
X167647976Y-72420219D01*
X167695595Y-72515457D01*
X167695595Y-72658314D01*
X167647976Y-72753552D01*
X167600357Y-72801171D01*
X167505119Y-72848790D01*
X167124166Y-72848790D01*
X168028928Y-72324980D02*
X168647976Y-72324980D01*
X168314642Y-72705933D01*
X168457500Y-72705933D01*
X168552738Y-72753552D01*
X168600357Y-72801171D01*
X168647976Y-72896409D01*
X168647976Y-73134504D01*
X168600357Y-73229742D01*
X168552738Y-73277361D01*
X168457500Y-73324980D01*
X168171785Y-73324980D01*
X168076547Y-73277361D01*
X168028928Y-73229742D01*
X169552738Y-72324980D02*
X169076547Y-72324980D01*
X169028928Y-72801171D01*
X169076547Y-72753552D01*
X169171785Y-72705933D01*
X169409880Y-72705933D01*
X169505119Y-72753552D01*
X169552738Y-72801171D01*
X169600357Y-72896409D01*
X169600357Y-73134504D01*
X169552738Y-73229742D01*
X169505119Y-73277361D01*
X169409880Y-73324980D01*
X169171785Y-73324980D01*
X169076547Y-73277361D01*
X169028928Y-73229742D01*
G04 #@! TO.C,TP52*
X171035904Y-118506380D02*
X171607333Y-118506380D01*
X171321619Y-119506380D02*
X171321619Y-118506380D01*
X171940666Y-119506380D02*
X171940666Y-118506380D01*
X172321619Y-118506380D01*
X172416857Y-118554000D01*
X172464476Y-118601619D01*
X172512095Y-118696857D01*
X172512095Y-118839714D01*
X172464476Y-118934952D01*
X172416857Y-118982571D01*
X172321619Y-119030190D01*
X171940666Y-119030190D01*
X173416857Y-118506380D02*
X172940666Y-118506380D01*
X172893047Y-118982571D01*
X172940666Y-118934952D01*
X173035904Y-118887333D01*
X173274000Y-118887333D01*
X173369238Y-118934952D01*
X173416857Y-118982571D01*
X173464476Y-119077809D01*
X173464476Y-119315904D01*
X173416857Y-119411142D01*
X173369238Y-119458761D01*
X173274000Y-119506380D01*
X173035904Y-119506380D01*
X172940666Y-119458761D01*
X172893047Y-119411142D01*
X173845428Y-118601619D02*
X173893047Y-118554000D01*
X173988285Y-118506380D01*
X174226380Y-118506380D01*
X174321619Y-118554000D01*
X174369238Y-118601619D01*
X174416857Y-118696857D01*
X174416857Y-118792095D01*
X174369238Y-118934952D01*
X173797809Y-119506380D01*
X174416857Y-119506380D01*
G04 #@! TO.C,TP53*
X87723904Y-88966380D02*
X88295333Y-88966380D01*
X88009619Y-89966380D02*
X88009619Y-88966380D01*
X88628666Y-89966380D02*
X88628666Y-88966380D01*
X89009619Y-88966380D01*
X89104857Y-89014000D01*
X89152476Y-89061619D01*
X89200095Y-89156857D01*
X89200095Y-89299714D01*
X89152476Y-89394952D01*
X89104857Y-89442571D01*
X89009619Y-89490190D01*
X88628666Y-89490190D01*
X90104857Y-88966380D02*
X89628666Y-88966380D01*
X89581047Y-89442571D01*
X89628666Y-89394952D01*
X89723904Y-89347333D01*
X89962000Y-89347333D01*
X90057238Y-89394952D01*
X90104857Y-89442571D01*
X90152476Y-89537809D01*
X90152476Y-89775904D01*
X90104857Y-89871142D01*
X90057238Y-89918761D01*
X89962000Y-89966380D01*
X89723904Y-89966380D01*
X89628666Y-89918761D01*
X89581047Y-89871142D01*
X90485809Y-88966380D02*
X91104857Y-88966380D01*
X90771523Y-89347333D01*
X90914380Y-89347333D01*
X91009619Y-89394952D01*
X91057238Y-89442571D01*
X91104857Y-89537809D01*
X91104857Y-89775904D01*
X91057238Y-89871142D01*
X91009619Y-89918761D01*
X90914380Y-89966380D01*
X90628666Y-89966380D01*
X90533428Y-89918761D01*
X90485809Y-89871142D01*
G04 #@! TO.C,TP54*
X98591904Y-72405380D02*
X99163333Y-72405380D01*
X98877619Y-73405380D02*
X98877619Y-72405380D01*
X99496666Y-73405380D02*
X99496666Y-72405380D01*
X99877619Y-72405380D01*
X99972857Y-72453000D01*
X100020476Y-72500619D01*
X100068095Y-72595857D01*
X100068095Y-72738714D01*
X100020476Y-72833952D01*
X99972857Y-72881571D01*
X99877619Y-72929190D01*
X99496666Y-72929190D01*
X100972857Y-72405380D02*
X100496666Y-72405380D01*
X100449047Y-72881571D01*
X100496666Y-72833952D01*
X100591904Y-72786333D01*
X100830000Y-72786333D01*
X100925238Y-72833952D01*
X100972857Y-72881571D01*
X101020476Y-72976809D01*
X101020476Y-73214904D01*
X100972857Y-73310142D01*
X100925238Y-73357761D01*
X100830000Y-73405380D01*
X100591904Y-73405380D01*
X100496666Y-73357761D01*
X100449047Y-73310142D01*
X101877619Y-72738714D02*
X101877619Y-73405380D01*
X101639523Y-72357761D02*
X101401428Y-73072047D01*
X102020476Y-73072047D01*
G04 #@! TO.C,TP55*
X104687904Y-72096380D02*
X105259333Y-72096380D01*
X104973619Y-73096380D02*
X104973619Y-72096380D01*
X105592666Y-73096380D02*
X105592666Y-72096380D01*
X105973619Y-72096380D01*
X106068857Y-72144000D01*
X106116476Y-72191619D01*
X106164095Y-72286857D01*
X106164095Y-72429714D01*
X106116476Y-72524952D01*
X106068857Y-72572571D01*
X105973619Y-72620190D01*
X105592666Y-72620190D01*
X107068857Y-72096380D02*
X106592666Y-72096380D01*
X106545047Y-72572571D01*
X106592666Y-72524952D01*
X106687904Y-72477333D01*
X106926000Y-72477333D01*
X107021238Y-72524952D01*
X107068857Y-72572571D01*
X107116476Y-72667809D01*
X107116476Y-72905904D01*
X107068857Y-73001142D01*
X107021238Y-73048761D01*
X106926000Y-73096380D01*
X106687904Y-73096380D01*
X106592666Y-73048761D01*
X106545047Y-73001142D01*
X108021238Y-72096380D02*
X107545047Y-72096380D01*
X107497428Y-72572571D01*
X107545047Y-72524952D01*
X107640285Y-72477333D01*
X107878380Y-72477333D01*
X107973619Y-72524952D01*
X108021238Y-72572571D01*
X108068857Y-72667809D01*
X108068857Y-72905904D01*
X108021238Y-73001142D01*
X107973619Y-73048761D01*
X107878380Y-73096380D01*
X107640285Y-73096380D01*
X107545047Y-73048761D01*
X107497428Y-73001142D01*
G04 #@! TO.C,TP56*
X104687904Y-81240380D02*
X105259333Y-81240380D01*
X104973619Y-82240380D02*
X104973619Y-81240380D01*
X105592666Y-82240380D02*
X105592666Y-81240380D01*
X105973619Y-81240380D01*
X106068857Y-81288000D01*
X106116476Y-81335619D01*
X106164095Y-81430857D01*
X106164095Y-81573714D01*
X106116476Y-81668952D01*
X106068857Y-81716571D01*
X105973619Y-81764190D01*
X105592666Y-81764190D01*
X107068857Y-81240380D02*
X106592666Y-81240380D01*
X106545047Y-81716571D01*
X106592666Y-81668952D01*
X106687904Y-81621333D01*
X106926000Y-81621333D01*
X107021238Y-81668952D01*
X107068857Y-81716571D01*
X107116476Y-81811809D01*
X107116476Y-82049904D01*
X107068857Y-82145142D01*
X107021238Y-82192761D01*
X106926000Y-82240380D01*
X106687904Y-82240380D01*
X106592666Y-82192761D01*
X106545047Y-82145142D01*
X107973619Y-81240380D02*
X107783142Y-81240380D01*
X107687904Y-81288000D01*
X107640285Y-81335619D01*
X107545047Y-81478476D01*
X107497428Y-81668952D01*
X107497428Y-82049904D01*
X107545047Y-82145142D01*
X107592666Y-82192761D01*
X107687904Y-82240380D01*
X107878380Y-82240380D01*
X107973619Y-82192761D01*
X108021238Y-82145142D01*
X108068857Y-82049904D01*
X108068857Y-81811809D01*
X108021238Y-81716571D01*
X107973619Y-81668952D01*
X107878380Y-81621333D01*
X107687904Y-81621333D01*
X107592666Y-81668952D01*
X107545047Y-81716571D01*
X107497428Y-81811809D01*
G04 #@! TO.C,F1*
X90525666Y-77123571D02*
X90192333Y-77123571D01*
X90192333Y-77647380D02*
X90192333Y-76647380D01*
X90668523Y-76647380D01*
X91573285Y-77647380D02*
X91001857Y-77647380D01*
X91287571Y-77647380D02*
X91287571Y-76647380D01*
X91192333Y-76790238D01*
X91097095Y-76885476D01*
X91001857Y-76933095D01*
G04 #@! TO.C,F3*
X90335166Y-82775071D02*
X90001833Y-82775071D01*
X90001833Y-83298880D02*
X90001833Y-82298880D01*
X90478023Y-82298880D01*
X90763738Y-82298880D02*
X91382785Y-82298880D01*
X91049452Y-82679833D01*
X91192309Y-82679833D01*
X91287547Y-82727452D01*
X91335166Y-82775071D01*
X91382785Y-82870309D01*
X91382785Y-83108404D01*
X91335166Y-83203642D01*
X91287547Y-83251261D01*
X91192309Y-83298880D01*
X90906595Y-83298880D01*
X90811357Y-83251261D01*
X90763738Y-83203642D01*
G04 #@! TO.C,J1*
X109067666Y-60171380D02*
X109067666Y-60885666D01*
X109020047Y-61028523D01*
X108924809Y-61123761D01*
X108781952Y-61171380D01*
X108686714Y-61171380D01*
X110067666Y-61171380D02*
X109496238Y-61171380D01*
X109781952Y-61171380D02*
X109781952Y-60171380D01*
X109686714Y-60314238D01*
X109591476Y-60409476D01*
X109496238Y-60457095D01*
G04 #@! TO.C,J2*
X111734666Y-55726380D02*
X111734666Y-56440666D01*
X111687047Y-56583523D01*
X111591809Y-56678761D01*
X111448952Y-56726380D01*
X111353714Y-56726380D01*
X112163238Y-55821619D02*
X112210857Y-55774000D01*
X112306095Y-55726380D01*
X112544190Y-55726380D01*
X112639428Y-55774000D01*
X112687047Y-55821619D01*
X112734666Y-55916857D01*
X112734666Y-56012095D01*
X112687047Y-56154952D01*
X112115619Y-56726380D01*
X112734666Y-56726380D01*
G04 #@! TO.C,J3*
X138023666Y-63693380D02*
X138023666Y-64407666D01*
X137976047Y-64550523D01*
X137880809Y-64645761D01*
X137737952Y-64693380D01*
X137642714Y-64693380D01*
X138404619Y-63693380D02*
X139023666Y-63693380D01*
X138690333Y-64074333D01*
X138833190Y-64074333D01*
X138928428Y-64121952D01*
X138976047Y-64169571D01*
X139023666Y-64264809D01*
X139023666Y-64502904D01*
X138976047Y-64598142D01*
X138928428Y-64645761D01*
X138833190Y-64693380D01*
X138547476Y-64693380D01*
X138452238Y-64645761D01*
X138404619Y-64598142D01*
G04 #@! TO.C,J4*
X138023666Y-58613380D02*
X138023666Y-59327666D01*
X137976047Y-59470523D01*
X137880809Y-59565761D01*
X137737952Y-59613380D01*
X137642714Y-59613380D01*
X138928428Y-58946714D02*
X138928428Y-59613380D01*
X138690333Y-58565761D02*
X138452238Y-59280047D01*
X139071285Y-59280047D01*
G04 #@! TO.C,J5*
X103349466Y-116317780D02*
X103349466Y-117032066D01*
X103301847Y-117174923D01*
X103206609Y-117270161D01*
X103063752Y-117317780D01*
X102968514Y-117317780D01*
X104301847Y-116317780D02*
X103825657Y-116317780D01*
X103778038Y-116793971D01*
X103825657Y-116746352D01*
X103920895Y-116698733D01*
X104158990Y-116698733D01*
X104254228Y-116746352D01*
X104301847Y-116793971D01*
X104349466Y-116889209D01*
X104349466Y-117127304D01*
X104301847Y-117222542D01*
X104254228Y-117270161D01*
X104158990Y-117317780D01*
X103920895Y-117317780D01*
X103825657Y-117270161D01*
X103778038Y-117222542D01*
G04 #@! TO.C,J6*
X97256666Y-116398380D02*
X97256666Y-117112666D01*
X97209047Y-117255523D01*
X97113809Y-117350761D01*
X96970952Y-117398380D01*
X96875714Y-117398380D01*
X98161428Y-116398380D02*
X97970952Y-116398380D01*
X97875714Y-116446000D01*
X97828095Y-116493619D01*
X97732857Y-116636476D01*
X97685238Y-116826952D01*
X97685238Y-117207904D01*
X97732857Y-117303142D01*
X97780476Y-117350761D01*
X97875714Y-117398380D01*
X98066190Y-117398380D01*
X98161428Y-117350761D01*
X98209047Y-117303142D01*
X98256666Y-117207904D01*
X98256666Y-116969809D01*
X98209047Y-116874571D01*
X98161428Y-116826952D01*
X98066190Y-116779333D01*
X97875714Y-116779333D01*
X97780476Y-116826952D01*
X97732857Y-116874571D01*
X97685238Y-116969809D01*
G04 #@! TO.C,J7*
X161391666Y-121004380D02*
X161391666Y-121718666D01*
X161344047Y-121861523D01*
X161248809Y-121956761D01*
X161105952Y-122004380D01*
X161010714Y-122004380D01*
X161772619Y-121004380D02*
X162439285Y-121004380D01*
X162010714Y-122004380D01*
G04 #@! TO.C,J8*
X155549666Y-126846380D02*
X155549666Y-127560666D01*
X155502047Y-127703523D01*
X155406809Y-127798761D01*
X155263952Y-127846380D01*
X155168714Y-127846380D01*
X156168714Y-127274952D02*
X156073476Y-127227333D01*
X156025857Y-127179714D01*
X155978238Y-127084476D01*
X155978238Y-127036857D01*
X156025857Y-126941619D01*
X156073476Y-126894000D01*
X156168714Y-126846380D01*
X156359190Y-126846380D01*
X156454428Y-126894000D01*
X156502047Y-126941619D01*
X156549666Y-127036857D01*
X156549666Y-127084476D01*
X156502047Y-127179714D01*
X156454428Y-127227333D01*
X156359190Y-127274952D01*
X156168714Y-127274952D01*
X156073476Y-127322571D01*
X156025857Y-127370190D01*
X155978238Y-127465428D01*
X155978238Y-127655904D01*
X156025857Y-127751142D01*
X156073476Y-127798761D01*
X156168714Y-127846380D01*
X156359190Y-127846380D01*
X156454428Y-127798761D01*
X156502047Y-127751142D01*
X156549666Y-127655904D01*
X156549666Y-127465428D01*
X156502047Y-127370190D01*
X156454428Y-127322571D01*
X156359190Y-127274952D01*
G04 #@! TO.C,MH1*
X82032666Y-48056380D02*
X82032666Y-47056380D01*
X82366000Y-47770666D01*
X82699333Y-47056380D01*
X82699333Y-48056380D01*
X83175523Y-48056380D02*
X83175523Y-47056380D01*
X83175523Y-47532571D02*
X83746952Y-47532571D01*
X83746952Y-48056380D02*
X83746952Y-47056380D01*
X84746952Y-48056380D02*
X84175523Y-48056380D01*
X84461238Y-48056380D02*
X84461238Y-47056380D01*
X84366000Y-47199238D01*
X84270761Y-47294476D01*
X84175523Y-47342095D01*
G04 #@! TO.C,MH2*
X82032666Y-130098380D02*
X82032666Y-129098380D01*
X82366000Y-129812666D01*
X82699333Y-129098380D01*
X82699333Y-130098380D01*
X83175523Y-130098380D02*
X83175523Y-129098380D01*
X83175523Y-129574571D02*
X83746952Y-129574571D01*
X83746952Y-130098380D02*
X83746952Y-129098380D01*
X84175523Y-129193619D02*
X84223142Y-129146000D01*
X84318380Y-129098380D01*
X84556476Y-129098380D01*
X84651714Y-129146000D01*
X84699333Y-129193619D01*
X84746952Y-129288857D01*
X84746952Y-129384095D01*
X84699333Y-129526952D01*
X84127904Y-130098380D01*
X84746952Y-130098380D01*
G04 #@! TO.C,MH3*
X113636666Y-125052380D02*
X113636666Y-124052380D01*
X113970000Y-124766666D01*
X114303333Y-124052380D01*
X114303333Y-125052380D01*
X114779523Y-125052380D02*
X114779523Y-124052380D01*
X114779523Y-124528571D02*
X115350952Y-124528571D01*
X115350952Y-125052380D02*
X115350952Y-124052380D01*
X115731904Y-124052380D02*
X116350952Y-124052380D01*
X116017619Y-124433333D01*
X116160476Y-124433333D01*
X116255714Y-124480952D01*
X116303333Y-124528571D01*
X116350952Y-124623809D01*
X116350952Y-124861904D01*
X116303333Y-124957142D01*
X116255714Y-125004761D01*
X116160476Y-125052380D01*
X115874761Y-125052380D01*
X115779523Y-125004761D01*
X115731904Y-124957142D01*
G04 #@! TO.C,MH4*
X120332666Y-48458380D02*
X120332666Y-47458380D01*
X120666000Y-48172666D01*
X120999333Y-47458380D01*
X120999333Y-48458380D01*
X121475523Y-48458380D02*
X121475523Y-47458380D01*
X121475523Y-47934571D02*
X122046952Y-47934571D01*
X122046952Y-48458380D02*
X122046952Y-47458380D01*
X122951714Y-47791714D02*
X122951714Y-48458380D01*
X122713619Y-47410761D02*
X122475523Y-48125047D01*
X123094571Y-48125047D01*
G04 #@! TO.C,MH5*
X176774666Y-73490380D02*
X176774666Y-72490380D01*
X177108000Y-73204666D01*
X177441333Y-72490380D01*
X177441333Y-73490380D01*
X177917523Y-73490380D02*
X177917523Y-72490380D01*
X177917523Y-72966571D02*
X178488952Y-72966571D01*
X178488952Y-73490380D02*
X178488952Y-72490380D01*
X179441333Y-72490380D02*
X178965142Y-72490380D01*
X178917523Y-72966571D01*
X178965142Y-72918952D01*
X179060380Y-72871333D01*
X179298476Y-72871333D01*
X179393714Y-72918952D01*
X179441333Y-72966571D01*
X179488952Y-73061809D01*
X179488952Y-73299904D01*
X179441333Y-73395142D01*
X179393714Y-73442761D01*
X179298476Y-73490380D01*
X179060380Y-73490380D01*
X178965142Y-73442761D01*
X178917523Y-73395142D01*
G04 #@! TO.C,Q7*
X133456361Y-107253219D02*
X133361123Y-107205600D01*
X133265885Y-107110361D01*
X133123028Y-106967504D01*
X133027790Y-106919885D01*
X132932552Y-106919885D01*
X132980171Y-107157980D02*
X132884933Y-107110361D01*
X132789695Y-107015123D01*
X132742076Y-106824647D01*
X132742076Y-106491314D01*
X132789695Y-106300838D01*
X132884933Y-106205600D01*
X132980171Y-106157980D01*
X133170647Y-106157980D01*
X133265885Y-106205600D01*
X133361123Y-106300838D01*
X133408742Y-106491314D01*
X133408742Y-106824647D01*
X133361123Y-107015123D01*
X133265885Y-107110361D01*
X133170647Y-107157980D01*
X132980171Y-107157980D01*
X133742076Y-106157980D02*
X134408742Y-106157980D01*
X133980171Y-107157980D01*
G04 #@! TO.C,Q8*
X138131561Y-117438419D02*
X138036323Y-117390800D01*
X137941085Y-117295561D01*
X137798228Y-117152704D01*
X137702990Y-117105085D01*
X137607752Y-117105085D01*
X137655371Y-117343180D02*
X137560133Y-117295561D01*
X137464895Y-117200323D01*
X137417276Y-117009847D01*
X137417276Y-116676514D01*
X137464895Y-116486038D01*
X137560133Y-116390800D01*
X137655371Y-116343180D01*
X137845847Y-116343180D01*
X137941085Y-116390800D01*
X138036323Y-116486038D01*
X138083942Y-116676514D01*
X138083942Y-117009847D01*
X138036323Y-117200323D01*
X137941085Y-117295561D01*
X137845847Y-117343180D01*
X137655371Y-117343180D01*
X138655371Y-116771752D02*
X138560133Y-116724133D01*
X138512514Y-116676514D01*
X138464895Y-116581276D01*
X138464895Y-116533657D01*
X138512514Y-116438419D01*
X138560133Y-116390800D01*
X138655371Y-116343180D01*
X138845847Y-116343180D01*
X138941085Y-116390800D01*
X138988704Y-116438419D01*
X139036323Y-116533657D01*
X139036323Y-116581276D01*
X138988704Y-116676514D01*
X138941085Y-116724133D01*
X138845847Y-116771752D01*
X138655371Y-116771752D01*
X138560133Y-116819371D01*
X138512514Y-116866990D01*
X138464895Y-116962228D01*
X138464895Y-117152704D01*
X138512514Y-117247942D01*
X138560133Y-117295561D01*
X138655371Y-117343180D01*
X138845847Y-117343180D01*
X138941085Y-117295561D01*
X138988704Y-117247942D01*
X139036323Y-117152704D01*
X139036323Y-116962228D01*
X138988704Y-116866990D01*
X138941085Y-116819371D01*
X138845847Y-116771752D01*
G04 #@! TO.C,Q9*
X146615161Y-126379219D02*
X146519923Y-126331600D01*
X146424685Y-126236361D01*
X146281828Y-126093504D01*
X146186590Y-126045885D01*
X146091352Y-126045885D01*
X146138971Y-126283980D02*
X146043733Y-126236361D01*
X145948495Y-126141123D01*
X145900876Y-125950647D01*
X145900876Y-125617314D01*
X145948495Y-125426838D01*
X146043733Y-125331600D01*
X146138971Y-125283980D01*
X146329447Y-125283980D01*
X146424685Y-125331600D01*
X146519923Y-125426838D01*
X146567542Y-125617314D01*
X146567542Y-125950647D01*
X146519923Y-126141123D01*
X146424685Y-126236361D01*
X146329447Y-126283980D01*
X146138971Y-126283980D01*
X147043733Y-126283980D02*
X147234209Y-126283980D01*
X147329447Y-126236361D01*
X147377066Y-126188742D01*
X147472304Y-126045885D01*
X147519923Y-125855409D01*
X147519923Y-125474457D01*
X147472304Y-125379219D01*
X147424685Y-125331600D01*
X147329447Y-125283980D01*
X147138971Y-125283980D01*
X147043733Y-125331600D01*
X146996114Y-125379219D01*
X146948495Y-125474457D01*
X146948495Y-125712552D01*
X146996114Y-125807790D01*
X147043733Y-125855409D01*
X147138971Y-125903028D01*
X147329447Y-125903028D01*
X147424685Y-125855409D01*
X147472304Y-125807790D01*
X147519923Y-125712552D01*
G04 #@! TO.C,R43*
X142257542Y-109011980D02*
X141924209Y-108535790D01*
X141686114Y-109011980D02*
X141686114Y-108011980D01*
X142067066Y-108011980D01*
X142162304Y-108059600D01*
X142209923Y-108107219D01*
X142257542Y-108202457D01*
X142257542Y-108345314D01*
X142209923Y-108440552D01*
X142162304Y-108488171D01*
X142067066Y-108535790D01*
X141686114Y-108535790D01*
X143114685Y-108345314D02*
X143114685Y-109011980D01*
X142876590Y-107964361D02*
X142638495Y-108678647D01*
X143257542Y-108678647D01*
X143543257Y-108011980D02*
X144162304Y-108011980D01*
X143828971Y-108392933D01*
X143971828Y-108392933D01*
X144067066Y-108440552D01*
X144114685Y-108488171D01*
X144162304Y-108583409D01*
X144162304Y-108821504D01*
X144114685Y-108916742D01*
X144067066Y-108964361D01*
X143971828Y-109011980D01*
X143686114Y-109011980D01*
X143590876Y-108964361D01*
X143543257Y-108916742D01*
G04 #@! TO.C,R44*
X145333980Y-116924057D02*
X144857790Y-117257390D01*
X145333980Y-117495485D02*
X144333980Y-117495485D01*
X144333980Y-117114533D01*
X144381600Y-117019295D01*
X144429219Y-116971676D01*
X144524457Y-116924057D01*
X144667314Y-116924057D01*
X144762552Y-116971676D01*
X144810171Y-117019295D01*
X144857790Y-117114533D01*
X144857790Y-117495485D01*
X144667314Y-116066914D02*
X145333980Y-116066914D01*
X144286361Y-116305009D02*
X145000647Y-116543104D01*
X145000647Y-115924057D01*
X144667314Y-115114533D02*
X145333980Y-115114533D01*
X144286361Y-115352628D02*
X145000647Y-115590723D01*
X145000647Y-114971676D01*
G04 #@! TO.C,R45*
X137510780Y-130182857D02*
X137034590Y-130516190D01*
X137510780Y-130754285D02*
X136510780Y-130754285D01*
X136510780Y-130373333D01*
X136558400Y-130278095D01*
X136606019Y-130230476D01*
X136701257Y-130182857D01*
X136844114Y-130182857D01*
X136939352Y-130230476D01*
X136986971Y-130278095D01*
X137034590Y-130373333D01*
X137034590Y-130754285D01*
X136844114Y-129325714D02*
X137510780Y-129325714D01*
X136463161Y-129563809D02*
X137177447Y-129801904D01*
X137177447Y-129182857D01*
X136510780Y-128325714D02*
X136510780Y-128801904D01*
X136986971Y-128849523D01*
X136939352Y-128801904D01*
X136891733Y-128706666D01*
X136891733Y-128468571D01*
X136939352Y-128373333D01*
X136986971Y-128325714D01*
X137082209Y-128278095D01*
X137320304Y-128278095D01*
X137415542Y-128325714D01*
X137463161Y-128373333D01*
X137510780Y-128468571D01*
X137510780Y-128706666D01*
X137463161Y-128801904D01*
X137415542Y-128849523D01*
G04 #@! TD*
M02*
