<?xml version="1.0" standalone="no"?>
 <!DOCTYPE svg PUBLIC "-//W3C//DTD SVG 1.1//EN" 
 "http://www.w3.org/Graphics/SVG/1.1/DTD/svg11.dtd"> 
<svg xmlns="http://www.w3.org/2000/svg" version="1.1" 
    width="29.7002cm" height="21.0007cm" viewBox="0 0 116930 82680 ">
<title>SVG Picture created as nu.ai_motor_controller-B.Paste.svg date 2019/02/21 14:42:27 </title>
  <desc>Picture generated by PCBNEW </desc>
<g style="fill:#000000; fill-opacity:1;stroke:#000000; stroke-opacity:1;
stroke-linecap:round; stroke-linejoin:round; "
 transform="translate(0 0) scale(1 1)">
</g>
<g style="fill:#000000; fill-opacity:0.0; 
stroke:#000000; stroke-width:-0.000393701; stroke-opacity:1; 
stroke-linecap:round; stroke-linejoin:round;">
</g>
<g style="fill:#000000; fill-opacity:0.0; 
stroke:#000000; stroke-width:39.3701; stroke-opacity:1; 
stroke-linecap:round; stroke-linejoin:round;">
</g>
<g style="fill:#000000; fill-opacity:0.0; 
stroke:#000000; stroke-width:59.0551; stroke-opacity:1; 
stroke-linecap:round; stroke-linejoin:round;">
<rect x="69685.9" y="65357.2" width="42519.7" height="12598.4" rx="0" />
</g>
<g style="fill:#000000; fill-opacity:0.0; 
stroke:#000000; stroke-width:39.3701; stroke-opacity:1; 
stroke-linecap:round; stroke-linejoin:round;">
</g>
<g style="fill:#000000; fill-opacity:0.0; 
stroke:#000000; stroke-width:59.0551; stroke-opacity:1; 
stroke-linecap:round; stroke-linejoin:round;">
<rect x="3937.01" y="3937.01" width="109056" height="74806" rx="0" />
</g>
<g style="fill:#000000; fill-opacity:0.0; 
stroke:#000000; stroke-width:39.3701; stroke-opacity:1; 
stroke-linecap:round; stroke-linejoin:round;">
</g>
<g style="fill:#000000; fill-opacity:0.0; 
stroke:#000000; stroke-width:59.0551; stroke-opacity:1; 
stroke-linecap:round; stroke-linejoin:round;">
<rect x="4724.41" y="4724.41" width="107481" height="73231.2" rx="0" />
</g>
<g style="fill:#000000; fill-opacity:0.0; 
stroke:#000000; stroke-width:39.3701; stroke-opacity:1; 
stroke-linecap:round; stroke-linejoin:round;">
</g>
<g style="fill:#000000; fill-opacity:0.0; 
stroke:#000000; stroke-width:59.0551; stroke-opacity:1; 
stroke-linecap:round; stroke-linejoin:round;">
<path d="M23622 4724
L23622 3937
" />
</g>
<g style="fill:#000000; fill-opacity:0.0; 
stroke:#000000; stroke-width:39.3701; stroke-opacity:1; 
stroke-linecap:round; stroke-linejoin:round;">
</g>
<g style="fill:#000000; fill-opacity:0.0; 
stroke:#000000; stroke-width:59.0551; stroke-opacity:1; 
stroke-linecap:round; stroke-linejoin:round;">
<path d="M43307 4724
L43307 3937
" />
</g>
<g style="fill:#000000; fill-opacity:0.0; 
stroke:#000000; stroke-width:39.3701; stroke-opacity:1; 
stroke-linecap:round; stroke-linejoin:round;">
</g>
<g style="fill:#000000; fill-opacity:0.0; 
stroke:#000000; stroke-width:59.0551; stroke-opacity:1; 
stroke-linecap:round; stroke-linejoin:round;">
<path d="M62992 4724
L62992 3937
" />
</g>
<g style="fill:#000000; fill-opacity:0.0; 
stroke:#000000; stroke-width:39.3701; stroke-opacity:1; 
stroke-linecap:round; stroke-linejoin:round;">
</g>
<g style="fill:#000000; fill-opacity:0.0; 
stroke:#000000; stroke-width:59.0551; stroke-opacity:1; 
stroke-linecap:round; stroke-linejoin:round;">
<path d="M82677 4724
L82677 3937
" />
</g>
<g style="fill:#000000; fill-opacity:0.0; 
stroke:#000000; stroke-width:39.3701; stroke-opacity:1; 
stroke-linecap:round; stroke-linejoin:round;">
</g>
<g style="fill:#000000; fill-opacity:0.0; 
stroke:#000000; stroke-width:59.0551; stroke-opacity:1; 
stroke-linecap:round; stroke-linejoin:round;">
<path d="M102362 4724
L102362 3937
" />
</g>
<g style="fill:#000000; fill-opacity:0.0; 
stroke:#000000; stroke-width:39.3701; stroke-opacity:1; 
stroke-linecap:round; stroke-linejoin:round;">
</g>
<g style="fill:#000000; fill-opacity:0.0; 
stroke:#000000; stroke-width:59.0551; stroke-opacity:1; 
stroke-linecap:round; stroke-linejoin:round;">
<path d="M14199 4562
L13906 4562
" />
<path d="M14052 4562
L14052 4050
L14004 4123
L13955 4172
L13906 4196
" />
</g>
<g style="fill:#000000; fill-opacity:0.0; 
stroke:#000000; stroke-width:39.3701; stroke-opacity:1; 
stroke-linecap:round; stroke-linejoin:round;">
</g>
<g style="fill:#000000; fill-opacity:0.0; 
stroke:#000000; stroke-width:59.0551; stroke-opacity:1; 
stroke-linecap:round; stroke-linejoin:round;">
<path d="M33591 4099
L33615 4074
L33664 4050
L33786 4050
L33835 4074
L33859 4099
L33884 4147
L33884 4196
L33859 4269
L33567 4562
L33884 4562
" />
</g>
<g style="fill:#000000; fill-opacity:0.0; 
stroke:#000000; stroke-width:39.3701; stroke-opacity:1; 
stroke-linecap:round; stroke-linejoin:round;">
</g>
<g style="fill:#000000; fill-opacity:0.0; 
stroke:#000000; stroke-width:59.0551; stroke-opacity:1; 
stroke-linecap:round; stroke-linejoin:round;">
<path d="M53252 4050
L53569 4050
L53398 4245
L53471 4245
L53520 4269
L53544 4294
L53569 4342
L53569 4464
L53544 4513
L53520 4537
L53471 4562
L53325 4562
L53276 4537
L53252 4513
" />
</g>
<g style="fill:#000000; fill-opacity:0.0; 
stroke:#000000; stroke-width:39.3701; stroke-opacity:1; 
stroke-linecap:round; stroke-linejoin:round;">
</g>
<g style="fill:#000000; fill-opacity:0.0; 
stroke:#000000; stroke-width:59.0551; stroke-opacity:1; 
stroke-linecap:round; stroke-linejoin:round;">
<path d="M73205 4221
L73205 4562
" />
<path d="M73083 4026
L72961 4391
L73278 4391
" />
</g>
<g style="fill:#000000; fill-opacity:0.0; 
stroke:#000000; stroke-width:39.3701; stroke-opacity:1; 
stroke-linecap:round; stroke-linejoin:round;">
</g>
<g style="fill:#000000; fill-opacity:0.0; 
stroke:#000000; stroke-width:59.0551; stroke-opacity:1; 
stroke-linecap:round; stroke-linejoin:round;">
<path d="M92914 4050
L92671 4050
L92646 4294
L92671 4269
L92719 4245
L92841 4245
L92890 4269
L92914 4294
L92939 4342
L92939 4464
L92914 4513
L92890 4537
L92841 4562
L92719 4562
L92671 4537
L92646 4513
" />
</g>
<g style="fill:#000000; fill-opacity:0.0; 
stroke:#000000; stroke-width:39.3701; stroke-opacity:1; 
stroke-linecap:round; stroke-linejoin:round;">
</g>
<g style="fill:#000000; fill-opacity:0.0; 
stroke:#000000; stroke-width:59.0551; stroke-opacity:1; 
stroke-linecap:round; stroke-linejoin:round;">
<path d="M112575 4050
L112477 4050
L112429 4074
L112404 4099
L112356 4172
L112331 4269
L112331 4464
L112356 4513
L112380 4537
L112429 4562
L112526 4562
L112575 4537
L112599 4513
L112624 4464
L112624 4342
L112599 4294
L112575 4269
L112526 4245
L112429 4245
L112380 4269
L112356 4294
L112331 4342
" />
</g>
<g style="fill:#000000; fill-opacity:0.0; 
stroke:#000000; stroke-width:39.3701; stroke-opacity:1; 
stroke-linecap:round; stroke-linejoin:round;">
</g>
<g style="fill:#000000; fill-opacity:0.0; 
stroke:#000000; stroke-width:59.0551; stroke-opacity:1; 
stroke-linecap:round; stroke-linejoin:round;">
<path d="M23622 77955
L23622 78742
" />
</g>
<g style="fill:#000000; fill-opacity:0.0; 
stroke:#000000; stroke-width:39.3701; stroke-opacity:1; 
stroke-linecap:round; stroke-linejoin:round;">
</g>
<g style="fill:#000000; fill-opacity:0.0; 
stroke:#000000; stroke-width:59.0551; stroke-opacity:1; 
stroke-linecap:round; stroke-linejoin:round;">
<path d="M43307 77955
L43307 78742
" />
</g>
<g style="fill:#000000; fill-opacity:0.0; 
stroke:#000000; stroke-width:39.3701; stroke-opacity:1; 
stroke-linecap:round; stroke-linejoin:round;">
</g>
<g style="fill:#000000; fill-opacity:0.0; 
stroke:#000000; stroke-width:59.0551; stroke-opacity:1; 
stroke-linecap:round; stroke-linejoin:round;">
<path d="M62992 77955
L62992 78742
" />
</g>
<g style="fill:#000000; fill-opacity:0.0; 
stroke:#000000; stroke-width:39.3701; stroke-opacity:1; 
stroke-linecap:round; stroke-linejoin:round;">
</g>
<g style="fill:#000000; fill-opacity:0.0; 
stroke:#000000; stroke-width:59.0551; stroke-opacity:1; 
stroke-linecap:round; stroke-linejoin:round;">
<path d="M82677 77955
L82677 78742
" />
</g>
<g style="fill:#000000; fill-opacity:0.0; 
stroke:#000000; stroke-width:39.3701; stroke-opacity:1; 
stroke-linecap:round; stroke-linejoin:round;">
</g>
<g style="fill:#000000; fill-opacity:0.0; 
stroke:#000000; stroke-width:59.0551; stroke-opacity:1; 
stroke-linecap:round; stroke-linejoin:round;">
<path d="M102362 77955
L102362 78742
" />
</g>
<g style="fill:#000000; fill-opacity:0.0; 
stroke:#000000; stroke-width:39.3701; stroke-opacity:1; 
stroke-linecap:round; stroke-linejoin:round;">
</g>
<g style="fill:#000000; fill-opacity:0.0; 
stroke:#000000; stroke-width:59.0551; stroke-opacity:1; 
stroke-linecap:round; stroke-linejoin:round;">
<path d="M14199 78580
L13906 78580
" />
<path d="M14052 78580
L14052 78069
L14004 78142
L13955 78190
L13906 78215
" />
</g>
<g style="fill:#000000; fill-opacity:0.0; 
stroke:#000000; stroke-width:39.3701; stroke-opacity:1; 
stroke-linecap:round; stroke-linejoin:round;">
</g>
<g style="fill:#000000; fill-opacity:0.0; 
stroke:#000000; stroke-width:59.0551; stroke-opacity:1; 
stroke-linecap:round; stroke-linejoin:round;">
<path d="M33591 78117
L33615 78093
L33664 78069
L33786 78069
L33835 78093
L33859 78117
L33884 78166
L33884 78215
L33859 78288
L33567 78580
L33884 78580
" />
</g>
<g style="fill:#000000; fill-opacity:0.0; 
stroke:#000000; stroke-width:39.3701; stroke-opacity:1; 
stroke-linecap:round; stroke-linejoin:round;">
</g>
<g style="fill:#000000; fill-opacity:0.0; 
stroke:#000000; stroke-width:59.0551; stroke-opacity:1; 
stroke-linecap:round; stroke-linejoin:round;">
<path d="M53252 78069
L53569 78069
L53398 78263
L53471 78263
L53520 78288
L53544 78312
L53569 78361
L53569 78483
L53544 78532
L53520 78556
L53471 78580
L53325 78580
L53276 78556
L53252 78532
" />
</g>
<g style="fill:#000000; fill-opacity:0.0; 
stroke:#000000; stroke-width:39.3701; stroke-opacity:1; 
stroke-linecap:round; stroke-linejoin:round;">
</g>
<g style="fill:#000000; fill-opacity:0.0; 
stroke:#000000; stroke-width:59.0551; stroke-opacity:1; 
stroke-linecap:round; stroke-linejoin:round;">
<path d="M73205 78239
L73205 78580
" />
<path d="M73083 78044
L72961 78410
L73278 78410
" />
</g>
<g style="fill:#000000; fill-opacity:0.0; 
stroke:#000000; stroke-width:39.3701; stroke-opacity:1; 
stroke-linecap:round; stroke-linejoin:round;">
</g>
<g style="fill:#000000; fill-opacity:0.0; 
stroke:#000000; stroke-width:59.0551; stroke-opacity:1; 
stroke-linecap:round; stroke-linejoin:round;">
<path d="M92914 78069
L92671 78069
L92646 78312
L92671 78288
L92719 78263
L92841 78263
L92890 78288
L92914 78312
L92939 78361
L92939 78483
L92914 78532
L92890 78556
L92841 78580
L92719 78580
L92671 78556
L92646 78532
" />
</g>
<g style="fill:#000000; fill-opacity:0.0; 
stroke:#000000; stroke-width:39.3701; stroke-opacity:1; 
stroke-linecap:round; stroke-linejoin:round;">
</g>
<g style="fill:#000000; fill-opacity:0.0; 
stroke:#000000; stroke-width:59.0551; stroke-opacity:1; 
stroke-linecap:round; stroke-linejoin:round;">
<path d="M112575 78069
L112477 78069
L112429 78093
L112404 78117
L112356 78190
L112331 78288
L112331 78483
L112356 78532
L112380 78556
L112429 78580
L112526 78580
L112575 78556
L112599 78532
L112624 78483
L112624 78361
L112599 78312
L112575 78288
L112526 78263
L112429 78263
L112380 78288
L112356 78312
L112331 78361
" />
</g>
<g style="fill:#000000; fill-opacity:0.0; 
stroke:#000000; stroke-width:39.3701; stroke-opacity:1; 
stroke-linecap:round; stroke-linejoin:round;">
</g>
<g style="fill:#000000; fill-opacity:0.0; 
stroke:#000000; stroke-width:59.0551; stroke-opacity:1; 
stroke-linecap:round; stroke-linejoin:round;">
<path d="M3937 23622
L4724 23622
" />
</g>
<g style="fill:#000000; fill-opacity:0.0; 
stroke:#000000; stroke-width:39.3701; stroke-opacity:1; 
stroke-linecap:round; stroke-linejoin:round;">
</g>
<g style="fill:#000000; fill-opacity:0.0; 
stroke:#000000; stroke-width:59.0551; stroke-opacity:1; 
stroke-linecap:round; stroke-linejoin:round;">
<path d="M3937 43307
L4724 43307
" />
</g>
<g style="fill:#000000; fill-opacity:0.0; 
stroke:#000000; stroke-width:39.3701; stroke-opacity:1; 
stroke-linecap:round; stroke-linejoin:round;">
</g>
<g style="fill:#000000; fill-opacity:0.0; 
stroke:#000000; stroke-width:59.0551; stroke-opacity:1; 
stroke-linecap:round; stroke-linejoin:round;">
<path d="M3937 62992
L4724 62992
" />
</g>
<g style="fill:#000000; fill-opacity:0.0; 
stroke:#000000; stroke-width:39.3701; stroke-opacity:1; 
stroke-linecap:round; stroke-linejoin:round;">
</g>
<g style="fill:#000000; fill-opacity:0.0; 
stroke:#000000; stroke-width:59.0551; stroke-opacity:1; 
stroke-linecap:round; stroke-linejoin:round;">
<path d="M4208 13864
L4452 13864
" />
<path d="M4160 14011
L4330 13499
L4501 14011
" />
</g>
<g style="fill:#000000; fill-opacity:0.0; 
stroke:#000000; stroke-width:39.3701; stroke-opacity:1; 
stroke-linecap:round; stroke-linejoin:round;">
</g>
<g style="fill:#000000; fill-opacity:0.0; 
stroke:#000000; stroke-width:59.0551; stroke-opacity:1; 
stroke-linecap:round; stroke-linejoin:round;">
<path d="M4367 33428
L4440 33452
L4464 33476
L4489 33525
L4489 33598
L4464 33647
L4440 33671
L4391 33696
L4196 33696
L4196 33184
L4367 33184
L4416 33208
L4440 33233
L4464 33281
L4464 33330
L4440 33379
L4416 33403
L4367 33428
L4196 33428
" />
</g>
<g style="fill:#000000; fill-opacity:0.0; 
stroke:#000000; stroke-width:39.3701; stroke-opacity:1; 
stroke-linecap:round; stroke-linejoin:round;">
</g>
<g style="fill:#000000; fill-opacity:0.0; 
stroke:#000000; stroke-width:59.0551; stroke-opacity:1; 
stroke-linecap:round; stroke-linejoin:round;">
<path d="M4489 53332
L4464 53356
L4391 53381
L4342 53381
L4269 53356
L4221 53308
L4196 53259
L4172 53161
L4172 53088
L4196 52991
L4221 52942
L4269 52893
L4342 52869
L4391 52869
L4464 52893
L4489 52918
" />
</g>
<g style="fill:#000000; fill-opacity:0.0; 
stroke:#000000; stroke-width:39.3701; stroke-opacity:1; 
stroke-linecap:round; stroke-linejoin:round;">
</g>
<g style="fill:#000000; fill-opacity:0.0; 
stroke:#000000; stroke-width:59.0551; stroke-opacity:1; 
stroke-linecap:round; stroke-linejoin:round;">
<path d="M4196 73066
L4196 72554
L4318 72554
L4391 72578
L4440 72627
L4464 72676
L4489 72773
L4489 72846
L4464 72944
L4440 72993
L4391 73041
L4318 73066
L4196 73066
" />
</g>
<g style="fill:#000000; fill-opacity:0.0; 
stroke:#000000; stroke-width:39.3701; stroke-opacity:1; 
stroke-linecap:round; stroke-linejoin:round;">
</g>
<g style="fill:#000000; fill-opacity:0.0; 
stroke:#000000; stroke-width:59.0551; stroke-opacity:1; 
stroke-linecap:round; stroke-linejoin:round;">
<path d="M112992 23622
L112205 23622
" />
</g>
<g style="fill:#000000; fill-opacity:0.0; 
stroke:#000000; stroke-width:39.3701; stroke-opacity:1; 
stroke-linecap:round; stroke-linejoin:round;">
</g>
<g style="fill:#000000; fill-opacity:0.0; 
stroke:#000000; stroke-width:59.0551; stroke-opacity:1; 
stroke-linecap:round; stroke-linejoin:round;">
<path d="M112992 43307
L112205 43307
" />
</g>
<g style="fill:#000000; fill-opacity:0.0; 
stroke:#000000; stroke-width:39.3701; stroke-opacity:1; 
stroke-linecap:round; stroke-linejoin:round;">
</g>
<g style="fill:#000000; fill-opacity:0.0; 
stroke:#000000; stroke-width:59.0551; stroke-opacity:1; 
stroke-linecap:round; stroke-linejoin:round;">
<path d="M112992 62992
L112205 62992
" />
</g>
<g style="fill:#000000; fill-opacity:0.0; 
stroke:#000000; stroke-width:39.3701; stroke-opacity:1; 
stroke-linecap:round; stroke-linejoin:round;">
</g>
<g style="fill:#000000; fill-opacity:0.0; 
stroke:#000000; stroke-width:59.0551; stroke-opacity:1; 
stroke-linecap:round; stroke-linejoin:round;">
<path d="M112477 13864
L112721 13864
" />
<path d="M112428 14011
L112599 13499
L112769 14011
" />
</g>
<g style="fill:#000000; fill-opacity:0.0; 
stroke:#000000; stroke-width:39.3701; stroke-opacity:1; 
stroke-linecap:round; stroke-linejoin:round;">
</g>
<g style="fill:#000000; fill-opacity:0.0; 
stroke:#000000; stroke-width:59.0551; stroke-opacity:1; 
stroke-linecap:round; stroke-linejoin:round;">
<path d="M112635 33428
L112708 33452
L112733 33476
L112757 33525
L112757 33598
L112733 33647
L112708 33671
L112660 33696
L112465 33696
L112465 33184
L112635 33184
L112684 33208
L112708 33233
L112733 33281
L112733 33330
L112708 33379
L112684 33403
L112635 33428
L112465 33428
" />
</g>
<g style="fill:#000000; fill-opacity:0.0; 
stroke:#000000; stroke-width:39.3701; stroke-opacity:1; 
stroke-linecap:round; stroke-linejoin:round;">
</g>
<g style="fill:#000000; fill-opacity:0.0; 
stroke:#000000; stroke-width:59.0551; stroke-opacity:1; 
stroke-linecap:round; stroke-linejoin:round;">
<path d="M112757 53332
L112733 53356
L112660 53381
L112611 53381
L112538 53356
L112489 53308
L112465 53259
L112440 53161
L112440 53088
L112465 52991
L112489 52942
L112538 52893
L112611 52869
L112660 52869
L112733 52893
L112757 52918
" />
</g>
<g style="fill:#000000; fill-opacity:0.0; 
stroke:#000000; stroke-width:39.3701; stroke-opacity:1; 
stroke-linecap:round; stroke-linejoin:round;">
</g>
<g style="fill:#000000; fill-opacity:0.0; 
stroke:#000000; stroke-width:59.0551; stroke-opacity:1; 
stroke-linecap:round; stroke-linejoin:round;">
<path d="M112465 73066
L112465 72554
L112587 72554
L112660 72578
L112708 72627
L112733 72676
L112757 72773
L112757 72846
L112733 72944
L112708 72993
L112660 73041
L112587 73066
L112465 73066
" />
</g>
<g style="fill:#000000; fill-opacity:0.0; 
stroke:#000000; stroke-width:39.3701; stroke-opacity:1; 
stroke-linecap:round; stroke-linejoin:round;">
</g>
<g style="fill:#000000; fill-opacity:0.0; 
stroke:#000000; stroke-width:59.0551; stroke-opacity:1; 
stroke-linecap:round; stroke-linejoin:round;">
<path d="M78911 76293
L78911 75703
L79051 75703
L79136 75731
L79192 75787
L79220 75843
L79248 75956
L79248 76040
L79220 76153
L79192 76209
L79136 76265
L79051 76293
L78911 76293
" />
<path d="M79754 76293
L79754 75984
L79726 75928
L79670 75899
L79557 75899
L79501 75928
" />
<path d="M79754 76265
L79698 76293
L79557 76293
L79501 76265
L79473 76209
L79473 76153
L79501 76096
L79557 76068
L79698 76068
L79754 76040
" />
<path d="M79951 75899
L80176 75899
" />
<path d="M80036 75703
L80036 76209
L80064 76265
L80120 76293
L80176 76293
" />
<path d="M80598 76265
L80542 76293
L80429 76293
L80373 76265
L80345 76209
L80345 75984
L80373 75928
L80429 75899
L80542 75899
L80598 75928
L80626 75984
L80626 76040
L80345 76096
" />
<path d="M80879 76237
L80907 76265
L80879 76293
L80851 76265
L80879 76237
L80879 76293
" />
<path d="M80879 75928
L80907 75956
L80879 75984
L80851 75956
L80879 75928
L80879 75984
" />
</g>
<g style="fill:#000000; fill-opacity:0.0; 
stroke:#000000; stroke-width:39.3701; stroke-opacity:1; 
stroke-linecap:round; stroke-linejoin:round;">
</g>
<g style="fill:#000000; fill-opacity:0.0; 
stroke:#000000; stroke-width:59.0551; stroke-opacity:1; 
stroke-linecap:round; stroke-linejoin:round;">
<path d="M69685 76577
L112205 76577
" />
</g>
<g style="fill:#000000; fill-opacity:0.0; 
stroke:#000000; stroke-width:39.3701; stroke-opacity:1; 
stroke-linecap:round; stroke-linejoin:round;">
</g>
<g style="fill:#000000; fill-opacity:0.0; 
stroke:#000000; stroke-width:59.0551; stroke-opacity:1; 
stroke-linecap:round; stroke-linejoin:round;">
<path d="M70249 77395
L70249 76805
" />
<path d="M70587 77395
L70334 77058
" />
<path d="M70587 76805
L70249 77142
" />
<path d="M70840 77395
L70840 77002
" />
<path d="M70840 76805
L70812 76833
L70840 76861
L70868 76833
L70840 76805
L70840 76861
" />
<path d="M71458 77339
L71430 77367
L71346 77395
L71290 77395
L71205 77367
L71149 77311
L71121 77255
L71093 77142
L71093 77058
L71121 76946
L71149 76889
L71205 76833
L71290 76805
L71346 76805
L71430 76833
L71458 76861
" />
<path d="M71965 77395
L71965 77086
L71937 77030
L71880 77002
L71768 77002
L71712 77030
" />
<path d="M71965 77367
L71908 77395
L71768 77395
L71712 77367
L71683 77311
L71683 77255
L71712 77199
L71768 77171
L71908 77171
L71965 77142
" />
<path d="M72499 77395
L72499 76805
" />
<path d="M72499 77367
L72443 77395
L72330 77395
L72274 77367
L72246 77339
L72218 77283
L72218 77114
L72246 77058
L72274 77030
L72330 77002
L72443 77002
L72499 77030
" />
<path d="M73230 77086
L73427 77086
" />
<path d="M73511 77395
L73230 77395
L73230 76805
L73511 76805
" />
<path d="M73764 77339
L73793 77367
L73764 77395
L73736 77367
L73764 77339
L73764 77395
" />
<path d="M74046 77395
L74046 76805
L74186 76805
L74271 76833
L74327 76889
L74355 76946
L74383 77058
L74383 77142
L74355 77255
L74327 77311
L74271 77367
L74186 77395
L74046 77395
" />
<path d="M74636 77339
L74664 77367
L74636 77395
L74608 77367
L74636 77339
L74636 77395
" />
<path d="M74889 77227
L75171 77227
" />
<path d="M74833 77395
L75030 76805
L75227 77395
" />
<path d="M75424 77339
L75452 77367
L75424 77395
L75395 77367
L75424 77339
L75424 77395
" />
<path d="M76605 77395
L76605 76805
" />
<path d="M76661 77171
L76830 77395
" />
<path d="M76830 77002
L76605 77227
" />
<path d="M77083 77395
L77083 77002
" />
<path d="M77083 76805
L77055 76833
L77083 76861
L77111 76833
L77083 76805
L77083 76861
" />
<path d="M77617 77367
L77561 77395
L77448 77395
L77392 77367
L77364 77339
L77336 77283
L77336 77114
L77364 77058
L77392 77030
L77448 77002
L77561 77002
L77617 77030
" />
<path d="M78123 77395
L78123 77086
L78095 77030
L78039 77002
L77926 77002
L77870 77030
" />
<path d="M78123 77367
L78067 77395
L77926 77395
L77870 77367
L77842 77311
L77842 77255
L77870 77199
L77926 77171
L78067 77171
L78123 77142
" />
<path d="M78658 77395
L78658 76805
" />
<path d="M78658 77367
L78601 77395
L78489 77395
L78433 77367
L78404 77339
L78376 77283
L78376 77114
L78404 77058
L78433 77030
L78489 77002
L78601 77002
L78658 77030
" />
<path d="M79670 76805
L79389 76805
L79361 77086
L79389 77058
L79445 77030
L79586 77030
L79642 77058
L79670 77086
L79698 77142
L79698 77283
L79670 77339
L79642 77367
L79586 77395
L79445 77395
L79389 77367
L79361 77339
" />
<path d="M79951 77339
L79979 77367
L79951 77395
L79923 77367
L79951 77339
L79951 77395
" />
<path d="M80345 76805
L80401 76805
L80457 76833
L80485 76861
L80514 76917
L80542 77030
L80542 77171
L80514 77283
L80485 77339
L80457 77367
L80401 77395
L80345 77395
L80289 77367
L80260 77339
L80232 77283
L80204 77171
L80204 77030
L80232 76917
L80260 76861
L80289 76833
L80345 76805
" />
<path d="M80795 77339
L80823 77367
L80795 77395
L80767 77367
L80795 77339
L80795 77395
" />
<path d="M81048 76861
L81076 76833
L81132 76805
L81273 76805
L81329 76833
L81357 76861
L81385 76917
L81385 76974
L81357 77058
L81020 77395
L81385 77395
" />
<path d="M81638 77171
L82088 77171
" />
<path d="M81863 77395
L81863 76946
" />
<path d="M82623 77395
L82623 76805
" />
<path d="M82623 77367
L82566 77395
L82454 77395
L82398 77367
L82370 77339
L82341 77283
L82341 77114
L82370 77058
L82398 77030
L82454 77002
L82566 77002
L82623 77030
" />
<path d="M82820 77002
L83045 77002
" />
<path d="M82904 77395
L82904 76889
L82932 76833
L82988 76805
L83045 76805
" />
<path d="M83213 77367
L83269 77395
L83382 77395
L83438 77367
L83466 77311
L83466 77283
L83438 77227
L83382 77199
L83298 77199
L83241 77171
L83213 77114
L83213 77086
L83241 77030
L83298 77002
L83382 77002
L83438 77030
" />
<path d="M83973 77002
L83973 77480
L83944 77536
L83916 77564
L83860 77592
L83776 77592
L83719 77564
" />
<path d="M83973 77367
L83916 77395
L83804 77395
L83748 77367
L83719 77339
L83691 77283
L83691 77114
L83719 77058
L83748 77030
L83804 77002
L83916 77002
L83973 77030
" />
<path d="M84563 77395
L84226 77395
" />
<path d="M84394 77395
L84394 76805
L84338 76889
L84282 76946
L84226 76974
" />
<path d="M84816 77171
L85266 77171
" />
<path d="M85857 77395
L85519 77395
" />
<path d="M85688 77395
L85688 76805
L85632 76889
L85575 76946
L85519 76974
" />
<path d="M85969 76644
L86503 76644
" />
<path d="M86110 77395
L86110 76805
" />
<path d="M86110 77030
L86166 77002
L86278 77002
L86335 77030
L86363 77058
L86391 77114
L86391 77283
L86363 77339
L86335 77367
L86278 77395
L86166 77395
L86110 77367
" />
<path d="M86503 76644
L87038 76644
" />
<path d="M86644 77002
L86644 77592
" />
<path d="M86644 77030
L86700 77002
L86813 77002
L86869 77030
L86897 77058
L86925 77114
L86925 77283
L86897 77339
L86869 77367
L86813 77395
L86700 77395
L86644 77367
" />
<path d="M87038 76644
L87572 76644
" />
<path d="M87263 77395
L87206 77367
L87178 77339
L87150 77283
L87150 77114
L87178 77058
L87206 77030
L87263 77002
L87347 77002
L87403 77030
L87431 77058
L87460 77114
L87460 77283
L87431 77339
L87403 77367
L87347 77395
L87263 77395
" />
<path d="M87572 76644
L88135 76644
" />
<path d="M87741 77395
L87853 77395
L87910 77367
L87938 77339
L87994 77255
L88022 77142
L88022 76917
L87994 76861
L87966 76833
L87910 76805
L87797 76805
L87741 76833
L87713 76861
L87685 76917
L87685 77058
L87713 77114
L87741 77142
L87797 77171
L87910 77171
L87966 77142
L87994 77114
L88022 77058
" />
<path d="M88135 76644
L88866 76644
" />
<path d="M88275 77171
L88725 77171
" />
<path d="M88500 77395
L88500 76946
" />
<path d="M88866 76644
L89428 76644
" />
<path d="M89316 77395
L88978 77395
" />
<path d="M89147 77395
L89147 76805
L89091 76889
L89034 76946
L88978 76974
" />
</g>
<g style="fill:#000000; fill-opacity:0.0; 
stroke:#000000; stroke-width:39.3701; stroke-opacity:1; 
stroke-linecap:round; stroke-linejoin:round;">
</g>
<g style="fill:#000000; fill-opacity:0.0; 
stroke:#000000; stroke-width:59.0551; stroke-opacity:1; 
stroke-linecap:round; stroke-linejoin:round;">
<path d="M69685 75396
L112205 75396
" />
</g>
<g style="fill:#000000; fill-opacity:0.0; 
stroke:#000000; stroke-width:39.3701; stroke-opacity:1; 
stroke-linecap:round; stroke-linejoin:round;">
</g>
<g style="fill:#000000; fill-opacity:0.0; 
stroke:#000000; stroke-width:118.11; stroke-opacity:1; 
stroke-linecap:round; stroke-linejoin:round;">
<path d="M104099 76293
L103902 76012
" />
<path d="M103761 76293
L103761 75703
L103986 75703
L104042 75731
L104070 75759
L104099 75815
L104099 75899
L104070 75956
L104042 75984
L103986 76012
L103761 76012
" />
<path d="M104577 76265
L104520 76293
L104408 76293
L104352 76265
L104323 76209
L104323 75984
L104352 75928
L104408 75899
L104520 75899
L104577 75928
L104605 75984
L104605 76040
L104323 76096
" />
<path d="M104802 75899
L104942 76293
L105083 75899
" />
<path d="M105308 76237
L105336 76265
L105308 76293
L105280 76265
L105308 76237
L105308 76293
" />
<path d="M105308 75928
L105336 75956
L105308 75984
L105280 75956
L105308 75928
L105308 75984
" />
</g>
<g style="fill:#000000; fill-opacity:0.0; 
stroke:#000000; stroke-width:39.3701; stroke-opacity:1; 
stroke-linecap:round; stroke-linejoin:round;">
</g>
<g style="fill:#000000; fill-opacity:0.0; 
stroke:#000000; stroke-width:59.0551; stroke-opacity:1; 
stroke-linecap:round; stroke-linejoin:round;">
<path d="M70221 76265
L70305 76293
L70446 76293
L70502 76265
L70530 76237
L70559 76181
L70559 76124
L70530 76068
L70502 76040
L70446 76012
L70334 75984
L70277 75956
L70249 75928
L70221 75871
L70221 75815
L70249 75759
L70277 75731
L70334 75703
L70474 75703
L70559 75731
" />
<path d="M70812 76293
L70812 75899
" />
<path d="M70812 75703
L70784 75731
L70812 75759
L70840 75731
L70812 75703
L70812 75759
" />
<path d="M71037 75899
L71346 75899
L71037 76293
L71346 76293
" />
<path d="M71796 76265
L71740 76293
L71627 76293
L71571 76265
L71543 76209
L71543 75984
L71571 75928
L71627 75899
L71740 75899
L71796 75928
L71824 75984
L71824 76040
L71543 76096
" />
<path d="M72077 76237
L72105 76265
L72077 76293
L72049 76265
L72077 76237
L72077 76293
" />
<path d="M72077 75928
L72105 75956
L72077 75984
L72049 75956
L72077 75928
L72077 75984
" />
<path d="M72780 76124
L73061 76124
" />
<path d="M72724 76293
L72921 75703
L73118 76293
" />
<path d="M73568 75899
L73568 76293
" />
<path d="M73427 75674
L73286 76096
L73652 76096
" />
</g>
<g style="fill:#000000; fill-opacity:0.0; 
stroke:#000000; stroke-width:39.3701; stroke-opacity:1; 
stroke-linecap:round; stroke-linejoin:round;">
</g>
<g style="fill:#000000; fill-opacity:0.0; 
stroke:#000000; stroke-width:59.0551; stroke-opacity:1; 
stroke-linecap:round; stroke-linejoin:round;">
<path d="M103714 77395
L103714 76805
" />
<path d="M104248 77395
L104248 76805
" />
<path d="M104248 77367
L104192 77395
L104079 77395
L104023 77367
L103995 77339
L103967 77283
L103967 77114
L103995 77058
L104023 77030
L104079 77002
L104192 77002
L104248 77030
" />
<path d="M104529 77339
L104557 77367
L104529 77395
L104501 77367
L104529 77339
L104529 77395
" />
<path d="M104529 77030
L104557 77058
L104529 77086
L104501 77058
L104529 77030
L104529 77086
" />
<path d="M105570 77395
L105232 77395
" />
<path d="M105401 77395
L105401 76805
L105345 76889
L105289 76946
L105232 76974
" />
<path d="M106245 76777
L105739 77536
" />
<path d="M106751 77395
L106413 77395
" />
<path d="M106582 77395
L106582 76805
L106526 76889
L106470 76946
L106413 76974
" />
</g>
<g style="fill:#000000; fill-opacity:0.0; 
stroke:#000000; stroke-width:39.3701; stroke-opacity:1; 
stroke-linecap:round; stroke-linejoin:round;">
</g>
<g style="fill:#000000; fill-opacity:0.0; 
stroke:#000000; stroke-width:59.0551; stroke-opacity:1; 
stroke-linecap:round; stroke-linejoin:round;">
<path d="M69685 73821
L112205 73821
" />
</g>
<g style="fill:#000000; fill-opacity:0.0; 
stroke:#000000; stroke-width:39.3701; stroke-opacity:1; 
stroke-linecap:round; stroke-linejoin:round;">
</g>
<g style="fill:#000000; fill-opacity:0.0; 
stroke:#000000; stroke-width:157.48; stroke-opacity:1; 
stroke-linecap:round; stroke-linejoin:round;">
<path d="M70360 74099
L70810 74099
" />
<path d="M70486 74886
L70585 74099
" />
<path d="M70974 74886
L71039 74361
" />
<path d="M71072 74099
L71030 74136
L71063 74174
L71105 74136
L71072 74099
L71063 74174
" />
<path d="M71302 74361
L71602 74361
" />
<path d="M71447 74099
L71363 74774
L71391 74849
L71461 74886
L71536 74886
" />
<path d="M71911 74886
L71841 74849
L71813 74774
L71897 74099
" />
<path d="M72516 74849
L72436 74886
L72286 74886
L72216 74849
L72187 74774
L72225 74474
L72272 74399
L72352 74361
L72501 74361
L72572 74399
L72600 74474
L72591 74549
L72206 74624
" />
<path d="M72895 74811
L72928 74849
L72886 74886
L72853 74849
L72895 74811
L72886 74886
" />
<path d="M72947 74399
L72980 74436
L72937 74474
L72905 74436
L72947 74399
L72937 74474
" />
</g>
<g style="fill:#000000; fill-opacity:0.0; 
stroke:#000000; stroke-width:39.3701; stroke-opacity:1; 
stroke-linecap:round; stroke-linejoin:round;">
</g>
<g style="fill:#000000; fill-opacity:0.0; 
stroke:#000000; stroke-width:59.0551; stroke-opacity:1; 
stroke-linecap:round; stroke-linejoin:round;">
<path d="M70446 73070
L70249 73070
" />
<path d="M70249 73380
L70249 72789
L70530 72789
" />
<path d="M70755 73380
L70755 72986
" />
<path d="M70755 72789
L70727 72817
L70755 72845
L70784 72817
L70755 72789
L70755 72845
" />
<path d="M71121 73380
L71065 73352
L71037 73295
L71037 72789
" />
<path d="M71571 73352
L71515 73380
L71402 73380
L71346 73352
L71318 73295
L71318 73070
L71346 73014
L71402 72986
L71515 72986
L71571 73014
L71599 73070
L71599 73127
L71318 73183
" />
<path d="M71852 73323
L71880 73352
L71852 73380
L71824 73352
L71852 73323
L71852 73380
" />
<path d="M71852 73014
L71880 73042
L71852 73070
L71824 73042
L71852 73014
L71852 73070
" />
<path d="M72583 72986
L72583 73380
" />
<path d="M72583 73042
L72611 73014
L72668 72986
L72752 72986
L72808 73014
L72836 73070
L72836 73380
" />
<path d="M73371 72986
L73371 73380
" />
<path d="M73118 72986
L73118 73295
L73146 73352
L73202 73380
L73286 73380
L73343 73352
L73371 73323
" />
<path d="M73652 73323
L73680 73352
L73652 73380
L73624 73352
L73652 73323
L73652 73380
" />
<path d="M74186 73380
L74186 73070
L74158 73014
L74102 72986
L73989 72986
L73933 73014
" />
<path d="M74186 73352
L74130 73380
L73989 73380
L73933 73352
L73905 73295
L73905 73239
L73933 73183
L73989 73155
L74130 73155
L74186 73127
" />
<path d="M74467 73380
L74467 72986
" />
<path d="M74467 72789
L74439 72817
L74467 72845
L74496 72817
L74467 72789
L74467 72845
" />
<path d="M74608 73436
L75058 73436
" />
<path d="M75199 73380
L75199 72986
" />
<path d="M75199 73042
L75227 73014
L75283 72986
L75367 72986
L75424 73014
L75452 73070
L75452 73380
" />
<path d="M75452 73070
L75480 73014
L75536 72986
L75620 72986
L75677 73014
L75705 73070
L75705 73380
" />
<path d="M76070 73380
L76014 73352
L75986 73323
L75958 73267
L75958 73099
L75986 73042
L76014 73014
L76070 72986
L76155 72986
L76211 73014
L76239 73042
L76267 73099
L76267 73267
L76239 73323
L76211 73352
L76155 73380
L76070 73380
" />
<path d="M76436 72986
L76661 72986
" />
<path d="M76520 72789
L76520 73295
L76548 73352
L76605 73380
L76661 73380
" />
<path d="M76942 73380
L76886 73352
L76858 73323
L76830 73267
L76830 73099
L76858 73042
L76886 73014
L76942 72986
L77027 72986
L77083 73014
L77111 73042
L77139 73099
L77139 73267
L77111 73323
L77083 73352
L77027 73380
L76942 73380
" />
<path d="M77392 73380
L77392 72986
" />
<path d="M77392 73099
L77420 73042
L77448 73014
L77505 72986
L77561 72986
" />
<path d="M77617 73436
L78067 73436
" />
<path d="M78461 73352
L78404 73380
L78292 73380
L78236 73352
L78208 73323
L78180 73267
L78180 73099
L78208 73042
L78236 73014
L78292 72986
L78404 72986
L78461 73014
" />
<path d="M78798 73380
L78742 73352
L78714 73323
L78686 73267
L78686 73099
L78714 73042
L78742 73014
L78798 72986
L78883 72986
L78939 73014
L78967 73042
L78995 73099
L78995 73267
L78967 73323
L78939 73352
L78883 73380
L78798 73380
" />
<path d="M79248 72986
L79248 73380
" />
<path d="M79248 73042
L79276 73014
L79332 72986
L79417 72986
L79473 73014
L79501 73070
L79501 73380
" />
<path d="M79698 72986
L79923 72986
" />
<path d="M79782 72789
L79782 73295
L79811 73352
L79867 73380
L79923 73380
" />
<path d="M80120 73380
L80120 72986
" />
<path d="M80120 73099
L80148 73042
L80176 73014
L80232 72986
L80289 72986
" />
<path d="M80570 73380
L80514 73352
L80485 73323
L80457 73267
L80457 73099
L80485 73042
L80514 73014
L80570 72986
L80654 72986
L80710 73014
L80739 73042
L80767 73099
L80767 73267
L80739 73323
L80710 73352
L80654 73380
L80570 73380
" />
<path d="M81104 73380
L81048 73352
L81020 73295
L81020 72789
" />
<path d="M81413 73380
L81357 73352
L81329 73295
L81329 72789
" />
<path d="M81863 73352
L81807 73380
L81695 73380
L81638 73352
L81610 73295
L81610 73070
L81638 73014
L81695 72986
L81807 72986
L81863 73014
L81892 73070
L81892 73127
L81610 73183
" />
<path d="M82145 73380
L82145 72986
" />
<path d="M82145 73099
L82173 73042
L82201 73014
L82257 72986
L82313 72986
" />
<path d="M82510 73323
L82538 73352
L82510 73380
L82482 73352
L82510 73323
L82510 73380
" />
<path d="M82791 73380
L82791 72789
" />
<path d="M82848 73155
L83016 73380
" />
<path d="M83016 72986
L82791 73211
" />
<path d="M83269 73380
L83269 72986
" />
<path d="M83269 72789
L83241 72817
L83269 72845
L83298 72817
L83269 72789
L83269 72845
" />
<path d="M83804 73352
L83748 73380
L83635 73380
L83579 73352
L83551 73323
L83523 73267
L83523 73099
L83551 73042
L83579 73014
L83635 72986
L83748 72986
L83804 73014
" />
<path d="M84310 73380
L84310 73070
L84282 73014
L84226 72986
L84113 72986
L84057 73014
" />
<path d="M84310 73352
L84254 73380
L84113 73380
L84057 73352
L84029 73295
L84029 73239
L84057 73183
L84113 73155
L84254 73155
L84310 73127
" />
<path d="M84844 73380
L84844 72789
" />
<path d="M84844 73352
L84788 73380
L84676 73380
L84619 73352
L84591 73323
L84563 73267
L84563 73099
L84591 73042
L84619 73014
L84676 72986
L84788 72986
L84844 73014
" />
<path d="M84985 73436
L85435 73436
" />
<path d="M85575 72986
L85575 73577
" />
<path d="M85575 73014
L85632 72986
L85744 72986
L85800 73014
L85829 73042
L85857 73099
L85857 73267
L85829 73323
L85800 73352
L85744 73380
L85632 73380
L85575 73352
" />
<path d="M86363 73352
L86307 73380
L86194 73380
L86138 73352
L86110 73323
L86082 73267
L86082 73099
L86110 73042
L86138 73014
L86194 72986
L86307 72986
L86363 73014
" />
<path d="M86616 73380
L86616 72789
" />
<path d="M86616 73014
L86672 72986
L86785 72986
L86841 73014
L86869 73042
L86897 73099
L86897 73267
L86869 73323
L86841 73352
L86785 73380
L86672 73380
L86616 73352
" />
</g>
<g style="fill:#000000; fill-opacity:0.0; 
stroke:#000000; stroke-width:39.3701; stroke-opacity:1; 
stroke-linecap:round; stroke-linejoin:round;">
</g>
<g style="fill:#000000; fill-opacity:0.0; 
stroke:#000000; stroke-width:59.0551; stroke-opacity:1; 
stroke-linecap:round; stroke-linejoin:round;">
<path d="M69685 71459
L112205 71459
" />
</g>
<g style="fill:#000000; fill-opacity:0.0; 
stroke:#000000; stroke-width:39.3701; stroke-opacity:1; 
stroke-linecap:round; stroke-linejoin:round;">
</g>
<g style="fill:#000000; fill-opacity:0.0; 
stroke:#000000; stroke-width:59.0551; stroke-opacity:1; 
stroke-linecap:round; stroke-linejoin:round;">
<path d="M70221 72289
L70305 72317
L70446 72317
L70502 72289
L70530 72260
L70559 72204
L70559 72148
L70530 72092
L70502 72064
L70446 72036
L70334 72007
L70277 71979
L70249 71951
L70221 71895
L70221 71839
L70249 71782
L70277 71754
L70334 71726
L70474 71726
L70559 71754
" />
<path d="M70812 72317
L70812 71726
" />
<path d="M71065 72317
L71065 72007
L71037 71951
L70980 71923
L70896 71923
L70840 71951
L70812 71979
" />
<path d="M71571 72289
L71515 72317
L71402 72317
L71346 72289
L71318 72232
L71318 72007
L71346 71951
L71402 71923
L71515 71923
L71571 71951
L71599 72007
L71599 72064
L71318 72120
" />
<path d="M72077 72289
L72021 72317
L71908 72317
L71852 72289
L71824 72232
L71824 72007
L71852 71951
L71908 71923
L72021 71923
L72077 71951
L72105 72007
L72105 72064
L71824 72120
" />
<path d="M72274 71923
L72499 71923
" />
<path d="M72358 71726
L72358 72232
L72386 72289
L72443 72317
L72499 72317
" />
<path d="M72696 72260
L72724 72289
L72696 72317
L72668 72289
L72696 72260
L72696 72317
" />
<path d="M72696 71951
L72724 71979
L72696 72007
L72668 71979
L72696 71951
L72696 72007
" />
</g>
<g style="fill:#000000; fill-opacity:0.0; 
stroke:#000000; stroke-width:39.3701; stroke-opacity:1; 
stroke-linecap:round; stroke-linejoin:round;">
</g>
<g style="fill:#000000; fill-opacity:0.0; 
stroke:#000000; stroke-width:59.0551; stroke-opacity:1; 
stroke-linecap:round; stroke-linejoin:round;">
<path d="M77559 75396
L77559 76577
" />
</g>
<g style="fill:#000000; fill-opacity:0.0; 
stroke:#000000; stroke-width:39.3701; stroke-opacity:1; 
stroke-linecap:round; stroke-linejoin:round;">
</g>
<g style="fill:#000000; fill-opacity:0.0; 
stroke:#000000; stroke-width:59.0551; stroke-opacity:1; 
stroke-linecap:round; stroke-linejoin:round;">
<path d="M102756 75396
L102756 77955
" />
</g>
<g style="fill:#008400; fill-opacity:0.0; 
stroke:#008400; stroke-width:59.0551; stroke-opacity:1; 
stroke-linecap:round; stroke-linejoin:round;">
</g>
<g style="fill:#008400; fill-opacity:0.0; 
stroke:#008400; stroke-width:0; stroke-opacity:1; 
stroke-linecap:round; stroke-linejoin:round;">
</g>
<g style="fill:#008400; fill-opacity:1.0; 
stroke:#008400; stroke-width:0; stroke-opacity:1; 
stroke-linecap:round; stroke-linejoin:round;">
<polyline style="fill-rule:evenodd;"
points="60755,24755
60764,24756
60772,24758
60780,24761
60787,24764
60795,24769
60801,24774
60808,24779
60813,24786
60818,24792
60823,24800
60826,24807
60829,24815
60831,24824
60833,24832
60833,24840
60833,25042
60833,25051
60831,25059
60829,25067
60826,25075
60823,25083
60818,25090
60813,25097
60808,25103
60801,25109
60795,25114
60787,25118
60780,25122
60772,25125
60764,25127
60755,25128
60747,25128
60575,25128
60566,25128
60558,25127
60550,25125
60542,25122
60534,25118
60527,25114
60520,25109
60514,25103
60508,25097
60503,25090
60499,25083
60495,25075
60492,25067
60490,25059
60489,25051
60488,25042
60488,24840
60489,24832
60490,24824
60492,24815
60495,24807
60499,24800
60503,24792
60508,24786
60514,24779
60520,24774
60527,24769
60534,24764
60542,24761
60550,24758
60558,24756
60566,24755
60575,24754
60747,24754
60755,24755
" /> 
<polyline style="fill-rule:evenodd;"
points="61375,24755
61384,24756
61392,24758
61400,24761
61408,24764
61415,24769
61422,24774
61428,24779
61433,24786
61439,24792
61443,24800
61446,24807
61449,24815
61451,24824
61453,24832
61453,24840
61453,25042
61453,25051
61451,25059
61449,25067
61446,25075
61443,25083
61439,25090
61433,25097
61428,25103
61422,25109
61415,25114
61408,25118
61400,25122
61392,25125
61384,25127
61375,25128
61367,25128
61195,25128
61186,25128
61178,25127
61170,25125
61162,25122
61154,25118
61147,25114
61140,25109
61134,25103
61128,25097
61123,25090
61119,25083
61115,25075
61112,25067
61110,25059
61109,25051
61109,25042
61109,24840
61109,24832
61110,24824
61112,24815
61115,24807
61119,24800
61123,24792
61128,24786
61134,24779
61140,24774
61147,24769
61154,24764
61162,24761
61170,24758
61178,24756
61186,24755
61195,24754
61367,24754
61375,24755
" /> 
<polyline style="fill-rule:evenodd;"
points="53585,23305
53594,23306
53602,23308
53610,23311
53618,23314
53625,23319
53632,23324
53638,23329
53644,23336
53649,23342
53653,23350
53657,23357
53659,23365
53661,23374
53663,23382
53663,23390
53663,23592
53663,23601
53661,23609
53659,23617
53657,23625
53653,23633
53649,23640
53644,23647
53638,23653
53632,23659
53625,23664
53618,23668
53610,23672
53602,23675
53594,23677
53585,23678
53577,23678
53405,23678
53396,23678
53388,23677
53380,23675
53372,23672
53364,23668
53357,23664
53350,23659
53344,23653
53338,23647
53333,23640
53329,23633
53325,23625
53322,23617
53320,23609
53319,23601
53319,23592
53319,23390
53319,23382
53320,23374
53322,23365
53325,23357
53329,23350
53333,23342
53338,23336
53344,23329
53350,23324
53357,23319
53364,23314
53372,23311
53380,23308
53388,23306
53396,23305
53405,23304
53577,23304
53585,23305
" /> 
<polyline style="fill-rule:evenodd;"
points="52965,23305
52974,23306
52982,23308
52990,23311
52997,23314
53005,23319
53012,23324
53018,23329
53023,23336
53028,23342
53033,23350
53036,23357
53039,23365
53041,23374
53043,23382
53043,23390
53043,23592
53043,23601
53041,23609
53039,23617
53036,23625
53033,23633
53028,23640
53023,23647
53018,23653
53012,23659
53005,23664
52997,23668
52990,23672
52982,23675
52974,23677
52965,23678
52957,23678
52785,23678
52776,23678
52768,23677
52760,23675
52752,23672
52744,23668
52737,23664
52730,23659
52724,23653
52718,23647
52713,23640
52709,23633
52705,23625
52702,23617
52700,23609
52699,23601
52699,23592
52699,23390
52699,23382
52700,23374
52702,23365
52705,23357
52709,23350
52713,23342
52718,23336
52724,23329
52730,23324
52737,23319
52744,23314
52752,23311
52760,23308
52768,23306
52776,23305
52785,23304
52957,23304
52965,23305
" /> 
<polyline style="fill-rule:evenodd;"
points="59030,26449
59038,26451
59047,26453
59055,26455
59062,26459
59069,26463
59076,26468
59083,26474
59088,26480
59093,26487
59098,26494
59101,26502
59104,26510
59106,26518
59107,26527
59108,26535
59108,26707
59107,26716
59106,26724
59104,26732
59101,26740
59098,26748
59093,26755
59088,26762
59083,26768
59076,26774
59069,26779
59062,26783
59055,26787
59047,26790
59038,26792
59030,26793
59022,26793
58820,26793
58811,26793
58803,26792
58795,26790
58787,26787
58779,26783
58772,26779
58765,26774
58759,26768
58753,26762
58748,26755
58744,26748
58740,26740
58737,26732
58735,26724
58734,26716
58734,26707
58734,26535
58734,26527
58735,26518
58737,26510
58740,26502
58744,26494
58748,26487
58753,26480
58759,26474
58765,26468
58772,26463
58779,26459
58787,26455
58795,26453
58803,26451
58811,26449
58820,26449
59022,26449
59030,26449
" /> 
<polyline style="fill-rule:evenodd;"
points="59030,27069
59038,27071
59047,27073
59055,27076
59062,27079
59069,27084
59076,27089
59083,27094
59088,27100
59093,27107
59098,27115
59101,27122
59104,27130
59106,27138
59107,27147
59108,27155
59108,27327
59107,27336
59106,27344
59104,27352
59101,27360
59098,27368
59093,27375
59088,27382
59083,27388
59076,27394
59069,27399
59062,27403
59055,27407
59047,27410
59038,27412
59030,27413
59022,27413
58820,27413
58811,27413
58803,27412
58795,27410
58787,27407
58779,27403
58772,27399
58765,27394
58759,27388
58753,27382
58748,27375
58744,27368
58740,27360
58737,27352
58735,27344
58734,27336
58734,27327
58734,27155
58734,27147
58735,27138
58737,27130
58740,27122
58744,27115
58748,27107
58753,27100
58759,27094
58765,27089
58772,27084
58779,27079
58787,27076
58795,27073
58803,27071
58811,27069
58820,27069
59022,27069
59030,27069
" /> 
<polyline style="fill-rule:evenodd;"
points="59630,24559
59638,24561
59647,24563
59655,24566
59662,24569
59669,24573
59676,24578
59683,24584
59688,24590
59693,24597
59698,24604
59701,24612
59704,24620
59706,24628
59707,24637
59708,24645
59708,24817
59707,24826
59706,24834
59704,24842
59701,24850
59698,24858
59693,24865
59688,24872
59683,24878
59676,24884
59669,24889
59662,24893
59655,24897
59647,24900
59638,24902
59630,24903
59622,24903
59420,24903
59411,24903
59403,24902
59395,24900
59387,24897
59379,24893
59372,24889
59365,24884
59359,24878
59353,24872
59348,24865
59344,24858
59340,24850
59337,24842
59335,24834
59334,24826
59334,24817
59334,24645
59334,24637
59335,24628
59337,24620
59340,24612
59344,24604
59348,24597
59353,24590
59359,24584
59365,24578
59372,24573
59379,24569
59387,24566
59395,24563
59403,24561
59411,24559
59420,24559
59622,24559
59630,24559
" /> 
<polyline style="fill-rule:evenodd;"
points="59630,25179
59638,25181
59647,25183
59655,25186
59662,25189
59669,25194
59676,25199
59683,25204
59688,25211
59693,25217
59698,25225
59701,25232
59704,25240
59706,25248
59707,25257
59708,25265
59708,25437
59707,25446
59706,25454
59704,25462
59701,25470
59698,25478
59693,25485
59688,25492
59683,25498
59676,25504
59669,25509
59662,25513
59655,25517
59647,25520
59638,25522
59630,25523
59622,25524
59420,25524
59411,25523
59403,25522
59395,25520
59387,25517
59379,25513
59372,25509
59365,25504
59359,25498
59353,25492
59348,25485
59344,25478
59340,25470
59337,25462
59335,25454
59334,25446
59334,25437
59334,25265
59334,25257
59335,25248
59337,25240
59340,25232
59344,25225
59348,25217
59353,25211
59359,25204
59365,25199
59372,25194
59379,25189
59387,25186
59395,25183
59403,25181
59411,25179
59420,25179
59622,25179
59630,25179
" /> 
<polyline style="fill-rule:evenodd;"
points="60905,27455
60914,27456
60922,27458
60930,27461
60937,27464
60945,27469
60951,27474
60958,27479
60963,27486
60968,27492
60973,27500
60976,27507
60979,27515
60981,27524
60983,27532
60983,27540
60983,27742
60983,27751
60981,27759
60979,27767
60976,27775
60973,27783
60968,27790
60963,27797
60958,27803
60951,27809
60945,27814
60937,27818
60930,27822
60922,27825
60914,27827
60905,27828
60897,27828
60725,27828
60716,27828
60708,27827
60700,27825
60692,27822
60684,27818
60677,27814
60670,27809
60664,27803
60658,27797
60653,27790
60649,27783
60645,27775
60642,27767
60640,27759
60639,27751
60638,27742
60638,27540
60639,27532
60640,27524
60642,27515
60645,27507
60649,27500
60653,27492
60658,27486
60664,27479
60670,27474
60677,27469
60684,27464
60692,27461
60700,27458
60708,27456
60716,27455
60725,27454
60897,27454
60905,27455
" /> 
<polyline style="fill-rule:evenodd;"
points="61525,27455
61534,27456
61542,27458
61550,27461
61558,27464
61565,27469
61572,27474
61578,27479
61583,27486
61589,27492
61593,27500
61596,27507
61599,27515
61601,27524
61603,27532
61603,27540
61603,27742
61603,27751
61601,27759
61599,27767
61596,27775
61593,27783
61589,27790
61583,27797
61578,27803
61572,27809
61565,27814
61558,27818
61550,27822
61542,27825
61534,27827
61525,27828
61517,27828
61345,27828
61336,27828
61328,27827
61320,27825
61312,27822
61304,27818
61297,27814
61290,27809
61284,27803
61278,27797
61273,27790
61269,27783
61265,27775
61262,27767
61260,27759
61259,27751
61259,27742
61259,27540
61259,27532
61260,27524
61262,27515
61265,27507
61269,27500
61273,27492
61278,27486
61284,27479
61290,27474
61297,27469
61304,27464
61312,27461
61320,27458
61328,27456
61336,27455
61345,27454
61517,27454
61525,27455
" /> 
<polyline style="fill-rule:evenodd;"
points="61630,26489
61638,26491
61647,26493
61655,26496
61662,26499
61669,26504
61676,26509
61683,26514
61688,26521
61693,26527
61698,26535
61701,26542
61704,26550
61706,26558
61707,26567
61708,26575
61708,26747
61707,26756
61706,26764
61704,26772
61701,26780
61698,26788
61693,26795
61688,26802
61683,26808
61676,26814
61669,26819
61662,26823
61655,26827
61647,26830
61638,26832
61630,26833
61622,26834
61420,26834
61411,26833
61403,26832
61395,26830
61387,26827
61379,26823
61372,26819
61365,26814
61359,26808
61353,26802
61348,26795
61344,26788
61340,26780
61337,26772
61335,26764
61334,26756
61334,26747
61334,26575
61334,26567
61335,26558
61337,26550
61340,26542
61344,26535
61348,26527
61353,26521
61359,26514
61365,26509
61372,26504
61379,26499
61387,26496
61395,26493
61403,26491
61411,26489
61420,26489
61622,26489
61630,26489
" /> 
<polyline style="fill-rule:evenodd;"
points="61630,25869
61638,25871
61647,25873
61655,25876
61662,25879
61669,25884
61676,25889
61683,25894
61688,25900
61693,25907
61698,25915
61701,25922
61704,25930
61706,25938
61707,25947
61708,25955
61708,26127
61707,26136
61706,26144
61704,26152
61701,26160
61698,26168
61693,26175
61688,26182
61683,26188
61676,26194
61669,26199
61662,26203
61655,26207
61647,26210
61638,26212
61630,26213
61622,26213
61420,26213
61411,26213
61403,26212
61395,26210
61387,26207
61379,26203
61372,26199
61365,26194
61359,26188
61353,26182
61348,26175
61344,26168
61340,26160
61337,26152
61335,26144
61334,26136
61334,26127
61334,25955
61334,25947
61335,25938
61337,25930
61340,25922
61344,25915
61348,25907
61353,25900
61359,25894
61365,25889
61372,25884
61379,25879
61387,25876
61395,25873
61403,25871
61411,25869
61420,25869
61622,25869
61630,25869
" /> 
<polyline style="fill-rule:evenodd;"
points="60230,26821
60238,26822
60247,26825
60255,26827
60262,26831
60269,26835
60276,26840
60283,26846
60288,26852
60293,26859
60298,26866
60301,26874
60304,26882
60306,26890
60307,26899
60308,26907
60308,27079
60307,27088
60306,27096
60304,27104
60301,27112
60298,27120
60293,27127
60288,27134
60283,27140
60276,27146
60269,27151
60262,27155
60255,27159
60247,27162
60238,27164
60230,27165
60222,27165
60020,27165
60011,27165
60003,27164
59995,27162
59987,27159
59979,27155
59972,27151
59965,27146
59959,27140
59953,27134
59948,27127
59944,27120
59940,27112
59937,27104
59935,27096
59934,27088
59934,27079
59934,26907
59934,26899
59935,26890
59937,26882
59940,26874
59944,26866
59948,26859
59953,26852
59959,26846
59965,26840
59972,26835
59979,26831
59987,26827
59995,26825
60003,26822
60011,26821
60020,26821
60222,26821
60230,26821
" /> 
<polyline style="fill-rule:evenodd;"
points="60230,26201
60238,26202
60247,26204
60255,26207
60262,26211
60269,26215
60276,26220
60283,26226
60288,26232
60293,26239
60298,26246
60301,26254
60304,26262
60306,26270
60307,26278
60308,26287
60308,26459
60307,26468
60306,26476
60304,26484
60301,26492
60298,26500
60293,26507
60288,26514
60283,26520
60276,26526
60269,26531
60262,26535
60255,26539
60247,26542
60238,26544
60230,26545
60222,26545
60020,26545
60011,26545
60003,26544
59995,26542
59987,26539
59979,26535
59972,26531
59965,26526
59959,26520
59953,26514
59948,26507
59944,26500
59940,26492
59937,26484
59935,26476
59934,26468
59934,26459
59934,26287
59934,26278
59935,26270
59937,26262
59940,26254
59944,26246
59948,26239
59953,26232
59959,26226
59965,26220
59972,26215
59979,26211
59987,26207
59995,26204
60003,26202
60011,26201
60020,26201
60222,26201
60230,26201
" /> 
<polyline style="fill-rule:evenodd;"
points="66857,23344
67133,23344
67133,23738
66857,23738
66857,23344
" /> 
<polyline style="fill-rule:evenodd;"
points="66857,24289
67133,24289
67133,24683
66857,24683
66857,24289
" /> 
<polyline style="fill-rule:evenodd;"
points="67231,24289
67507,24289
67507,24683
67231,24683
67231,24289
" /> 
<polyline style="fill-rule:evenodd;"
points="67231,23344
67507,23344
67507,23738
67231,23738
67231,23344
" /> 
<polyline style="fill-rule:evenodd;"
points="66483,24289
66759,24289
66759,24683
66483,24683
66483,24289
" /> 
<polyline style="fill-rule:evenodd;"
points="66483,23344
66759,23344
66759,23738
66483,23738
66483,23344
" /> 
<polyline style="fill-rule:evenodd;"
points="51892,25622
51902,25623
51911,25625
51920,25628
51928,25632
51936,25637
51944,25643
51951,25649
51957,25656
51963,25664
51967,25672
51971,25680
51975,25689
51977,25698
51978,25708
51979,25717
51979,26076
51978,26086
51977,26095
51975,26104
51971,26113
51967,26122
51963,26130
51957,26137
51951,26144
51944,26151
51936,26156
51928,26161
51920,26165
51911,26168
51902,26170
51892,26172
51883,26172
51691,26172
51681,26172
51672,26170
51663,26168
51654,26165
51646,26161
51638,26156
51630,26151
51623,26144
51617,26137
51611,26130
51606,26122
51602,26113
51599,26104
51597,26095
51595,26086
51595,26076
51595,25717
51595,25708
51597,25698
51599,25689
51602,25680
51606,25672
51611,25664
51617,25656
51623,25649
51630,25643
51638,25637
51646,25632
51654,25628
51663,25625
51672,25623
51681,25622
51691,25621
51883,25621
51892,25622
" /> 
<polyline style="fill-rule:evenodd;"
points="52630,25622
52640,25623
52649,25625
52658,25628
52666,25632
52674,25637
52682,25643
52689,25649
52695,25656
52701,25664
52706,25672
52710,25680
52713,25689
52715,25698
52716,25708
52717,25717
52717,26076
52716,26086
52715,26095
52713,26104
52710,26113
52706,26122
52701,26130
52695,26137
52689,26144
52682,26151
52674,26156
52666,26161
52658,26165
52649,26168
52640,26170
52630,26172
52621,26172
52429,26172
52420,26172
52410,26170
52401,26168
52392,26165
52384,26161
52376,26156
52368,26151
52361,26144
52355,26137
52349,26130
52344,26122
52340,26113
52337,26104
52335,26095
52334,26086
52333,26076
52333,25717
52334,25708
52335,25698
52337,25689
52340,25680
52344,25672
52349,25664
52355,25656
52361,25649
52368,25643
52376,25637
52384,25632
52392,25628
52401,25625
52410,25623
52420,25622
52429,25621
52621,25621
52630,25622
" /> 
<polyline style="fill-rule:evenodd;"
points="70569,27377
70096,27377
70096,27219
70569,27219
70569,27377
" /> 
<polyline style="fill-rule:evenodd;"
points="70569,27121
70096,27121
70096,26963
70569,26963
70569,27121
" /> 
<polyline style="fill-rule:evenodd;"
points="70569,26865
70096,26865
70096,26707
70569,26707
70569,26865
" /> 
<polyline style="fill-rule:evenodd;"
points="70569,26609
70096,26609
70096,26452
70569,26452
70569,26609
" /> 
<polyline style="fill-rule:evenodd;"
points="70569,26353
70096,26353
70096,26196
70569,26196
70569,26353
" /> 
<polyline style="fill-rule:evenodd;"
points="59630,26209
59638,26211
59647,26213
59655,26216
59662,26219
59669,26223
59676,26228
59683,26234
59688,26240
59693,26247
59698,26254
59701,26262
59704,26270
59706,26278
59707,26287
59708,26295
59708,26467
59707,26476
59706,26484
59704,26492
59701,26500
59698,26508
59693,26515
59688,26522
59683,26528
59676,26534
59669,26539
59662,26543
59655,26547
59647,26550
59638,26552
59630,26553
59622,26553
59420,26553
59411,26553
59403,26552
59395,26550
59387,26547
59379,26543
59372,26539
59365,26534
59359,26528
59353,26522
59348,26515
59344,26508
59340,26500
59337,26492
59335,26484
59334,26476
59334,26467
59334,26295
59334,26287
59335,26278
59337,26270
59340,26262
59344,26254
59348,26247
59353,26240
59359,26234
59365,26228
59372,26223
59379,26219
59387,26216
59395,26213
59403,26211
59411,26209
59420,26209
59622,26209
59630,26209
" /> 
<polyline style="fill-rule:evenodd;"
points="59630,26829
59638,26831
59647,26833
59655,26836
59662,26839
59669,26844
59676,26849
59683,26854
59688,26861
59693,26867
59698,26875
59701,26882
59704,26890
59706,26898
59707,26907
59708,26915
59708,27087
59707,27096
59706,27104
59704,27112
59701,27120
59698,27128
59693,27135
59688,27142
59683,27148
59676,27154
59669,27159
59662,27163
59655,27167
59647,27170
59638,27172
59630,27173
59622,27174
59420,27174
59411,27173
59403,27172
59395,27170
59387,27167
59379,27163
59372,27159
59365,27154
59359,27148
59353,27142
59348,27135
59344,27128
59340,27120
59337,27112
59335,27104
59334,27096
59334,27087
59334,26915
59334,26907
59335,26898
59337,26890
59340,26882
59344,26875
59348,26867
59353,26861
59359,26854
59365,26849
59372,26844
59379,26839
59387,26836
59395,26833
59403,26831
59411,26829
59420,26829
59622,26829
59630,26829
" /> 
<polyline style="fill-rule:evenodd;"
points="66480,25579
66488,25581
66497,25583
66505,25586
66512,25589
66519,25594
66526,25599
66533,25604
66538,25611
66543,25617
66548,25625
66551,25632
66554,25640
66556,25648
66557,25657
66558,25665
66558,25837
66557,25846
66556,25854
66554,25862
66551,25870
66548,25878
66543,25885
66538,25892
66533,25898
66526,25904
66519,25909
66512,25913
66505,25917
66497,25920
66488,25922
66480,25923
66472,25924
66270,25924
66261,25923
66253,25922
66245,25920
66237,25917
66229,25913
66222,25909
66215,25904
66209,25898
66203,25892
66198,25885
66194,25878
66190,25870
66187,25862
66185,25854
66184,25846
66184,25837
66184,25665
66184,25657
66185,25648
66187,25640
66190,25632
66194,25625
66198,25617
66203,25611
66209,25604
66215,25599
66222,25594
66229,25589
66237,25586
66245,25583
66253,25581
66261,25579
66270,25579
66472,25579
66480,25579
" /> 
<polyline style="fill-rule:evenodd;"
points="66480,24959
66488,24961
66497,24963
66505,24966
66512,24969
66519,24973
66526,24978
66533,24984
66538,24990
66543,24997
66548,25004
66551,25012
66554,25020
66556,25028
66557,25037
66558,25045
66558,25217
66557,25226
66556,25234
66554,25242
66551,25250
66548,25258
66543,25265
66538,25272
66533,25278
66526,25284
66519,25289
66512,25293
66505,25297
66497,25300
66488,25302
66480,25303
66472,25303
66270,25303
66261,25303
66253,25302
66245,25300
66237,25297
66229,25293
66222,25289
66215,25284
66209,25278
66203,25272
66198,25265
66194,25258
66190,25250
66187,25242
66185,25234
66184,25226
66184,25217
66184,25045
66184,25037
66185,25028
66187,25020
66190,25012
66194,25004
66198,24997
66203,24990
66209,24984
66215,24978
66222,24973
66229,24969
66237,24966
66245,24963
66253,24961
66261,24959
66270,24959
66472,24959
66480,24959
" /> 
<polyline style="fill-rule:evenodd;"
points="67780,24959
67788,24961
67797,24963
67805,24966
67812,24969
67819,24973
67826,24978
67833,24984
67838,24990
67843,24997
67848,25004
67851,25012
67854,25020
67856,25028
67857,25037
67858,25045
67858,25217
67857,25226
67856,25234
67854,25242
67851,25250
67848,25258
67843,25265
67838,25272
67833,25278
67826,25284
67819,25289
67812,25293
67805,25297
67797,25300
67788,25302
67780,25303
67772,25303
67570,25303
67561,25303
67553,25302
67545,25300
67537,25297
67529,25293
67522,25289
67515,25284
67509,25278
67503,25272
67498,25265
67494,25258
67490,25250
67487,25242
67485,25234
67484,25226
67484,25217
67484,25045
67484,25037
67485,25028
67487,25020
67490,25012
67494,25004
67498,24997
67503,24990
67509,24984
67515,24978
67522,24973
67529,24969
67537,24966
67545,24963
67553,24961
67561,24959
67570,24959
67772,24959
67780,24959
" /> 
<polyline style="fill-rule:evenodd;"
points="67780,25579
67788,25581
67797,25583
67805,25586
67812,25589
67819,25594
67826,25599
67833,25604
67838,25611
67843,25617
67848,25625
67851,25632
67854,25640
67856,25648
67857,25657
67858,25665
67858,25837
67857,25846
67856,25854
67854,25862
67851,25870
67848,25878
67843,25885
67838,25892
67833,25898
67826,25904
67819,25909
67812,25913
67805,25917
67797,25920
67788,25922
67780,25923
67772,25924
67570,25924
67561,25923
67553,25922
67545,25920
67537,25917
67529,25913
67522,25909
67515,25904
67509,25898
67503,25892
67498,25885
67494,25878
67490,25870
67487,25862
67485,25854
67484,25846
67484,25837
67484,25665
67484,25657
67485,25648
67487,25640
67490,25632
67494,25625
67498,25617
67503,25611
67509,25604
67515,25599
67522,25594
67529,25589
67537,25586
67545,25583
67553,25581
67561,25579
67570,25579
67772,25579
67780,25579
" /> 
<polyline style="fill-rule:evenodd;"
points="63380,21229
63388,21231
63397,21233
63405,21236
63412,21239
63419,21244
63426,21249
63433,21254
63438,21261
63443,21267
63448,21275
63451,21282
63454,21290
63456,21298
63457,21307
63458,21315
63458,21487
63457,21496
63456,21504
63454,21512
63451,21520
63448,21528
63443,21535
63438,21542
63433,21548
63426,21554
63419,21559
63412,21563
63405,21567
63397,21570
63388,21572
63380,21573
63372,21574
63170,21574
63161,21573
63153,21572
63145,21570
63137,21567
63129,21563
63122,21559
63115,21554
63109,21548
63103,21542
63098,21535
63094,21528
63090,21520
63087,21512
63085,21504
63084,21496
63084,21487
63084,21315
63084,21307
63085,21298
63087,21290
63090,21282
63094,21275
63098,21267
63103,21261
63109,21254
63115,21249
63122,21244
63129,21239
63137,21236
63145,21233
63153,21231
63161,21229
63170,21229
63372,21229
63380,21229
" /> 
<polyline style="fill-rule:evenodd;"
points="63380,20609
63388,20611
63397,20613
63405,20616
63412,20619
63419,20623
63426,20628
63433,20634
63438,20640
63443,20647
63448,20654
63451,20662
63454,20670
63456,20678
63457,20687
63458,20695
63458,20867
63457,20876
63456,20884
63454,20892
63451,20900
63448,20908
63443,20915
63438,20922
63433,20928
63426,20934
63419,20939
63412,20943
63405,20947
63397,20950
63388,20952
63380,20953
63372,20953
63170,20953
63161,20953
63153,20952
63145,20950
63137,20947
63129,20943
63122,20939
63115,20934
63109,20928
63103,20922
63098,20915
63094,20908
63090,20900
63087,20892
63085,20884
63084,20876
63084,20867
63084,20695
63084,20687
63085,20678
63087,20670
63090,20662
63094,20654
63098,20647
63103,20640
63109,20634
63115,20628
63122,20623
63129,20619
63137,20616
63145,20613
63153,20611
63161,20609
63170,20609
63372,20609
63380,20609
" /> 
<polyline style="fill-rule:evenodd;"
points="67130,25579
67138,25581
67147,25583
67155,25586
67162,25589
67169,25594
67176,25599
67183,25604
67188,25611
67193,25617
67198,25625
67201,25632
67204,25640
67206,25648
67207,25657
67208,25665
67208,25837
67207,25846
67206,25854
67204,25862
67201,25870
67198,25878
67193,25885
67188,25892
67183,25898
67176,25904
67169,25909
67162,25913
67155,25917
67147,25920
67138,25922
67130,25923
67122,25924
66920,25924
66911,25923
66903,25922
66895,25920
66887,25917
66879,25913
66872,25909
66865,25904
66859,25898
66853,25892
66848,25885
66844,25878
66840,25870
66837,25862
66835,25854
66834,25846
66834,25837
66834,25665
66834,25657
66835,25648
66837,25640
66840,25632
66844,25625
66848,25617
66853,25611
66859,25604
66865,25599
66872,25594
66879,25589
66887,25586
66895,25583
66903,25581
66911,25579
66920,25579
67122,25579
67130,25579
" /> 
<polyline style="fill-rule:evenodd;"
points="67130,24959
67138,24961
67147,24963
67155,24966
67162,24969
67169,24973
67176,24978
67183,24984
67188,24990
67193,24997
67198,25004
67201,25012
67204,25020
67206,25028
67207,25037
67208,25045
67208,25217
67207,25226
67206,25234
67204,25242
67201,25250
67198,25258
67193,25265
67188,25272
67183,25278
67176,25284
67169,25289
67162,25293
67155,25297
67147,25300
67138,25302
67130,25303
67122,25303
66920,25303
66911,25303
66903,25302
66895,25300
66887,25297
66879,25293
66872,25289
66865,25284
66859,25278
66853,25272
66848,25265
66844,25258
66840,25250
66837,25242
66835,25234
66834,25226
66834,25217
66834,25045
66834,25037
66835,25028
66837,25020
66840,25012
66844,25004
66848,24997
66853,24990
66859,24984
66865,24978
66872,24973
66879,24969
66887,24966
66895,24963
66903,24961
66911,24959
66920,24959
67122,24959
67130,24959
" /> 
<polyline style="fill-rule:evenodd;"
points="51946,23235
51946,22999
52419,22999
52419,23235
51946,23235
" /> 
<polyline style="fill-rule:evenodd;"
points="51946,23609
51946,23373
52419,23373
52419,23609
51946,23609
" /> 
<polyline style="fill-rule:evenodd;"
points="51946,23983
51946,23747
52419,23747
52419,23983
51946,23983
" /> 
<polyline style="fill-rule:evenodd;"
points="50923,23235
50923,22999
51395,22999
51395,23235
50923,23235
" /> 
<polyline style="fill-rule:evenodd;"
points="50923,23609
50923,23373
51395,23373
51395,23609
50923,23609
" /> 
<polyline style="fill-rule:evenodd;"
points="50923,23983
50923,23747
51395,23747
51395,23983
50923,23983
" /> 
<polyline style="fill-rule:evenodd;"
points="69290,26853
69290,27129
68896,27129
68896,26853
69290,26853
" /> 
<polyline style="fill-rule:evenodd;"
points="68345,26853
68345,27129
67951,27129
67951,26853
68345,26853
" /> 
<polyline style="fill-rule:evenodd;"
points="68345,27227
68345,27503
67951,27503
67951,27227
68345,27227
" /> 
<polyline style="fill-rule:evenodd;"
points="69290,27227
69290,27503
68896,27503
68896,27227
69290,27227
" /> 
<polyline style="fill-rule:evenodd;"
points="68345,26479
68345,26755
67951,26755
67951,26479
68345,26479
" /> 
<polyline style="fill-rule:evenodd;"
points="69290,26479
69290,26755
68896,26755
68896,26479
69290,26479
" /> 
</g>
<g style="fill:#000000; fill-opacity:1.0; 
stroke:#000000; stroke-width:0; stroke-opacity:1; 
stroke-linecap:round; stroke-linejoin:round;">
</g>
<g style="fill:#C2C200; fill-opacity:1.0; 
stroke:#C2C200; stroke-width:0; stroke-opacity:1; 
stroke-linecap:round; stroke-linejoin:round;">
</g>
<g style="fill:#C2C200; fill-opacity:1.0; 
stroke:#C2C200; stroke-width:59.0551; stroke-opacity:1; 
stroke-linecap:round; stroke-linejoin:round;">
</g>
<g style="fill:#C2C200; fill-opacity:0.0; 
stroke:#C2C200; stroke-width:59.0551; stroke-opacity:1; 
stroke-linecap:round; stroke-linejoin:round;">
<path d="M72035 53110
L29515 53110
" />
<path d="M72035 16889
L72035 53110
" />
<path d="M29515 16889
L72035 16889
" />
<path d="M29515 53110
L29515 16889
" />
</g> 
</svg>
