M48
;DRILL file {KiCad 5.0.1} date Fri Mar 15 16:12:36 2019
;FORMAT={-:-/ absolute / inch / decimal}
FMAT,2
INCH,TZ
T1C0.0157
T2C0.0197
T3C0.0315
T4C0.0394
T5C0.0433
T6C0.0787
T7C0.1181
T8C0.1378
T9C0.1693
%
G90
G05
M72
T1
X3.4546Y-3.0392
X3.4546Y-3.0942
X3.4546Y-3.1492
X3.4546Y-3.2042
X3.4546Y-3.2592
X3.4546Y-3.3142
X3.4546Y-3.3692
X3.5096Y-3.0392
X3.5096Y-3.1492
X3.5096Y-3.2592
X3.5096Y-3.3692
X3.8721Y-1.8842
X3.8721Y-5.1142
X3.9121Y-4.2942
X3.9121Y-4.3342
X3.9421Y-4.0742
X3.9621Y-4.4142
X3.9821Y-4.0742
X4.0136Y-4.2947
X4.0136Y-4.3347
X4.0471Y-4.1842
X4.0721Y-4.1292
X4.1121Y-3.0342
X4.1971Y-3.9342
X4.1971Y-3.9942
X4.2021Y-1.8842
X4.2021Y-5.1142
X4.2421Y-4.0992
X4.2921Y-4.1242
X4.2921Y-4.1842
X4.3521Y-4.1242
X4.3521Y-4.1842
X4.3671Y-3.8292
X4.3671Y-3.8942
X4.3721Y-4.3442
X4.3721Y-4.3842
X4.4148Y-2.3876
X4.4321Y-4.4642
X4.4643Y-2.824
X4.4921Y-4.4642
X4.4948Y-2.3376
X4.4971Y-3.7692
X4.5348Y-2.3376
X4.5471Y-3.7692
X4.5521Y-4.3442
X4.5521Y-4.3842
X4.5971Y-3.7692
X4.6471Y-3.7692
X4.6571Y-4.0942
X4.6571Y-4.2742
X4.6671Y-2.6092
X4.6871Y-4.1842
X4.7171Y-4.2692
X4.7421Y-4.1842
X4.7648Y-2.3576
X4.7648Y-2.3976
X4.7971Y-4.5992
X4.8171Y-2.6642
X4.8371Y-3.0542
X4.8521Y-4.5392
X4.9071Y-2.6942
X4.9071Y-3.0542
X4.9071Y-4.0692
X4.9071Y-4.5992
X4.9171Y-2.4142
X4.9271Y-2.3242
X4.9271Y-4.5392
X4.9371Y-2.9692
X4.9421Y-1.8542
X4.9621Y-4.1542
X4.9771Y-3.0542
X4.9971Y-2.6642
X5.0421Y-4.1142
X5.0421Y-4.1842
X5.0421Y-4.2542
X5.0521Y-1.7542
X5.0521Y-1.9542
X5.0571Y-2.3292
X5.0571Y-2.3692
X5.0642Y-4.3441
X5.0771Y-3.7142
X5.0842Y-4.6841
X5.1042Y-4.3441
X5.1272Y-2.5911
X5.1348Y-4.5644
X5.1348Y-4.6044
X5.1596Y-4.1492
X5.199Y-4.191
X5.214Y-4.44
X5.2771Y-2.2992
X5.288Y-4.688
X5.3072Y-2.5911
X5.3171Y-2.2992
X5.344Y-5.008
X5.3971Y-2.3492
X5.404Y-4.686
X5.424Y-4.28
X5.4471Y-4.0842
X5.4571Y-2.9042
X5.4671Y-4.8642
X5.4672Y-2.5911
X5.568Y-4.664
X5.5771Y-2.7942
X5.596Y-4.8992
X5.5971Y-4.4292
X5.6171Y-2.7492
X5.618Y-4.084
X5.6505Y-2.7042
X5.6616Y-4.4283
X5.6712Y-3.9748
X5.6816Y-4.3183
X5.6921Y-2.4142
X5.6948Y-2.6569
X5.702Y-2.598
X5.71Y-2.526
X5.72Y-4.978
X5.7221Y-3.3492
X5.7271Y-4.4242
X5.736Y-2.478
X5.7371Y-2.8842
X5.7421Y-2.9442
X5.7471Y-2.5756
X5.7521Y-2.4192
X5.7546Y-2.7286
X5.8Y-4.815
X5.8121Y-2.9692
X5.8171Y-3.1692
X5.8421Y-2.1792
X5.8521Y-4.8142
X5.8602Y-3.1273
X5.8673Y-2.7742
X5.8821Y-2.4842
X5.8921Y-2.6142
X5.905Y-4.815
X5.9121Y-2.7742
X5.9121Y-2.8942
X5.9471Y-2.7542
X5.9571Y-4.8142
X5.982Y-4.38
X5.9821Y-2.1092
X5.9971Y-2.4742
X6.01Y-4.815
X6.0121Y-2.7442
X6.026Y-4.278
X6.0371Y-2.7692
X6.0376Y-4.4783
X6.0621Y-4.8142
X6.0671Y-2.5392
X6.0671Y-3.1242
X6.0721Y-2.4392
X6.0721Y-2.9292
X6.1121Y-2.5542
X6.1216Y-4.0783
X6.1271Y-2.4442
X6.14Y-4.38
X6.1521Y-2.7142
X6.154Y-4.334
X6.1571Y-2.2842
X6.1671Y-2.2442
X6.1771Y-2.1792
X6.1821Y-2.9692
X6.1871Y-2.8892
X6.1921Y-2.7642
X6.194Y-4.42
X6.1971Y-2.5192
X6.1971Y-2.5642
X6.1971Y-2.6642
X6.2021Y-2.6042
X6.2216Y-4.0783
X6.2281Y-3.739
X6.2381Y-3.939
X6.2621Y-2.3592
X6.2671Y-2.0642
X6.2921Y-2.0192
X6.3071Y-2.2942
X6.3371Y-2.4892
X6.3421Y-2.8292
X6.345Y-2.4476
X6.4021Y-2.8292
X6.4121Y-2.0342
X6.4221Y-2.2242
X6.4221Y-2.5242
X6.449Y-2.674
X6.452Y-2.718
X6.5521Y-2.4942
X6.5721Y-2.5642
X6.5871Y-2.6292
X6.6081Y-3.574
X6.626Y-2.6231
X6.6971Y-2.3042
X6.7271Y-2.6192
X6.8121Y-2.6092
X6.8121Y-3.1592
X6.8371Y-2.4992
X6.8371Y-2.5592
X6.8621Y-2.7042
X6.9821Y-2.6242
T2
X6.8021Y-4.4592
X6.549Y-2.793
X6.8021Y-4.5592
X4.9571Y-3.8092
X3.6721Y-3.7892
X3.6721Y-3.9092
X3.9521Y-3.7892
X3.9521Y-3.9092
X5.486Y-4.202
X4.1521Y-2.9292
X5.3621Y-3.7042
X5.536Y-4.598
X6.8021Y-4.7442
X5.348Y-4.606
X4.2171Y-3.1392
X3.4896Y-3.4517
X6.5971Y-3.7292
X4.2771Y-4.3592
X6.5271Y-3.9492
X4.8171Y-3.7292
X4.0371Y-2.9292
X4.7071Y-4.0092
X6.8021Y-4.2592
X5.1271Y-3.1492
X4.1621Y-4.0642
X6.8021Y-4.3592
X4.1521Y-3.8142
T3
X5.3021Y-3.0142
X5.3809Y-3.0142
X4.2321Y-3.7042
X4.3109Y-3.7042
T4
X7.0521Y-4.8592
X7.0521Y-5.056
X6.1221Y-3.5242
X6.1221Y-3.6242
X6.1221Y-3.7242
X6.3671Y-4.8642
X5.8071Y-3.2642
X5.8071Y-3.3642
X5.9071Y-3.2642
X5.9071Y-3.3642
X6.0071Y-3.2642
X6.0071Y-3.3642
X6.1071Y-3.2642
X6.1071Y-3.3642
X6.2071Y-3.2642
X6.2071Y-3.3642
X4.4121Y-2.2942
X4.0821Y-4.5042
X4.9021Y-3.4742
X5.0021Y-3.4742
X5.1021Y-3.4742
X5.2321Y-1.7642
X5.2321Y-1.9413
X5.488Y-1.7642
X5.488Y-1.9413
X6.4292Y-1.7656
X6.4292Y-1.9428
X6.6851Y-1.7656
X6.6851Y-1.9428
X3.2921Y-3.0142
X3.2921Y-3.1142
X3.2921Y-3.2142
X3.2921Y-3.3142
X6.1371Y-5.0942
X5.4471Y-2.4492
X5.8116Y-3.5283
X5.8116Y-3.6283
X5.8116Y-3.7283
X5.8116Y-3.8283
X5.8116Y-3.9283
X5.8116Y-4.0283
X5.8116Y-4.1283
X5.8116Y-4.2283
X5.8116Y-4.3283
X5.8116Y-4.4283
X5.8116Y-4.5283
X5.8116Y-4.6283
X5.9116Y-3.5283
X5.9116Y-3.6283
X5.9116Y-3.7283
X5.9116Y-3.8283
X5.9116Y-3.9283
X5.9116Y-4.0283
X5.9116Y-4.1283
X5.9116Y-4.2283
X5.9116Y-4.3283
X5.9116Y-4.4283
X5.9116Y-4.5283
X5.9116Y-4.6283
X7.0221Y-4.2592
X7.0221Y-4.3592
X7.0221Y-4.4592
X7.0221Y-4.5592
X5.9262Y-1.7642
X5.9262Y-1.9413
X6.1821Y-1.7642
X6.1821Y-1.9413
X3.8421Y-4.5042
X3.2921Y-3.6642
X3.2921Y-3.7642
X3.2921Y-3.8642
X3.2921Y-3.9642
X5.4471Y-2.2492
X4.3743Y-3.304
X4.6743Y-3.304
X4.3071Y-2.4692
T5
X3.7121Y-3.2042
X3.8121Y-3.2042
X3.9121Y-3.2042
T6
X3.3846Y-4.2484
X3.3846Y-4.7799
X3.3846Y-2.1984
X3.3846Y-2.7299
X7.0283Y-3.3584
X7.0283Y-3.8899
T7
X3.6209Y-4.3724
X3.6209Y-4.6559
X3.6209Y-2.3224
X3.6209Y-2.6059
X6.7921Y-3.4824
X6.7921Y-3.7659
T8
X3.8121Y-3.8601
T9
X7.0121Y-3.0842
X4.5264Y-1.8858
X3.5421Y-1.8858
X4.5264Y-5.1142
X3.5421Y-5.1142
T3
X7.0392Y-2.5842G85X7.0392Y-2.5763
G05
X7.0392Y-2.781G85X7.0392Y-2.7732
G05
X7.1435Y-2.5172G85X7.1632Y-2.5172
G05
X7.1435Y-2.8401G85X7.1632Y-2.8401
G05
T0
M30
